M48
;GenerationSoftware,Autodesk,EAGLE,9.4.2*%
;CreationDate,2020-05-01T17:43:19Z*%
FMAT,2
ICI,OFF
METRIC,TZ,000.000
T6C0.350
T5C0.700
T4C1.000
T3C1.100
T2C1.549
T1C3.500
%
G90
M71
T1
X60960Y3810
X60960Y76200
X3810Y76200
T2
X3708Y68707
X23622Y68707
X41935Y68580
X61849Y68580
T3
X55187Y74168
X53487Y74168
X51787Y74168
X50087Y74168
X48387Y74168
X17087Y74041
X15387Y74041
X13687Y74041
X11987Y74041
X10287Y74041
T4
X12827Y44958
X15367Y44958
X17907Y44958
X20447Y44958
X44196Y39751
X44196Y42291
X44196Y44831
X46736Y39751
X49276Y39751
X51816Y39751
X54356Y39751
X56896Y39751
X59436Y39751
X61976Y39751
X46736Y42291
X49276Y42291
X51816Y42291
X54356Y42291
X56896Y42291
X59436Y42291
X61976Y42291
X46736Y44831
X49276Y44831
X51816Y44831
X54356Y44831
X56896Y44831
X59436Y44831
X17780Y16764
X61976Y44831
X61849Y19685
X61849Y17145
X61849Y14605
X59309Y19685
X56769Y19685
X54229Y19685
X51689Y19685
X49149Y19685
X46609Y19685
X44069Y19685
X59309Y17145
X56769Y17145
X54229Y17145
X51689Y17145
X49149Y17145
X46609Y17145
X44069Y17145
X59309Y14605
X56769Y14605
X54229Y14605
X51689Y14605
X49149Y14605
X44069Y14605
X1968Y4572
X4509Y4572
X7048Y4572
X9589Y4572
X12128Y4572
X14668Y4572
X17209Y4572
X19749Y4572
X19749Y7112
X17209Y7112
X14668Y7112
X12128Y7112
X9589Y7112
X7048Y7112
X4509Y7112
X1968Y7112
X29781Y51244
X34782Y51244
X34798Y64770
X29798Y64770
X47752Y9017
X50292Y9017
X52832Y9017
X55372Y9017
X57912Y9017
X60452Y9017
X31242Y74359
X33782Y74359
X12827Y62484
X12827Y51044
X51689Y62357
X51689Y50917
X20320Y19304
X20320Y16764
X20320Y14224
X17780Y19304
X15240Y19304
X12700Y19304
X10160Y19304
X7620Y19304
X5080Y19304
X2540Y19304
X46609Y14605
X15240Y16764
X12700Y16764
X10160Y16764
X7620Y16764
X5080Y16764
X2540Y16764
X17780Y14224
X15240Y14224
X12700Y14224
X10160Y14224
X7620Y14224
X5080Y14224
X2540Y14224
X2667Y39878
X2667Y42418
X2667Y44958
X5207Y39878
X7747Y39878
X10287Y39878
X12827Y39878
X15367Y39878
X17907Y39878
X20447Y39878
X5207Y42418
X7747Y42418
X10287Y42418
X12827Y42418
X15367Y42418
X17907Y42418
X20447Y42418
X5207Y44958
X7747Y44958
X10287Y44958
T5
X24130Y74041
X41688Y74168
X43688Y74168
X22130Y74041
T6
X59690Y35560
X6096Y34036
X5207Y23622
X38100Y27368
X34544Y24955
X30988Y22542
X34036Y30670
X42799Y2794
X24066Y28448
X19241Y28384
X26606Y1968
X29845Y7239
X29845Y9017
X29845Y10795
X33274Y5715
X33147Y12446
X36576Y10922
X36703Y9017
X36703Y7112
X38608Y1524
X33338Y42228
X30289Y38291
X29781Y35243
X14986Y25019
X49530Y34036
X35814Y28892
X35814Y26225
X34036Y32321
X28829Y27368
X31877Y30416
X46482Y2159
X44196Y7112
X9271Y30988
X56197Y28384
X38037Y21082
X56896Y30988
X26162Y6604
X54610Y5080
X26162Y5207
X57150Y5080
X38545Y11811
X46863Y6032
X27940Y28511
X45593Y28638
X28829Y8064
X29972Y30353
X45593Y29845
X22606Y29400
X26987Y15367
X31496Y5651
X29464Y20828
X10605Y30988
X38799Y13017
X55880Y23495
X30924Y23812
X39434Y42228
X30543Y24955
X35560Y15684
X41021Y20257
X36703Y21019
X33465Y16447
X21146Y5842
X27813Y17145
X29591Y1460
X37211Y14478
X28384Y2286
X21781Y11303
X25590Y14224
X25590Y15494
X7874Y28321
X23177Y38799
X27495Y37021
X58801Y24638
X29527Y3048
M30