G04 EAGLE Gerber RS-274X export*
G75*
%MOMM*%
%FSLAX34Y34*%
%LPD*%
%INEAGLE Copper Layer 15*%
%IPPOS*%
%AMOC8*
5,1,8,0,0,1.08239X$1,22.5*%
G01*
%ADD10C,0.980000*%
%ADD11C,1.400000*%
%ADD12C,2.169163*%
%ADD13C,1.540000*%
%ADD14C,0.756400*%

G36*
X290442Y10732D02*
X290442Y10732D01*
X290512Y10743D01*
X290583Y10745D01*
X290633Y10763D01*
X290685Y10772D01*
X290748Y10805D01*
X290814Y10829D01*
X290856Y10863D01*
X290902Y10887D01*
X290951Y10939D01*
X291006Y10983D01*
X291035Y11028D01*
X291071Y11066D01*
X291101Y11130D01*
X291139Y11190D01*
X291152Y11241D01*
X291174Y11289D01*
X291182Y11360D01*
X291199Y11429D01*
X291195Y11481D01*
X291201Y11534D01*
X291186Y11603D01*
X291180Y11674D01*
X291160Y11722D01*
X291148Y11774D01*
X291112Y11835D01*
X291084Y11900D01*
X291038Y11957D01*
X291022Y11985D01*
X291004Y12000D01*
X290979Y12031D01*
X290603Y12407D01*
X290603Y16803D01*
X293712Y19912D01*
X298108Y19912D01*
X301217Y16803D01*
X301217Y12407D01*
X300862Y12053D01*
X300820Y11994D01*
X300770Y11941D01*
X300749Y11895D01*
X300719Y11853D01*
X300698Y11784D01*
X300667Y11718D01*
X300662Y11667D01*
X300647Y11618D01*
X300648Y11545D01*
X300641Y11473D01*
X300652Y11423D01*
X300653Y11372D01*
X300678Y11304D01*
X300693Y11233D01*
X300720Y11189D01*
X300737Y11141D01*
X300783Y11084D01*
X300820Y11022D01*
X300859Y10989D01*
X300891Y10949D01*
X300952Y10910D01*
X301007Y10863D01*
X301055Y10844D01*
X301098Y10816D01*
X301168Y10798D01*
X301235Y10771D01*
X301305Y10764D01*
X301336Y10756D01*
X301360Y10758D01*
X301402Y10753D01*
X381069Y10910D01*
X381139Y10921D01*
X381210Y10923D01*
X381260Y10941D01*
X381312Y10950D01*
X381375Y10983D01*
X381441Y11008D01*
X381482Y11041D01*
X381529Y11065D01*
X381578Y11117D01*
X381633Y11161D01*
X381662Y11206D01*
X381698Y11244D01*
X381728Y11308D01*
X381766Y11368D01*
X381779Y11419D01*
X381801Y11467D01*
X381809Y11538D01*
X381826Y11607D01*
X381822Y11659D01*
X381828Y11712D01*
X381813Y11781D01*
X381807Y11852D01*
X381786Y11900D01*
X381775Y11952D01*
X381739Y12013D01*
X381711Y12078D01*
X381665Y12135D01*
X381649Y12163D01*
X381631Y12178D01*
X381606Y12209D01*
X380773Y13042D01*
X380773Y17438D01*
X383882Y20547D01*
X388278Y20547D01*
X391387Y17438D01*
X391387Y13042D01*
X390574Y12229D01*
X390531Y12170D01*
X390482Y12117D01*
X390460Y12071D01*
X390430Y12029D01*
X390409Y11960D01*
X390379Y11894D01*
X390373Y11843D01*
X390358Y11794D01*
X390360Y11722D01*
X390352Y11650D01*
X390363Y11600D01*
X390364Y11548D01*
X390389Y11480D01*
X390405Y11409D01*
X390431Y11365D01*
X390449Y11317D01*
X390494Y11261D01*
X390531Y11199D01*
X390570Y11165D01*
X390602Y11125D01*
X390663Y11086D01*
X390718Y11039D01*
X390766Y11020D01*
X390809Y10992D01*
X390880Y10974D01*
X390947Y10948D01*
X391017Y10940D01*
X391048Y10932D01*
X391072Y10934D01*
X391114Y10929D01*
X597796Y11336D01*
X597843Y11343D01*
X597890Y11342D01*
X597964Y11363D01*
X598039Y11376D01*
X598081Y11398D01*
X598126Y11411D01*
X598189Y11455D01*
X598256Y11491D01*
X598289Y11526D01*
X598327Y11553D01*
X598373Y11614D01*
X598425Y11670D01*
X598445Y11713D01*
X598473Y11751D01*
X598496Y11824D01*
X598528Y11893D01*
X598534Y11940D01*
X598548Y11985D01*
X598547Y12062D01*
X598555Y12138D01*
X598545Y12184D01*
X598544Y12231D01*
X598519Y12303D01*
X598502Y12378D01*
X598478Y12419D01*
X598462Y12463D01*
X598415Y12523D01*
X598376Y12589D01*
X598340Y12619D01*
X598311Y12657D01*
X598205Y12735D01*
X598189Y12748D01*
X598183Y12751D01*
X598176Y12756D01*
X592616Y15966D01*
X587466Y21116D01*
X583824Y27423D01*
X581939Y34458D01*
X581939Y41742D01*
X583824Y48777D01*
X587466Y55084D01*
X592616Y60234D01*
X598923Y63876D01*
X605958Y65761D01*
X613242Y65761D01*
X620277Y63876D01*
X626584Y60234D01*
X631734Y55084D01*
X634649Y50036D01*
X634679Y49999D01*
X634702Y49956D01*
X634756Y49904D01*
X634805Y49845D01*
X634845Y49820D01*
X634880Y49787D01*
X634949Y49755D01*
X635013Y49715D01*
X635060Y49703D01*
X635103Y49683D01*
X635178Y49675D01*
X635252Y49657D01*
X635300Y49661D01*
X635347Y49656D01*
X635422Y49672D01*
X635497Y49679D01*
X635541Y49698D01*
X635588Y49708D01*
X635653Y49747D01*
X635722Y49778D01*
X635758Y49810D01*
X635799Y49835D01*
X635848Y49892D01*
X635904Y49943D01*
X635928Y49985D01*
X635959Y50021D01*
X635987Y50092D01*
X636024Y50158D01*
X636033Y50205D01*
X636051Y50250D01*
X636065Y50378D01*
X636069Y50400D01*
X636068Y50406D01*
X636069Y50416D01*
X636069Y749684D01*
X636062Y749731D01*
X636063Y749779D01*
X636042Y749852D01*
X636030Y749926D01*
X636007Y749969D01*
X635993Y750015D01*
X635950Y750077D01*
X635914Y750144D01*
X635880Y750177D01*
X635852Y750216D01*
X635791Y750261D01*
X635736Y750313D01*
X635693Y750333D01*
X635654Y750362D01*
X635582Y750385D01*
X635513Y750417D01*
X635465Y750422D01*
X635420Y750437D01*
X635344Y750436D01*
X635269Y750444D01*
X635222Y750434D01*
X635174Y750433D01*
X635102Y750408D01*
X635028Y750392D01*
X634987Y750367D01*
X634942Y750351D01*
X634882Y750304D01*
X634817Y750265D01*
X634786Y750229D01*
X634748Y750199D01*
X634672Y750096D01*
X634657Y750079D01*
X634655Y750072D01*
X634649Y750064D01*
X631734Y745016D01*
X626584Y739866D01*
X620277Y736224D01*
X613242Y734339D01*
X605958Y734339D01*
X598923Y736224D01*
X592616Y739866D01*
X587466Y745016D01*
X583824Y751323D01*
X581939Y758358D01*
X581939Y765642D01*
X583824Y772677D01*
X587466Y778984D01*
X592616Y784134D01*
X596524Y786390D01*
X596561Y786421D01*
X596604Y786444D01*
X596656Y786499D01*
X596714Y786546D01*
X596740Y786587D01*
X596773Y786623D01*
X596805Y786691D01*
X596845Y786754D01*
X596856Y786802D01*
X596877Y786846D01*
X596885Y786921D01*
X596902Y786994D01*
X596898Y787042D01*
X596903Y787091D01*
X596887Y787164D01*
X596881Y787239D01*
X596861Y787283D01*
X596851Y787331D01*
X596812Y787395D01*
X596782Y787464D01*
X596749Y787500D01*
X596724Y787542D01*
X596667Y787590D01*
X596616Y787646D01*
X596574Y787670D01*
X596537Y787701D01*
X596467Y787729D01*
X596402Y787766D01*
X596354Y787775D01*
X596308Y787793D01*
X596183Y787806D01*
X596160Y787811D01*
X596153Y787810D01*
X596142Y787811D01*
X53403Y786744D01*
X53356Y786736D01*
X53309Y786738D01*
X53236Y786717D01*
X53160Y786704D01*
X53118Y786682D01*
X53073Y786668D01*
X53010Y786624D01*
X52943Y786588D01*
X52911Y786554D01*
X52872Y786527D01*
X52826Y786465D01*
X52774Y786410D01*
X52754Y786367D01*
X52726Y786329D01*
X52703Y786256D01*
X52671Y786187D01*
X52666Y786140D01*
X52651Y786095D01*
X52652Y786018D01*
X52644Y785942D01*
X52654Y785896D01*
X52655Y785849D01*
X52680Y785777D01*
X52697Y785702D01*
X52721Y785661D01*
X52737Y785617D01*
X52784Y785556D01*
X52823Y785491D01*
X52859Y785460D01*
X52889Y785423D01*
X52995Y785345D01*
X53011Y785331D01*
X53016Y785329D01*
X53024Y785324D01*
X55084Y784134D01*
X60234Y778984D01*
X63876Y772677D01*
X65761Y765642D01*
X65761Y758358D01*
X63876Y751323D01*
X60234Y745016D01*
X55084Y739866D01*
X48777Y736224D01*
X41742Y734339D01*
X34458Y734339D01*
X27423Y736224D01*
X21116Y739866D01*
X15966Y745016D01*
X12324Y751323D01*
X11657Y753813D01*
X11647Y753835D01*
X11643Y753858D01*
X11597Y753946D01*
X11556Y754037D01*
X11540Y754055D01*
X11528Y754076D01*
X11456Y754144D01*
X11389Y754217D01*
X11368Y754229D01*
X11350Y754245D01*
X11260Y754287D01*
X11173Y754335D01*
X11149Y754339D01*
X11127Y754349D01*
X11028Y754360D01*
X10930Y754377D01*
X10906Y754373D01*
X10883Y754376D01*
X10786Y754355D01*
X10687Y754340D01*
X10666Y754329D01*
X10642Y754324D01*
X10557Y754273D01*
X10468Y754227D01*
X10452Y754210D01*
X10431Y754198D01*
X10366Y754122D01*
X10297Y754051D01*
X10287Y754029D01*
X10271Y754011D01*
X10234Y753918D01*
X10191Y753829D01*
X10188Y753805D01*
X10179Y753782D01*
X10161Y753616D01*
X10161Y74230D01*
X10176Y74134D01*
X10186Y74037D01*
X10196Y74013D01*
X10200Y73987D01*
X10246Y73901D01*
X10286Y73812D01*
X10303Y73793D01*
X10316Y73769D01*
X10386Y73702D01*
X10452Y73631D01*
X10475Y73618D01*
X10494Y73600D01*
X10582Y73559D01*
X10668Y73512D01*
X10693Y73507D01*
X10717Y73496D01*
X10814Y73486D01*
X10910Y73468D01*
X10936Y73472D01*
X10961Y73469D01*
X11057Y73490D01*
X11153Y73504D01*
X11176Y73516D01*
X11202Y73522D01*
X11285Y73572D01*
X11372Y73616D01*
X11391Y73634D01*
X11413Y73648D01*
X11476Y73722D01*
X11544Y73791D01*
X11560Y73820D01*
X11573Y73835D01*
X11585Y73865D01*
X11625Y73938D01*
X12458Y75949D01*
X14856Y78347D01*
X17989Y79645D01*
X21381Y79645D01*
X24514Y78347D01*
X26912Y75949D01*
X28210Y72816D01*
X28210Y69424D01*
X26912Y66291D01*
X24514Y63893D01*
X21381Y62595D01*
X17989Y62595D01*
X14856Y63893D01*
X12458Y66291D01*
X11625Y68302D01*
X11574Y68385D01*
X11528Y68471D01*
X11510Y68488D01*
X11496Y68511D01*
X11420Y68573D01*
X11350Y68640D01*
X11326Y68651D01*
X11306Y68668D01*
X11215Y68703D01*
X11127Y68744D01*
X11101Y68746D01*
X11077Y68756D01*
X10979Y68760D01*
X10883Y68771D01*
X10857Y68765D01*
X10831Y68766D01*
X10737Y68739D01*
X10642Y68718D01*
X10620Y68705D01*
X10595Y68698D01*
X10515Y68642D01*
X10431Y68592D01*
X10414Y68572D01*
X10393Y68557D01*
X10334Y68479D01*
X10271Y68405D01*
X10261Y68381D01*
X10246Y68360D01*
X10216Y68268D01*
X10179Y68177D01*
X10176Y68145D01*
X10170Y68126D01*
X10170Y68093D01*
X10161Y68010D01*
X10161Y48830D01*
X10176Y48734D01*
X10186Y48637D01*
X10196Y48613D01*
X10200Y48587D01*
X10246Y48501D01*
X10286Y48412D01*
X10303Y48393D01*
X10316Y48369D01*
X10386Y48302D01*
X10452Y48231D01*
X10475Y48218D01*
X10494Y48200D01*
X10582Y48159D01*
X10668Y48112D01*
X10693Y48107D01*
X10717Y48096D01*
X10814Y48086D01*
X10910Y48068D01*
X10936Y48072D01*
X10961Y48069D01*
X11057Y48090D01*
X11153Y48104D01*
X11176Y48116D01*
X11202Y48122D01*
X11285Y48172D01*
X11372Y48216D01*
X11391Y48234D01*
X11413Y48248D01*
X11476Y48322D01*
X11544Y48391D01*
X11560Y48420D01*
X11573Y48435D01*
X11585Y48465D01*
X11625Y48538D01*
X12458Y50549D01*
X14856Y52947D01*
X17989Y54245D01*
X21381Y54245D01*
X24514Y52947D01*
X26912Y50549D01*
X28210Y47416D01*
X28210Y44024D01*
X26912Y40891D01*
X24514Y38493D01*
X21381Y37195D01*
X17989Y37195D01*
X14856Y38493D01*
X12458Y40891D01*
X11625Y42902D01*
X11574Y42985D01*
X11528Y43071D01*
X11509Y43089D01*
X11496Y43111D01*
X11421Y43173D01*
X11350Y43240D01*
X11326Y43251D01*
X11306Y43268D01*
X11215Y43302D01*
X11127Y43344D01*
X11101Y43346D01*
X11077Y43356D01*
X10979Y43360D01*
X10883Y43371D01*
X10857Y43365D01*
X10831Y43366D01*
X10737Y43339D01*
X10642Y43318D01*
X10620Y43305D01*
X10595Y43298D01*
X10515Y43242D01*
X10431Y43192D01*
X10414Y43172D01*
X10393Y43157D01*
X10334Y43079D01*
X10271Y43005D01*
X10261Y42981D01*
X10246Y42960D01*
X10216Y42868D01*
X10179Y42777D01*
X10176Y42745D01*
X10170Y42726D01*
X10170Y42693D01*
X10161Y42610D01*
X10161Y10943D01*
X10164Y10923D01*
X10162Y10902D01*
X10184Y10802D01*
X10200Y10701D01*
X10210Y10682D01*
X10215Y10662D01*
X10268Y10574D01*
X10316Y10483D01*
X10331Y10469D01*
X10341Y10451D01*
X10419Y10385D01*
X10494Y10314D01*
X10513Y10305D01*
X10528Y10292D01*
X10624Y10254D01*
X10717Y10210D01*
X10738Y10208D01*
X10757Y10200D01*
X10923Y10182D01*
X290442Y10732D01*
G37*
%LPC*%
G36*
X482035Y732455D02*
X482035Y732455D01*
X478645Y733860D01*
X476050Y736455D01*
X474645Y739845D01*
X474645Y743515D01*
X476050Y746905D01*
X478645Y749500D01*
X482035Y750905D01*
X485705Y750905D01*
X489095Y749500D01*
X491713Y746883D01*
X491734Y746836D01*
X491769Y746798D01*
X491796Y746754D01*
X491851Y746708D01*
X491900Y746655D01*
X491945Y746630D01*
X491986Y746597D01*
X492053Y746571D01*
X492116Y746536D01*
X492167Y746527D01*
X492215Y746508D01*
X492287Y746505D01*
X492358Y746493D01*
X492409Y746500D01*
X492461Y746498D01*
X492530Y746518D01*
X492601Y746528D01*
X492647Y746552D01*
X492697Y746566D01*
X492756Y746607D01*
X492820Y746640D01*
X492856Y746677D01*
X492899Y746707D01*
X492942Y746764D01*
X492992Y746816D01*
X493027Y746878D01*
X493040Y746896D01*
X495645Y749500D01*
X499035Y750905D01*
X502705Y750905D01*
X506095Y749500D01*
X508713Y746883D01*
X508734Y746836D01*
X508769Y746798D01*
X508796Y746754D01*
X508851Y746708D01*
X508900Y746655D01*
X508945Y746630D01*
X508986Y746597D01*
X509053Y746571D01*
X509116Y746536D01*
X509167Y746527D01*
X509215Y746508D01*
X509287Y746505D01*
X509358Y746493D01*
X509409Y746500D01*
X509461Y746498D01*
X509530Y746518D01*
X509601Y746528D01*
X509647Y746552D01*
X509697Y746566D01*
X509756Y746607D01*
X509820Y746640D01*
X509856Y746677D01*
X509899Y746707D01*
X509942Y746764D01*
X509992Y746816D01*
X510027Y746878D01*
X510040Y746896D01*
X512645Y749500D01*
X516035Y750905D01*
X519705Y750905D01*
X523095Y749500D01*
X525713Y746883D01*
X525734Y746836D01*
X525769Y746798D01*
X525796Y746754D01*
X525851Y746708D01*
X525900Y746655D01*
X525945Y746630D01*
X525986Y746597D01*
X526053Y746571D01*
X526116Y746536D01*
X526167Y746527D01*
X526215Y746508D01*
X526287Y746505D01*
X526358Y746493D01*
X526409Y746500D01*
X526461Y746498D01*
X526530Y746518D01*
X526601Y746528D01*
X526647Y746552D01*
X526697Y746566D01*
X526756Y746607D01*
X526820Y746640D01*
X526856Y746677D01*
X526899Y746707D01*
X526942Y746764D01*
X526992Y746816D01*
X527027Y746878D01*
X527040Y746896D01*
X529645Y749500D01*
X533035Y750905D01*
X536705Y750905D01*
X540095Y749500D01*
X542713Y746883D01*
X542734Y746836D01*
X542769Y746798D01*
X542796Y746754D01*
X542851Y746708D01*
X542900Y746655D01*
X542946Y746630D01*
X542986Y746597D01*
X543053Y746571D01*
X543115Y746536D01*
X543167Y746527D01*
X543215Y746508D01*
X543287Y746505D01*
X543357Y746493D01*
X543409Y746500D01*
X543461Y746498D01*
X543530Y746518D01*
X543601Y746528D01*
X543647Y746552D01*
X543697Y746566D01*
X543756Y746607D01*
X543820Y746640D01*
X543857Y746677D01*
X543899Y746707D01*
X543942Y746764D01*
X543992Y746815D01*
X544027Y746878D01*
X544040Y746896D01*
X546645Y749500D01*
X550035Y750905D01*
X553705Y750905D01*
X557095Y749500D01*
X559690Y746905D01*
X561095Y743515D01*
X561095Y739845D01*
X559690Y736455D01*
X557095Y733860D01*
X553705Y732455D01*
X550035Y732455D01*
X546645Y733860D01*
X544027Y736477D01*
X544006Y736524D01*
X543971Y736562D01*
X543944Y736607D01*
X543888Y736652D01*
X543840Y736705D01*
X543794Y736730D01*
X543754Y736763D01*
X543687Y736789D01*
X543624Y736824D01*
X543573Y736833D01*
X543524Y736852D01*
X543453Y736855D01*
X543382Y736867D01*
X543331Y736860D01*
X543279Y736862D01*
X543210Y736842D01*
X543139Y736832D01*
X543093Y736808D01*
X543043Y736793D01*
X542984Y736752D01*
X542920Y736720D01*
X542883Y736683D01*
X542840Y736653D01*
X542798Y736596D01*
X542747Y736544D01*
X542713Y736481D01*
X542700Y736465D01*
X540095Y733860D01*
X536705Y732455D01*
X533035Y732455D01*
X529645Y733860D01*
X527027Y736477D01*
X527006Y736524D01*
X526971Y736562D01*
X526944Y736607D01*
X526888Y736652D01*
X526840Y736705D01*
X526794Y736730D01*
X526754Y736763D01*
X526687Y736789D01*
X526624Y736824D01*
X526573Y736833D01*
X526525Y736852D01*
X526453Y736855D01*
X526382Y736867D01*
X526331Y736860D01*
X526279Y736862D01*
X526210Y736842D01*
X526139Y736832D01*
X526093Y736808D01*
X526043Y736793D01*
X525984Y736753D01*
X525920Y736720D01*
X525883Y736683D01*
X525841Y736653D01*
X525798Y736596D01*
X525747Y736544D01*
X525713Y736482D01*
X525700Y736464D01*
X523095Y733860D01*
X519705Y732455D01*
X516035Y732455D01*
X512645Y733860D01*
X510027Y736477D01*
X510006Y736524D01*
X509971Y736562D01*
X509944Y736607D01*
X509888Y736652D01*
X509840Y736705D01*
X509794Y736730D01*
X509754Y736763D01*
X509687Y736789D01*
X509624Y736824D01*
X509573Y736833D01*
X509525Y736852D01*
X509453Y736855D01*
X509382Y736867D01*
X509331Y736860D01*
X509279Y736862D01*
X509210Y736842D01*
X509139Y736832D01*
X509093Y736808D01*
X509043Y736793D01*
X508984Y736753D01*
X508920Y736720D01*
X508883Y736683D01*
X508841Y736653D01*
X508798Y736596D01*
X508747Y736544D01*
X508713Y736482D01*
X508700Y736464D01*
X506095Y733860D01*
X502705Y732455D01*
X499035Y732455D01*
X495645Y733860D01*
X493027Y736477D01*
X493006Y736524D01*
X492971Y736562D01*
X492944Y736607D01*
X492888Y736652D01*
X492840Y736705D01*
X492794Y736730D01*
X492754Y736763D01*
X492687Y736789D01*
X492624Y736824D01*
X492573Y736833D01*
X492525Y736852D01*
X492453Y736855D01*
X492382Y736867D01*
X492331Y736860D01*
X492279Y736862D01*
X492210Y736842D01*
X492139Y736832D01*
X492093Y736808D01*
X492043Y736793D01*
X491984Y736753D01*
X491920Y736720D01*
X491883Y736683D01*
X491841Y736653D01*
X491798Y736596D01*
X491747Y736544D01*
X491713Y736482D01*
X491700Y736464D01*
X489095Y733860D01*
X485705Y732455D01*
X482035Y732455D01*
G37*
%LPD*%
%LPC*%
G36*
X101035Y731185D02*
X101035Y731185D01*
X97645Y732590D01*
X95050Y735185D01*
X93645Y738575D01*
X93645Y742245D01*
X95050Y745635D01*
X97645Y748230D01*
X101035Y749635D01*
X104705Y749635D01*
X108095Y748230D01*
X110713Y745613D01*
X110734Y745566D01*
X110769Y745528D01*
X110796Y745484D01*
X110851Y745438D01*
X110900Y745385D01*
X110945Y745360D01*
X110986Y745327D01*
X111053Y745301D01*
X111116Y745266D01*
X111167Y745257D01*
X111215Y745238D01*
X111287Y745235D01*
X111358Y745223D01*
X111409Y745230D01*
X111461Y745228D01*
X111530Y745248D01*
X111601Y745258D01*
X111647Y745282D01*
X111697Y745296D01*
X111756Y745337D01*
X111820Y745370D01*
X111856Y745407D01*
X111899Y745437D01*
X111942Y745494D01*
X111992Y745546D01*
X112027Y745608D01*
X112040Y745626D01*
X114645Y748230D01*
X118035Y749635D01*
X121705Y749635D01*
X125095Y748230D01*
X127713Y745613D01*
X127734Y745566D01*
X127769Y745528D01*
X127796Y745484D01*
X127851Y745438D01*
X127900Y745385D01*
X127945Y745360D01*
X127986Y745327D01*
X128053Y745301D01*
X128116Y745266D01*
X128167Y745257D01*
X128215Y745238D01*
X128287Y745235D01*
X128358Y745223D01*
X128409Y745230D01*
X128461Y745228D01*
X128530Y745248D01*
X128601Y745258D01*
X128647Y745282D01*
X128697Y745296D01*
X128756Y745337D01*
X128820Y745370D01*
X128856Y745407D01*
X128899Y745437D01*
X128942Y745494D01*
X128992Y745546D01*
X129027Y745608D01*
X129040Y745626D01*
X131645Y748230D01*
X135035Y749635D01*
X138705Y749635D01*
X142095Y748230D01*
X144713Y745613D01*
X144734Y745566D01*
X144769Y745528D01*
X144796Y745484D01*
X144851Y745438D01*
X144900Y745385D01*
X144945Y745360D01*
X144986Y745327D01*
X145053Y745301D01*
X145116Y745266D01*
X145167Y745257D01*
X145215Y745238D01*
X145287Y745235D01*
X145358Y745223D01*
X145409Y745230D01*
X145461Y745228D01*
X145530Y745248D01*
X145601Y745258D01*
X145647Y745282D01*
X145697Y745296D01*
X145756Y745337D01*
X145820Y745370D01*
X145856Y745407D01*
X145899Y745437D01*
X145942Y745494D01*
X145992Y745546D01*
X146027Y745608D01*
X146040Y745626D01*
X148645Y748230D01*
X152035Y749635D01*
X155705Y749635D01*
X159095Y748230D01*
X161713Y745613D01*
X161734Y745566D01*
X161769Y745528D01*
X161796Y745484D01*
X161851Y745438D01*
X161900Y745385D01*
X161945Y745360D01*
X161986Y745327D01*
X162053Y745301D01*
X162116Y745266D01*
X162167Y745257D01*
X162215Y745238D01*
X162287Y745235D01*
X162358Y745223D01*
X162409Y745230D01*
X162461Y745228D01*
X162530Y745248D01*
X162601Y745258D01*
X162647Y745282D01*
X162697Y745296D01*
X162756Y745337D01*
X162820Y745370D01*
X162856Y745407D01*
X162899Y745437D01*
X162942Y745494D01*
X162992Y745546D01*
X163027Y745608D01*
X163040Y745626D01*
X165645Y748230D01*
X169035Y749635D01*
X172705Y749635D01*
X176095Y748230D01*
X178690Y745635D01*
X180095Y742245D01*
X180095Y738575D01*
X178690Y735185D01*
X176095Y732590D01*
X172705Y731185D01*
X169035Y731185D01*
X165645Y732590D01*
X163027Y735207D01*
X163006Y735254D01*
X162971Y735292D01*
X162944Y735337D01*
X162888Y735382D01*
X162840Y735435D01*
X162794Y735460D01*
X162754Y735493D01*
X162687Y735519D01*
X162624Y735554D01*
X162573Y735563D01*
X162525Y735582D01*
X162453Y735585D01*
X162382Y735597D01*
X162331Y735590D01*
X162279Y735592D01*
X162210Y735572D01*
X162139Y735562D01*
X162093Y735538D01*
X162043Y735523D01*
X161984Y735483D01*
X161920Y735450D01*
X161883Y735413D01*
X161841Y735383D01*
X161798Y735326D01*
X161747Y735274D01*
X161713Y735212D01*
X161700Y735194D01*
X159095Y732590D01*
X155705Y731185D01*
X152035Y731185D01*
X148645Y732590D01*
X146027Y735207D01*
X146006Y735254D01*
X145971Y735292D01*
X145944Y735337D01*
X145888Y735382D01*
X145840Y735435D01*
X145794Y735460D01*
X145754Y735493D01*
X145687Y735519D01*
X145624Y735554D01*
X145573Y735563D01*
X145525Y735582D01*
X145453Y735585D01*
X145382Y735597D01*
X145331Y735590D01*
X145279Y735592D01*
X145210Y735572D01*
X145139Y735562D01*
X145093Y735538D01*
X145043Y735523D01*
X144984Y735483D01*
X144920Y735450D01*
X144883Y735413D01*
X144841Y735383D01*
X144798Y735326D01*
X144747Y735274D01*
X144713Y735212D01*
X144700Y735194D01*
X142095Y732590D01*
X138705Y731185D01*
X135035Y731185D01*
X131645Y732590D01*
X129027Y735207D01*
X129006Y735254D01*
X128971Y735292D01*
X128944Y735337D01*
X128888Y735382D01*
X128840Y735435D01*
X128794Y735460D01*
X128754Y735493D01*
X128687Y735519D01*
X128624Y735554D01*
X128573Y735563D01*
X128525Y735582D01*
X128453Y735585D01*
X128382Y735597D01*
X128331Y735590D01*
X128279Y735592D01*
X128210Y735572D01*
X128139Y735562D01*
X128093Y735538D01*
X128043Y735523D01*
X127984Y735483D01*
X127920Y735450D01*
X127883Y735413D01*
X127841Y735383D01*
X127798Y735326D01*
X127747Y735274D01*
X127713Y735212D01*
X127700Y735194D01*
X125095Y732590D01*
X121705Y731185D01*
X118035Y731185D01*
X114645Y732590D01*
X112027Y735207D01*
X112006Y735254D01*
X111971Y735292D01*
X111944Y735337D01*
X111888Y735382D01*
X111840Y735435D01*
X111794Y735460D01*
X111754Y735493D01*
X111687Y735519D01*
X111624Y735554D01*
X111573Y735563D01*
X111525Y735582D01*
X111453Y735585D01*
X111382Y735597D01*
X111331Y735590D01*
X111279Y735592D01*
X111210Y735572D01*
X111139Y735562D01*
X111093Y735538D01*
X111043Y735523D01*
X110984Y735483D01*
X110920Y735450D01*
X110883Y735413D01*
X110841Y735383D01*
X110798Y735326D01*
X110747Y735274D01*
X110713Y735212D01*
X110700Y735194D01*
X108095Y732590D01*
X104705Y731185D01*
X101035Y731185D01*
G37*
%LPD*%
%LPC*%
G36*
X616029Y673429D02*
X616029Y673429D01*
X611483Y675313D01*
X608003Y678793D01*
X606119Y683339D01*
X606119Y688261D01*
X608003Y692807D01*
X611483Y696287D01*
X616029Y698171D01*
X620951Y698171D01*
X625497Y696287D01*
X628977Y692807D01*
X630861Y688261D01*
X630861Y683339D01*
X628977Y678793D01*
X625497Y675313D01*
X620951Y673429D01*
X616029Y673429D01*
G37*
%LPD*%
%LPC*%
G36*
X416893Y673429D02*
X416893Y673429D01*
X412347Y675313D01*
X408867Y678793D01*
X406983Y683339D01*
X406983Y688261D01*
X408867Y692807D01*
X412347Y696287D01*
X416893Y698171D01*
X421815Y698171D01*
X426361Y696287D01*
X429841Y692807D01*
X431725Y688261D01*
X431725Y683339D01*
X429841Y678793D01*
X426361Y675313D01*
X421815Y673429D01*
X416893Y673429D01*
G37*
%LPD*%
%LPC*%
G36*
X233759Y674699D02*
X233759Y674699D01*
X229213Y676583D01*
X225733Y680063D01*
X223849Y684609D01*
X223849Y689531D01*
X225733Y694077D01*
X229213Y697557D01*
X233759Y699441D01*
X238681Y699441D01*
X243227Y697557D01*
X246707Y694077D01*
X248591Y689531D01*
X248591Y684609D01*
X246707Y680063D01*
X243227Y676583D01*
X238681Y674699D01*
X233759Y674699D01*
G37*
%LPD*%
%LPC*%
G36*
X34623Y674699D02*
X34623Y674699D01*
X30077Y676583D01*
X26597Y680063D01*
X24713Y684609D01*
X24713Y689531D01*
X26597Y694077D01*
X30077Y697557D01*
X34623Y699441D01*
X39545Y699441D01*
X44091Y697557D01*
X47571Y694077D01*
X49455Y689531D01*
X49455Y684609D01*
X47571Y680063D01*
X44091Y676583D01*
X39545Y674699D01*
X34623Y674699D01*
G37*
%LPD*%
%LPC*%
G36*
X310724Y735060D02*
X310724Y735060D01*
X307591Y736358D01*
X305193Y738756D01*
X303895Y741889D01*
X303895Y745281D01*
X305193Y748414D01*
X307591Y750812D01*
X310724Y752110D01*
X314116Y752110D01*
X317249Y750812D01*
X319647Y748414D01*
X320945Y745281D01*
X320945Y741889D01*
X319647Y738756D01*
X317249Y736358D01*
X314116Y735060D01*
X310724Y735060D01*
G37*
%LPD*%
%LPC*%
G36*
X336124Y735060D02*
X336124Y735060D01*
X332991Y736358D01*
X330593Y738756D01*
X329295Y741889D01*
X329295Y745281D01*
X330593Y748414D01*
X332991Y750812D01*
X336124Y752110D01*
X339516Y752110D01*
X342649Y750812D01*
X345047Y748414D01*
X346345Y745281D01*
X346345Y741889D01*
X345047Y738756D01*
X342649Y736358D01*
X339516Y735060D01*
X336124Y735060D01*
G37*
%LPD*%
%LPC*%
G36*
X489794Y137525D02*
X489794Y137525D01*
X486661Y138823D01*
X484263Y141221D01*
X482965Y144354D01*
X482965Y147746D01*
X484263Y150879D01*
X486661Y153277D01*
X489794Y154575D01*
X493186Y154575D01*
X496319Y153277D01*
X498717Y150879D01*
X500015Y147746D01*
X500015Y144354D01*
X498717Y141221D01*
X496319Y138823D01*
X493186Y137525D01*
X489794Y137525D01*
G37*
%LPD*%
%LPC*%
G36*
X176104Y133715D02*
X176104Y133715D01*
X172971Y135013D01*
X170573Y137411D01*
X169275Y140544D01*
X169275Y143936D01*
X170573Y147069D01*
X172971Y149467D01*
X176104Y150765D01*
X179496Y150765D01*
X182629Y149467D01*
X185027Y147069D01*
X186325Y143936D01*
X186325Y140544D01*
X185027Y137411D01*
X182629Y135013D01*
X179496Y133715D01*
X176104Y133715D01*
G37*
%LPD*%
%LPC*%
G36*
X125304Y133715D02*
X125304Y133715D01*
X122171Y135013D01*
X119773Y137411D01*
X118475Y140544D01*
X118475Y143936D01*
X119773Y147069D01*
X122171Y149467D01*
X125304Y150765D01*
X128696Y150765D01*
X131829Y149467D01*
X134227Y147069D01*
X135525Y143936D01*
X135525Y140544D01*
X134227Y137411D01*
X131829Y135013D01*
X128696Y133715D01*
X125304Y133715D01*
G37*
%LPD*%
%LPC*%
G36*
X74504Y133715D02*
X74504Y133715D01*
X71371Y135013D01*
X68973Y137411D01*
X67675Y140544D01*
X67675Y143936D01*
X68973Y147069D01*
X71371Y149467D01*
X74504Y150765D01*
X77896Y150765D01*
X81029Y149467D01*
X83427Y147069D01*
X84725Y143936D01*
X84725Y140544D01*
X83427Y137411D01*
X81029Y135013D01*
X77896Y133715D01*
X74504Y133715D01*
G37*
%LPD*%
%LPC*%
G36*
X346284Y639175D02*
X346284Y639175D01*
X343151Y640473D01*
X340753Y642871D01*
X339455Y646004D01*
X339455Y649396D01*
X340753Y652529D01*
X343151Y654927D01*
X346284Y656225D01*
X349676Y656225D01*
X352809Y654927D01*
X355207Y652529D01*
X356505Y649396D01*
X356505Y646004D01*
X355207Y642871D01*
X352809Y640473D01*
X349676Y639175D01*
X346284Y639175D01*
G37*
%LPD*%
%LPC*%
G36*
X296284Y639175D02*
X296284Y639175D01*
X293151Y640473D01*
X290753Y642871D01*
X289455Y646004D01*
X289455Y649396D01*
X290753Y652529D01*
X293151Y654927D01*
X296284Y656225D01*
X299676Y656225D01*
X302809Y654927D01*
X305207Y652529D01*
X306505Y649396D01*
X306505Y646004D01*
X305207Y642871D01*
X302809Y640473D01*
X299676Y639175D01*
X296284Y639175D01*
G37*
%LPD*%
%LPC*%
G36*
X126574Y616315D02*
X126574Y616315D01*
X123441Y617613D01*
X121043Y620011D01*
X119745Y623144D01*
X119745Y626536D01*
X121043Y629669D01*
X123441Y632067D01*
X126574Y633365D01*
X129966Y633365D01*
X133099Y632067D01*
X135497Y629669D01*
X136795Y626536D01*
X136795Y623144D01*
X135497Y620011D01*
X133099Y617613D01*
X129966Y616315D01*
X126574Y616315D01*
G37*
%LPD*%
%LPC*%
G36*
X515194Y615045D02*
X515194Y615045D01*
X512061Y616343D01*
X509663Y618741D01*
X508365Y621874D01*
X508365Y625266D01*
X509663Y628399D01*
X512061Y630797D01*
X515194Y632095D01*
X518586Y632095D01*
X521719Y630797D01*
X524117Y628399D01*
X525415Y625266D01*
X525415Y621874D01*
X524117Y618741D01*
X521719Y616343D01*
X518586Y615045D01*
X515194Y615045D01*
G37*
%LPD*%
%LPC*%
G36*
X346119Y503920D02*
X346119Y503920D01*
X342986Y505218D01*
X340588Y507616D01*
X339290Y510749D01*
X339290Y514141D01*
X340588Y517274D01*
X342986Y519672D01*
X346119Y520970D01*
X349511Y520970D01*
X352644Y519672D01*
X355042Y517274D01*
X356340Y514141D01*
X356340Y510749D01*
X355042Y507616D01*
X352644Y505218D01*
X349511Y503920D01*
X346119Y503920D01*
G37*
%LPD*%
%LPC*%
G36*
X296119Y503920D02*
X296119Y503920D01*
X292986Y505218D01*
X290588Y507616D01*
X289290Y510749D01*
X289290Y514141D01*
X290588Y517274D01*
X292986Y519672D01*
X296119Y520970D01*
X299511Y520970D01*
X302644Y519672D01*
X305042Y517274D01*
X306340Y514141D01*
X306340Y510749D01*
X305042Y507616D01*
X302644Y505218D01*
X299511Y503920D01*
X296119Y503920D01*
G37*
%LPD*%
%LPC*%
G36*
X126574Y501915D02*
X126574Y501915D01*
X123441Y503213D01*
X121043Y505611D01*
X119745Y508744D01*
X119745Y512136D01*
X121043Y515269D01*
X123441Y517667D01*
X126574Y518965D01*
X129966Y518965D01*
X133099Y517667D01*
X135497Y515269D01*
X136795Y512136D01*
X136795Y508744D01*
X135497Y505611D01*
X133099Y503213D01*
X129966Y501915D01*
X126574Y501915D01*
G37*
%LPD*%
%LPC*%
G36*
X515194Y500645D02*
X515194Y500645D01*
X512061Y501943D01*
X509663Y504341D01*
X508365Y507474D01*
X508365Y510866D01*
X509663Y513999D01*
X512061Y516397D01*
X515194Y517695D01*
X518586Y517695D01*
X521719Y516397D01*
X524117Y513999D01*
X525415Y510866D01*
X525415Y507474D01*
X524117Y504341D01*
X521719Y501943D01*
X518586Y500645D01*
X515194Y500645D01*
G37*
%LPD*%
%LPC*%
G36*
X202774Y441055D02*
X202774Y441055D01*
X199641Y442353D01*
X197243Y444751D01*
X195945Y447884D01*
X195945Y451276D01*
X197243Y454409D01*
X199641Y456807D01*
X202774Y458105D01*
X206166Y458105D01*
X209299Y456807D01*
X211697Y454409D01*
X212995Y451276D01*
X212995Y447884D01*
X211697Y444751D01*
X209299Y442353D01*
X206166Y441055D01*
X202774Y441055D01*
G37*
%LPD*%
%LPC*%
G36*
X126574Y441055D02*
X126574Y441055D01*
X123441Y442353D01*
X121043Y444751D01*
X119745Y447884D01*
X119745Y451276D01*
X121043Y454409D01*
X123441Y456807D01*
X126574Y458105D01*
X129966Y458105D01*
X133099Y456807D01*
X135497Y454409D01*
X136795Y451276D01*
X136795Y447884D01*
X135497Y444751D01*
X133099Y442353D01*
X129966Y441055D01*
X126574Y441055D01*
G37*
%LPD*%
%LPC*%
G36*
X151974Y441055D02*
X151974Y441055D01*
X148841Y442353D01*
X146443Y444751D01*
X145145Y447884D01*
X145145Y451276D01*
X146443Y454409D01*
X148841Y456807D01*
X151974Y458105D01*
X155366Y458105D01*
X158499Y456807D01*
X160897Y454409D01*
X162195Y451276D01*
X162195Y447884D01*
X160897Y444751D01*
X158499Y442353D01*
X155366Y441055D01*
X151974Y441055D01*
G37*
%LPD*%
%LPC*%
G36*
X177374Y441055D02*
X177374Y441055D01*
X174241Y442353D01*
X171843Y444751D01*
X170545Y447884D01*
X170545Y451276D01*
X171843Y454409D01*
X174241Y456807D01*
X177374Y458105D01*
X180766Y458105D01*
X183899Y456807D01*
X186297Y454409D01*
X187595Y451276D01*
X187595Y447884D01*
X186297Y444751D01*
X183899Y442353D01*
X180766Y441055D01*
X177374Y441055D01*
G37*
%LPD*%
%LPC*%
G36*
X101174Y441055D02*
X101174Y441055D01*
X98041Y442353D01*
X95643Y444751D01*
X94345Y447884D01*
X94345Y451276D01*
X95643Y454409D01*
X98041Y456807D01*
X101174Y458105D01*
X104566Y458105D01*
X107699Y456807D01*
X110097Y454409D01*
X111395Y451276D01*
X111395Y447884D01*
X110097Y444751D01*
X107699Y442353D01*
X104566Y441055D01*
X101174Y441055D01*
G37*
%LPD*%
%LPC*%
G36*
X24974Y441055D02*
X24974Y441055D01*
X21841Y442353D01*
X19443Y444751D01*
X18145Y447884D01*
X18145Y451276D01*
X19443Y454409D01*
X21841Y456807D01*
X24974Y458105D01*
X28366Y458105D01*
X31499Y456807D01*
X33897Y454409D01*
X35195Y451276D01*
X35195Y447884D01*
X33897Y444751D01*
X31499Y442353D01*
X28366Y441055D01*
X24974Y441055D01*
G37*
%LPD*%
%LPC*%
G36*
X50374Y441055D02*
X50374Y441055D01*
X47241Y442353D01*
X44843Y444751D01*
X43545Y447884D01*
X43545Y451276D01*
X44843Y454409D01*
X47241Y456807D01*
X50374Y458105D01*
X53766Y458105D01*
X56899Y456807D01*
X59297Y454409D01*
X60595Y451276D01*
X60595Y447884D01*
X59297Y444751D01*
X56899Y442353D01*
X53766Y441055D01*
X50374Y441055D01*
G37*
%LPD*%
%LPC*%
G36*
X75774Y441055D02*
X75774Y441055D01*
X72641Y442353D01*
X70243Y444751D01*
X68945Y447884D01*
X68945Y451276D01*
X70243Y454409D01*
X72641Y456807D01*
X75774Y458105D01*
X79166Y458105D01*
X82299Y456807D01*
X84697Y454409D01*
X85995Y451276D01*
X85995Y447884D01*
X84697Y444751D01*
X82299Y442353D01*
X79166Y441055D01*
X75774Y441055D01*
G37*
%LPD*%
%LPC*%
G36*
X618064Y439785D02*
X618064Y439785D01*
X614931Y441083D01*
X612533Y443481D01*
X611235Y446614D01*
X611235Y450006D01*
X612533Y453139D01*
X614931Y455537D01*
X618064Y456835D01*
X621456Y456835D01*
X624589Y455537D01*
X626987Y453139D01*
X628285Y450006D01*
X628285Y446614D01*
X626987Y443481D01*
X624589Y441083D01*
X621456Y439785D01*
X618064Y439785D01*
G37*
%LPD*%
%LPC*%
G36*
X592664Y439785D02*
X592664Y439785D01*
X589531Y441083D01*
X587133Y443481D01*
X585835Y446614D01*
X585835Y450006D01*
X587133Y453139D01*
X589531Y455537D01*
X592664Y456835D01*
X596056Y456835D01*
X599189Y455537D01*
X601587Y453139D01*
X602885Y450006D01*
X602885Y446614D01*
X601587Y443481D01*
X599189Y441083D01*
X596056Y439785D01*
X592664Y439785D01*
G37*
%LPD*%
%LPC*%
G36*
X567264Y439785D02*
X567264Y439785D01*
X564131Y441083D01*
X561733Y443481D01*
X560435Y446614D01*
X560435Y450006D01*
X561733Y453139D01*
X564131Y455537D01*
X567264Y456835D01*
X570656Y456835D01*
X573789Y455537D01*
X576187Y453139D01*
X577485Y450006D01*
X577485Y446614D01*
X576187Y443481D01*
X573789Y441083D01*
X570656Y439785D01*
X567264Y439785D01*
G37*
%LPD*%
%LPC*%
G36*
X541864Y439785D02*
X541864Y439785D01*
X538731Y441083D01*
X536333Y443481D01*
X535035Y446614D01*
X535035Y450006D01*
X536333Y453139D01*
X538731Y455537D01*
X541864Y456835D01*
X545256Y456835D01*
X548389Y455537D01*
X550787Y453139D01*
X552085Y450006D01*
X552085Y446614D01*
X550787Y443481D01*
X548389Y441083D01*
X545256Y439785D01*
X541864Y439785D01*
G37*
%LPD*%
%LPC*%
G36*
X516464Y439785D02*
X516464Y439785D01*
X513331Y441083D01*
X510933Y443481D01*
X509635Y446614D01*
X509635Y450006D01*
X510933Y453139D01*
X513331Y455537D01*
X516464Y456835D01*
X519856Y456835D01*
X522989Y455537D01*
X525387Y453139D01*
X526685Y450006D01*
X526685Y446614D01*
X525387Y443481D01*
X522989Y441083D01*
X519856Y439785D01*
X516464Y439785D01*
G37*
%LPD*%
%LPC*%
G36*
X491064Y439785D02*
X491064Y439785D01*
X487931Y441083D01*
X485533Y443481D01*
X484235Y446614D01*
X484235Y450006D01*
X485533Y453139D01*
X487931Y455537D01*
X491064Y456835D01*
X494456Y456835D01*
X497589Y455537D01*
X499987Y453139D01*
X501285Y450006D01*
X501285Y446614D01*
X499987Y443481D01*
X497589Y441083D01*
X494456Y439785D01*
X491064Y439785D01*
G37*
%LPD*%
%LPC*%
G36*
X465664Y439785D02*
X465664Y439785D01*
X462531Y441083D01*
X460133Y443481D01*
X458835Y446614D01*
X458835Y450006D01*
X460133Y453139D01*
X462531Y455537D01*
X465664Y456835D01*
X469056Y456835D01*
X472189Y455537D01*
X474587Y453139D01*
X475885Y450006D01*
X475885Y446614D01*
X474587Y443481D01*
X472189Y441083D01*
X469056Y439785D01*
X465664Y439785D01*
G37*
%LPD*%
%LPC*%
G36*
X440264Y439785D02*
X440264Y439785D01*
X437131Y441083D01*
X434733Y443481D01*
X433435Y446614D01*
X433435Y450006D01*
X434733Y453139D01*
X437131Y455537D01*
X440264Y456835D01*
X443656Y456835D01*
X446789Y455537D01*
X449187Y453139D01*
X450485Y450006D01*
X450485Y446614D01*
X449187Y443481D01*
X446789Y441083D01*
X443656Y439785D01*
X440264Y439785D01*
G37*
%LPD*%
%LPC*%
G36*
X202774Y415655D02*
X202774Y415655D01*
X199641Y416953D01*
X197243Y419351D01*
X195945Y422484D01*
X195945Y425876D01*
X197243Y429009D01*
X199641Y431407D01*
X202774Y432705D01*
X206166Y432705D01*
X209299Y431407D01*
X211697Y429009D01*
X212995Y425876D01*
X212995Y422484D01*
X211697Y419351D01*
X209299Y416953D01*
X206166Y415655D01*
X202774Y415655D01*
G37*
%LPD*%
%LPC*%
G36*
X177374Y415655D02*
X177374Y415655D01*
X174241Y416953D01*
X171843Y419351D01*
X170545Y422484D01*
X170545Y425876D01*
X171843Y429009D01*
X174241Y431407D01*
X177374Y432705D01*
X180766Y432705D01*
X183899Y431407D01*
X186297Y429009D01*
X187595Y425876D01*
X187595Y422484D01*
X186297Y419351D01*
X183899Y416953D01*
X180766Y415655D01*
X177374Y415655D01*
G37*
%LPD*%
%LPC*%
G36*
X151974Y415655D02*
X151974Y415655D01*
X148841Y416953D01*
X146443Y419351D01*
X145145Y422484D01*
X145145Y425876D01*
X146443Y429009D01*
X148841Y431407D01*
X151974Y432705D01*
X155366Y432705D01*
X158499Y431407D01*
X160897Y429009D01*
X162195Y425876D01*
X162195Y422484D01*
X160897Y419351D01*
X158499Y416953D01*
X155366Y415655D01*
X151974Y415655D01*
G37*
%LPD*%
%LPC*%
G36*
X126574Y415655D02*
X126574Y415655D01*
X123441Y416953D01*
X121043Y419351D01*
X119745Y422484D01*
X119745Y425876D01*
X121043Y429009D01*
X123441Y431407D01*
X126574Y432705D01*
X129966Y432705D01*
X133099Y431407D01*
X135497Y429009D01*
X136795Y425876D01*
X136795Y422484D01*
X135497Y419351D01*
X133099Y416953D01*
X129966Y415655D01*
X126574Y415655D01*
G37*
%LPD*%
%LPC*%
G36*
X101174Y415655D02*
X101174Y415655D01*
X98041Y416953D01*
X95643Y419351D01*
X94345Y422484D01*
X94345Y425876D01*
X95643Y429009D01*
X98041Y431407D01*
X101174Y432705D01*
X104566Y432705D01*
X107699Y431407D01*
X110097Y429009D01*
X111395Y425876D01*
X111395Y422484D01*
X110097Y419351D01*
X107699Y416953D01*
X104566Y415655D01*
X101174Y415655D01*
G37*
%LPD*%
%LPC*%
G36*
X75774Y415655D02*
X75774Y415655D01*
X72641Y416953D01*
X70243Y419351D01*
X68945Y422484D01*
X68945Y425876D01*
X70243Y429009D01*
X72641Y431407D01*
X75774Y432705D01*
X79166Y432705D01*
X82299Y431407D01*
X84697Y429009D01*
X85995Y425876D01*
X85995Y422484D01*
X84697Y419351D01*
X82299Y416953D01*
X79166Y415655D01*
X75774Y415655D01*
G37*
%LPD*%
%LPC*%
G36*
X50374Y415655D02*
X50374Y415655D01*
X47241Y416953D01*
X44843Y419351D01*
X43545Y422484D01*
X43545Y425876D01*
X44843Y429009D01*
X47241Y431407D01*
X50374Y432705D01*
X53766Y432705D01*
X56899Y431407D01*
X59297Y429009D01*
X60595Y425876D01*
X60595Y422484D01*
X59297Y419351D01*
X56899Y416953D01*
X53766Y415655D01*
X50374Y415655D01*
G37*
%LPD*%
%LPC*%
G36*
X24974Y415655D02*
X24974Y415655D01*
X21841Y416953D01*
X19443Y419351D01*
X18145Y422484D01*
X18145Y425876D01*
X19443Y429009D01*
X21841Y431407D01*
X24974Y432705D01*
X28366Y432705D01*
X31499Y431407D01*
X33897Y429009D01*
X35195Y425876D01*
X35195Y422484D01*
X33897Y419351D01*
X31499Y416953D01*
X28366Y415655D01*
X24974Y415655D01*
G37*
%LPD*%
%LPC*%
G36*
X541864Y414385D02*
X541864Y414385D01*
X538731Y415683D01*
X536333Y418081D01*
X535035Y421214D01*
X535035Y424606D01*
X536333Y427739D01*
X538731Y430137D01*
X541864Y431435D01*
X545256Y431435D01*
X548389Y430137D01*
X550787Y427739D01*
X552085Y424606D01*
X552085Y421214D01*
X550787Y418081D01*
X548389Y415683D01*
X545256Y414385D01*
X541864Y414385D01*
G37*
%LPD*%
%LPC*%
G36*
X516464Y414385D02*
X516464Y414385D01*
X513331Y415683D01*
X510933Y418081D01*
X509635Y421214D01*
X509635Y424606D01*
X510933Y427739D01*
X513331Y430137D01*
X516464Y431435D01*
X519856Y431435D01*
X522989Y430137D01*
X525387Y427739D01*
X526685Y424606D01*
X526685Y421214D01*
X525387Y418081D01*
X522989Y415683D01*
X519856Y414385D01*
X516464Y414385D01*
G37*
%LPD*%
%LPC*%
G36*
X618064Y414385D02*
X618064Y414385D01*
X614931Y415683D01*
X612533Y418081D01*
X611235Y421214D01*
X611235Y424606D01*
X612533Y427739D01*
X614931Y430137D01*
X618064Y431435D01*
X621456Y431435D01*
X624589Y430137D01*
X626987Y427739D01*
X628285Y424606D01*
X628285Y421214D01*
X626987Y418081D01*
X624589Y415683D01*
X621456Y414385D01*
X618064Y414385D01*
G37*
%LPD*%
%LPC*%
G36*
X592664Y414385D02*
X592664Y414385D01*
X589531Y415683D01*
X587133Y418081D01*
X585835Y421214D01*
X585835Y424606D01*
X587133Y427739D01*
X589531Y430137D01*
X592664Y431435D01*
X596056Y431435D01*
X599189Y430137D01*
X601587Y427739D01*
X602885Y424606D01*
X602885Y421214D01*
X601587Y418081D01*
X599189Y415683D01*
X596056Y414385D01*
X592664Y414385D01*
G37*
%LPD*%
%LPC*%
G36*
X567264Y414385D02*
X567264Y414385D01*
X564131Y415683D01*
X561733Y418081D01*
X560435Y421214D01*
X560435Y424606D01*
X561733Y427739D01*
X564131Y430137D01*
X567264Y431435D01*
X570656Y431435D01*
X573789Y430137D01*
X576187Y427739D01*
X577485Y424606D01*
X577485Y421214D01*
X576187Y418081D01*
X573789Y415683D01*
X570656Y414385D01*
X567264Y414385D01*
G37*
%LPD*%
%LPC*%
G36*
X491064Y414385D02*
X491064Y414385D01*
X487931Y415683D01*
X485533Y418081D01*
X484235Y421214D01*
X484235Y424606D01*
X485533Y427739D01*
X487931Y430137D01*
X491064Y431435D01*
X494456Y431435D01*
X497589Y430137D01*
X499987Y427739D01*
X501285Y424606D01*
X501285Y421214D01*
X499987Y418081D01*
X497589Y415683D01*
X494456Y414385D01*
X491064Y414385D01*
G37*
%LPD*%
%LPC*%
G36*
X465664Y414385D02*
X465664Y414385D01*
X462531Y415683D01*
X460133Y418081D01*
X458835Y421214D01*
X458835Y424606D01*
X460133Y427739D01*
X462531Y430137D01*
X465664Y431435D01*
X469056Y431435D01*
X472189Y430137D01*
X474587Y427739D01*
X475885Y424606D01*
X475885Y421214D01*
X474587Y418081D01*
X472189Y415683D01*
X469056Y414385D01*
X465664Y414385D01*
G37*
%LPD*%
%LPC*%
G36*
X440264Y414385D02*
X440264Y414385D01*
X437131Y415683D01*
X434733Y418081D01*
X433435Y421214D01*
X433435Y424606D01*
X434733Y427739D01*
X437131Y430137D01*
X440264Y431435D01*
X443656Y431435D01*
X446789Y430137D01*
X449187Y427739D01*
X450485Y424606D01*
X450485Y421214D01*
X449187Y418081D01*
X446789Y415683D01*
X443656Y414385D01*
X440264Y414385D01*
G37*
%LPD*%
%LPC*%
G36*
X99904Y133715D02*
X99904Y133715D01*
X96771Y135013D01*
X94373Y137411D01*
X93075Y140544D01*
X93075Y143936D01*
X94373Y147069D01*
X96771Y149467D01*
X99904Y150765D01*
X103296Y150765D01*
X106429Y149467D01*
X108827Y147069D01*
X110125Y143936D01*
X110125Y140544D01*
X108827Y137411D01*
X106429Y135013D01*
X103296Y133715D01*
X99904Y133715D01*
G37*
%LPD*%
%LPC*%
G36*
X75774Y390255D02*
X75774Y390255D01*
X72641Y391553D01*
X70243Y393951D01*
X68945Y397084D01*
X68945Y400476D01*
X70243Y403609D01*
X72641Y406007D01*
X75774Y407305D01*
X79166Y407305D01*
X82299Y406007D01*
X84697Y403609D01*
X85995Y400476D01*
X85995Y397084D01*
X84697Y393951D01*
X82299Y391553D01*
X79166Y390255D01*
X75774Y390255D01*
G37*
%LPD*%
%LPC*%
G36*
X50374Y390255D02*
X50374Y390255D01*
X47241Y391553D01*
X44843Y393951D01*
X43545Y397084D01*
X43545Y400476D01*
X44843Y403609D01*
X47241Y406007D01*
X50374Y407305D01*
X53766Y407305D01*
X56899Y406007D01*
X59297Y403609D01*
X60595Y400476D01*
X60595Y397084D01*
X59297Y393951D01*
X56899Y391553D01*
X53766Y390255D01*
X50374Y390255D01*
G37*
%LPD*%
%LPC*%
G36*
X151974Y390255D02*
X151974Y390255D01*
X148841Y391553D01*
X146443Y393951D01*
X145145Y397084D01*
X145145Y400476D01*
X146443Y403609D01*
X148841Y406007D01*
X151974Y407305D01*
X155366Y407305D01*
X158499Y406007D01*
X160897Y403609D01*
X162195Y400476D01*
X162195Y397084D01*
X160897Y393951D01*
X158499Y391553D01*
X155366Y390255D01*
X151974Y390255D01*
G37*
%LPD*%
%LPC*%
G36*
X177374Y390255D02*
X177374Y390255D01*
X174241Y391553D01*
X171843Y393951D01*
X170545Y397084D01*
X170545Y400476D01*
X171843Y403609D01*
X174241Y406007D01*
X177374Y407305D01*
X180766Y407305D01*
X183899Y406007D01*
X186297Y403609D01*
X187595Y400476D01*
X187595Y397084D01*
X186297Y393951D01*
X183899Y391553D01*
X180766Y390255D01*
X177374Y390255D01*
G37*
%LPD*%
%LPC*%
G36*
X202774Y390255D02*
X202774Y390255D01*
X199641Y391553D01*
X197243Y393951D01*
X195945Y397084D01*
X195945Y400476D01*
X197243Y403609D01*
X199641Y406007D01*
X202774Y407305D01*
X206166Y407305D01*
X209299Y406007D01*
X211697Y403609D01*
X212995Y400476D01*
X212995Y397084D01*
X211697Y393951D01*
X209299Y391553D01*
X206166Y390255D01*
X202774Y390255D01*
G37*
%LPD*%
%LPC*%
G36*
X101174Y390255D02*
X101174Y390255D01*
X98041Y391553D01*
X95643Y393951D01*
X94345Y397084D01*
X94345Y400476D01*
X95643Y403609D01*
X98041Y406007D01*
X101174Y407305D01*
X104566Y407305D01*
X107699Y406007D01*
X110097Y403609D01*
X111395Y400476D01*
X111395Y397084D01*
X110097Y393951D01*
X107699Y391553D01*
X104566Y390255D01*
X101174Y390255D01*
G37*
%LPD*%
%LPC*%
G36*
X126574Y390255D02*
X126574Y390255D01*
X123441Y391553D01*
X121043Y393951D01*
X119745Y397084D01*
X119745Y400476D01*
X121043Y403609D01*
X123441Y406007D01*
X126574Y407305D01*
X129966Y407305D01*
X133099Y406007D01*
X135497Y403609D01*
X136795Y400476D01*
X136795Y397084D01*
X135497Y393951D01*
X133099Y391553D01*
X129966Y390255D01*
X126574Y390255D01*
G37*
%LPD*%
%LPC*%
G36*
X24974Y390255D02*
X24974Y390255D01*
X21841Y391553D01*
X19443Y393951D01*
X18145Y397084D01*
X18145Y400476D01*
X19443Y403609D01*
X21841Y406007D01*
X24974Y407305D01*
X28366Y407305D01*
X31499Y406007D01*
X33897Y403609D01*
X35195Y400476D01*
X35195Y397084D01*
X33897Y393951D01*
X31499Y391553D01*
X28366Y390255D01*
X24974Y390255D01*
G37*
%LPD*%
%LPC*%
G36*
X592664Y388985D02*
X592664Y388985D01*
X589531Y390283D01*
X587133Y392681D01*
X585835Y395814D01*
X585835Y399206D01*
X587133Y402339D01*
X589531Y404737D01*
X592664Y406035D01*
X596056Y406035D01*
X599189Y404737D01*
X601587Y402339D01*
X602885Y399206D01*
X602885Y395814D01*
X601587Y392681D01*
X599189Y390283D01*
X596056Y388985D01*
X592664Y388985D01*
G37*
%LPD*%
%LPC*%
G36*
X618064Y388985D02*
X618064Y388985D01*
X614931Y390283D01*
X612533Y392681D01*
X611235Y395814D01*
X611235Y399206D01*
X612533Y402339D01*
X614931Y404737D01*
X618064Y406035D01*
X621456Y406035D01*
X624589Y404737D01*
X626987Y402339D01*
X628285Y399206D01*
X628285Y395814D01*
X626987Y392681D01*
X624589Y390283D01*
X621456Y388985D01*
X618064Y388985D01*
G37*
%LPD*%
%LPC*%
G36*
X567264Y388985D02*
X567264Y388985D01*
X564131Y390283D01*
X561733Y392681D01*
X560435Y395814D01*
X560435Y399206D01*
X561733Y402339D01*
X564131Y404737D01*
X567264Y406035D01*
X570656Y406035D01*
X573789Y404737D01*
X576187Y402339D01*
X577485Y399206D01*
X577485Y395814D01*
X576187Y392681D01*
X573789Y390283D01*
X570656Y388985D01*
X567264Y388985D01*
G37*
%LPD*%
%LPC*%
G36*
X541864Y388985D02*
X541864Y388985D01*
X538731Y390283D01*
X536333Y392681D01*
X535035Y395814D01*
X535035Y399206D01*
X536333Y402339D01*
X538731Y404737D01*
X541864Y406035D01*
X545256Y406035D01*
X548389Y404737D01*
X550787Y402339D01*
X552085Y399206D01*
X552085Y395814D01*
X550787Y392681D01*
X548389Y390283D01*
X545256Y388985D01*
X541864Y388985D01*
G37*
%LPD*%
%LPC*%
G36*
X516464Y388985D02*
X516464Y388985D01*
X513331Y390283D01*
X510933Y392681D01*
X509635Y395814D01*
X509635Y399206D01*
X510933Y402339D01*
X513331Y404737D01*
X516464Y406035D01*
X519856Y406035D01*
X522989Y404737D01*
X525387Y402339D01*
X526685Y399206D01*
X526685Y395814D01*
X525387Y392681D01*
X522989Y390283D01*
X519856Y388985D01*
X516464Y388985D01*
G37*
%LPD*%
%LPC*%
G36*
X465664Y388985D02*
X465664Y388985D01*
X462531Y390283D01*
X460133Y392681D01*
X458835Y395814D01*
X458835Y399206D01*
X460133Y402339D01*
X462531Y404737D01*
X465664Y406035D01*
X469056Y406035D01*
X472189Y404737D01*
X474587Y402339D01*
X475885Y399206D01*
X475885Y395814D01*
X474587Y392681D01*
X472189Y390283D01*
X469056Y388985D01*
X465664Y388985D01*
G37*
%LPD*%
%LPC*%
G36*
X491064Y388985D02*
X491064Y388985D01*
X487931Y390283D01*
X485533Y392681D01*
X484235Y395814D01*
X484235Y399206D01*
X485533Y402339D01*
X487931Y404737D01*
X491064Y406035D01*
X494456Y406035D01*
X497589Y404737D01*
X499987Y402339D01*
X501285Y399206D01*
X501285Y395814D01*
X499987Y392681D01*
X497589Y390283D01*
X494456Y388985D01*
X491064Y388985D01*
G37*
%LPD*%
%LPC*%
G36*
X440264Y388985D02*
X440264Y388985D01*
X437131Y390283D01*
X434733Y392681D01*
X433435Y395814D01*
X433435Y399206D01*
X434733Y402339D01*
X437131Y404737D01*
X440264Y406035D01*
X443656Y406035D01*
X446789Y404737D01*
X449187Y402339D01*
X450485Y399206D01*
X450485Y395814D01*
X449187Y392681D01*
X446789Y390283D01*
X443656Y388985D01*
X440264Y388985D01*
G37*
%LPD*%
%LPC*%
G36*
X23704Y133715D02*
X23704Y133715D01*
X20571Y135013D01*
X18173Y137411D01*
X16875Y140544D01*
X16875Y143936D01*
X18173Y147069D01*
X20571Y149467D01*
X23704Y150765D01*
X27096Y150765D01*
X30229Y149467D01*
X32627Y147069D01*
X33925Y143936D01*
X33925Y140544D01*
X32627Y137411D01*
X30229Y135013D01*
X27096Y133715D01*
X23704Y133715D01*
G37*
%LPD*%
%LPC*%
G36*
X49104Y133715D02*
X49104Y133715D01*
X45971Y135013D01*
X43573Y137411D01*
X42275Y140544D01*
X42275Y143936D01*
X43573Y147069D01*
X45971Y149467D01*
X49104Y150765D01*
X52496Y150765D01*
X55629Y149467D01*
X58027Y147069D01*
X59325Y143936D01*
X59325Y140544D01*
X58027Y137411D01*
X55629Y135013D01*
X52496Y133715D01*
X49104Y133715D01*
G37*
%LPD*%
%LPC*%
G36*
X150704Y133715D02*
X150704Y133715D01*
X147571Y135013D01*
X145173Y137411D01*
X143875Y140544D01*
X143875Y143936D01*
X145173Y147069D01*
X147571Y149467D01*
X150704Y150765D01*
X154096Y150765D01*
X157229Y149467D01*
X159627Y147069D01*
X160925Y143936D01*
X160925Y140544D01*
X159627Y137411D01*
X157229Y135013D01*
X154096Y133715D01*
X150704Y133715D01*
G37*
%LPD*%
%LPC*%
G36*
X201504Y133715D02*
X201504Y133715D01*
X198371Y135013D01*
X195973Y137411D01*
X194675Y140544D01*
X194675Y143936D01*
X195973Y147069D01*
X198371Y149467D01*
X201504Y150765D01*
X204896Y150765D01*
X208029Y149467D01*
X210427Y147069D01*
X211725Y143936D01*
X211725Y140544D01*
X210427Y137411D01*
X208029Y135013D01*
X204896Y133715D01*
X201504Y133715D01*
G37*
%LPD*%
%LPC*%
G36*
X616794Y188325D02*
X616794Y188325D01*
X613661Y189623D01*
X611263Y192021D01*
X609965Y195154D01*
X609965Y198546D01*
X611263Y201679D01*
X613661Y204077D01*
X616794Y205375D01*
X620186Y205375D01*
X623319Y204077D01*
X625717Y201679D01*
X627015Y198546D01*
X627015Y195154D01*
X625717Y192021D01*
X623319Y189623D01*
X620186Y188325D01*
X616794Y188325D01*
G37*
%LPD*%
%LPC*%
G36*
X602824Y81645D02*
X602824Y81645D01*
X599691Y82943D01*
X597293Y85341D01*
X595995Y88474D01*
X595995Y91866D01*
X597293Y94999D01*
X599691Y97397D01*
X602824Y98695D01*
X606216Y98695D01*
X609349Y97397D01*
X611747Y94999D01*
X613045Y91866D01*
X613045Y88474D01*
X611747Y85341D01*
X609349Y82943D01*
X606216Y81645D01*
X602824Y81645D01*
G37*
%LPD*%
%LPC*%
G36*
X552024Y81645D02*
X552024Y81645D01*
X548891Y82943D01*
X546493Y85341D01*
X545195Y88474D01*
X545195Y91866D01*
X546493Y94999D01*
X548891Y97397D01*
X552024Y98695D01*
X555416Y98695D01*
X558549Y97397D01*
X560947Y94999D01*
X562245Y91866D01*
X562245Y88474D01*
X560947Y85341D01*
X558549Y82943D01*
X555416Y81645D01*
X552024Y81645D01*
G37*
%LPD*%
%LPC*%
G36*
X577424Y81645D02*
X577424Y81645D01*
X574291Y82943D01*
X571893Y85341D01*
X570595Y88474D01*
X570595Y91866D01*
X571893Y94999D01*
X574291Y97397D01*
X577424Y98695D01*
X580816Y98695D01*
X583949Y97397D01*
X586347Y94999D01*
X587645Y91866D01*
X587645Y88474D01*
X586347Y85341D01*
X583949Y82943D01*
X580816Y81645D01*
X577424Y81645D01*
G37*
%LPD*%
%LPC*%
G36*
X501224Y81645D02*
X501224Y81645D01*
X498091Y82943D01*
X495693Y85341D01*
X494395Y88474D01*
X494395Y91866D01*
X495693Y94999D01*
X498091Y97397D01*
X501224Y98695D01*
X504616Y98695D01*
X507749Y97397D01*
X510147Y94999D01*
X511445Y91866D01*
X511445Y88474D01*
X510147Y85341D01*
X507749Y82943D01*
X504616Y81645D01*
X501224Y81645D01*
G37*
%LPD*%
%LPC*%
G36*
X526624Y81645D02*
X526624Y81645D01*
X523491Y82943D01*
X521093Y85341D01*
X519795Y88474D01*
X519795Y91866D01*
X521093Y94999D01*
X523491Y97397D01*
X526624Y98695D01*
X530016Y98695D01*
X533149Y97397D01*
X535547Y94999D01*
X536845Y91866D01*
X536845Y88474D01*
X535547Y85341D01*
X533149Y82943D01*
X530016Y81645D01*
X526624Y81645D01*
G37*
%LPD*%
%LPC*%
G36*
X475824Y81645D02*
X475824Y81645D01*
X472691Y82943D01*
X470293Y85341D01*
X468995Y88474D01*
X468995Y91866D01*
X470293Y94999D01*
X472691Y97397D01*
X475824Y98695D01*
X479216Y98695D01*
X482349Y97397D01*
X484747Y94999D01*
X486045Y91866D01*
X486045Y88474D01*
X484747Y85341D01*
X482349Y82943D01*
X479216Y81645D01*
X475824Y81645D01*
G37*
%LPD*%
%LPC*%
G36*
X170389Y62595D02*
X170389Y62595D01*
X167256Y63893D01*
X164858Y66291D01*
X163560Y69424D01*
X163560Y72816D01*
X164858Y75949D01*
X167256Y78347D01*
X170389Y79645D01*
X173781Y79645D01*
X176914Y78347D01*
X179312Y75949D01*
X180610Y72816D01*
X180610Y69424D01*
X179312Y66291D01*
X176914Y63893D01*
X173781Y62595D01*
X170389Y62595D01*
G37*
%LPD*%
%LPC*%
G36*
X144989Y62595D02*
X144989Y62595D01*
X141856Y63893D01*
X139458Y66291D01*
X138160Y69424D01*
X138160Y72816D01*
X139458Y75949D01*
X141856Y78347D01*
X144989Y79645D01*
X148381Y79645D01*
X151514Y78347D01*
X153912Y75949D01*
X155210Y72816D01*
X155210Y69424D01*
X153912Y66291D01*
X151514Y63893D01*
X148381Y62595D01*
X144989Y62595D01*
G37*
%LPD*%
%LPC*%
G36*
X119589Y62595D02*
X119589Y62595D01*
X116456Y63893D01*
X114058Y66291D01*
X112760Y69424D01*
X112760Y72816D01*
X114058Y75949D01*
X116456Y78347D01*
X119589Y79645D01*
X122981Y79645D01*
X126114Y78347D01*
X128512Y75949D01*
X129810Y72816D01*
X129810Y69424D01*
X128512Y66291D01*
X126114Y63893D01*
X122981Y62595D01*
X119589Y62595D01*
G37*
%LPD*%
%LPC*%
G36*
X94189Y62595D02*
X94189Y62595D01*
X91056Y63893D01*
X88658Y66291D01*
X87360Y69424D01*
X87360Y72816D01*
X88658Y75949D01*
X91056Y78347D01*
X94189Y79645D01*
X97581Y79645D01*
X100714Y78347D01*
X103112Y75949D01*
X104410Y72816D01*
X104410Y69424D01*
X103112Y66291D01*
X100714Y63893D01*
X97581Y62595D01*
X94189Y62595D01*
G37*
%LPD*%
%LPC*%
G36*
X68789Y62595D02*
X68789Y62595D01*
X65656Y63893D01*
X63258Y66291D01*
X61960Y69424D01*
X61960Y72816D01*
X63258Y75949D01*
X65656Y78347D01*
X68789Y79645D01*
X72181Y79645D01*
X75314Y78347D01*
X77712Y75949D01*
X79010Y72816D01*
X79010Y69424D01*
X77712Y66291D01*
X75314Y63893D01*
X72181Y62595D01*
X68789Y62595D01*
G37*
%LPD*%
%LPC*%
G36*
X43389Y62595D02*
X43389Y62595D01*
X40256Y63893D01*
X37858Y66291D01*
X36560Y69424D01*
X36560Y72816D01*
X37858Y75949D01*
X40256Y78347D01*
X43389Y79645D01*
X46781Y79645D01*
X49914Y78347D01*
X52312Y75949D01*
X53610Y72816D01*
X53610Y69424D01*
X52312Y66291D01*
X49914Y63893D01*
X46781Y62595D01*
X43389Y62595D01*
G37*
%LPD*%
%LPC*%
G36*
X195789Y37195D02*
X195789Y37195D01*
X192656Y38493D01*
X190258Y40891D01*
X188960Y44024D01*
X188960Y47416D01*
X190258Y50549D01*
X192656Y52947D01*
X195789Y54245D01*
X199181Y54245D01*
X202314Y52947D01*
X204712Y50549D01*
X206010Y47416D01*
X206010Y44024D01*
X204712Y40891D01*
X202314Y38493D01*
X199181Y37195D01*
X195789Y37195D01*
G37*
%LPD*%
%LPC*%
G36*
X170389Y37195D02*
X170389Y37195D01*
X167256Y38493D01*
X164858Y40891D01*
X163560Y44024D01*
X163560Y47416D01*
X164858Y50549D01*
X167256Y52947D01*
X170389Y54245D01*
X173781Y54245D01*
X176914Y52947D01*
X179312Y50549D01*
X180610Y47416D01*
X180610Y44024D01*
X179312Y40891D01*
X176914Y38493D01*
X173781Y37195D01*
X170389Y37195D01*
G37*
%LPD*%
%LPC*%
G36*
X144989Y37195D02*
X144989Y37195D01*
X141856Y38493D01*
X139458Y40891D01*
X138160Y44024D01*
X138160Y47416D01*
X139458Y50549D01*
X141856Y52947D01*
X144989Y54245D01*
X148381Y54245D01*
X151514Y52947D01*
X153912Y50549D01*
X155210Y47416D01*
X155210Y44024D01*
X153912Y40891D01*
X151514Y38493D01*
X148381Y37195D01*
X144989Y37195D01*
G37*
%LPD*%
%LPC*%
G36*
X119589Y37195D02*
X119589Y37195D01*
X116456Y38493D01*
X114058Y40891D01*
X112760Y44024D01*
X112760Y47416D01*
X114058Y50549D01*
X116456Y52947D01*
X119589Y54245D01*
X122981Y54245D01*
X126114Y52947D01*
X128512Y50549D01*
X129810Y47416D01*
X129810Y44024D01*
X128512Y40891D01*
X126114Y38493D01*
X122981Y37195D01*
X119589Y37195D01*
G37*
%LPD*%
%LPC*%
G36*
X94189Y37195D02*
X94189Y37195D01*
X91056Y38493D01*
X88658Y40891D01*
X87360Y44024D01*
X87360Y47416D01*
X88658Y50549D01*
X91056Y52947D01*
X94189Y54245D01*
X97581Y54245D01*
X100714Y52947D01*
X103112Y50549D01*
X104410Y47416D01*
X104410Y44024D01*
X103112Y40891D01*
X100714Y38493D01*
X97581Y37195D01*
X94189Y37195D01*
G37*
%LPD*%
%LPC*%
G36*
X68789Y37195D02*
X68789Y37195D01*
X65656Y38493D01*
X63258Y40891D01*
X61960Y44024D01*
X61960Y47416D01*
X63258Y50549D01*
X65656Y52947D01*
X68789Y54245D01*
X72181Y54245D01*
X75314Y52947D01*
X77712Y50549D01*
X79010Y47416D01*
X79010Y44024D01*
X77712Y40891D01*
X75314Y38493D01*
X72181Y37195D01*
X68789Y37195D01*
G37*
%LPD*%
%LPC*%
G36*
X43389Y37195D02*
X43389Y37195D01*
X40256Y38493D01*
X37858Y40891D01*
X36560Y44024D01*
X36560Y47416D01*
X37858Y50549D01*
X40256Y52947D01*
X43389Y54245D01*
X46781Y54245D01*
X49914Y52947D01*
X52312Y50549D01*
X53610Y47416D01*
X53610Y44024D01*
X52312Y40891D01*
X49914Y38493D01*
X46781Y37195D01*
X43389Y37195D01*
G37*
%LPD*%
%LPC*%
G36*
X464394Y188325D02*
X464394Y188325D01*
X461261Y189623D01*
X458863Y192021D01*
X457565Y195154D01*
X457565Y198546D01*
X458863Y201679D01*
X461261Y204077D01*
X464394Y205375D01*
X467786Y205375D01*
X470919Y204077D01*
X473317Y201679D01*
X474615Y198546D01*
X474615Y195154D01*
X473317Y192021D01*
X470919Y189623D01*
X467786Y188325D01*
X464394Y188325D01*
G37*
%LPD*%
%LPC*%
G36*
X591394Y188325D02*
X591394Y188325D01*
X588261Y189623D01*
X585863Y192021D01*
X584565Y195154D01*
X584565Y198546D01*
X585863Y201679D01*
X588261Y204077D01*
X591394Y205375D01*
X594786Y205375D01*
X597919Y204077D01*
X600317Y201679D01*
X601615Y198546D01*
X601615Y195154D01*
X600317Y192021D01*
X597919Y189623D01*
X594786Y188325D01*
X591394Y188325D01*
G37*
%LPD*%
%LPC*%
G36*
X438994Y188325D02*
X438994Y188325D01*
X435861Y189623D01*
X433463Y192021D01*
X432165Y195154D01*
X432165Y198546D01*
X433463Y201679D01*
X435861Y204077D01*
X438994Y205375D01*
X442386Y205375D01*
X445519Y204077D01*
X447917Y201679D01*
X449215Y198546D01*
X449215Y195154D01*
X447917Y192021D01*
X445519Y189623D01*
X442386Y188325D01*
X438994Y188325D01*
G37*
%LPD*%
%LPC*%
G36*
X540594Y188325D02*
X540594Y188325D01*
X537461Y189623D01*
X535063Y192021D01*
X533765Y195154D01*
X533765Y198546D01*
X535063Y201679D01*
X537461Y204077D01*
X540594Y205375D01*
X543986Y205375D01*
X547119Y204077D01*
X549517Y201679D01*
X550815Y198546D01*
X550815Y195154D01*
X549517Y192021D01*
X547119Y189623D01*
X543986Y188325D01*
X540594Y188325D01*
G37*
%LPD*%
%LPC*%
G36*
X74504Y159115D02*
X74504Y159115D01*
X71371Y160413D01*
X68973Y162811D01*
X67675Y165944D01*
X67675Y169336D01*
X68973Y172469D01*
X71371Y174867D01*
X74504Y176165D01*
X77896Y176165D01*
X81029Y174867D01*
X83427Y172469D01*
X84725Y169336D01*
X84725Y165944D01*
X83427Y162811D01*
X81029Y160413D01*
X77896Y159115D01*
X74504Y159115D01*
G37*
%LPD*%
%LPC*%
G36*
X565994Y188325D02*
X565994Y188325D01*
X562861Y189623D01*
X560463Y192021D01*
X559165Y195154D01*
X559165Y198546D01*
X560463Y201679D01*
X562861Y204077D01*
X565994Y205375D01*
X569386Y205375D01*
X572519Y204077D01*
X574917Y201679D01*
X576215Y198546D01*
X576215Y195154D01*
X574917Y192021D01*
X572519Y189623D01*
X569386Y188325D01*
X565994Y188325D01*
G37*
%LPD*%
%LPC*%
G36*
X515194Y188325D02*
X515194Y188325D01*
X512061Y189623D01*
X509663Y192021D01*
X508365Y195154D01*
X508365Y198546D01*
X509663Y201679D01*
X512061Y204077D01*
X515194Y205375D01*
X518586Y205375D01*
X521719Y204077D01*
X524117Y201679D01*
X525415Y198546D01*
X525415Y195154D01*
X524117Y192021D01*
X521719Y189623D01*
X518586Y188325D01*
X515194Y188325D01*
G37*
%LPD*%
%LPC*%
G36*
X489794Y188325D02*
X489794Y188325D01*
X486661Y189623D01*
X484263Y192021D01*
X482965Y195154D01*
X482965Y198546D01*
X484263Y201679D01*
X486661Y204077D01*
X489794Y205375D01*
X493186Y205375D01*
X496319Y204077D01*
X498717Y201679D01*
X500015Y198546D01*
X500015Y195154D01*
X498717Y192021D01*
X496319Y189623D01*
X493186Y188325D01*
X489794Y188325D01*
G37*
%LPD*%
%LPC*%
G36*
X74504Y184515D02*
X74504Y184515D01*
X71371Y185813D01*
X68973Y188211D01*
X67675Y191344D01*
X67675Y194736D01*
X68973Y197869D01*
X71371Y200267D01*
X74504Y201565D01*
X77896Y201565D01*
X81029Y200267D01*
X83427Y197869D01*
X84725Y194736D01*
X84725Y191344D01*
X83427Y188211D01*
X81029Y185813D01*
X77896Y184515D01*
X74504Y184515D01*
G37*
%LPD*%
%LPC*%
G36*
X201504Y184515D02*
X201504Y184515D01*
X198371Y185813D01*
X195973Y188211D01*
X194675Y191344D01*
X194675Y194736D01*
X195973Y197869D01*
X198371Y200267D01*
X201504Y201565D01*
X204896Y201565D01*
X208029Y200267D01*
X210427Y197869D01*
X211725Y194736D01*
X211725Y191344D01*
X210427Y188211D01*
X208029Y185813D01*
X204896Y184515D01*
X201504Y184515D01*
G37*
%LPD*%
%LPC*%
G36*
X23704Y184515D02*
X23704Y184515D01*
X20571Y185813D01*
X18173Y188211D01*
X16875Y191344D01*
X16875Y194736D01*
X18173Y197869D01*
X20571Y200267D01*
X23704Y201565D01*
X27096Y201565D01*
X30229Y200267D01*
X32627Y197869D01*
X33925Y194736D01*
X33925Y191344D01*
X32627Y188211D01*
X30229Y185813D01*
X27096Y184515D01*
X23704Y184515D01*
G37*
%LPD*%
%LPC*%
G36*
X125304Y184515D02*
X125304Y184515D01*
X122171Y185813D01*
X119773Y188211D01*
X118475Y191344D01*
X118475Y194736D01*
X119773Y197869D01*
X122171Y200267D01*
X125304Y201565D01*
X128696Y201565D01*
X131829Y200267D01*
X134227Y197869D01*
X135525Y194736D01*
X135525Y191344D01*
X134227Y188211D01*
X131829Y185813D01*
X128696Y184515D01*
X125304Y184515D01*
G37*
%LPD*%
%LPC*%
G36*
X99904Y184515D02*
X99904Y184515D01*
X96771Y185813D01*
X94373Y188211D01*
X93075Y191344D01*
X93075Y194736D01*
X94373Y197869D01*
X96771Y200267D01*
X99904Y201565D01*
X103296Y201565D01*
X106429Y200267D01*
X108827Y197869D01*
X110125Y194736D01*
X110125Y191344D01*
X108827Y188211D01*
X106429Y185813D01*
X103296Y184515D01*
X99904Y184515D01*
G37*
%LPD*%
%LPC*%
G36*
X176104Y184515D02*
X176104Y184515D01*
X172971Y185813D01*
X170573Y188211D01*
X169275Y191344D01*
X169275Y194736D01*
X170573Y197869D01*
X172971Y200267D01*
X176104Y201565D01*
X179496Y201565D01*
X182629Y200267D01*
X185027Y197869D01*
X186325Y194736D01*
X186325Y191344D01*
X185027Y188211D01*
X182629Y185813D01*
X179496Y184515D01*
X176104Y184515D01*
G37*
%LPD*%
%LPC*%
G36*
X150704Y184515D02*
X150704Y184515D01*
X147571Y185813D01*
X145173Y188211D01*
X143875Y191344D01*
X143875Y194736D01*
X145173Y197869D01*
X147571Y200267D01*
X150704Y201565D01*
X154096Y201565D01*
X157229Y200267D01*
X159627Y197869D01*
X160925Y194736D01*
X160925Y191344D01*
X159627Y188211D01*
X157229Y185813D01*
X154096Y184515D01*
X150704Y184515D01*
G37*
%LPD*%
%LPC*%
G36*
X49104Y184515D02*
X49104Y184515D01*
X45971Y185813D01*
X43573Y188211D01*
X42275Y191344D01*
X42275Y194736D01*
X43573Y197869D01*
X45971Y200267D01*
X49104Y201565D01*
X52496Y201565D01*
X55629Y200267D01*
X58027Y197869D01*
X59325Y194736D01*
X59325Y191344D01*
X58027Y188211D01*
X55629Y185813D01*
X52496Y184515D01*
X49104Y184515D01*
G37*
%LPD*%
%LPC*%
G36*
X616794Y162925D02*
X616794Y162925D01*
X613661Y164223D01*
X611263Y166621D01*
X609965Y169754D01*
X609965Y173146D01*
X611263Y176279D01*
X613661Y178677D01*
X616794Y179975D01*
X620186Y179975D01*
X623319Y178677D01*
X625717Y176279D01*
X627015Y173146D01*
X627015Y169754D01*
X625717Y166621D01*
X623319Y164223D01*
X620186Y162925D01*
X616794Y162925D01*
G37*
%LPD*%
%LPC*%
G36*
X591394Y162925D02*
X591394Y162925D01*
X588261Y164223D01*
X585863Y166621D01*
X584565Y169754D01*
X584565Y173146D01*
X585863Y176279D01*
X588261Y178677D01*
X591394Y179975D01*
X594786Y179975D01*
X597919Y178677D01*
X600317Y176279D01*
X601615Y173146D01*
X601615Y169754D01*
X600317Y166621D01*
X597919Y164223D01*
X594786Y162925D01*
X591394Y162925D01*
G37*
%LPD*%
%LPC*%
G36*
X565994Y162925D02*
X565994Y162925D01*
X562861Y164223D01*
X560463Y166621D01*
X559165Y169754D01*
X559165Y173146D01*
X560463Y176279D01*
X562861Y178677D01*
X565994Y179975D01*
X569386Y179975D01*
X572519Y178677D01*
X574917Y176279D01*
X576215Y173146D01*
X576215Y169754D01*
X574917Y166621D01*
X572519Y164223D01*
X569386Y162925D01*
X565994Y162925D01*
G37*
%LPD*%
%LPC*%
G36*
X540594Y162925D02*
X540594Y162925D01*
X537461Y164223D01*
X535063Y166621D01*
X533765Y169754D01*
X533765Y173146D01*
X535063Y176279D01*
X537461Y178677D01*
X540594Y179975D01*
X543986Y179975D01*
X547119Y178677D01*
X549517Y176279D01*
X550815Y173146D01*
X550815Y169754D01*
X549517Y166621D01*
X547119Y164223D01*
X543986Y162925D01*
X540594Y162925D01*
G37*
%LPD*%
%LPC*%
G36*
X515194Y162925D02*
X515194Y162925D01*
X512061Y164223D01*
X509663Y166621D01*
X508365Y169754D01*
X508365Y173146D01*
X509663Y176279D01*
X512061Y178677D01*
X515194Y179975D01*
X518586Y179975D01*
X521719Y178677D01*
X524117Y176279D01*
X525415Y173146D01*
X525415Y169754D01*
X524117Y166621D01*
X521719Y164223D01*
X518586Y162925D01*
X515194Y162925D01*
G37*
%LPD*%
%LPC*%
G36*
X489794Y162925D02*
X489794Y162925D01*
X486661Y164223D01*
X484263Y166621D01*
X482965Y169754D01*
X482965Y173146D01*
X484263Y176279D01*
X486661Y178677D01*
X489794Y179975D01*
X493186Y179975D01*
X496319Y178677D01*
X498717Y176279D01*
X500015Y173146D01*
X500015Y169754D01*
X498717Y166621D01*
X496319Y164223D01*
X493186Y162925D01*
X489794Y162925D01*
G37*
%LPD*%
%LPC*%
G36*
X464394Y162925D02*
X464394Y162925D01*
X461261Y164223D01*
X458863Y166621D01*
X457565Y169754D01*
X457565Y173146D01*
X458863Y176279D01*
X461261Y178677D01*
X464394Y179975D01*
X467786Y179975D01*
X470919Y178677D01*
X473317Y176279D01*
X474615Y173146D01*
X474615Y169754D01*
X473317Y166621D01*
X470919Y164223D01*
X467786Y162925D01*
X464394Y162925D01*
G37*
%LPD*%
%LPC*%
G36*
X438994Y162925D02*
X438994Y162925D01*
X435861Y164223D01*
X433463Y166621D01*
X432165Y169754D01*
X432165Y173146D01*
X433463Y176279D01*
X435861Y178677D01*
X438994Y179975D01*
X442386Y179975D01*
X445519Y178677D01*
X447917Y176279D01*
X449215Y173146D01*
X449215Y169754D01*
X447917Y166621D01*
X445519Y164223D01*
X442386Y162925D01*
X438994Y162925D01*
G37*
%LPD*%
%LPC*%
G36*
X150704Y159115D02*
X150704Y159115D01*
X147571Y160413D01*
X145173Y162811D01*
X143875Y165944D01*
X143875Y169336D01*
X145173Y172469D01*
X147571Y174867D01*
X150704Y176165D01*
X154096Y176165D01*
X157229Y174867D01*
X159627Y172469D01*
X160925Y169336D01*
X160925Y165944D01*
X159627Y162811D01*
X157229Y160413D01*
X154096Y159115D01*
X150704Y159115D01*
G37*
%LPD*%
%LPC*%
G36*
X125304Y159115D02*
X125304Y159115D01*
X122171Y160413D01*
X119773Y162811D01*
X118475Y165944D01*
X118475Y169336D01*
X119773Y172469D01*
X122171Y174867D01*
X125304Y176165D01*
X128696Y176165D01*
X131829Y174867D01*
X134227Y172469D01*
X135525Y169336D01*
X135525Y165944D01*
X134227Y162811D01*
X131829Y160413D01*
X128696Y159115D01*
X125304Y159115D01*
G37*
%LPD*%
%LPC*%
G36*
X99904Y159115D02*
X99904Y159115D01*
X96771Y160413D01*
X94373Y162811D01*
X93075Y165944D01*
X93075Y169336D01*
X94373Y172469D01*
X96771Y174867D01*
X99904Y176165D01*
X103296Y176165D01*
X106429Y174867D01*
X108827Y172469D01*
X110125Y169336D01*
X110125Y165944D01*
X108827Y162811D01*
X106429Y160413D01*
X103296Y159115D01*
X99904Y159115D01*
G37*
%LPD*%
%LPC*%
G36*
X49104Y159115D02*
X49104Y159115D01*
X45971Y160413D01*
X43573Y162811D01*
X42275Y165944D01*
X42275Y169336D01*
X43573Y172469D01*
X45971Y174867D01*
X49104Y176165D01*
X52496Y176165D01*
X55629Y174867D01*
X58027Y172469D01*
X59325Y169336D01*
X59325Y165944D01*
X58027Y162811D01*
X55629Y160413D01*
X52496Y159115D01*
X49104Y159115D01*
G37*
%LPD*%
%LPC*%
G36*
X23704Y159115D02*
X23704Y159115D01*
X20571Y160413D01*
X18173Y162811D01*
X16875Y165944D01*
X16875Y169336D01*
X18173Y172469D01*
X20571Y174867D01*
X23704Y176165D01*
X27096Y176165D01*
X30229Y174867D01*
X32627Y172469D01*
X33925Y169336D01*
X33925Y165944D01*
X32627Y162811D01*
X30229Y160413D01*
X27096Y159115D01*
X23704Y159115D01*
G37*
%LPD*%
%LPC*%
G36*
X201504Y159115D02*
X201504Y159115D01*
X198371Y160413D01*
X195973Y162811D01*
X194675Y165944D01*
X194675Y169336D01*
X195973Y172469D01*
X198371Y174867D01*
X201504Y176165D01*
X204896Y176165D01*
X208029Y174867D01*
X210427Y172469D01*
X211725Y169336D01*
X211725Y165944D01*
X210427Y162811D01*
X208029Y160413D01*
X204896Y159115D01*
X201504Y159115D01*
G37*
%LPD*%
%LPC*%
G36*
X176104Y159115D02*
X176104Y159115D01*
X172971Y160413D01*
X170573Y162811D01*
X169275Y165944D01*
X169275Y169336D01*
X170573Y172469D01*
X172971Y174867D01*
X176104Y176165D01*
X179496Y176165D01*
X182629Y174867D01*
X185027Y172469D01*
X186325Y169336D01*
X186325Y165944D01*
X185027Y162811D01*
X182629Y160413D01*
X179496Y159115D01*
X176104Y159115D01*
G37*
%LPD*%
%LPC*%
G36*
X438994Y137525D02*
X438994Y137525D01*
X435861Y138823D01*
X433463Y141221D01*
X432165Y144354D01*
X432165Y147746D01*
X433463Y150879D01*
X435861Y153277D01*
X438994Y154575D01*
X442386Y154575D01*
X445519Y153277D01*
X447917Y150879D01*
X449215Y147746D01*
X449215Y144354D01*
X447917Y141221D01*
X445519Y138823D01*
X442386Y137525D01*
X438994Y137525D01*
G37*
%LPD*%
%LPC*%
G36*
X464394Y137525D02*
X464394Y137525D01*
X461261Y138823D01*
X458863Y141221D01*
X457565Y144354D01*
X457565Y147746D01*
X458863Y150879D01*
X461261Y153277D01*
X464394Y154575D01*
X467786Y154575D01*
X470919Y153277D01*
X473317Y150879D01*
X474615Y147746D01*
X474615Y144354D01*
X473317Y141221D01*
X470919Y138823D01*
X467786Y137525D01*
X464394Y137525D01*
G37*
%LPD*%
%LPC*%
G36*
X591394Y137525D02*
X591394Y137525D01*
X588261Y138823D01*
X585863Y141221D01*
X584565Y144354D01*
X584565Y147746D01*
X585863Y150879D01*
X588261Y153277D01*
X591394Y154575D01*
X594786Y154575D01*
X597919Y153277D01*
X600317Y150879D01*
X601615Y147746D01*
X601615Y144354D01*
X600317Y141221D01*
X597919Y138823D01*
X594786Y137525D01*
X591394Y137525D01*
G37*
%LPD*%
%LPC*%
G36*
X616794Y137525D02*
X616794Y137525D01*
X613661Y138823D01*
X611263Y141221D01*
X609965Y144354D01*
X609965Y147746D01*
X611263Y150879D01*
X613661Y153277D01*
X616794Y154575D01*
X620186Y154575D01*
X623319Y153277D01*
X625717Y150879D01*
X627015Y147746D01*
X627015Y144354D01*
X625717Y141221D01*
X623319Y138823D01*
X620186Y137525D01*
X616794Y137525D01*
G37*
%LPD*%
%LPC*%
G36*
X565994Y137525D02*
X565994Y137525D01*
X562861Y138823D01*
X560463Y141221D01*
X559165Y144354D01*
X559165Y147746D01*
X560463Y150879D01*
X562861Y153277D01*
X565994Y154575D01*
X569386Y154575D01*
X572519Y153277D01*
X574917Y150879D01*
X576215Y147746D01*
X576215Y144354D01*
X574917Y141221D01*
X572519Y138823D01*
X569386Y137525D01*
X565994Y137525D01*
G37*
%LPD*%
%LPC*%
G36*
X540594Y137525D02*
X540594Y137525D01*
X537461Y138823D01*
X535063Y141221D01*
X533765Y144354D01*
X533765Y147746D01*
X535063Y150879D01*
X537461Y153277D01*
X540594Y154575D01*
X543986Y154575D01*
X547119Y153277D01*
X549517Y150879D01*
X550815Y147746D01*
X550815Y144354D01*
X549517Y141221D01*
X547119Y138823D01*
X543986Y137525D01*
X540594Y137525D01*
G37*
%LPD*%
%LPC*%
G36*
X515194Y137525D02*
X515194Y137525D01*
X512061Y138823D01*
X509663Y141221D01*
X508365Y144354D01*
X508365Y147746D01*
X509663Y150879D01*
X512061Y153277D01*
X515194Y154575D01*
X518586Y154575D01*
X521719Y153277D01*
X524117Y150879D01*
X525415Y147746D01*
X525415Y144354D01*
X524117Y141221D01*
X521719Y138823D01*
X518586Y137525D01*
X515194Y137525D01*
G37*
%LPD*%
%LPC*%
G36*
X453732Y281078D02*
X453732Y281078D01*
X450623Y284187D01*
X450623Y288583D01*
X453919Y291879D01*
X453931Y291895D01*
X453947Y291908D01*
X454003Y291995D01*
X454063Y292079D01*
X454069Y292098D01*
X454080Y292115D01*
X454105Y292215D01*
X454135Y292314D01*
X454135Y292334D01*
X454140Y292353D01*
X454132Y292456D01*
X454129Y292560D01*
X454122Y292579D01*
X454120Y292598D01*
X454080Y292693D01*
X454044Y292791D01*
X454032Y292807D01*
X454024Y292825D01*
X453919Y292956D01*
X450623Y296252D01*
X450623Y300648D01*
X453732Y303757D01*
X458128Y303757D01*
X461237Y300648D01*
X461237Y296252D01*
X457941Y292956D01*
X457929Y292940D01*
X457913Y292927D01*
X457857Y292840D01*
X457797Y292756D01*
X457791Y292737D01*
X457780Y292720D01*
X457755Y292620D01*
X457725Y292521D01*
X457725Y292501D01*
X457720Y292482D01*
X457728Y292379D01*
X457731Y292275D01*
X457738Y292256D01*
X457740Y292236D01*
X457780Y292142D01*
X457816Y292044D01*
X457828Y292028D01*
X457836Y292010D01*
X457941Y291879D01*
X461237Y288583D01*
X461237Y284187D01*
X458128Y281078D01*
X453732Y281078D01*
G37*
%LPD*%
%LPC*%
G36*
X383247Y112803D02*
X383247Y112803D01*
X380138Y115912D01*
X380138Y120308D01*
X383247Y123417D01*
X385401Y123417D01*
X385471Y123428D01*
X385543Y123430D01*
X385592Y123448D01*
X385643Y123456D01*
X385707Y123490D01*
X385774Y123515D01*
X385815Y123547D01*
X385861Y123572D01*
X385910Y123624D01*
X385966Y123668D01*
X385994Y123712D01*
X386030Y123750D01*
X386060Y123815D01*
X386099Y123875D01*
X386112Y123926D01*
X386134Y123973D01*
X386142Y124044D01*
X386159Y124114D01*
X386155Y124166D01*
X386161Y124217D01*
X386146Y124288D01*
X386140Y124359D01*
X386120Y124407D01*
X386109Y124458D01*
X386072Y124519D01*
X386044Y124585D01*
X385999Y124641D01*
X385982Y124669D01*
X385965Y124684D01*
X385939Y124716D01*
X382678Y127977D01*
X382678Y132373D01*
X385787Y135482D01*
X390183Y135482D01*
X393292Y132373D01*
X393292Y127977D01*
X390183Y124868D01*
X388029Y124868D01*
X387959Y124857D01*
X387887Y124855D01*
X387838Y124837D01*
X387787Y124829D01*
X387723Y124795D01*
X387656Y124770D01*
X387615Y124738D01*
X387569Y124713D01*
X387520Y124661D01*
X387464Y124617D01*
X387436Y124573D01*
X387400Y124535D01*
X387370Y124470D01*
X387331Y124410D01*
X387318Y124359D01*
X387296Y124312D01*
X387288Y124241D01*
X387271Y124171D01*
X387275Y124119D01*
X387269Y124068D01*
X387284Y123997D01*
X387290Y123926D01*
X387310Y123878D01*
X387321Y123827D01*
X387358Y123766D01*
X387386Y123700D01*
X387431Y123644D01*
X387448Y123616D01*
X387465Y123601D01*
X387491Y123569D01*
X390752Y120308D01*
X390752Y115912D01*
X387643Y112803D01*
X383247Y112803D01*
G37*
%LPD*%
%LPC*%
G36*
X307047Y232818D02*
X307047Y232818D01*
X303938Y235927D01*
X303938Y240323D01*
X306564Y242949D01*
X306606Y243007D01*
X306655Y243059D01*
X306677Y243106D01*
X306707Y243148D01*
X306729Y243217D01*
X306759Y243282D01*
X306764Y243334D01*
X306780Y243384D01*
X306778Y243455D01*
X306786Y243526D01*
X306775Y243577D01*
X306773Y243629D01*
X306749Y243697D01*
X306734Y243767D01*
X306707Y243812D01*
X306689Y243860D01*
X306644Y243916D01*
X306607Y243978D01*
X306568Y244012D01*
X306535Y244052D01*
X306475Y244091D01*
X306420Y244138D01*
X306372Y244157D01*
X306328Y244185D01*
X306259Y244203D01*
X306192Y244230D01*
X306121Y244238D01*
X306090Y244246D01*
X306067Y244244D01*
X306026Y244248D01*
X303237Y244248D01*
X300128Y247357D01*
X300128Y251753D01*
X303237Y254862D01*
X307633Y254862D01*
X310742Y251753D01*
X310742Y247357D01*
X308116Y244731D01*
X308074Y244673D01*
X308025Y244621D01*
X308003Y244574D01*
X307973Y244532D01*
X307951Y244463D01*
X307921Y244398D01*
X307916Y244346D01*
X307900Y244296D01*
X307902Y244225D01*
X307894Y244154D01*
X307905Y244103D01*
X307907Y244051D01*
X307931Y243983D01*
X307946Y243913D01*
X307973Y243868D01*
X307991Y243820D01*
X308036Y243764D01*
X308073Y243702D01*
X308112Y243668D01*
X308145Y243628D01*
X308205Y243589D01*
X308260Y243542D01*
X308308Y243523D01*
X308352Y243495D01*
X308421Y243477D01*
X308488Y243450D01*
X308559Y243442D01*
X308590Y243434D01*
X308613Y243436D01*
X308654Y243432D01*
X311443Y243432D01*
X314552Y240323D01*
X314552Y235927D01*
X311443Y232818D01*
X307047Y232818D01*
G37*
%LPD*%
%LPC*%
G36*
X435602Y735255D02*
X435602Y735255D01*
X433241Y736233D01*
X431433Y738041D01*
X430455Y740402D01*
X430455Y742958D01*
X431433Y745319D01*
X433241Y747127D01*
X435602Y748105D01*
X438158Y748105D01*
X440519Y747127D01*
X442327Y745319D01*
X443305Y742958D01*
X443305Y740402D01*
X442327Y738041D01*
X440519Y736233D01*
X438158Y735255D01*
X435602Y735255D01*
G37*
%LPD*%
%LPC*%
G36*
X415602Y735255D02*
X415602Y735255D01*
X413241Y736233D01*
X411433Y738041D01*
X410455Y740402D01*
X410455Y742958D01*
X411433Y745319D01*
X413241Y747127D01*
X415602Y748105D01*
X418158Y748105D01*
X420519Y747127D01*
X422327Y745319D01*
X423305Y742958D01*
X423305Y740402D01*
X422327Y738041D01*
X420519Y736233D01*
X418158Y735255D01*
X415602Y735255D01*
G37*
%LPD*%
%LPC*%
G36*
X220022Y733985D02*
X220022Y733985D01*
X217661Y734963D01*
X215853Y736771D01*
X214875Y739132D01*
X214875Y741688D01*
X215853Y744049D01*
X217661Y745857D01*
X220022Y746835D01*
X222578Y746835D01*
X224939Y745857D01*
X226747Y744049D01*
X227725Y741688D01*
X227725Y739132D01*
X226747Y736771D01*
X224939Y734963D01*
X222578Y733985D01*
X220022Y733985D01*
G37*
%LPD*%
%LPC*%
G36*
X240022Y733985D02*
X240022Y733985D01*
X237661Y734963D01*
X235853Y736771D01*
X234875Y739132D01*
X234875Y741688D01*
X235853Y744049D01*
X237661Y745857D01*
X240022Y746835D01*
X242578Y746835D01*
X244939Y745857D01*
X246747Y744049D01*
X247725Y741688D01*
X247725Y739132D01*
X246747Y736771D01*
X244939Y734963D01*
X242578Y733985D01*
X240022Y733985D01*
G37*
%LPD*%
%LPC*%
G36*
X331177Y416968D02*
X331177Y416968D01*
X328068Y420077D01*
X328068Y424473D01*
X331177Y427582D01*
X335573Y427582D01*
X338682Y424473D01*
X338682Y420077D01*
X335573Y416968D01*
X331177Y416968D01*
G37*
%LPD*%
%LPC*%
G36*
X300697Y377598D02*
X300697Y377598D01*
X297588Y380707D01*
X297588Y385103D01*
X300697Y388212D01*
X305093Y388212D01*
X308202Y385103D01*
X308202Y380707D01*
X305093Y377598D01*
X300697Y377598D01*
G37*
%LPD*%
%LPC*%
G36*
X295617Y347118D02*
X295617Y347118D01*
X292508Y350227D01*
X292508Y354623D01*
X295617Y357732D01*
X300013Y357732D01*
X303122Y354623D01*
X303122Y350227D01*
X300013Y347118D01*
X295617Y347118D01*
G37*
%LPD*%
%LPC*%
G36*
X493102Y335053D02*
X493102Y335053D01*
X489993Y338162D01*
X489993Y342558D01*
X493102Y345667D01*
X497498Y345667D01*
X500607Y342558D01*
X500607Y338162D01*
X497498Y335053D01*
X493102Y335053D01*
G37*
%LPD*%
%LPC*%
G36*
X338162Y317908D02*
X338162Y317908D01*
X335053Y321017D01*
X335053Y325413D01*
X338162Y328522D01*
X342558Y328522D01*
X345667Y325413D01*
X345667Y321017D01*
X342558Y317908D01*
X338162Y317908D01*
G37*
%LPD*%
%LPC*%
G36*
X103847Y304573D02*
X103847Y304573D01*
X100738Y307682D01*
X100738Y312078D01*
X103847Y315187D01*
X108243Y315187D01*
X111352Y312078D01*
X111352Y307682D01*
X108243Y304573D01*
X103847Y304573D01*
G37*
%LPD*%
%LPC*%
G36*
X90512Y304573D02*
X90512Y304573D01*
X87403Y307682D01*
X87403Y312078D01*
X90512Y315187D01*
X94908Y315187D01*
X98017Y312078D01*
X98017Y307682D01*
X94908Y304573D01*
X90512Y304573D01*
G37*
%LPD*%
%LPC*%
G36*
X316572Y298858D02*
X316572Y298858D01*
X313463Y301967D01*
X313463Y306363D01*
X316572Y309472D01*
X320968Y309472D01*
X324077Y306363D01*
X324077Y301967D01*
X320968Y298858D01*
X316572Y298858D01*
G37*
%LPD*%
%LPC*%
G36*
X297522Y298223D02*
X297522Y298223D01*
X294413Y301332D01*
X294413Y305728D01*
X297522Y308837D01*
X301918Y308837D01*
X305027Y305728D01*
X305027Y301332D01*
X301918Y298223D01*
X297522Y298223D01*
G37*
%LPD*%
%LPC*%
G36*
X223862Y288698D02*
X223862Y288698D01*
X220753Y291807D01*
X220753Y296203D01*
X223862Y299312D01*
X228258Y299312D01*
X231367Y296203D01*
X231367Y291807D01*
X228258Y288698D01*
X223862Y288698D01*
G37*
%LPD*%
%LPC*%
G36*
X355942Y283618D02*
X355942Y283618D01*
X352833Y286727D01*
X352833Y291123D01*
X355942Y294232D01*
X360338Y294232D01*
X363447Y291123D01*
X363447Y286727D01*
X360338Y283618D01*
X355942Y283618D01*
G37*
%LPD*%
%LPC*%
G36*
X277202Y279808D02*
X277202Y279808D01*
X274093Y282917D01*
X274093Y287313D01*
X277202Y290422D01*
X281598Y290422D01*
X284707Y287313D01*
X284707Y282917D01*
X281598Y279808D01*
X277202Y279808D01*
G37*
%LPD*%
%LPC*%
G36*
X559777Y278538D02*
X559777Y278538D01*
X556668Y281647D01*
X556668Y286043D01*
X559777Y289152D01*
X564173Y289152D01*
X567282Y286043D01*
X567282Y281647D01*
X564173Y278538D01*
X559777Y278538D01*
G37*
%LPD*%
%LPC*%
G36*
X76542Y277903D02*
X76542Y277903D01*
X73433Y281012D01*
X73433Y285408D01*
X76542Y288517D01*
X80938Y288517D01*
X84047Y285408D01*
X84047Y281012D01*
X80938Y277903D01*
X76542Y277903D01*
G37*
%LPD*%
%LPC*%
G36*
X286092Y268378D02*
X286092Y268378D01*
X282983Y271487D01*
X282983Y275883D01*
X286092Y278992D01*
X290488Y278992D01*
X293597Y275883D01*
X293597Y271487D01*
X290488Y268378D01*
X286092Y268378D01*
G37*
%LPD*%
%LPC*%
G36*
X355942Y256948D02*
X355942Y256948D01*
X352833Y260057D01*
X352833Y264453D01*
X355942Y267562D01*
X360338Y267562D01*
X363447Y264453D01*
X363447Y260057D01*
X360338Y256948D01*
X355942Y256948D01*
G37*
%LPD*%
%LPC*%
G36*
X147662Y244883D02*
X147662Y244883D01*
X144553Y247992D01*
X144553Y252388D01*
X147662Y255497D01*
X152058Y255497D01*
X155167Y252388D01*
X155167Y247992D01*
X152058Y244883D01*
X147662Y244883D01*
G37*
%LPD*%
%LPC*%
G36*
X556602Y229643D02*
X556602Y229643D01*
X553493Y232752D01*
X553493Y237148D01*
X556602Y240257D01*
X560998Y240257D01*
X564107Y237148D01*
X564107Y232752D01*
X560998Y229643D01*
X556602Y229643D01*
G37*
%LPD*%
%LPC*%
G36*
X378167Y205513D02*
X378167Y205513D01*
X375058Y208622D01*
X375058Y213018D01*
X378167Y216127D01*
X382563Y216127D01*
X385672Y213018D01*
X385672Y208622D01*
X382563Y205513D01*
X378167Y205513D01*
G37*
%LPD*%
%LPC*%
G36*
X364832Y204878D02*
X364832Y204878D01*
X361723Y207987D01*
X361723Y212383D01*
X364832Y215492D01*
X369228Y215492D01*
X372337Y212383D01*
X372337Y207987D01*
X369228Y204878D01*
X364832Y204878D01*
G37*
%LPD*%
%LPC*%
G36*
X292442Y202973D02*
X292442Y202973D01*
X289333Y206082D01*
X289333Y210478D01*
X292442Y213587D01*
X296838Y213587D01*
X299947Y210478D01*
X299947Y206082D01*
X296838Y202973D01*
X292442Y202973D01*
G37*
%LPD*%
%LPC*%
G36*
X408012Y197258D02*
X408012Y197258D01*
X404903Y200367D01*
X404903Y204763D01*
X408012Y207872D01*
X412408Y207872D01*
X415517Y204763D01*
X415517Y200367D01*
X412408Y197258D01*
X408012Y197258D01*
G37*
%LPD*%
%LPC*%
G36*
X364832Y84863D02*
X364832Y84863D01*
X361723Y87972D01*
X361723Y92368D01*
X364832Y95477D01*
X369228Y95477D01*
X372337Y92368D01*
X372337Y87972D01*
X369228Y84863D01*
X364832Y84863D01*
G37*
%LPD*%
%LPC*%
G36*
X296252Y84863D02*
X296252Y84863D01*
X293143Y87972D01*
X293143Y92368D01*
X296252Y95477D01*
X300648Y95477D01*
X303757Y92368D01*
X303757Y87972D01*
X300648Y84863D01*
X296252Y84863D01*
G37*
%LPD*%
%LPC*%
G36*
X286092Y75338D02*
X286092Y75338D01*
X282983Y78447D01*
X282983Y82843D01*
X286092Y85952D01*
X290488Y85952D01*
X293597Y82843D01*
X293597Y78447D01*
X290488Y75338D01*
X286092Y75338D01*
G37*
%LPD*%
%LPC*%
G36*
X439762Y65813D02*
X439762Y65813D01*
X436653Y68922D01*
X436653Y73318D01*
X439762Y76427D01*
X444158Y76427D01*
X447267Y73318D01*
X447267Y68922D01*
X444158Y65813D01*
X439762Y65813D01*
G37*
%LPD*%
%LPC*%
G36*
X369912Y139473D02*
X369912Y139473D01*
X366803Y142582D01*
X366803Y146978D01*
X369912Y150087D01*
X374308Y150087D01*
X377417Y146978D01*
X377417Y142582D01*
X374308Y139473D01*
X369912Y139473D01*
G37*
%LPD*%
%LPC*%
G36*
X253707Y136933D02*
X253707Y136933D01*
X250598Y140042D01*
X250598Y144438D01*
X253707Y147547D01*
X258103Y147547D01*
X261212Y144438D01*
X261212Y140042D01*
X258103Y136933D01*
X253707Y136933D01*
G37*
%LPD*%
%LPC*%
G36*
X329272Y119153D02*
X329272Y119153D01*
X326163Y122262D01*
X326163Y126658D01*
X329272Y129767D01*
X333668Y129767D01*
X336777Y126658D01*
X336777Y122262D01*
X333668Y119153D01*
X329272Y119153D01*
G37*
%LPD*%
%LPC*%
G36*
X215607Y107723D02*
X215607Y107723D01*
X212498Y110832D01*
X212498Y115228D01*
X215607Y118337D01*
X220003Y118337D01*
X223112Y115228D01*
X223112Y110832D01*
X220003Y107723D01*
X215607Y107723D01*
G37*
%LPD*%
%LPC*%
G36*
X363562Y103913D02*
X363562Y103913D01*
X360453Y107022D01*
X360453Y111418D01*
X363562Y114527D01*
X367958Y114527D01*
X371067Y111418D01*
X371067Y107022D01*
X367958Y103913D01*
X363562Y103913D01*
G37*
%LPD*%
%LPC*%
G36*
X296252Y67083D02*
X296252Y67083D01*
X293143Y70192D01*
X293143Y74588D01*
X296252Y77697D01*
X300648Y77697D01*
X303757Y74588D01*
X303757Y70192D01*
X300648Y67083D01*
X296252Y67083D01*
G37*
%LPD*%
%LPC*%
G36*
X364832Y65813D02*
X364832Y65813D01*
X361723Y68922D01*
X361723Y73318D01*
X364832Y76427D01*
X369228Y76427D01*
X372337Y73318D01*
X372337Y68922D01*
X369228Y65813D01*
X364832Y65813D01*
G37*
%LPD*%
%LPC*%
G36*
X259422Y60733D02*
X259422Y60733D01*
X256313Y63842D01*
X256313Y68238D01*
X259422Y71347D01*
X263818Y71347D01*
X266927Y68238D01*
X266927Y63842D01*
X263818Y60733D01*
X259422Y60733D01*
G37*
%LPD*%
%LPC*%
G36*
X466432Y55018D02*
X466432Y55018D01*
X463323Y58127D01*
X463323Y62523D01*
X466432Y65632D01*
X470828Y65632D01*
X473937Y62523D01*
X473937Y58127D01*
X470828Y55018D01*
X466432Y55018D01*
G37*
%LPD*%
%LPC*%
G36*
X209257Y53113D02*
X209257Y53113D01*
X206148Y56222D01*
X206148Y60618D01*
X209257Y63727D01*
X213653Y63727D01*
X216762Y60618D01*
X216762Y56222D01*
X213653Y53113D01*
X209257Y53113D01*
G37*
%LPD*%
%LPC*%
G36*
X330542Y51843D02*
X330542Y51843D01*
X327433Y54952D01*
X327433Y59348D01*
X330542Y62457D01*
X334938Y62457D01*
X338047Y59348D01*
X338047Y54952D01*
X334938Y51843D01*
X330542Y51843D01*
G37*
%LPD*%
%LPC*%
G36*
X312762Y51208D02*
X312762Y51208D01*
X309653Y54317D01*
X309653Y58713D01*
X312762Y61822D01*
X317158Y61822D01*
X320267Y58713D01*
X320267Y54317D01*
X317158Y51208D01*
X312762Y51208D01*
G37*
%LPD*%
%LPC*%
G36*
X259422Y46763D02*
X259422Y46763D01*
X256313Y49872D01*
X256313Y54268D01*
X259422Y57377D01*
X263818Y57377D01*
X266927Y54268D01*
X266927Y49872D01*
X263818Y46763D01*
X259422Y46763D01*
G37*
%LPD*%
%LPC*%
G36*
X569302Y45493D02*
X569302Y45493D01*
X566193Y48602D01*
X566193Y52998D01*
X569302Y56107D01*
X573698Y56107D01*
X576807Y52998D01*
X576807Y48602D01*
X573698Y45493D01*
X569302Y45493D01*
G37*
%LPD*%
%LPC*%
G36*
X543902Y45493D02*
X543902Y45493D01*
X540793Y48602D01*
X540793Y52998D01*
X543902Y56107D01*
X548298Y56107D01*
X551407Y52998D01*
X551407Y48602D01*
X548298Y45493D01*
X543902Y45493D01*
G37*
%LPD*%
%LPC*%
G36*
X296252Y102643D02*
X296252Y102643D01*
X293143Y105752D01*
X293143Y110148D01*
X296252Y113257D01*
X300648Y113257D01*
X303757Y110148D01*
X303757Y105752D01*
X300648Y102643D01*
X296252Y102643D01*
G37*
%LPD*%
%LPC*%
G36*
X253707Y149633D02*
X253707Y149633D01*
X250598Y152742D01*
X250598Y157138D01*
X253707Y160247D01*
X258103Y160247D01*
X261212Y157138D01*
X261212Y152742D01*
X258103Y149633D01*
X253707Y149633D01*
G37*
%LPD*%
%LPC*%
G36*
X267677Y148363D02*
X267677Y148363D01*
X264568Y151472D01*
X264568Y155868D01*
X267677Y158977D01*
X272073Y158977D01*
X275182Y155868D01*
X275182Y151472D01*
X272073Y148363D01*
X267677Y148363D01*
G37*
%LPD*%
%LPC*%
G36*
X275932Y166143D02*
X275932Y166143D01*
X272823Y169252D01*
X272823Y173648D01*
X275932Y176757D01*
X280328Y176757D01*
X283437Y173648D01*
X283437Y169252D01*
X280328Y166143D01*
X275932Y166143D01*
G37*
%LPD*%
%LPC*%
G36*
X566762Y304573D02*
X566762Y304573D01*
X563653Y307682D01*
X563653Y312078D01*
X566762Y315187D01*
X571158Y315187D01*
X574267Y312078D01*
X574267Y307682D01*
X571158Y304573D01*
X566762Y304573D01*
G37*
%LPD*%
%LPC*%
G36*
X332447Y159158D02*
X332447Y159158D01*
X329338Y162267D01*
X329338Y166663D01*
X332447Y169772D01*
X336843Y169772D01*
X339952Y166663D01*
X339952Y162267D01*
X336843Y159158D01*
X332447Y159158D01*
G37*
%LPD*%
%LPC*%
G36*
X353402Y151538D02*
X353402Y151538D01*
X350293Y154647D01*
X350293Y159043D01*
X353402Y162152D01*
X357798Y162152D01*
X360907Y159043D01*
X360907Y154647D01*
X357798Y151538D01*
X353402Y151538D01*
G37*
%LPD*%
%LPC*%
G36*
X293077Y25173D02*
X293077Y25173D01*
X289968Y28282D01*
X289968Y32678D01*
X293077Y35787D01*
X297473Y35787D01*
X300582Y32678D01*
X300582Y28282D01*
X297473Y25173D01*
X293077Y25173D01*
G37*
%LPD*%
%LPC*%
G36*
X281647Y17553D02*
X281647Y17553D01*
X278538Y20662D01*
X278538Y25058D01*
X281647Y28167D01*
X286043Y28167D01*
X289152Y25058D01*
X289152Y20662D01*
X286043Y17553D01*
X281647Y17553D01*
G37*
%LPD*%
%LPC*%
G36*
X462622Y16283D02*
X462622Y16283D01*
X459513Y19392D01*
X459513Y23788D01*
X462622Y26897D01*
X467018Y26897D01*
X470127Y23788D01*
X470127Y19392D01*
X467018Y16283D01*
X462622Y16283D01*
G37*
%LPD*%
%LPC*%
G36*
X263867Y14378D02*
X263867Y14378D01*
X260758Y17487D01*
X260758Y21883D01*
X263867Y24992D01*
X268263Y24992D01*
X271372Y21883D01*
X271372Y17487D01*
X268263Y14378D01*
X263867Y14378D01*
G37*
%LPD*%
%LPC*%
G36*
X199008Y72643D02*
X199008Y72643D01*
X199008Y80545D01*
X200268Y80294D01*
X202004Y79575D01*
X203567Y78531D01*
X204896Y77202D01*
X205940Y75639D01*
X206659Y73903D01*
X206910Y72643D01*
X199008Y72643D01*
G37*
%LPD*%
%LPC*%
G36*
X199008Y69597D02*
X199008Y69597D01*
X206910Y69597D01*
X206659Y68337D01*
X205940Y66601D01*
X204896Y65038D01*
X203567Y63709D01*
X202004Y62665D01*
X200268Y61946D01*
X199008Y61695D01*
X199008Y69597D01*
G37*
%LPD*%
%LPC*%
G36*
X188060Y72643D02*
X188060Y72643D01*
X188311Y73903D01*
X189030Y75639D01*
X190074Y77202D01*
X191403Y78531D01*
X192966Y79575D01*
X194702Y80294D01*
X195962Y80545D01*
X195962Y72643D01*
X188060Y72643D01*
G37*
%LPD*%
%LPC*%
G36*
X194702Y61946D02*
X194702Y61946D01*
X192966Y62665D01*
X191403Y63709D01*
X190074Y65038D01*
X189030Y66601D01*
X188311Y68337D01*
X188060Y69597D01*
X195962Y69597D01*
X195962Y61695D01*
X194702Y61946D01*
G37*
%LPD*%
%LPC*%
G36*
X197484Y71119D02*
X197484Y71119D01*
X197484Y71121D01*
X197486Y71121D01*
X197486Y71119D01*
X197484Y71119D01*
G37*
%LPD*%
D10*
X241300Y740410D03*
X221300Y740410D03*
X436880Y741680D03*
X416880Y741680D03*
D11*
X297815Y512445D03*
X347815Y512445D03*
X347980Y647700D03*
X297980Y647700D03*
D12*
X37084Y687070D03*
X236220Y687070D03*
X419354Y685800D03*
X618490Y685800D03*
D11*
X477520Y90170D03*
X502920Y90170D03*
X528320Y90170D03*
X553720Y90170D03*
X579120Y90170D03*
X604520Y90170D03*
X312420Y743585D03*
X337820Y743585D03*
X128270Y624840D03*
X128270Y510440D03*
X516890Y623570D03*
X516890Y509170D03*
X203200Y193040D03*
X203200Y167640D03*
X203200Y142240D03*
X177800Y193040D03*
X152400Y193040D03*
X127000Y193040D03*
X101600Y193040D03*
X76200Y193040D03*
X50800Y193040D03*
X25400Y193040D03*
X177800Y167640D03*
X152400Y167640D03*
X127000Y167640D03*
X101600Y167640D03*
X76200Y167640D03*
X50800Y167640D03*
X25400Y167640D03*
X177800Y142240D03*
X152400Y142240D03*
X127000Y142240D03*
X101600Y142240D03*
X76200Y142240D03*
X50800Y142240D03*
X25400Y142240D03*
X26670Y398780D03*
X26670Y424180D03*
X26670Y449580D03*
X52070Y398780D03*
X77470Y398780D03*
X102870Y398780D03*
X128270Y398780D03*
X153670Y398780D03*
X179070Y398780D03*
X204470Y398780D03*
X52070Y424180D03*
X77470Y424180D03*
X102870Y424180D03*
X128270Y424180D03*
X153670Y424180D03*
X179070Y424180D03*
X204470Y424180D03*
X52070Y449580D03*
X77470Y449580D03*
X102870Y449580D03*
X128270Y449580D03*
X153670Y449580D03*
X179070Y449580D03*
X204470Y449580D03*
X441960Y397510D03*
X441960Y422910D03*
X441960Y448310D03*
X467360Y397510D03*
X492760Y397510D03*
X518160Y397510D03*
X543560Y397510D03*
X568960Y397510D03*
X594360Y397510D03*
X619760Y397510D03*
X467360Y422910D03*
X492760Y422910D03*
X518160Y422910D03*
X543560Y422910D03*
X568960Y422910D03*
X594360Y422910D03*
X619760Y422910D03*
X467360Y448310D03*
X492760Y448310D03*
X518160Y448310D03*
X543560Y448310D03*
X568960Y448310D03*
X594360Y448310D03*
X619760Y448310D03*
X618490Y196850D03*
X618490Y171450D03*
X618490Y146050D03*
X593090Y196850D03*
X567690Y196850D03*
X542290Y196850D03*
X516890Y196850D03*
X491490Y196850D03*
X466090Y196850D03*
X440690Y196850D03*
X593090Y171450D03*
X567690Y171450D03*
X542290Y171450D03*
X516890Y171450D03*
X491490Y171450D03*
X466090Y171450D03*
X440690Y171450D03*
X593090Y146050D03*
X567690Y146050D03*
X542290Y146050D03*
X516890Y146050D03*
X491490Y146050D03*
X466090Y146050D03*
X440690Y146050D03*
D13*
X102870Y740410D03*
X119870Y740410D03*
X136870Y740410D03*
X153870Y740410D03*
X170870Y740410D03*
X483870Y741680D03*
X500870Y741680D03*
X517870Y741680D03*
X534870Y741680D03*
X551870Y741680D03*
D11*
X19685Y45720D03*
X45085Y45720D03*
X70485Y45720D03*
X95885Y45720D03*
X121285Y45720D03*
X146685Y45720D03*
X172085Y45720D03*
X197485Y45720D03*
X197485Y71120D03*
X172085Y71120D03*
X146685Y71120D03*
X121285Y71120D03*
X95885Y71120D03*
X70485Y71120D03*
X45085Y71120D03*
X19685Y71120D03*
D14*
X394335Y422275D03*
X231775Y387985D03*
X274955Y370205D03*
X588010Y246380D03*
X596900Y355600D03*
X60960Y340360D03*
X52070Y236220D03*
X381000Y273685D03*
X345440Y249555D03*
X309880Y225425D03*
X340360Y306705D03*
X427990Y27940D03*
X240665Y284480D03*
X192405Y283845D03*
X266065Y19685D03*
X298450Y72390D03*
X298450Y90170D03*
X298450Y107950D03*
X332740Y57150D03*
X331470Y124460D03*
X365760Y109220D03*
X367030Y90170D03*
X367030Y71120D03*
X386080Y15240D03*
X333375Y422275D03*
X302895Y382905D03*
X297815Y352425D03*
X78740Y283210D03*
X149860Y250190D03*
X495300Y340360D03*
X358140Y288925D03*
X358140Y262255D03*
X340360Y323215D03*
X288290Y273685D03*
X318770Y304165D03*
X464820Y21590D03*
X441960Y71120D03*
X92710Y309880D03*
X561975Y283845D03*
X380365Y210820D03*
X568960Y309880D03*
X261620Y66040D03*
X546100Y50800D03*
X261620Y52070D03*
X571500Y50800D03*
X385445Y118110D03*
X468630Y60325D03*
X279400Y285115D03*
X455930Y286385D03*
X288290Y80645D03*
X299720Y303530D03*
X455930Y298450D03*
X226060Y294005D03*
X269875Y153670D03*
X314960Y56515D03*
X294640Y208280D03*
X106045Y309880D03*
X387985Y130175D03*
X558800Y234950D03*
X309245Y238125D03*
X372110Y144780D03*
X305435Y249555D03*
X355600Y156845D03*
X410210Y202565D03*
X367030Y210185D03*
X334645Y164465D03*
X211455Y58420D03*
X278130Y171450D03*
X255905Y154940D03*
X255905Y142240D03*
X217805Y113030D03*
X283845Y22860D03*
X295275Y30480D03*
X295910Y14605D03*
M02*
