G04 EAGLE Gerber RS-274X export*
G75*
%MOMM*%
%FSLAX34Y34*%
%LPD*%
%INTop Copper*%
%IPPOS*%
%AMOC8*
5,1,8,0,0,1.08239X$1,22.5*%
G01*
%ADD10R,0.635000X0.610000*%
%ADD11C,1.200000*%
%ADD12R,0.914000X1.720000*%
%ADD13R,0.610000X0.635000*%
%ADD14C,1.600000*%
%ADD15R,2.169163X2.169163*%
%ADD16C,2.169163*%
%ADD17R,1.400000X1.400000*%
%ADD18C,1.676400*%
%ADD19R,1.600000X3.900000*%
%ADD20R,0.255600X0.804800*%
%ADD21R,1.550000X1.300000*%
%ADD22R,2.000000X0.900000*%
%ADD23R,0.900000X2.000000*%
%ADD24R,1.330000X1.330000*%
%ADD25R,0.381000X0.254000*%
%ADD26R,0.254000X0.482600*%
%ADD27R,0.404800X1.761997*%
%ADD28R,1.540000X1.540000*%
%ADD29R,1.527900X0.299400*%
%ADD30C,0.756400*%
%ADD31C,0.152400*%
%ADD32C,0.800000*%
%ADD33C,0.600000*%

G36*
X315107Y396117D02*
X315107Y396117D01*
X315126Y396115D01*
X315228Y396137D01*
X315330Y396154D01*
X315347Y396163D01*
X315367Y396167D01*
X315456Y396220D01*
X315547Y396269D01*
X315561Y396283D01*
X315578Y396293D01*
X315645Y396372D01*
X315717Y396447D01*
X315725Y396465D01*
X315738Y396480D01*
X315777Y396576D01*
X315820Y396670D01*
X315822Y396690D01*
X315830Y396708D01*
X315848Y396875D01*
X315848Y397224D01*
X326028Y397224D01*
X326029Y397224D01*
X336209Y397224D01*
X336209Y396875D01*
X336212Y396855D01*
X336210Y396836D01*
X336232Y396734D01*
X336248Y396632D01*
X336258Y396615D01*
X336262Y396595D01*
X336315Y396506D01*
X336364Y396415D01*
X336378Y396401D01*
X336388Y396384D01*
X336467Y396317D01*
X336542Y396246D01*
X336560Y396237D01*
X336575Y396224D01*
X336671Y396185D01*
X336765Y396142D01*
X336785Y396140D01*
X336803Y396132D01*
X336970Y396114D01*
X338455Y396114D01*
X338475Y396117D01*
X338494Y396115D01*
X338596Y396137D01*
X338698Y396154D01*
X338715Y396163D01*
X338735Y396167D01*
X338824Y396220D01*
X338915Y396269D01*
X338929Y396283D01*
X338946Y396293D01*
X339013Y396372D01*
X339085Y396447D01*
X339093Y396465D01*
X339106Y396480D01*
X339145Y396576D01*
X339188Y396670D01*
X339190Y396690D01*
X339198Y396708D01*
X339216Y396875D01*
X339216Y408814D01*
X363855Y408814D01*
X363875Y408817D01*
X363894Y408815D01*
X363996Y408837D01*
X364098Y408854D01*
X364115Y408863D01*
X364135Y408867D01*
X364224Y408920D01*
X364315Y408969D01*
X364329Y408983D01*
X364346Y408993D01*
X364413Y409072D01*
X364485Y409147D01*
X364493Y409165D01*
X364506Y409180D01*
X364545Y409276D01*
X364588Y409370D01*
X364590Y409390D01*
X364598Y409408D01*
X364616Y409575D01*
X364616Y445135D01*
X364613Y445155D01*
X364615Y445174D01*
X364593Y445276D01*
X364577Y445378D01*
X364567Y445395D01*
X364563Y445415D01*
X364510Y445504D01*
X364461Y445595D01*
X364447Y445609D01*
X364437Y445626D01*
X364358Y445693D01*
X364283Y445765D01*
X364265Y445773D01*
X364250Y445786D01*
X364154Y445825D01*
X364060Y445868D01*
X364040Y445870D01*
X364022Y445878D01*
X363855Y445896D01*
X309245Y445896D01*
X309225Y445893D01*
X309206Y445895D01*
X309104Y445873D01*
X309002Y445857D01*
X308985Y445847D01*
X308965Y445843D01*
X308876Y445790D01*
X308785Y445741D01*
X308771Y445727D01*
X308754Y445717D01*
X308687Y445638D01*
X308616Y445563D01*
X308607Y445545D01*
X308594Y445530D01*
X308555Y445434D01*
X308512Y445340D01*
X308510Y445320D01*
X308502Y445302D01*
X308484Y445135D01*
X308484Y396875D01*
X308487Y396855D01*
X308485Y396836D01*
X308507Y396734D01*
X308524Y396632D01*
X308533Y396615D01*
X308537Y396595D01*
X308590Y396506D01*
X308639Y396415D01*
X308653Y396401D01*
X308663Y396384D01*
X308742Y396317D01*
X308817Y396246D01*
X308835Y396237D01*
X308850Y396224D01*
X308946Y396185D01*
X309040Y396142D01*
X309060Y396140D01*
X309078Y396132D01*
X309245Y396114D01*
X315087Y396114D01*
X315107Y396117D01*
G37*
G36*
X401975Y359287D02*
X401975Y359287D01*
X401994Y359285D01*
X402096Y359307D01*
X402198Y359324D01*
X402215Y359333D01*
X402235Y359337D01*
X402324Y359390D01*
X402415Y359439D01*
X402429Y359453D01*
X402446Y359463D01*
X402513Y359542D01*
X402585Y359617D01*
X402593Y359635D01*
X402606Y359650D01*
X402645Y359746D01*
X402688Y359840D01*
X402690Y359860D01*
X402698Y359878D01*
X402716Y360045D01*
X402716Y445135D01*
X402713Y445155D01*
X402715Y445174D01*
X402693Y445276D01*
X402677Y445378D01*
X402667Y445395D01*
X402663Y445415D01*
X402610Y445504D01*
X402561Y445595D01*
X402547Y445609D01*
X402537Y445626D01*
X402458Y445693D01*
X402383Y445765D01*
X402365Y445773D01*
X402350Y445786D01*
X402254Y445825D01*
X402160Y445868D01*
X402140Y445870D01*
X402122Y445878D01*
X401955Y445896D01*
X370205Y445896D01*
X370185Y445893D01*
X370166Y445895D01*
X370064Y445873D01*
X369962Y445857D01*
X369945Y445847D01*
X369925Y445843D01*
X369836Y445790D01*
X369745Y445741D01*
X369731Y445727D01*
X369714Y445717D01*
X369647Y445638D01*
X369576Y445563D01*
X369567Y445545D01*
X369554Y445530D01*
X369515Y445434D01*
X369472Y445340D01*
X369470Y445320D01*
X369462Y445302D01*
X369444Y445135D01*
X369444Y406890D01*
X369452Y406842D01*
X369450Y406794D01*
X369471Y406722D01*
X369484Y406647D01*
X369506Y406604D01*
X369520Y406558D01*
X369563Y406496D01*
X369599Y406430D01*
X369633Y406397D01*
X369661Y406357D01*
X369722Y406312D01*
X369777Y406260D01*
X369821Y406240D01*
X369859Y406211D01*
X369931Y406188D01*
X370000Y406157D01*
X370048Y406151D01*
X370094Y406137D01*
X370169Y406138D01*
X370244Y406129D01*
X370292Y406140D01*
X370340Y406140D01*
X370411Y406166D01*
X370485Y406182D01*
X370526Y406206D01*
X370571Y406222D01*
X370631Y406269D01*
X370696Y406308D01*
X370727Y406344D01*
X370765Y406374D01*
X370841Y406478D01*
X370856Y406495D01*
X370858Y406501D01*
X370860Y406503D01*
X371335Y406978D01*
X371914Y407313D01*
X372561Y407486D01*
X379372Y407486D01*
X379372Y386207D01*
X379375Y386187D01*
X379373Y386168D01*
X379395Y386066D01*
X379412Y385964D01*
X379421Y385947D01*
X379425Y385927D01*
X379478Y385838D01*
X379527Y385747D01*
X379541Y385733D01*
X379551Y385716D01*
X379630Y385649D01*
X379705Y385578D01*
X379723Y385569D01*
X379738Y385556D01*
X379834Y385517D01*
X379928Y385474D01*
X379948Y385472D01*
X379966Y385464D01*
X380133Y385446D01*
X380896Y385446D01*
X380896Y385444D01*
X380133Y385444D01*
X380113Y385441D01*
X380094Y385443D01*
X379992Y385421D01*
X379890Y385404D01*
X379873Y385395D01*
X379853Y385391D01*
X379764Y385338D01*
X379673Y385289D01*
X379659Y385275D01*
X379642Y385265D01*
X379575Y385186D01*
X379504Y385111D01*
X379495Y385093D01*
X379482Y385078D01*
X379443Y384982D01*
X379400Y384888D01*
X379398Y384868D01*
X379390Y384850D01*
X379372Y384683D01*
X379372Y363404D01*
X372561Y363404D01*
X371914Y363577D01*
X371335Y363912D01*
X370857Y364390D01*
X370834Y364418D01*
X370811Y364460D01*
X370757Y364512D01*
X370709Y364571D01*
X370668Y364597D01*
X370633Y364630D01*
X370564Y364662D01*
X370500Y364702D01*
X370454Y364713D01*
X370410Y364733D01*
X370335Y364742D01*
X370261Y364759D01*
X370213Y364755D01*
X370166Y364761D01*
X370092Y364744D01*
X370016Y364738D01*
X369972Y364719D01*
X369925Y364708D01*
X369860Y364669D01*
X369791Y364639D01*
X369755Y364607D01*
X369714Y364582D01*
X369665Y364525D01*
X369609Y364474D01*
X369585Y364432D01*
X369554Y364395D01*
X369526Y364325D01*
X369489Y364259D01*
X369480Y364212D01*
X369462Y364167D01*
X369448Y364039D01*
X369444Y364017D01*
X369445Y364010D01*
X369444Y364000D01*
X369444Y360045D01*
X369447Y360025D01*
X369445Y360006D01*
X369467Y359904D01*
X369484Y359802D01*
X369493Y359785D01*
X369497Y359765D01*
X369550Y359676D01*
X369599Y359585D01*
X369613Y359571D01*
X369623Y359554D01*
X369702Y359487D01*
X369777Y359416D01*
X369795Y359407D01*
X369810Y359394D01*
X369906Y359355D01*
X370000Y359312D01*
X370020Y359310D01*
X370038Y359302D01*
X370205Y359284D01*
X401955Y359284D01*
X401975Y359287D01*
G37*
%LPC*%
G36*
X382418Y386968D02*
X382418Y386968D01*
X382418Y407486D01*
X389229Y407486D01*
X389876Y407313D01*
X390455Y406978D01*
X390928Y406505D01*
X391263Y405926D01*
X391436Y405279D01*
X391436Y386968D01*
X382418Y386968D01*
G37*
%LPD*%
%LPC*%
G36*
X382418Y363404D02*
X382418Y363404D01*
X382418Y383922D01*
X391436Y383922D01*
X391436Y365611D01*
X391263Y364964D01*
X390928Y364385D01*
X390455Y363912D01*
X389876Y363577D01*
X389229Y363404D01*
X382418Y363404D01*
G37*
%LPD*%
%LPC*%
G36*
X320928Y423798D02*
X320928Y423798D01*
X320928Y433416D01*
X324310Y433416D01*
X324956Y433243D01*
X325535Y432908D01*
X326008Y432435D01*
X326343Y431856D01*
X326516Y431209D01*
X326516Y423798D01*
X320928Y423798D01*
G37*
%LPD*%
%LPC*%
G36*
X350138Y423798D02*
X350138Y423798D01*
X350138Y433416D01*
X353520Y433416D01*
X354166Y433243D01*
X354745Y432908D01*
X355218Y432435D01*
X355553Y431856D01*
X355726Y431209D01*
X355726Y423798D01*
X350138Y423798D01*
G37*
%LPD*%
%LPC*%
G36*
X380618Y423798D02*
X380618Y423798D01*
X380618Y433416D01*
X384000Y433416D01*
X384646Y433243D01*
X385225Y432908D01*
X385698Y432435D01*
X386033Y431856D01*
X386206Y431209D01*
X386206Y423798D01*
X380618Y423798D01*
G37*
%LPD*%
%LPC*%
G36*
X350138Y411134D02*
X350138Y411134D01*
X350138Y420752D01*
X355726Y420752D01*
X355726Y413341D01*
X355553Y412694D01*
X355218Y412115D01*
X354745Y411642D01*
X354166Y411307D01*
X353519Y411134D01*
X350138Y411134D01*
G37*
%LPD*%
%LPC*%
G36*
X320928Y411134D02*
X320928Y411134D01*
X320928Y420752D01*
X326516Y420752D01*
X326516Y413341D01*
X326343Y412694D01*
X326008Y412115D01*
X325535Y411642D01*
X324956Y411307D01*
X324309Y411134D01*
X320928Y411134D01*
G37*
%LPD*%
%LPC*%
G36*
X380618Y411134D02*
X380618Y411134D01*
X380618Y420752D01*
X386206Y420752D01*
X386206Y413341D01*
X386033Y412694D01*
X385698Y412115D01*
X385225Y411642D01*
X384646Y411307D01*
X383999Y411134D01*
X380618Y411134D01*
G37*
%LPD*%
%LPC*%
G36*
X341504Y423798D02*
X341504Y423798D01*
X341504Y431209D01*
X341677Y431856D01*
X342012Y432435D01*
X342485Y432908D01*
X343064Y433243D01*
X343711Y433416D01*
X347092Y433416D01*
X347092Y423798D01*
X341504Y423798D01*
G37*
%LPD*%
%LPC*%
G36*
X312294Y423798D02*
X312294Y423798D01*
X312294Y431209D01*
X312467Y431856D01*
X312802Y432435D01*
X313275Y432908D01*
X313854Y433243D01*
X314501Y433416D01*
X317882Y433416D01*
X317882Y423798D01*
X312294Y423798D01*
G37*
%LPD*%
%LPC*%
G36*
X371984Y423798D02*
X371984Y423798D01*
X371984Y431209D01*
X372157Y431856D01*
X372492Y432435D01*
X372965Y432908D01*
X373544Y433243D01*
X374191Y433416D01*
X377572Y433416D01*
X377572Y423798D01*
X371984Y423798D01*
G37*
%LPD*%
%LPC*%
G36*
X314501Y411134D02*
X314501Y411134D01*
X313854Y411307D01*
X313275Y411642D01*
X312802Y412115D01*
X312467Y412694D01*
X312294Y413341D01*
X312294Y420752D01*
X317882Y420752D01*
X317882Y411134D01*
X314501Y411134D01*
G37*
%LPD*%
%LPC*%
G36*
X343711Y411134D02*
X343711Y411134D01*
X343064Y411307D01*
X342485Y411642D01*
X342012Y412115D01*
X341677Y412694D01*
X341504Y413341D01*
X341504Y420752D01*
X347092Y420752D01*
X347092Y411134D01*
X343711Y411134D01*
G37*
%LPD*%
%LPC*%
G36*
X374191Y411134D02*
X374191Y411134D01*
X373544Y411307D01*
X372965Y411642D01*
X372492Y412115D01*
X372157Y412694D01*
X371984Y413341D01*
X371984Y420752D01*
X377572Y420752D01*
X377572Y411134D01*
X374191Y411134D01*
G37*
%LPD*%
%LPC*%
G36*
X326790Y398746D02*
X326790Y398746D01*
X326790Y402023D01*
X334002Y402023D01*
X334649Y401850D01*
X335228Y401515D01*
X335701Y401042D01*
X336036Y400463D01*
X336209Y399816D01*
X336209Y398746D01*
X326790Y398746D01*
G37*
%LPD*%
%LPC*%
G36*
X315848Y398746D02*
X315848Y398746D01*
X315848Y399816D01*
X316021Y400463D01*
X316356Y401042D01*
X316829Y401515D01*
X317408Y401850D01*
X318055Y402023D01*
X325267Y402023D01*
X325267Y398746D01*
X315848Y398746D01*
G37*
%LPD*%
%LPC*%
G36*
X348614Y422274D02*
X348614Y422274D01*
X348614Y422276D01*
X348616Y422276D01*
X348616Y422274D01*
X348614Y422274D01*
G37*
%LPD*%
%LPC*%
G36*
X319404Y422274D02*
X319404Y422274D01*
X319404Y422276D01*
X319406Y422276D01*
X319406Y422274D01*
X319404Y422274D01*
G37*
%LPD*%
%LPC*%
G36*
X379094Y422274D02*
X379094Y422274D01*
X379094Y422276D01*
X379096Y422276D01*
X379096Y422274D01*
X379094Y422274D01*
G37*
%LPD*%
D10*
X441960Y59690D03*
X430020Y59690D03*
D11*
X241300Y740410D03*
X221300Y740410D03*
X436880Y741680D03*
X416880Y741680D03*
D12*
X288925Y422275D03*
X319405Y422275D03*
X379095Y422275D03*
X348615Y422275D03*
D10*
X441960Y13970D03*
X453900Y13970D03*
X441960Y27940D03*
X453900Y27940D03*
D13*
X345440Y226695D03*
X345440Y238635D03*
X351790Y310515D03*
X351790Y322455D03*
X330200Y226695D03*
X330200Y238635D03*
X328930Y310515D03*
X328930Y322455D03*
D14*
X297815Y512445D03*
X347815Y512445D03*
X347980Y647700D03*
X297980Y647700D03*
D15*
X37084Y687070D03*
D16*
X236220Y687070D03*
D15*
X419354Y685800D03*
D16*
X618490Y685800D03*
D17*
X477520Y90170D03*
X502920Y90170D03*
X528320Y90170D03*
X553720Y90170D03*
X579120Y90170D03*
X604520Y90170D03*
X312420Y743585D03*
X337820Y743585D03*
D18*
X128270Y624840D03*
X128270Y510440D03*
X516890Y623570D03*
X516890Y509170D03*
D19*
X351895Y385445D03*
X380895Y385445D03*
D17*
X203200Y193040D03*
X203200Y167640D03*
X203200Y142240D03*
X177800Y193040D03*
X152400Y193040D03*
X127000Y193040D03*
X101600Y193040D03*
X76200Y193040D03*
X50800Y193040D03*
X25400Y193040D03*
X177800Y167640D03*
X152400Y167640D03*
X127000Y167640D03*
X101600Y167640D03*
X76200Y167640D03*
X50800Y167640D03*
X25400Y167640D03*
X177800Y142240D03*
X152400Y142240D03*
X127000Y142240D03*
X101600Y142240D03*
X76200Y142240D03*
X50800Y142240D03*
X25400Y142240D03*
X26670Y398780D03*
X26670Y424180D03*
X26670Y449580D03*
X52070Y398780D03*
X77470Y398780D03*
X102870Y398780D03*
X128270Y398780D03*
X153670Y398780D03*
X179070Y398780D03*
X204470Y398780D03*
X52070Y424180D03*
X77470Y424180D03*
X102870Y424180D03*
X128270Y424180D03*
X153670Y424180D03*
X179070Y424180D03*
X204470Y424180D03*
X52070Y449580D03*
X77470Y449580D03*
X102870Y449580D03*
X128270Y449580D03*
X153670Y449580D03*
X179070Y449580D03*
X204470Y449580D03*
X441960Y397510D03*
X441960Y422910D03*
X441960Y448310D03*
X467360Y397510D03*
X492760Y397510D03*
X518160Y397510D03*
X543560Y397510D03*
X568960Y397510D03*
X594360Y397510D03*
X619760Y397510D03*
X467360Y422910D03*
X492760Y422910D03*
X518160Y422910D03*
X543560Y422910D03*
X568960Y422910D03*
X594360Y422910D03*
X619760Y422910D03*
X467360Y448310D03*
X492760Y448310D03*
X518160Y448310D03*
X543560Y448310D03*
X568960Y448310D03*
X594360Y448310D03*
X619760Y448310D03*
X618490Y196850D03*
X618490Y171450D03*
X618490Y146050D03*
X593090Y196850D03*
X567690Y196850D03*
X542290Y196850D03*
X516890Y196850D03*
X491490Y196850D03*
X466090Y196850D03*
X440690Y196850D03*
X593090Y171450D03*
X567690Y171450D03*
X542290Y171450D03*
X516890Y171450D03*
X491490Y171450D03*
X466090Y171450D03*
X440690Y171450D03*
X593090Y146050D03*
X567690Y146050D03*
X542290Y146050D03*
X516890Y146050D03*
X491490Y146050D03*
X466090Y146050D03*
X440690Y146050D03*
D13*
X213360Y27305D03*
X213360Y15365D03*
D20*
X113310Y351965D03*
X118310Y351965D03*
X123310Y351965D03*
X128310Y351965D03*
X133310Y351965D03*
X138310Y351965D03*
X143310Y351965D03*
X148310Y351965D03*
X148310Y371935D03*
X143310Y371935D03*
X138310Y371935D03*
X133310Y371935D03*
X128310Y371935D03*
X123310Y371935D03*
X118310Y371935D03*
X113310Y371935D03*
D10*
X358140Y273685D03*
X370080Y273685D03*
X92710Y344170D03*
X80770Y344170D03*
X582930Y344170D03*
X594870Y344170D03*
D13*
X320040Y238125D03*
X320040Y226185D03*
X325755Y365125D03*
X325755Y353185D03*
X309245Y352425D03*
X309245Y364365D03*
D10*
X254635Y382905D03*
X242695Y382905D03*
X254635Y393065D03*
X242695Y393065D03*
X429260Y40640D03*
X441200Y40640D03*
X214630Y283845D03*
X202690Y283845D03*
X264160Y285115D03*
X252220Y285115D03*
X558800Y246380D03*
X570740Y246380D03*
X64770Y247650D03*
X52830Y247650D03*
D20*
X514630Y348155D03*
X519630Y348155D03*
X524630Y348155D03*
X529630Y348155D03*
X534630Y348155D03*
X539630Y348155D03*
X544630Y348155D03*
X549630Y348155D03*
X549630Y368125D03*
X544630Y368125D03*
X539630Y368125D03*
X534630Y368125D03*
X529630Y368125D03*
X524630Y368125D03*
X519630Y368125D03*
X514630Y368125D03*
X136880Y241125D03*
X131880Y241125D03*
X126880Y241125D03*
X121880Y241125D03*
X116880Y241125D03*
X111880Y241125D03*
X106880Y241125D03*
X101880Y241125D03*
X101880Y221155D03*
X106880Y221155D03*
X111880Y221155D03*
X116880Y221155D03*
X121880Y221155D03*
X126880Y221155D03*
X131880Y221155D03*
X136880Y221155D03*
X543280Y242395D03*
X538280Y242395D03*
X533280Y242395D03*
X528280Y242395D03*
X523280Y242395D03*
X518280Y242395D03*
X513280Y242395D03*
X508280Y242395D03*
X508280Y222425D03*
X513280Y222425D03*
X518280Y222425D03*
X523280Y222425D03*
X528280Y222425D03*
X533280Y222425D03*
X538280Y222425D03*
X543280Y222425D03*
D21*
X565150Y19050D03*
X565150Y64050D03*
X485650Y19050D03*
X485650Y64050D03*
D22*
X407670Y180340D03*
X407670Y167640D03*
X407670Y154940D03*
X407670Y142240D03*
X407670Y129540D03*
X407670Y116840D03*
X407670Y104140D03*
X407670Y91440D03*
X407670Y78740D03*
X407670Y66040D03*
X407670Y53340D03*
X407670Y40640D03*
X407670Y27940D03*
X407670Y15240D03*
X237670Y180340D03*
X237670Y167640D03*
X237670Y154940D03*
X237670Y142240D03*
X237670Y129540D03*
X237670Y116840D03*
X237670Y104140D03*
X237670Y91440D03*
X237670Y78740D03*
X237670Y66040D03*
X237670Y53340D03*
X237670Y40640D03*
X237670Y27940D03*
X237670Y15240D03*
D23*
X379820Y190340D03*
X367120Y190340D03*
X354420Y190340D03*
X341720Y190340D03*
X329020Y190340D03*
X316320Y190340D03*
X303620Y190340D03*
X290920Y190340D03*
X278220Y190340D03*
X265520Y190340D03*
D24*
X332670Y90240D03*
X314320Y90240D03*
X351020Y90240D03*
X351020Y71890D03*
X332670Y71890D03*
X314320Y71890D03*
X351020Y108590D03*
X332670Y108590D03*
X314320Y108590D03*
D25*
X299454Y283725D03*
X299454Y278725D03*
X299454Y273725D03*
X299454Y268725D03*
D26*
X300080Y260604D03*
X305080Y260604D03*
X310080Y260604D03*
X315080Y260604D03*
X320080Y260604D03*
X325080Y260604D03*
X330080Y260604D03*
X335080Y260604D03*
X340080Y260604D03*
X345080Y260604D03*
D25*
X345706Y268725D03*
X345706Y273725D03*
X345706Y278725D03*
X345706Y283725D03*
D26*
X345080Y291846D03*
X340080Y291846D03*
X335080Y291846D03*
X330080Y291846D03*
X325080Y291846D03*
X320080Y291846D03*
X315080Y291846D03*
X310080Y291846D03*
X305080Y291846D03*
X300080Y291846D03*
D27*
X65700Y266200D03*
X72200Y266200D03*
X78700Y266200D03*
X85200Y266200D03*
X91700Y266200D03*
X98200Y266200D03*
X104700Y266200D03*
X111200Y266200D03*
X117700Y266200D03*
X124200Y266200D03*
X130700Y266200D03*
X137200Y266200D03*
X143700Y266200D03*
X150200Y266200D03*
X150200Y325620D03*
X143700Y325620D03*
X137200Y325620D03*
X130700Y325620D03*
X124200Y325620D03*
X117700Y325620D03*
X111200Y325620D03*
X104700Y325620D03*
X98200Y325620D03*
X91700Y325620D03*
X85200Y325620D03*
X78700Y325620D03*
X72200Y325620D03*
X65700Y325620D03*
X588350Y326890D03*
X581850Y326890D03*
X575350Y326890D03*
X568850Y326890D03*
X562350Y326890D03*
X555850Y326890D03*
X549350Y326890D03*
X542850Y326890D03*
X536350Y326890D03*
X529850Y326890D03*
X523350Y326890D03*
X516850Y326890D03*
X510350Y326890D03*
X503850Y326890D03*
X503850Y267470D03*
X510350Y267470D03*
X516850Y267470D03*
X523350Y267470D03*
X529850Y267470D03*
X536350Y267470D03*
X542850Y267470D03*
X549350Y267470D03*
X555850Y267470D03*
X562350Y267470D03*
X568850Y267470D03*
X575350Y267470D03*
X581850Y267470D03*
X588350Y267470D03*
D28*
X102870Y740410D03*
X119870Y740410D03*
X136870Y740410D03*
X153870Y740410D03*
X170870Y740410D03*
X483870Y741680D03*
X500870Y741680D03*
X517870Y741680D03*
X534870Y741680D03*
X551870Y741680D03*
D29*
X279762Y397985D03*
X279762Y392985D03*
X279762Y387985D03*
X279762Y382985D03*
X279762Y377985D03*
X326029Y377985D03*
X326029Y382985D03*
X326029Y387985D03*
X326029Y392985D03*
X326029Y397985D03*
D17*
X19685Y45720D03*
X45085Y45720D03*
X70485Y45720D03*
X95885Y45720D03*
X121285Y45720D03*
X146685Y45720D03*
X172085Y45720D03*
X197485Y45720D03*
X197485Y71120D03*
X172085Y71120D03*
X146685Y71120D03*
X121285Y71120D03*
X95885Y71120D03*
X70485Y71120D03*
X45085Y71120D03*
X19685Y71120D03*
D30*
X394335Y422275D03*
D31*
X379095Y422275D01*
X394335Y398885D02*
X380895Y385445D01*
X394335Y398885D02*
X394335Y422275D01*
D30*
X231775Y387985D03*
D31*
X236855Y382905D02*
X242695Y382905D01*
X236855Y382905D02*
X231775Y387985D01*
X236855Y393065D02*
X242695Y393065D01*
X236855Y393065D02*
X231775Y387985D01*
D30*
X274955Y370205D03*
D31*
X274955Y373179D01*
X279762Y377985D01*
D30*
X588010Y246380D03*
D31*
X570740Y246380D01*
X588350Y246720D02*
X588350Y267470D01*
X588350Y246720D02*
X588010Y246380D01*
D30*
X596900Y355600D03*
D31*
X596900Y346200D01*
X594870Y344170D01*
D30*
X60960Y340360D03*
D31*
X60960Y330360D02*
X65700Y325620D01*
X60960Y330360D02*
X60960Y340360D01*
X64770Y344170D01*
X80770Y344170D01*
D30*
X52070Y236220D03*
D31*
X52070Y246890D01*
X52830Y247650D01*
D30*
X381000Y273685D03*
D31*
X370080Y273685D01*
D30*
X345440Y249555D03*
D31*
X345440Y260244D02*
X345080Y260604D01*
X345440Y260244D02*
X345440Y249555D01*
X345440Y238635D01*
D30*
X309880Y225425D03*
D31*
X319280Y225425D02*
X320040Y226185D01*
X319280Y225425D02*
X309880Y225425D01*
D30*
X340360Y306705D03*
D31*
X340080Y306425D02*
X340080Y291846D01*
X340080Y306425D02*
X340360Y306705D01*
X336550Y310515D01*
X328930Y310515D01*
X340360Y306705D02*
X344170Y310515D01*
X351790Y310515D01*
D30*
X427990Y27940D03*
D31*
X407670Y27940D01*
X427990Y27940D02*
X441960Y27940D01*
X441960Y39880D01*
X441200Y40640D01*
X441960Y27940D02*
X441960Y13970D01*
X351115Y278725D02*
X345706Y278725D01*
X353060Y280670D02*
X376555Y280670D01*
X381000Y276225D01*
X381000Y273685D01*
X353060Y280670D02*
X351115Y278725D01*
D30*
X240665Y284480D03*
X192405Y283845D03*
D31*
X202690Y283845D01*
X240665Y284480D02*
X241300Y285115D01*
X252220Y285115D01*
D30*
X266065Y19685D03*
D31*
X252910Y19685D02*
X248465Y15240D01*
X237670Y15240D01*
X252910Y19685D02*
X266065Y19685D01*
D30*
X298450Y72390D03*
X298450Y90170D03*
X298450Y107950D03*
X332740Y57150D03*
X331470Y124460D03*
X365760Y109220D03*
X367030Y90170D03*
X367030Y71120D03*
X386080Y15240D03*
D31*
X313820Y72390D02*
X298450Y72390D01*
X313820Y72390D02*
X314320Y71890D01*
X314250Y90170D02*
X298450Y90170D01*
X314250Y90170D02*
X314320Y90240D01*
X313680Y107950D02*
X298450Y107950D01*
X313680Y107950D02*
X314320Y108590D01*
X332670Y71890D02*
X332670Y57220D01*
X332740Y57150D01*
X351790Y71120D02*
X367030Y71120D01*
X351790Y71120D02*
X351020Y71890D01*
X351090Y90170D02*
X367030Y90170D01*
X351090Y90170D02*
X351020Y90240D01*
X351650Y109220D02*
X365760Y109220D01*
X351650Y109220D02*
X351020Y108590D01*
X331470Y109790D02*
X331470Y124460D01*
X331470Y109790D02*
X332670Y108590D01*
X332670Y90240D01*
X330200Y90240D02*
X314320Y90240D01*
X330200Y90240D02*
X332670Y90240D01*
X330200Y74360D02*
X332670Y71890D01*
X330200Y74360D02*
X330200Y90240D01*
X332670Y90240D02*
X351020Y90240D01*
X386080Y15240D02*
X407670Y15240D01*
D30*
X333375Y422275D03*
D31*
X319405Y422275D01*
X333375Y422275D02*
X348615Y422275D01*
X326029Y414929D02*
X326029Y397985D01*
X326029Y414929D02*
X333375Y422275D01*
D30*
X302895Y382905D03*
D31*
X297815Y387985D02*
X279762Y387985D01*
X297815Y387985D02*
X302895Y382905D01*
X302975Y382985D02*
X326029Y382985D01*
X302975Y382985D02*
X302895Y382905D01*
D30*
X297815Y352425D03*
D31*
X309245Y352425D01*
D30*
X78740Y283210D03*
X149860Y250190D03*
D31*
X150200Y250530D02*
X150200Y266200D01*
X150200Y250530D02*
X149860Y250190D01*
X78700Y266200D02*
X78700Y283170D01*
X78740Y283210D01*
X72200Y276670D02*
X72200Y266200D01*
X72200Y276670D02*
X78700Y283170D01*
X85090Y266310D02*
X85200Y266200D01*
X85090Y266310D02*
X85090Y276860D01*
X78780Y283170D01*
X78700Y283170D01*
X91440Y266460D02*
X91700Y266200D01*
X91440Y266460D02*
X91440Y276860D01*
X85130Y283170D01*
X78780Y283170D01*
D30*
X495300Y340360D03*
D31*
X503850Y331810D02*
X503850Y326890D01*
X503850Y331810D02*
X495300Y340360D01*
X588350Y326890D02*
X588350Y314030D01*
X582930Y308610D01*
X575310Y326850D02*
X575350Y326890D01*
X575310Y326850D02*
X575310Y314960D01*
X568850Y267970D02*
X568850Y267470D01*
X562850Y267970D02*
X562350Y267470D01*
X562850Y267970D02*
X568850Y267970D01*
X91700Y325620D02*
X85200Y325620D01*
D30*
X358140Y288925D03*
X358140Y262255D03*
D31*
X345706Y283725D02*
X345826Y283845D01*
X353060Y283845D02*
X358140Y288925D01*
X353060Y283845D02*
X345826Y283845D01*
X345706Y268725D02*
X347860Y268725D01*
X354330Y262255D02*
X358140Y262255D01*
X354330Y262255D02*
X347860Y268725D01*
X345440Y226695D02*
X353060Y226695D01*
X358140Y231775D02*
X358140Y262255D01*
X358140Y231775D02*
X353060Y226695D01*
X345440Y226695D02*
X330200Y226695D01*
D30*
X340360Y323215D03*
D31*
X329690Y323215D01*
X328930Y322455D01*
X340360Y323215D02*
X351030Y323215D01*
X351790Y322455D01*
D30*
X288290Y273685D03*
X318770Y304165D03*
D31*
X325080Y299045D02*
X325080Y291846D01*
X325080Y299045D02*
X325120Y299085D01*
X320040Y304165D01*
X318770Y304165D01*
X299454Y273725D02*
X299414Y273685D01*
X288290Y273685D01*
X293410Y278725D02*
X299454Y278725D01*
X293410Y278725D02*
X293370Y278765D01*
X288290Y273685D01*
X299334Y268605D02*
X299454Y268725D01*
X299334Y268605D02*
X293370Y268605D01*
X288290Y273685D01*
X299334Y261350D02*
X300080Y260604D01*
X299334Y261350D02*
X299334Y268605D01*
D30*
X464820Y21590D03*
D31*
X459740Y13970D02*
X453900Y13970D01*
X464820Y19050D02*
X464820Y21590D01*
X464820Y19050D02*
X459740Y13970D01*
X458470Y27940D02*
X453900Y27940D01*
X458470Y27940D02*
X464820Y21590D01*
D30*
X441960Y71120D03*
D31*
X441960Y59690D01*
D30*
X92710Y309880D03*
D31*
X91700Y310890D02*
X91700Y325620D01*
X91700Y310890D02*
X92710Y309880D01*
D30*
X561975Y283845D03*
D31*
X561975Y267845D02*
X562350Y267470D01*
X561975Y267845D02*
X561975Y283845D01*
D30*
X380365Y210820D03*
D31*
X380365Y190885D01*
X379820Y190340D01*
D30*
X568960Y309880D03*
D31*
X570230Y309880D02*
X575310Y314960D01*
X570230Y309880D02*
X568960Y309880D01*
X570230Y308610D02*
X582930Y308610D01*
X570230Y308610D02*
X568960Y309880D01*
X562610Y326630D02*
X562350Y326890D01*
X562610Y326630D02*
X562610Y314960D01*
X567690Y309880D01*
X568960Y309880D01*
X568850Y309990D02*
X568850Y326890D01*
X568850Y309990D02*
X568960Y309880D01*
X483110Y21590D02*
X485650Y19050D01*
X483110Y21590D02*
X464820Y21590D01*
X485650Y19050D02*
X565150Y19050D01*
X213485Y15240D02*
X213360Y15365D01*
X213485Y15240D02*
X237670Y15240D01*
D30*
X261620Y66040D03*
D31*
X237670Y66040D01*
D30*
X546100Y50800D03*
D31*
X237670Y66040D02*
X237035Y65405D01*
X226060Y65405D01*
X220345Y59690D01*
X220345Y34290D02*
X213360Y27305D01*
X220345Y34290D02*
X220345Y59690D01*
D30*
X261620Y52070D03*
D31*
X260350Y53340D02*
X237670Y53340D01*
X260350Y53340D02*
X261620Y52070D01*
D30*
X571500Y50800D03*
D31*
X565150Y64050D02*
X485650Y64050D01*
X254635Y180340D02*
X237670Y180340D01*
X254635Y180340D02*
X295910Y139065D01*
X361950Y139065D01*
X383540Y117475D01*
D30*
X385445Y118110D03*
D31*
X385445Y117475D01*
X383540Y117475D01*
D30*
X468630Y60325D03*
D31*
X472355Y64050D01*
X485650Y64050D01*
X137160Y220875D02*
X136880Y221155D01*
X137160Y220875D02*
X137160Y215900D01*
X139700Y213360D01*
X185420Y213360D01*
X203200Y195580D01*
X203200Y193040D01*
X132080Y220955D02*
X131880Y221155D01*
X132080Y220955D02*
X132080Y214630D01*
X137160Y209550D01*
X161290Y209550D02*
X177800Y193040D01*
X161290Y209550D02*
X137160Y209550D01*
X127000Y221035D02*
X126880Y221155D01*
X127000Y221035D02*
X127000Y208280D01*
X130810Y204470D01*
X143510Y204470D01*
X152400Y195580D01*
X152400Y193040D01*
X121880Y198160D02*
X121880Y221155D01*
X121880Y198160D02*
X127000Y193040D01*
X116880Y208320D02*
X116880Y221155D01*
X116880Y208320D02*
X101600Y193040D01*
X111880Y213480D02*
X111880Y221155D01*
X106680Y208280D02*
X91440Y208280D01*
X76200Y193040D01*
X106680Y208280D02*
X111880Y213480D01*
X106880Y214830D02*
X106880Y221155D01*
X69850Y212090D02*
X50800Y193040D01*
X104140Y212090D02*
X106880Y214830D01*
X104140Y212090D02*
X69850Y212090D01*
X96625Y215900D02*
X101880Y221155D01*
X48260Y215900D02*
X25400Y193040D01*
X48260Y215900D02*
X96625Y215900D01*
X113310Y371935D02*
X113135Y372110D01*
X53340Y372110D02*
X26670Y398780D01*
X53340Y372110D02*
X113135Y372110D01*
X118310Y371935D02*
X118310Y376990D01*
X116840Y378460D01*
X72390Y378460D02*
X52070Y398780D01*
X72390Y378460D02*
X116840Y378460D01*
X123310Y379610D02*
X123310Y371935D01*
X93980Y382270D02*
X77470Y398780D01*
X120650Y382270D02*
X123310Y379610D01*
X120650Y382270D02*
X93980Y382270D01*
X128310Y382230D02*
X128310Y371935D01*
X124460Y386080D02*
X113030Y386080D01*
X102870Y396240D01*
X102870Y398780D01*
X124460Y386080D02*
X128310Y382230D01*
X133310Y371935D02*
X133310Y393740D01*
X128270Y398780D01*
X138310Y383420D02*
X138310Y371935D01*
X138310Y383420D02*
X153670Y398780D01*
X143310Y379530D02*
X143310Y371935D01*
X149860Y386080D02*
X166370Y386080D01*
X179070Y398780D01*
X149860Y386080D02*
X143310Y379530D01*
X148310Y376910D02*
X148310Y371935D01*
X186690Y381000D02*
X204470Y398780D01*
X152400Y381000D02*
X148310Y376910D01*
X152400Y381000D02*
X186690Y381000D01*
X514630Y373100D02*
X514630Y368125D01*
X510540Y377190D02*
X458470Y377190D01*
X441960Y393700D01*
X441960Y397510D01*
X510540Y377190D02*
X514630Y373100D01*
X519630Y368125D02*
X519630Y378260D01*
X516890Y381000D02*
X483870Y381000D01*
X467360Y397510D01*
X516890Y381000D02*
X519630Y378260D01*
X524630Y382150D02*
X524630Y368125D01*
X521970Y384810D02*
X500380Y384810D01*
X492760Y392430D01*
X492760Y397510D01*
X521970Y384810D02*
X524630Y382150D01*
X529630Y386040D02*
X529630Y368125D01*
X529630Y386040D02*
X518160Y397510D01*
X534630Y388580D02*
X534630Y368125D01*
X534630Y388580D02*
X543560Y397510D01*
X539630Y382150D02*
X539630Y368125D01*
X542290Y384810D02*
X556260Y384810D01*
X568960Y397510D01*
X542290Y384810D02*
X539630Y382150D01*
X544630Y376990D02*
X544630Y368125D01*
X548640Y381000D02*
X577850Y381000D01*
X594360Y397510D01*
X548640Y381000D02*
X544630Y376990D01*
X549910Y368405D02*
X549630Y368125D01*
X549910Y368405D02*
X549910Y373380D01*
X552450Y375920D01*
X601980Y375920D02*
X619760Y393700D01*
X619760Y397510D01*
X601980Y375920D02*
X552450Y375920D01*
X543280Y222425D02*
X543280Y219990D01*
X546100Y217170D01*
X603250Y217170D01*
X618490Y201930D01*
X618490Y196850D01*
X538280Y216100D02*
X538280Y222425D01*
X541020Y213360D02*
X580390Y213360D01*
X593090Y200660D01*
X593090Y196850D01*
X541020Y213360D02*
X538280Y216100D01*
X533280Y214750D02*
X533280Y222425D01*
X533280Y214750D02*
X538480Y209550D01*
X560070Y209550D01*
X567690Y201930D01*
X567690Y196850D01*
X528280Y210860D02*
X528280Y222425D01*
X528280Y210860D02*
X542290Y196850D01*
X523280Y203240D02*
X523280Y222425D01*
X523280Y203240D02*
X516890Y196850D01*
X518280Y217290D02*
X518280Y222425D01*
X511810Y210820D02*
X500380Y210820D01*
X491490Y201930D01*
X491490Y196850D01*
X511810Y210820D02*
X518280Y217290D01*
X513280Y217370D02*
X513280Y222425D01*
X513280Y217370D02*
X510540Y214630D01*
X478790Y214630D01*
X466090Y201930D01*
X466090Y196850D01*
X508280Y221260D02*
X508280Y222425D01*
X508280Y221260D02*
X505460Y218440D01*
X458470Y218440D01*
X440690Y200660D01*
X440690Y196850D01*
X78700Y315000D02*
X78700Y325620D01*
X78700Y315000D02*
X91440Y302260D01*
X575350Y284440D02*
X575350Y267470D01*
X575350Y284440D02*
X568325Y291465D01*
D30*
X279400Y285115D03*
D31*
X280790Y283725D02*
X299454Y283725D01*
X280790Y283725D02*
X279400Y285115D01*
D30*
X455930Y286385D03*
D31*
X461010Y291465D01*
X568325Y291465D01*
X266065Y40640D02*
X237670Y40640D01*
X266065Y40640D02*
X287655Y62230D01*
D30*
X288290Y80645D03*
D31*
X287655Y80010D01*
X287655Y62230D01*
X279400Y285115D02*
X262255Y302260D01*
X91440Y302260D01*
X264160Y285115D02*
X279400Y285115D01*
X72200Y314515D02*
X72200Y325620D01*
X92710Y294005D02*
X226060Y294005D01*
X92710Y294005D02*
X72200Y314515D01*
X581850Y286830D02*
X581850Y267470D01*
X581850Y286830D02*
X570230Y298450D01*
D30*
X299720Y303530D03*
D31*
X299720Y292206D02*
X300080Y291846D01*
X299720Y292206D02*
X299720Y303530D01*
D30*
X455930Y298450D03*
D31*
X570230Y298450D01*
D30*
X226060Y294005D03*
D31*
X237670Y78740D02*
X259715Y78740D01*
X275590Y94615D01*
X275590Y142240D01*
D30*
X269875Y153670D03*
D31*
X269875Y147955D01*
X275590Y142240D01*
X214630Y283845D02*
X224790Y294005D01*
X226060Y294005D01*
X98200Y325620D02*
X98200Y338680D01*
X92710Y344170D01*
D30*
X314960Y56515D03*
D31*
X238305Y28575D02*
X237670Y27940D01*
X273685Y28575D02*
X301625Y56515D01*
X314960Y56515D01*
X273685Y28575D02*
X238305Y28575D01*
D30*
X294640Y208280D03*
X106045Y309880D03*
D31*
X98425Y325395D02*
X98200Y325620D01*
X98425Y325395D02*
X98425Y314960D01*
X103505Y309880D01*
X106045Y309880D01*
X555850Y267470D02*
X555850Y249330D01*
X558800Y246380D01*
D30*
X387985Y130175D03*
D31*
X388620Y129540D02*
X407670Y129540D01*
X388620Y129540D02*
X387985Y130175D01*
D30*
X558800Y234950D03*
D31*
X558800Y246380D01*
X64770Y247650D02*
X64770Y265270D01*
X65700Y266200D01*
X581850Y326890D02*
X581850Y343090D01*
X582930Y344170D01*
X358100Y273725D02*
X345706Y273725D01*
X358100Y273725D02*
X358140Y273685D01*
X330200Y260484D02*
X330080Y260604D01*
X330200Y260484D02*
X330200Y238635D01*
X320080Y238165D02*
X320080Y260604D01*
X320080Y238165D02*
X320040Y238125D01*
D30*
X309245Y238125D03*
D31*
X320040Y238125D01*
D30*
X372110Y144780D03*
D31*
X405130Y144780D01*
X407670Y142240D01*
D30*
X305435Y249555D03*
D31*
X305080Y249910D02*
X305080Y260604D01*
X305080Y249910D02*
X305435Y249555D01*
D30*
X355600Y156845D03*
D31*
X405765Y156845D01*
X407670Y154940D01*
D32*
X436880Y741680D02*
X483870Y741680D01*
X102870Y740410D02*
X102870Y755650D01*
X107950Y760730D01*
X241300Y760730D01*
X417830Y760730D02*
X436880Y741680D01*
X241300Y740410D02*
X241300Y760730D01*
X260350Y760730D01*
X277495Y743585D01*
X312420Y743585D01*
X401320Y777240D02*
X417830Y760730D01*
X401320Y777240D02*
X338455Y777240D01*
X312420Y751205D01*
X312420Y743585D01*
X99314Y624840D02*
X37084Y687070D01*
X99314Y624840D02*
X128270Y624840D01*
X119870Y726930D02*
X119870Y740410D01*
X80010Y687070D02*
X37084Y687070D01*
X80010Y687070D02*
X119870Y726930D01*
X50800Y167640D02*
X25400Y167640D01*
X50800Y167640D02*
X76200Y167640D01*
X101600Y167640D01*
X127000Y167640D01*
X152400Y167640D01*
X177800Y167640D01*
X203200Y167640D01*
X52070Y424180D02*
X26670Y424180D01*
X52070Y424180D02*
X77470Y424180D01*
X102870Y424180D01*
X128270Y424180D01*
X153670Y424180D01*
X179070Y424180D01*
X204470Y424180D01*
X153870Y536040D02*
X153870Y740410D01*
X153870Y536040D02*
X128270Y510440D01*
D33*
X26670Y424180D02*
X15240Y424180D01*
X13335Y422275D01*
X13335Y172085D01*
X17780Y167640D01*
X25400Y167640D01*
D32*
X128270Y510440D02*
X295810Y510440D01*
D31*
X297815Y512445D01*
D32*
X290730Y510440D02*
X204470Y424180D01*
D31*
X290730Y510440D02*
X295810Y510440D01*
D32*
X419354Y685800D02*
X481584Y623570D01*
X516890Y623570D01*
D31*
X500380Y741190D02*
X500870Y741680D01*
D32*
X500380Y741190D02*
X500380Y713740D01*
X472440Y685800D01*
X419354Y685800D01*
X441960Y422910D02*
X467360Y422910D01*
X492760Y422910D01*
X518160Y422910D01*
X543560Y422910D01*
X568960Y422910D01*
X594360Y422910D01*
X619760Y422910D01*
X466090Y171450D02*
X440690Y171450D01*
X466090Y171450D02*
X491490Y171450D01*
X516890Y171450D01*
X542290Y171450D01*
X567690Y171450D01*
X593090Y171450D01*
X618490Y171450D01*
X534870Y527150D02*
X534870Y741680D01*
X534870Y527150D02*
X516890Y509170D01*
D33*
X619760Y422910D02*
X632460Y422910D01*
D31*
X632768Y422602D01*
D33*
X632768Y177800D01*
X626418Y171450D01*
X618490Y171450D01*
D32*
X427990Y422910D02*
X419100Y431800D01*
X427990Y422910D02*
X441960Y422910D01*
X419100Y469900D02*
X419100Y508000D01*
X419100Y469900D02*
X419100Y431800D01*
X419100Y576580D02*
X347980Y647700D01*
X419100Y576580D02*
X419100Y508000D01*
D31*
X515720Y508000D02*
X516890Y509170D01*
D32*
X515720Y508000D02*
X419100Y508000D01*
D31*
X288925Y422275D02*
X287655Y422275D01*
X279762Y398145D02*
X279762Y397985D01*
X279762Y398145D02*
X279762Y414382D01*
X287655Y422275D01*
X309245Y387985D02*
X326029Y387985D01*
X299085Y398145D02*
X279762Y398145D01*
X299085Y398145D02*
X309245Y387985D01*
X338455Y365885D02*
X325755Y353185D01*
X338455Y385445D02*
X335915Y387985D01*
X326029Y387985D01*
X338455Y385445D02*
X338455Y365885D01*
X288925Y422275D02*
X288925Y454025D01*
X304800Y469900D01*
X419100Y469900D01*
X325755Y377712D02*
X325755Y365125D01*
X325755Y377712D02*
X326029Y377985D01*
X310005Y365125D02*
X309245Y364365D01*
X310005Y365125D02*
X325755Y365125D01*
X326029Y392985D02*
X344355Y392985D01*
X351895Y385445D01*
X279762Y382985D02*
X279682Y382905D01*
X254635Y382905D01*
X254635Y393065D02*
X279682Y393065D01*
X279762Y392985D01*
X514350Y347875D02*
X514630Y348155D01*
X514350Y347875D02*
X514350Y341630D01*
X510350Y337630D02*
X510350Y326890D01*
X510350Y337630D02*
X514350Y341630D01*
X519630Y340560D02*
X519630Y348155D01*
X516850Y337780D02*
X516850Y326890D01*
X516850Y337780D02*
X519630Y340560D01*
X524630Y340480D02*
X524630Y348155D01*
X524630Y340480D02*
X523240Y339090D01*
X523240Y327000D01*
X523350Y326890D01*
X529630Y327110D02*
X529630Y348155D01*
X529630Y327110D02*
X529850Y326890D01*
X534630Y341670D02*
X534630Y348155D01*
X536350Y339950D02*
X536350Y326890D01*
X536350Y339950D02*
X534630Y341670D01*
X539750Y348035D02*
X539630Y348155D01*
X539750Y348035D02*
X539750Y341630D01*
X542850Y338530D02*
X542850Y326890D01*
X542850Y338530D02*
X539750Y341630D01*
X544830Y347955D02*
X544630Y348155D01*
X544830Y347955D02*
X544830Y341630D01*
X549350Y337110D02*
X549350Y326890D01*
X549350Y337110D02*
X544830Y341630D01*
X549630Y344450D02*
X549630Y348155D01*
X555850Y338230D02*
X555850Y326890D01*
X555850Y338230D02*
X549630Y344450D01*
X543280Y247370D02*
X543280Y242395D01*
X549350Y253440D02*
X549350Y267470D01*
X549350Y253440D02*
X543280Y247370D01*
X538280Y249355D02*
X538280Y242395D01*
X538280Y249355D02*
X542925Y254000D01*
X542925Y267395D01*
X542850Y267470D01*
X533280Y251975D02*
X533280Y242395D01*
X533280Y251975D02*
X536575Y255270D01*
X536575Y267245D01*
X536350Y267470D01*
X528280Y253960D02*
X528280Y242395D01*
X529850Y255530D02*
X529850Y267470D01*
X529850Y255530D02*
X528280Y253960D01*
X523280Y267400D02*
X523350Y267470D01*
X523280Y267400D02*
X523280Y242395D01*
X518280Y242395D02*
X518280Y253880D01*
X516850Y255310D02*
X516850Y267470D01*
X516850Y255310D02*
X518280Y253880D01*
X508280Y249275D02*
X508280Y242395D01*
X503850Y253705D02*
X503850Y267470D01*
X503850Y253705D02*
X508280Y249275D01*
X513280Y249990D02*
X513280Y242395D01*
X510350Y252920D02*
X510350Y267470D01*
X510350Y252920D02*
X513280Y249990D01*
X137160Y241405D02*
X136880Y241125D01*
X143700Y254825D02*
X143700Y266200D01*
X137160Y248285D02*
X137160Y241405D01*
X137160Y248285D02*
X143700Y254825D01*
X131880Y248085D02*
X131880Y241125D01*
X137200Y253405D02*
X137200Y266200D01*
X137200Y253405D02*
X131880Y248085D01*
X127000Y241245D02*
X126880Y241125D01*
X130700Y255160D02*
X130700Y266200D01*
X127000Y251460D02*
X127000Y241245D01*
X127000Y251460D02*
X130700Y255160D01*
X121920Y241165D02*
X121880Y241125D01*
X124200Y255010D02*
X124200Y266200D01*
X121920Y252730D02*
X121920Y241165D01*
X121920Y252730D02*
X124200Y255010D01*
X116880Y265380D02*
X116880Y241125D01*
X116880Y265380D02*
X117700Y266200D01*
X111760Y241245D02*
X111880Y241125D01*
X111760Y254000D02*
X111125Y254635D01*
X111125Y266125D01*
X111200Y266200D01*
X111760Y254000D02*
X111760Y241245D01*
X106880Y241125D02*
X106880Y251260D01*
X104700Y253440D02*
X104700Y266200D01*
X104700Y253440D02*
X106880Y251260D01*
X101880Y249275D02*
X101880Y241125D01*
X98200Y252955D02*
X98200Y266200D01*
X98200Y252955D02*
X101880Y249275D01*
X105515Y344170D02*
X113310Y351965D01*
X105515Y344170D02*
X105410Y344170D01*
X104700Y343460D01*
X104700Y325620D01*
X118310Y346910D02*
X118310Y351965D01*
X111200Y339800D02*
X111200Y325620D01*
X111200Y339800D02*
X118310Y346910D01*
X123310Y345560D02*
X123310Y351965D01*
X117700Y339950D02*
X117700Y325620D01*
X117700Y339950D02*
X123310Y345560D01*
X128310Y344210D02*
X128310Y351965D01*
X124200Y340100D02*
X124200Y325620D01*
X124200Y340100D02*
X128310Y344210D01*
X133310Y340320D02*
X133310Y351965D01*
X130700Y337710D02*
X130700Y325620D01*
X130700Y337710D02*
X133310Y340320D01*
X138310Y351965D02*
X138310Y326730D01*
X137200Y325620D01*
X143310Y326010D02*
X143310Y351965D01*
X143310Y326010D02*
X143700Y325620D01*
X150200Y325620D02*
X150200Y350075D01*
X148310Y351965D01*
X407670Y40640D02*
X429260Y40640D01*
X429260Y58930D01*
X430020Y59690D01*
X32385Y58420D02*
X19685Y45720D01*
X32385Y58420D02*
X32385Y99695D01*
X56515Y123825D01*
X209049Y123825D01*
X218440Y133216D02*
X218440Y195580D01*
X233680Y210820D01*
X254635Y210820D01*
X265520Y199935D01*
X265520Y190340D01*
X218440Y133216D02*
X209049Y123825D01*
X58420Y59055D02*
X45085Y45720D01*
X58420Y59055D02*
X58420Y98425D01*
X80645Y120650D01*
X210185Y120650D01*
X221615Y132080D01*
X221615Y160655D01*
X228600Y167640D01*
X237670Y167640D01*
X83820Y59055D02*
X70485Y45720D01*
X83820Y59055D02*
X83820Y100330D01*
X100330Y116840D01*
X223520Y129540D02*
X237670Y129540D01*
X210820Y116840D02*
X100330Y116840D01*
X210820Y116840D02*
X223520Y129540D01*
D30*
X410210Y202565D03*
D31*
X407670Y200025D02*
X407670Y180340D01*
X407670Y200025D02*
X410210Y202565D01*
D30*
X367030Y210185D03*
D31*
X367120Y210095D01*
X367120Y190340D01*
D30*
X334645Y164465D03*
D31*
X337820Y167640D01*
X407670Y167640D01*
X184785Y58420D02*
X172085Y45720D01*
D30*
X211455Y58420D03*
D31*
X184785Y58420D01*
D30*
X278130Y171450D03*
D31*
X278130Y190250D01*
X278220Y190340D01*
D30*
X255905Y154940D03*
D31*
X254000Y154940D01*
X237670Y154940D01*
D30*
X255905Y142240D03*
D31*
X237670Y142240D01*
D30*
X217805Y113030D03*
D31*
X221615Y116840D02*
X237670Y116840D01*
X221615Y116840D02*
X217805Y113030D01*
X97155Y72390D02*
X95885Y71120D01*
X97155Y72390D02*
X97155Y92710D01*
X108585Y104140D01*
X237670Y104140D01*
X407035Y103505D02*
X407670Y104140D01*
X407035Y103505D02*
X391795Y103505D01*
X381635Y93345D01*
X381635Y34290D01*
X367665Y20320D01*
D30*
X283845Y22860D03*
D31*
X297815Y22860D02*
X300355Y20320D01*
X297815Y22860D02*
X283845Y22860D01*
X300355Y20320D02*
X367665Y20320D01*
X405130Y114300D02*
X407670Y116840D01*
X376555Y97790D02*
X376555Y35560D01*
X370840Y29845D01*
X393065Y114300D02*
X405130Y114300D01*
X393065Y114300D02*
X376555Y97790D01*
D30*
X295275Y30480D03*
D31*
X295910Y29845D01*
X370840Y29845D01*
X406400Y77470D02*
X407670Y78740D01*
X406400Y77470D02*
X391160Y77470D01*
X385445Y71755D01*
X385445Y32385D01*
X365298Y12238D01*
X305434Y12120D01*
D30*
X295910Y14605D03*
D31*
X298395Y12120D02*
X305434Y12120D01*
X298395Y12120D02*
X295910Y14605D01*
M02*
