G04 EAGLE Gerber RS-274X export*
G75*
%MOMM*%
%FSLAX34Y34*%
%LPD*%
%INBottom Copper*%
%IPPOS*%
%AMOC8*
5,1,8,0,0,1.08239X$1,22.5*%
G01*
%ADD10C,1.200000*%
%ADD11C,1.600000*%
%ADD12R,2.169163X2.169163*%
%ADD13C,2.169163*%
%ADD14R,1.400000X1.400000*%
%ADD15C,1.676400*%
%ADD16R,1.540000X1.540000*%
%ADD17C,0.756400*%
%ADD18C,0.152400*%

G36*
X597796Y11336D02*
X597796Y11336D01*
X597843Y11343D01*
X597890Y11342D01*
X597964Y11363D01*
X598039Y11376D01*
X598081Y11398D01*
X598126Y11411D01*
X598189Y11455D01*
X598256Y11491D01*
X598289Y11526D01*
X598327Y11553D01*
X598373Y11614D01*
X598425Y11670D01*
X598445Y11713D01*
X598473Y11751D01*
X598496Y11824D01*
X598528Y11893D01*
X598534Y11940D01*
X598548Y11985D01*
X598547Y12062D01*
X598555Y12138D01*
X598545Y12184D01*
X598544Y12231D01*
X598519Y12303D01*
X598502Y12378D01*
X598478Y12419D01*
X598462Y12463D01*
X598415Y12523D01*
X598376Y12589D01*
X598340Y12619D01*
X598311Y12657D01*
X598205Y12735D01*
X598189Y12748D01*
X598183Y12751D01*
X598176Y12756D01*
X592616Y15966D01*
X587466Y21116D01*
X583824Y27423D01*
X581939Y34458D01*
X581939Y41742D01*
X583824Y48777D01*
X587466Y55084D01*
X592616Y60234D01*
X598923Y63876D01*
X605958Y65761D01*
X613242Y65761D01*
X620277Y63876D01*
X626584Y60234D01*
X631734Y55084D01*
X634649Y50036D01*
X634679Y49999D01*
X634702Y49956D01*
X634756Y49904D01*
X634805Y49845D01*
X634845Y49820D01*
X634880Y49787D01*
X634949Y49755D01*
X635013Y49715D01*
X635060Y49703D01*
X635103Y49683D01*
X635178Y49675D01*
X635252Y49657D01*
X635300Y49661D01*
X635347Y49656D01*
X635422Y49672D01*
X635497Y49679D01*
X635541Y49698D01*
X635588Y49708D01*
X635653Y49747D01*
X635722Y49778D01*
X635758Y49810D01*
X635799Y49835D01*
X635848Y49892D01*
X635904Y49943D01*
X635928Y49985D01*
X635959Y50021D01*
X635987Y50092D01*
X636024Y50158D01*
X636033Y50205D01*
X636051Y50250D01*
X636065Y50378D01*
X636069Y50400D01*
X636068Y50406D01*
X636069Y50416D01*
X636069Y749684D01*
X636062Y749731D01*
X636063Y749779D01*
X636042Y749852D01*
X636030Y749926D01*
X636007Y749969D01*
X635993Y750015D01*
X635950Y750077D01*
X635914Y750144D01*
X635880Y750177D01*
X635852Y750216D01*
X635791Y750261D01*
X635736Y750313D01*
X635693Y750333D01*
X635654Y750362D01*
X635582Y750385D01*
X635513Y750417D01*
X635465Y750422D01*
X635420Y750437D01*
X635344Y750436D01*
X635269Y750444D01*
X635222Y750434D01*
X635174Y750433D01*
X635102Y750408D01*
X635028Y750392D01*
X634987Y750367D01*
X634942Y750351D01*
X634882Y750304D01*
X634817Y750265D01*
X634786Y750229D01*
X634748Y750199D01*
X634672Y750096D01*
X634657Y750079D01*
X634655Y750072D01*
X634649Y750064D01*
X631734Y745016D01*
X626584Y739866D01*
X620277Y736224D01*
X613242Y734339D01*
X605958Y734339D01*
X598923Y736224D01*
X592616Y739866D01*
X587466Y745016D01*
X583824Y751323D01*
X581939Y758358D01*
X581939Y765642D01*
X583824Y772677D01*
X587466Y778984D01*
X592616Y784134D01*
X596524Y786390D01*
X596561Y786421D01*
X596604Y786444D01*
X596656Y786499D01*
X596714Y786546D01*
X596740Y786587D01*
X596773Y786623D01*
X596805Y786691D01*
X596845Y786754D01*
X596856Y786802D01*
X596877Y786846D01*
X596885Y786921D01*
X596902Y786994D01*
X596898Y787042D01*
X596903Y787091D01*
X596887Y787164D01*
X596881Y787239D01*
X596861Y787283D01*
X596851Y787331D01*
X596812Y787395D01*
X596782Y787464D01*
X596749Y787500D01*
X596724Y787542D01*
X596667Y787590D01*
X596616Y787646D01*
X596574Y787670D01*
X596537Y787701D01*
X596467Y787729D01*
X596402Y787766D01*
X596354Y787775D01*
X596308Y787793D01*
X596183Y787806D01*
X596160Y787811D01*
X596153Y787810D01*
X596142Y787811D01*
X53403Y786744D01*
X53356Y786736D01*
X53309Y786738D01*
X53236Y786717D01*
X53160Y786704D01*
X53118Y786682D01*
X53073Y786668D01*
X53010Y786624D01*
X52943Y786588D01*
X52911Y786554D01*
X52872Y786527D01*
X52826Y786465D01*
X52774Y786410D01*
X52754Y786367D01*
X52726Y786329D01*
X52703Y786256D01*
X52671Y786187D01*
X52666Y786140D01*
X52651Y786095D01*
X52652Y786018D01*
X52644Y785942D01*
X52654Y785896D01*
X52655Y785849D01*
X52680Y785777D01*
X52697Y785702D01*
X52721Y785661D01*
X52737Y785617D01*
X52784Y785556D01*
X52823Y785491D01*
X52859Y785460D01*
X52889Y785423D01*
X52995Y785345D01*
X53011Y785331D01*
X53016Y785329D01*
X53024Y785324D01*
X55084Y784134D01*
X60234Y778984D01*
X63876Y772677D01*
X65761Y765642D01*
X65761Y758358D01*
X63876Y751323D01*
X60234Y745016D01*
X55084Y739866D01*
X48777Y736224D01*
X41742Y734339D01*
X34458Y734339D01*
X27423Y736224D01*
X21116Y739866D01*
X15966Y745016D01*
X12324Y751323D01*
X11657Y753813D01*
X11647Y753835D01*
X11643Y753858D01*
X11597Y753946D01*
X11556Y754037D01*
X11540Y754055D01*
X11528Y754076D01*
X11456Y754144D01*
X11389Y754217D01*
X11368Y754229D01*
X11350Y754245D01*
X11260Y754287D01*
X11173Y754335D01*
X11149Y754339D01*
X11127Y754349D01*
X11028Y754360D01*
X10930Y754377D01*
X10906Y754373D01*
X10883Y754376D01*
X10786Y754355D01*
X10687Y754340D01*
X10666Y754329D01*
X10642Y754324D01*
X10557Y754273D01*
X10468Y754227D01*
X10452Y754210D01*
X10431Y754198D01*
X10366Y754122D01*
X10297Y754051D01*
X10287Y754029D01*
X10271Y754011D01*
X10234Y753918D01*
X10191Y753829D01*
X10188Y753805D01*
X10179Y753782D01*
X10161Y753616D01*
X10161Y79590D01*
X10172Y79519D01*
X10174Y79447D01*
X10192Y79398D01*
X10200Y79347D01*
X10234Y79284D01*
X10259Y79216D01*
X10291Y79176D01*
X10316Y79130D01*
X10368Y79080D01*
X10412Y79024D01*
X10456Y78996D01*
X10494Y78960D01*
X10559Y78930D01*
X10619Y78891D01*
X10670Y78879D01*
X10717Y78857D01*
X10788Y78849D01*
X10858Y78831D01*
X10910Y78835D01*
X10961Y78830D01*
X11032Y78845D01*
X11103Y78850D01*
X11151Y78871D01*
X11202Y78882D01*
X11263Y78919D01*
X11329Y78947D01*
X11385Y78992D01*
X11413Y79008D01*
X11428Y79026D01*
X11460Y79052D01*
X12053Y79645D01*
X27317Y79645D01*
X28210Y78752D01*
X28210Y66145D01*
X28224Y66054D01*
X28232Y65964D01*
X28244Y65934D01*
X28249Y65902D01*
X28292Y65821D01*
X28328Y65737D01*
X28354Y65705D01*
X28365Y65684D01*
X28388Y65662D01*
X28433Y65606D01*
X34037Y60002D01*
X34037Y38093D01*
X34051Y38002D01*
X34059Y37912D01*
X34071Y37882D01*
X34076Y37850D01*
X34119Y37769D01*
X34155Y37685D01*
X34181Y37653D01*
X34192Y37632D01*
X34215Y37610D01*
X34260Y37554D01*
X57209Y14605D01*
X57283Y14551D01*
X57353Y14492D01*
X57383Y14480D01*
X57409Y14461D01*
X57496Y14434D01*
X57581Y14400D01*
X57622Y14396D01*
X57644Y14389D01*
X57676Y14390D01*
X57748Y14382D01*
X274318Y14382D01*
X274319Y14382D01*
X274320Y14382D01*
X289844Y14412D01*
X289862Y14415D01*
X289881Y14413D01*
X289983Y14435D01*
X290086Y14452D01*
X290103Y14461D01*
X290122Y14465D01*
X290212Y14519D01*
X290303Y14568D01*
X290316Y14582D01*
X290333Y14592D01*
X290401Y14671D01*
X290472Y14747D01*
X290480Y14764D01*
X290493Y14778D01*
X290532Y14875D01*
X290576Y14970D01*
X290578Y14989D01*
X290585Y15007D01*
X290603Y15173D01*
X290603Y16803D01*
X293712Y19912D01*
X298108Y19912D01*
X301217Y16803D01*
X301217Y12407D01*
X300862Y12053D01*
X300820Y11994D01*
X300770Y11941D01*
X300749Y11895D01*
X300719Y11853D01*
X300698Y11784D01*
X300667Y11718D01*
X300662Y11667D01*
X300647Y11618D01*
X300648Y11545D01*
X300641Y11473D01*
X300652Y11423D01*
X300653Y11372D01*
X300678Y11304D01*
X300693Y11233D01*
X300720Y11189D01*
X300737Y11141D01*
X300783Y11084D01*
X300820Y11022D01*
X300859Y10989D01*
X300891Y10949D01*
X300952Y10910D01*
X301007Y10863D01*
X301055Y10844D01*
X301098Y10816D01*
X301168Y10798D01*
X301235Y10771D01*
X301305Y10764D01*
X301336Y10756D01*
X301360Y10758D01*
X301402Y10753D01*
X597796Y11336D01*
G37*
%LPC*%
G36*
X308933Y35813D02*
X308933Y35813D01*
X307370Y37376D01*
X295186Y49560D01*
X295112Y49613D01*
X295042Y49673D01*
X295012Y49685D01*
X294986Y49704D01*
X294899Y49731D01*
X294814Y49765D01*
X294773Y49769D01*
X294751Y49776D01*
X294719Y49775D01*
X294648Y49783D01*
X267153Y49783D01*
X267063Y49769D01*
X266972Y49761D01*
X266943Y49749D01*
X266911Y49744D01*
X266830Y49701D01*
X266746Y49665D01*
X266714Y49639D01*
X266693Y49628D01*
X266671Y49605D01*
X266615Y49560D01*
X263818Y46763D01*
X259422Y46763D01*
X256313Y49872D01*
X256313Y54268D01*
X259422Y57377D01*
X263818Y57377D01*
X266615Y54580D01*
X266689Y54527D01*
X266759Y54467D01*
X266789Y54455D01*
X266815Y54436D01*
X266902Y54409D01*
X266987Y54375D01*
X267028Y54371D01*
X267050Y54364D01*
X267082Y54365D01*
X267153Y54357D01*
X296807Y54357D01*
X296877Y54368D01*
X296949Y54370D01*
X296998Y54388D01*
X297049Y54396D01*
X297113Y54430D01*
X297180Y54455D01*
X297221Y54487D01*
X297267Y54512D01*
X297316Y54564D01*
X297372Y54608D01*
X297400Y54652D01*
X297436Y54690D01*
X297466Y54755D01*
X297505Y54815D01*
X297518Y54866D01*
X297540Y54913D01*
X297548Y54984D01*
X297565Y55054D01*
X297561Y55106D01*
X297567Y55157D01*
X297552Y55228D01*
X297546Y55299D01*
X297526Y55347D01*
X297515Y55398D01*
X297478Y55459D01*
X297450Y55525D01*
X297405Y55581D01*
X297388Y55609D01*
X297371Y55624D01*
X297345Y55656D01*
X289471Y63530D01*
X289397Y63583D01*
X289327Y63643D01*
X289297Y63655D01*
X289271Y63674D01*
X289184Y63701D01*
X289099Y63735D01*
X289058Y63739D01*
X289036Y63746D01*
X289004Y63745D01*
X288932Y63753D01*
X267153Y63753D01*
X267063Y63739D01*
X266972Y63731D01*
X266943Y63719D01*
X266911Y63714D01*
X266830Y63671D01*
X266746Y63635D01*
X266714Y63609D01*
X266693Y63598D01*
X266671Y63575D01*
X266615Y63530D01*
X263818Y60733D01*
X259422Y60733D01*
X256313Y63842D01*
X256313Y67092D01*
X256310Y67109D01*
X256312Y67125D01*
X256301Y67175D01*
X256300Y67234D01*
X256282Y67283D01*
X256274Y67334D01*
X256262Y67356D01*
X256260Y67365D01*
X256239Y67401D01*
X256215Y67465D01*
X256183Y67506D01*
X256158Y67552D01*
X256136Y67573D01*
X256134Y67577D01*
X256119Y67590D01*
X256106Y67601D01*
X256062Y67657D01*
X256018Y67685D01*
X255980Y67721D01*
X255915Y67751D01*
X255855Y67790D01*
X255804Y67803D01*
X255757Y67825D01*
X255686Y67833D01*
X255616Y67850D01*
X255564Y67846D01*
X255513Y67852D01*
X255442Y67837D01*
X255371Y67831D01*
X255323Y67811D01*
X255318Y67810D01*
X255303Y67807D01*
X255301Y67806D01*
X255272Y67800D01*
X255211Y67763D01*
X255145Y67735D01*
X255102Y67701D01*
X255086Y67692D01*
X255077Y67683D01*
X255061Y67673D01*
X255046Y67656D01*
X255014Y67630D01*
X245080Y57696D01*
X243517Y56133D01*
X216988Y56133D01*
X216898Y56119D01*
X216807Y56111D01*
X216778Y56099D01*
X216746Y56094D01*
X216665Y56051D01*
X216581Y56015D01*
X216549Y55989D01*
X216528Y55978D01*
X216506Y55955D01*
X216450Y55910D01*
X213653Y53113D01*
X209257Y53113D01*
X208196Y54174D01*
X208158Y54202D01*
X208125Y54237D01*
X208058Y54273D01*
X207997Y54317D01*
X207951Y54331D01*
X207909Y54354D01*
X207834Y54367D01*
X207762Y54390D01*
X207714Y54388D01*
X207666Y54397D01*
X207591Y54385D01*
X207516Y54383D01*
X207471Y54367D01*
X207423Y54360D01*
X207356Y54325D01*
X207285Y54299D01*
X207247Y54269D01*
X207205Y54247D01*
X207152Y54192D01*
X207093Y54145D01*
X207067Y54105D01*
X207033Y54070D01*
X207001Y54002D01*
X206960Y53938D01*
X206948Y53892D01*
X206927Y53848D01*
X206918Y53773D01*
X206900Y53700D01*
X206903Y53652D01*
X206898Y53604D01*
X206917Y53476D01*
X206919Y53454D01*
X206921Y53448D01*
X206923Y53438D01*
X207026Y53054D01*
X207026Y47243D01*
X199008Y47243D01*
X199008Y55261D01*
X204819Y55261D01*
X205203Y55158D01*
X205252Y55153D01*
X205298Y55139D01*
X205373Y55141D01*
X205448Y55133D01*
X205495Y55144D01*
X205544Y55146D01*
X205615Y55172D01*
X205688Y55188D01*
X205729Y55214D01*
X205775Y55230D01*
X205833Y55277D01*
X205898Y55317D01*
X205929Y55354D01*
X205966Y55384D01*
X206007Y55448D01*
X206055Y55505D01*
X206073Y55550D01*
X206099Y55591D01*
X206118Y55664D01*
X206145Y55735D01*
X206147Y55783D01*
X206159Y55830D01*
X206153Y55905D01*
X206157Y55980D01*
X206148Y56010D01*
X206148Y60618D01*
X209257Y63727D01*
X213653Y63727D01*
X216450Y60930D01*
X216524Y60877D01*
X216594Y60817D01*
X216624Y60805D01*
X216650Y60786D01*
X216737Y60759D01*
X216822Y60725D01*
X216863Y60721D01*
X216885Y60714D01*
X216917Y60715D01*
X216988Y60707D01*
X241307Y60707D01*
X241398Y60721D01*
X241488Y60729D01*
X241518Y60741D01*
X241550Y60746D01*
X241631Y60789D01*
X241715Y60825D01*
X241747Y60851D01*
X241768Y60862D01*
X241790Y60885D01*
X241846Y60930D01*
X275620Y94704D01*
X275673Y94778D01*
X275733Y94848D01*
X275745Y94878D01*
X275764Y94904D01*
X275791Y94991D01*
X275800Y95014D01*
X275815Y95047D01*
X275816Y95054D01*
X275825Y95076D01*
X275829Y95117D01*
X275836Y95139D01*
X275835Y95171D01*
X275843Y95243D01*
X275843Y150296D01*
X275832Y150366D01*
X275830Y150438D01*
X275812Y150487D01*
X275804Y150538D01*
X275770Y150602D01*
X275745Y150669D01*
X275713Y150710D01*
X275688Y150756D01*
X275636Y150805D01*
X275592Y150861D01*
X275548Y150889D01*
X275510Y150925D01*
X275445Y150955D01*
X275385Y150994D01*
X275334Y151007D01*
X275287Y151029D01*
X275216Y151037D01*
X275146Y151054D01*
X275094Y151050D01*
X275043Y151056D01*
X274972Y151041D01*
X274901Y151035D01*
X274853Y151015D01*
X274802Y151004D01*
X274741Y150967D01*
X274675Y150939D01*
X274619Y150894D01*
X274591Y150877D01*
X274576Y150860D01*
X274544Y150834D01*
X272073Y148363D01*
X267553Y148363D01*
X267483Y148352D01*
X267411Y148350D01*
X267362Y148332D01*
X267311Y148324D01*
X267247Y148290D01*
X267180Y148265D01*
X267139Y148233D01*
X267093Y148208D01*
X267044Y148157D01*
X266988Y148112D01*
X266960Y148068D01*
X266924Y148030D01*
X266894Y147965D01*
X266855Y147905D01*
X266842Y147854D01*
X266820Y147807D01*
X266812Y147736D01*
X266795Y147666D01*
X266799Y147614D01*
X266793Y147563D01*
X266808Y147492D01*
X266814Y147421D01*
X266834Y147373D01*
X266845Y147322D01*
X266882Y147261D01*
X266910Y147195D01*
X266955Y147139D01*
X266972Y147111D01*
X266989Y147096D01*
X267015Y147064D01*
X267424Y146655D01*
X268987Y145092D01*
X268987Y113353D01*
X242247Y86613D01*
X191128Y86613D01*
X191037Y86599D01*
X190947Y86591D01*
X190917Y86579D01*
X190885Y86574D01*
X190804Y86531D01*
X190720Y86495D01*
X190688Y86469D01*
X190667Y86458D01*
X190645Y86435D01*
X190589Y86390D01*
X180833Y76634D01*
X180780Y76560D01*
X180720Y76490D01*
X180708Y76460D01*
X180689Y76434D01*
X180662Y76347D01*
X180628Y76262D01*
X180624Y76221D01*
X180617Y76199D01*
X180618Y76167D01*
X180610Y76095D01*
X180610Y63488D01*
X179717Y62595D01*
X164453Y62595D01*
X163560Y63488D01*
X163560Y78752D01*
X164453Y79645D01*
X177060Y79645D01*
X177151Y79659D01*
X177241Y79667D01*
X177271Y79679D01*
X177303Y79684D01*
X177384Y79727D01*
X177468Y79763D01*
X177500Y79789D01*
X177521Y79800D01*
X177543Y79823D01*
X177599Y79868D01*
X188918Y91187D01*
X240037Y91187D01*
X240128Y91201D01*
X240218Y91209D01*
X240248Y91221D01*
X240280Y91226D01*
X240361Y91269D01*
X240445Y91305D01*
X240477Y91331D01*
X240498Y91342D01*
X240520Y91365D01*
X240576Y91410D01*
X264190Y115024D01*
X264243Y115098D01*
X264303Y115168D01*
X264315Y115198D01*
X264334Y115224D01*
X264361Y115311D01*
X264395Y115396D01*
X264399Y115437D01*
X264406Y115459D01*
X264405Y115491D01*
X264413Y115563D01*
X264413Y142882D01*
X264399Y142973D01*
X264391Y143063D01*
X264379Y143093D01*
X264374Y143125D01*
X264331Y143206D01*
X264295Y143290D01*
X264269Y143322D01*
X264258Y143343D01*
X264235Y143365D01*
X264190Y143421D01*
X262511Y145100D01*
X262453Y145142D01*
X262401Y145191D01*
X262354Y145213D01*
X262312Y145243D01*
X262243Y145264D01*
X262178Y145295D01*
X262126Y145300D01*
X262076Y145316D01*
X262005Y145314D01*
X261934Y145322D01*
X261883Y145311D01*
X261831Y145309D01*
X261763Y145285D01*
X261693Y145270D01*
X261648Y145243D01*
X261600Y145225D01*
X261544Y145180D01*
X261482Y145143D01*
X261448Y145104D01*
X261408Y145071D01*
X261369Y145011D01*
X261322Y144956D01*
X261303Y144908D01*
X261275Y144864D01*
X261257Y144795D01*
X261230Y144728D01*
X261222Y144657D01*
X261214Y144626D01*
X261216Y144602D01*
X261212Y144562D01*
X261212Y140042D01*
X258415Y137245D01*
X258362Y137171D01*
X258302Y137101D01*
X258290Y137071D01*
X258271Y137045D01*
X258244Y136958D01*
X258210Y136873D01*
X258206Y136832D01*
X258199Y136810D01*
X258200Y136778D01*
X258192Y136707D01*
X258192Y127958D01*
X229547Y99313D01*
X178428Y99313D01*
X178337Y99299D01*
X178247Y99291D01*
X178217Y99279D01*
X178185Y99274D01*
X178104Y99231D01*
X178020Y99195D01*
X177988Y99169D01*
X177967Y99158D01*
X177945Y99135D01*
X177889Y99090D01*
X155433Y76634D01*
X155380Y76560D01*
X155320Y76490D01*
X155308Y76460D01*
X155289Y76434D01*
X155262Y76347D01*
X155228Y76262D01*
X155224Y76221D01*
X155217Y76199D01*
X155218Y76167D01*
X155210Y76095D01*
X155210Y63488D01*
X154317Y62595D01*
X139053Y62595D01*
X138160Y63488D01*
X138160Y78752D01*
X139053Y79645D01*
X151660Y79645D01*
X151751Y79659D01*
X151841Y79667D01*
X151871Y79679D01*
X151903Y79684D01*
X151984Y79727D01*
X152068Y79763D01*
X152100Y79789D01*
X152121Y79800D01*
X152143Y79823D01*
X152199Y79868D01*
X176218Y103887D01*
X227337Y103887D01*
X227428Y103901D01*
X227518Y103909D01*
X227548Y103921D01*
X227580Y103926D01*
X227661Y103969D01*
X227745Y104005D01*
X227777Y104031D01*
X227798Y104042D01*
X227820Y104065D01*
X227876Y104110D01*
X253395Y129629D01*
X253448Y129703D01*
X253508Y129773D01*
X253520Y129803D01*
X253539Y129829D01*
X253566Y129916D01*
X253600Y130001D01*
X253604Y130042D01*
X253611Y130064D01*
X253610Y130096D01*
X253618Y130168D01*
X253618Y136707D01*
X253604Y136797D01*
X253596Y136888D01*
X253584Y136917D01*
X253579Y136949D01*
X253536Y137030D01*
X253500Y137114D01*
X253474Y137146D01*
X253463Y137167D01*
X253440Y137189D01*
X253395Y137245D01*
X250598Y140042D01*
X250598Y144438D01*
X253707Y147547D01*
X258227Y147547D01*
X258297Y147558D01*
X258369Y147560D01*
X258418Y147578D01*
X258469Y147586D01*
X258533Y147620D01*
X258600Y147645D01*
X258641Y147677D01*
X258687Y147702D01*
X258736Y147754D01*
X258792Y147798D01*
X258820Y147842D01*
X258856Y147880D01*
X258886Y147945D01*
X258925Y148005D01*
X258938Y148056D01*
X258960Y148103D01*
X258968Y148174D01*
X258985Y148244D01*
X258981Y148296D01*
X258987Y148347D01*
X258972Y148418D01*
X258966Y148489D01*
X258946Y148537D01*
X258935Y148588D01*
X258898Y148649D01*
X258870Y148715D01*
X258825Y148771D01*
X258808Y148799D01*
X258791Y148814D01*
X258765Y148846D01*
X258201Y149410D01*
X258127Y149464D01*
X258057Y149523D01*
X258027Y149535D01*
X258001Y149554D01*
X257914Y149581D01*
X257829Y149615D01*
X257788Y149619D01*
X257766Y149626D01*
X257734Y149625D01*
X257662Y149633D01*
X253707Y149633D01*
X250598Y152742D01*
X250598Y157138D01*
X253707Y160247D01*
X258227Y160247D01*
X258297Y160258D01*
X258369Y160260D01*
X258418Y160278D01*
X258469Y160286D01*
X258533Y160320D01*
X258600Y160345D01*
X258641Y160377D01*
X258687Y160402D01*
X258736Y160454D01*
X258792Y160498D01*
X258820Y160542D01*
X258856Y160580D01*
X258886Y160645D01*
X258925Y160705D01*
X258938Y160756D01*
X258960Y160803D01*
X258968Y160874D01*
X258985Y160944D01*
X258981Y160996D01*
X258987Y161047D01*
X258972Y161118D01*
X258966Y161189D01*
X258946Y161237D01*
X258935Y161288D01*
X258898Y161349D01*
X258870Y161415D01*
X258825Y161471D01*
X258808Y161499D01*
X258791Y161514D01*
X258765Y161546D01*
X225336Y194975D01*
X223773Y196538D01*
X223773Y288472D01*
X223759Y288562D01*
X223751Y288653D01*
X223739Y288682D01*
X223734Y288714D01*
X223691Y288795D01*
X223655Y288879D01*
X223629Y288911D01*
X223618Y288932D01*
X223595Y288954D01*
X223550Y289010D01*
X220753Y291807D01*
X220753Y296203D01*
X223862Y299312D01*
X227817Y299312D01*
X227908Y299326D01*
X227998Y299334D01*
X228028Y299346D01*
X228060Y299351D01*
X228141Y299394D01*
X228225Y299430D01*
X228257Y299456D01*
X228278Y299467D01*
X228300Y299490D01*
X228356Y299535D01*
X234638Y305817D01*
X294187Y305817D01*
X294277Y305831D01*
X294368Y305839D01*
X294397Y305851D01*
X294429Y305856D01*
X294510Y305899D01*
X294594Y305935D01*
X294626Y305961D01*
X294647Y305972D01*
X294669Y305995D01*
X294725Y306040D01*
X297210Y308525D01*
X297263Y308599D01*
X297323Y308669D01*
X297335Y308699D01*
X297354Y308725D01*
X297381Y308812D01*
X297415Y308897D01*
X297419Y308938D01*
X297426Y308960D01*
X297425Y308992D01*
X297433Y309063D01*
X297433Y324162D01*
X312743Y339472D01*
X369247Y339472D01*
X407759Y300960D01*
X407833Y300907D01*
X407903Y300847D01*
X407933Y300835D01*
X407959Y300816D01*
X408046Y300789D01*
X408131Y300755D01*
X408172Y300751D01*
X408194Y300744D01*
X408226Y300745D01*
X408298Y300737D01*
X450397Y300737D01*
X450487Y300751D01*
X450578Y300759D01*
X450607Y300771D01*
X450639Y300776D01*
X450720Y300819D01*
X450804Y300855D01*
X450836Y300881D01*
X450857Y300892D01*
X450879Y300915D01*
X450935Y300960D01*
X453732Y303757D01*
X458128Y303757D01*
X461237Y300648D01*
X461237Y296252D01*
X457941Y292956D01*
X457929Y292940D01*
X457913Y292927D01*
X457877Y292871D01*
X457851Y292844D01*
X457835Y292809D01*
X457797Y292756D01*
X457791Y292737D01*
X457780Y292720D01*
X457764Y292656D01*
X457748Y292621D01*
X457743Y292582D01*
X457725Y292521D01*
X457725Y292501D01*
X457720Y292482D01*
X457725Y292418D01*
X457721Y292376D01*
X457730Y292335D01*
X457731Y292275D01*
X457738Y292256D01*
X457740Y292236D01*
X457763Y292181D01*
X457773Y292136D01*
X457796Y292096D01*
X457816Y292044D01*
X457828Y292028D01*
X457836Y292010D01*
X457884Y291950D01*
X457899Y291925D01*
X457916Y291911D01*
X457941Y291879D01*
X461237Y288583D01*
X461237Y284187D01*
X458128Y281078D01*
X453732Y281078D01*
X450935Y283875D01*
X450861Y283928D01*
X450791Y283988D01*
X450761Y284000D01*
X450735Y284019D01*
X450648Y284046D01*
X450563Y284080D01*
X450522Y284084D01*
X450500Y284091D01*
X450468Y284090D01*
X450397Y284098D01*
X372103Y284098D01*
X372012Y284084D01*
X371922Y284076D01*
X371892Y284064D01*
X371860Y284059D01*
X371779Y284016D01*
X371695Y283980D01*
X371663Y283954D01*
X371642Y283943D01*
X371620Y283920D01*
X371564Y283875D01*
X364802Y277113D01*
X312108Y277113D01*
X306616Y282605D01*
X306542Y282658D01*
X306472Y282718D01*
X306442Y282730D01*
X306416Y282749D01*
X306329Y282776D01*
X306244Y282810D01*
X306203Y282814D01*
X306181Y282821D01*
X306149Y282820D01*
X306077Y282828D01*
X284933Y282828D01*
X284843Y282814D01*
X284752Y282806D01*
X284723Y282794D01*
X284691Y282789D01*
X284610Y282746D01*
X284526Y282710D01*
X284494Y282684D01*
X284473Y282673D01*
X284451Y282650D01*
X284395Y282605D01*
X281910Y280120D01*
X281857Y280046D01*
X281797Y279976D01*
X281785Y279946D01*
X281766Y279920D01*
X281739Y279833D01*
X281705Y279748D01*
X281701Y279707D01*
X281694Y279685D01*
X281695Y279653D01*
X281687Y279582D01*
X281687Y246373D01*
X281701Y246282D01*
X281709Y246192D01*
X281721Y246162D01*
X281726Y246130D01*
X281769Y246049D01*
X281805Y245965D01*
X281831Y245933D01*
X281842Y245912D01*
X281865Y245890D01*
X281910Y245834D01*
X289307Y238437D01*
X289307Y212289D01*
X289318Y212219D01*
X289320Y212147D01*
X289338Y212098D01*
X289346Y212047D01*
X289380Y211983D01*
X289405Y211916D01*
X289437Y211875D01*
X289462Y211829D01*
X289514Y211780D01*
X289558Y211724D01*
X289602Y211696D01*
X289640Y211660D01*
X289705Y211630D01*
X289765Y211591D01*
X289816Y211578D01*
X289863Y211556D01*
X289934Y211548D01*
X290004Y211531D01*
X290056Y211535D01*
X290107Y211529D01*
X290178Y211544D01*
X290249Y211550D01*
X290297Y211570D01*
X290348Y211581D01*
X290409Y211618D01*
X290475Y211646D01*
X290531Y211691D01*
X290559Y211708D01*
X290574Y211725D01*
X290606Y211751D01*
X292442Y213587D01*
X296672Y213587D01*
X296692Y213590D01*
X296711Y213588D01*
X296813Y213610D01*
X296915Y213626D01*
X296932Y213636D01*
X296952Y213640D01*
X297041Y213693D01*
X297132Y213742D01*
X297146Y213756D01*
X297163Y213766D01*
X297230Y213845D01*
X297302Y213920D01*
X297310Y213938D01*
X297323Y213953D01*
X297362Y214049D01*
X297405Y214143D01*
X297407Y214163D01*
X297415Y214181D01*
X297433Y214348D01*
X297433Y244787D01*
X299905Y247259D01*
X299958Y247333D01*
X300018Y247403D01*
X300030Y247433D01*
X300049Y247459D01*
X300076Y247546D01*
X300110Y247631D01*
X300114Y247672D01*
X300121Y247694D01*
X300120Y247726D01*
X300128Y247798D01*
X300128Y251753D01*
X303237Y254862D01*
X307633Y254862D01*
X310742Y251753D01*
X310742Y247357D01*
X308116Y244731D01*
X308074Y244673D01*
X308025Y244621D01*
X308003Y244574D01*
X307973Y244532D01*
X307951Y244463D01*
X307921Y244398D01*
X307916Y244346D01*
X307900Y244296D01*
X307902Y244225D01*
X307894Y244154D01*
X307905Y244103D01*
X307907Y244051D01*
X307931Y243983D01*
X307946Y243913D01*
X307973Y243868D01*
X307991Y243820D01*
X308036Y243764D01*
X308073Y243702D01*
X308112Y243668D01*
X308145Y243628D01*
X308205Y243589D01*
X308260Y243542D01*
X308308Y243523D01*
X308352Y243495D01*
X308421Y243477D01*
X308488Y243450D01*
X308559Y243442D01*
X308590Y243434D01*
X308613Y243436D01*
X308654Y243432D01*
X311443Y243432D01*
X314552Y240323D01*
X314552Y237638D01*
X314566Y237547D01*
X314574Y237457D01*
X314586Y237427D01*
X314591Y237395D01*
X314634Y237314D01*
X314670Y237230D01*
X314696Y237198D01*
X314707Y237177D01*
X314730Y237155D01*
X314775Y237099D01*
X374397Y177477D01*
X374397Y150313D01*
X374411Y150223D01*
X374419Y150132D01*
X374431Y150103D01*
X374436Y150071D01*
X374479Y149990D01*
X374515Y149906D01*
X374541Y149874D01*
X374552Y149853D01*
X374575Y149831D01*
X374620Y149775D01*
X377417Y146978D01*
X377417Y142582D01*
X374308Y139473D01*
X369912Y139473D01*
X366803Y142582D01*
X366803Y146978D01*
X369600Y149775D01*
X369653Y149849D01*
X369713Y149919D01*
X369725Y149949D01*
X369744Y149975D01*
X369771Y150062D01*
X369805Y150147D01*
X369809Y150188D01*
X369816Y150210D01*
X369815Y150242D01*
X369823Y150313D01*
X369823Y175267D01*
X369809Y175358D01*
X369801Y175448D01*
X369789Y175478D01*
X369784Y175510D01*
X369741Y175591D01*
X369705Y175675D01*
X369679Y175707D01*
X369668Y175728D01*
X369645Y175750D01*
X369600Y175806D01*
X312554Y232852D01*
X312538Y232864D01*
X312525Y232880D01*
X312438Y232936D01*
X312354Y232996D01*
X312335Y233002D01*
X312318Y233013D01*
X312218Y233038D01*
X312119Y233068D01*
X312099Y233068D01*
X312080Y233073D01*
X311977Y233065D01*
X311873Y233062D01*
X311854Y233055D01*
X311834Y233053D01*
X311739Y233013D01*
X311642Y232977D01*
X311626Y232965D01*
X311608Y232957D01*
X311477Y232852D01*
X311443Y232818D01*
X307047Y232818D01*
X303938Y235927D01*
X303938Y240323D01*
X306564Y242949D01*
X306606Y243007D01*
X306655Y243059D01*
X306677Y243106D01*
X306707Y243148D01*
X306729Y243217D01*
X306759Y243282D01*
X306764Y243334D01*
X306780Y243384D01*
X306778Y243455D01*
X306786Y243526D01*
X306775Y243577D01*
X306773Y243629D01*
X306749Y243697D01*
X306734Y243767D01*
X306707Y243812D01*
X306689Y243860D01*
X306644Y243916D01*
X306607Y243978D01*
X306568Y244012D01*
X306535Y244052D01*
X306475Y244091D01*
X306420Y244138D01*
X306372Y244157D01*
X306328Y244185D01*
X306259Y244203D01*
X306192Y244230D01*
X306121Y244238D01*
X306090Y244246D01*
X306067Y244244D01*
X306026Y244248D01*
X303678Y244248D01*
X303587Y244234D01*
X303497Y244226D01*
X303467Y244214D01*
X303435Y244209D01*
X303354Y244166D01*
X303270Y244130D01*
X303238Y244104D01*
X303217Y244093D01*
X303195Y244070D01*
X303139Y244025D01*
X302230Y243116D01*
X302177Y243042D01*
X302117Y242972D01*
X302105Y242942D01*
X302086Y242916D01*
X302059Y242829D01*
X302025Y242744D01*
X302021Y242703D01*
X302014Y242681D01*
X302015Y242649D01*
X302007Y242577D01*
X302007Y213988D01*
X302009Y213976D01*
X302008Y213967D01*
X302017Y213925D01*
X302021Y213897D01*
X302029Y213807D01*
X302041Y213777D01*
X302046Y213745D01*
X302089Y213664D01*
X302125Y213580D01*
X302151Y213548D01*
X302162Y213527D01*
X302185Y213505D01*
X302230Y213449D01*
X353304Y162375D01*
X353378Y162322D01*
X353448Y162262D01*
X353478Y162250D01*
X353504Y162231D01*
X353591Y162204D01*
X353676Y162170D01*
X353717Y162166D01*
X353739Y162159D01*
X353771Y162160D01*
X353843Y162152D01*
X357798Y162152D01*
X360907Y159043D01*
X360907Y154647D01*
X357798Y151538D01*
X353402Y151538D01*
X350293Y154647D01*
X350293Y158602D01*
X350279Y158693D01*
X350271Y158783D01*
X350259Y158813D01*
X350254Y158845D01*
X350211Y158926D01*
X350175Y159010D01*
X350149Y159042D01*
X350138Y159063D01*
X350115Y159085D01*
X350070Y159141D01*
X301246Y207965D01*
X301188Y208007D01*
X301136Y208056D01*
X301089Y208078D01*
X301047Y208108D01*
X300978Y208129D01*
X300913Y208160D01*
X300861Y208165D01*
X300811Y208181D01*
X300740Y208179D01*
X300669Y208187D01*
X300618Y208176D01*
X300566Y208174D01*
X300498Y208150D01*
X300428Y208135D01*
X300383Y208108D01*
X300335Y208090D01*
X300279Y208045D01*
X300217Y208008D01*
X300183Y207969D01*
X300143Y207936D01*
X300104Y207876D01*
X300057Y207821D01*
X300038Y207773D01*
X300010Y207729D01*
X299992Y207660D01*
X299965Y207593D01*
X299957Y207522D01*
X299949Y207491D01*
X299951Y207467D01*
X299947Y207427D01*
X299947Y206082D01*
X297150Y203285D01*
X297097Y203211D01*
X297037Y203141D01*
X297025Y203111D01*
X297006Y203085D01*
X296979Y202998D01*
X296945Y202913D01*
X296941Y202872D01*
X296934Y202850D01*
X296935Y202818D01*
X296927Y202747D01*
X296927Y149218D01*
X296941Y149127D01*
X296949Y149037D01*
X296961Y149007D01*
X296966Y148975D01*
X297009Y148894D01*
X297045Y148810D01*
X297071Y148778D01*
X297082Y148757D01*
X297105Y148735D01*
X297150Y148679D01*
X317882Y127947D01*
X317882Y61413D01*
X317896Y61323D01*
X317904Y61232D01*
X317916Y61203D01*
X317921Y61171D01*
X317964Y61090D01*
X318000Y61006D01*
X318026Y60974D01*
X318037Y60953D01*
X318060Y60931D01*
X318105Y60875D01*
X320267Y58713D01*
X320267Y54317D01*
X317796Y51846D01*
X317754Y51788D01*
X317705Y51736D01*
X317683Y51689D01*
X317653Y51647D01*
X317631Y51578D01*
X317601Y51513D01*
X317596Y51461D01*
X317580Y51411D01*
X317582Y51340D01*
X317574Y51269D01*
X317585Y51218D01*
X317587Y51166D01*
X317611Y51098D01*
X317626Y51028D01*
X317653Y50983D01*
X317671Y50935D01*
X317716Y50879D01*
X317753Y50817D01*
X317792Y50783D01*
X317825Y50743D01*
X317885Y50704D01*
X317940Y50657D01*
X317988Y50638D01*
X318032Y50610D01*
X318101Y50592D01*
X318168Y50565D01*
X318239Y50557D01*
X318270Y50549D01*
X318293Y50551D01*
X318334Y50547D01*
X540032Y50547D01*
X540052Y50550D01*
X540071Y50548D01*
X540173Y50570D01*
X540275Y50586D01*
X540292Y50596D01*
X540312Y50600D01*
X540401Y50653D01*
X540492Y50702D01*
X540506Y50716D01*
X540523Y50726D01*
X540590Y50805D01*
X540662Y50880D01*
X540670Y50898D01*
X540683Y50913D01*
X540722Y51009D01*
X540765Y51103D01*
X540767Y51123D01*
X540775Y51141D01*
X540793Y51308D01*
X540793Y52998D01*
X543902Y56107D01*
X547857Y56107D01*
X547948Y56121D01*
X548038Y56129D01*
X548068Y56141D01*
X548100Y56146D01*
X548181Y56189D01*
X548265Y56225D01*
X548297Y56251D01*
X548318Y56262D01*
X548340Y56285D01*
X548396Y56330D01*
X551210Y59144D01*
X551263Y59218D01*
X551323Y59288D01*
X551335Y59318D01*
X551354Y59344D01*
X551381Y59431D01*
X551415Y59516D01*
X551419Y59557D01*
X551426Y59579D01*
X551425Y59611D01*
X551433Y59683D01*
X551433Y80884D01*
X551430Y80904D01*
X551432Y80923D01*
X551410Y81025D01*
X551394Y81127D01*
X551384Y81144D01*
X551380Y81164D01*
X551327Y81253D01*
X551278Y81344D01*
X551264Y81358D01*
X551254Y81375D01*
X551175Y81442D01*
X551100Y81514D01*
X551082Y81522D01*
X551067Y81535D01*
X550971Y81574D01*
X550877Y81617D01*
X550857Y81619D01*
X550839Y81627D01*
X550672Y81645D01*
X546088Y81645D01*
X545195Y82538D01*
X545195Y97802D01*
X546088Y98695D01*
X561352Y98695D01*
X562245Y97802D01*
X562245Y82538D01*
X561352Y81645D01*
X556768Y81645D01*
X556748Y81642D01*
X556729Y81644D01*
X556627Y81622D01*
X556525Y81606D01*
X556508Y81596D01*
X556488Y81592D01*
X556399Y81539D01*
X556308Y81490D01*
X556294Y81476D01*
X556277Y81466D01*
X556210Y81387D01*
X556138Y81312D01*
X556130Y81294D01*
X556117Y81279D01*
X556078Y81183D01*
X556035Y81089D01*
X556033Y81069D01*
X556025Y81051D01*
X556007Y80884D01*
X556007Y57473D01*
X551630Y53096D01*
X551577Y53022D01*
X551517Y52952D01*
X551505Y52922D01*
X551486Y52896D01*
X551459Y52809D01*
X551425Y52724D01*
X551421Y52683D01*
X551414Y52661D01*
X551415Y52629D01*
X551407Y52557D01*
X551407Y48602D01*
X548298Y45493D01*
X543902Y45493D01*
X543645Y45750D01*
X543571Y45803D01*
X543501Y45863D01*
X543471Y45875D01*
X543445Y45894D01*
X543358Y45921D01*
X543273Y45955D01*
X543232Y45959D01*
X543210Y45966D01*
X543178Y45965D01*
X543107Y45973D01*
X307078Y45973D01*
X307008Y45962D01*
X306936Y45960D01*
X306887Y45942D01*
X306836Y45934D01*
X306772Y45900D01*
X306705Y45875D01*
X306664Y45843D01*
X306618Y45818D01*
X306569Y45767D01*
X306513Y45722D01*
X306485Y45678D01*
X306449Y45640D01*
X306419Y45575D01*
X306380Y45515D01*
X306367Y45464D01*
X306345Y45417D01*
X306337Y45346D01*
X306320Y45276D01*
X306324Y45224D01*
X306318Y45173D01*
X306333Y45102D01*
X306339Y45031D01*
X306359Y44983D01*
X306370Y44932D01*
X306407Y44871D01*
X306435Y44805D01*
X306480Y44749D01*
X306497Y44721D01*
X306514Y44706D01*
X306540Y44674D01*
X310604Y40610D01*
X310678Y40557D01*
X310748Y40497D01*
X310778Y40485D01*
X310804Y40466D01*
X310891Y40439D01*
X310976Y40405D01*
X311017Y40401D01*
X311039Y40394D01*
X311071Y40395D01*
X311142Y40387D01*
X557537Y40387D01*
X557628Y40401D01*
X557718Y40409D01*
X557748Y40421D01*
X557780Y40426D01*
X557861Y40469D01*
X557945Y40505D01*
X557977Y40531D01*
X557998Y40542D01*
X558020Y40565D01*
X558076Y40610D01*
X565970Y48504D01*
X566023Y48578D01*
X566083Y48648D01*
X566095Y48678D01*
X566114Y48704D01*
X566141Y48791D01*
X566175Y48876D01*
X566179Y48917D01*
X566186Y48939D01*
X566185Y48971D01*
X566193Y49043D01*
X566193Y52998D01*
X569302Y56107D01*
X573257Y56107D01*
X573348Y56121D01*
X573438Y56129D01*
X573468Y56141D01*
X573500Y56146D01*
X573581Y56189D01*
X573665Y56225D01*
X573697Y56251D01*
X573718Y56262D01*
X573740Y56285D01*
X573796Y56330D01*
X576610Y59144D01*
X576663Y59218D01*
X576723Y59288D01*
X576735Y59318D01*
X576754Y59344D01*
X576781Y59431D01*
X576815Y59516D01*
X576819Y59557D01*
X576826Y59579D01*
X576825Y59611D01*
X576833Y59683D01*
X576833Y80884D01*
X576830Y80904D01*
X576832Y80923D01*
X576810Y81025D01*
X576794Y81127D01*
X576784Y81144D01*
X576780Y81164D01*
X576727Y81253D01*
X576678Y81344D01*
X576664Y81358D01*
X576654Y81375D01*
X576575Y81442D01*
X576500Y81514D01*
X576482Y81522D01*
X576467Y81535D01*
X576371Y81574D01*
X576277Y81617D01*
X576257Y81619D01*
X576239Y81627D01*
X576072Y81645D01*
X571488Y81645D01*
X570595Y82538D01*
X570595Y97802D01*
X571488Y98695D01*
X586752Y98695D01*
X587645Y97802D01*
X587645Y82538D01*
X586752Y81645D01*
X582168Y81645D01*
X582148Y81642D01*
X582129Y81644D01*
X582027Y81622D01*
X581925Y81606D01*
X581908Y81596D01*
X581888Y81592D01*
X581799Y81539D01*
X581708Y81490D01*
X581694Y81476D01*
X581677Y81466D01*
X581610Y81387D01*
X581538Y81312D01*
X581530Y81294D01*
X581517Y81279D01*
X581478Y81183D01*
X581435Y81089D01*
X581433Y81069D01*
X581425Y81051D01*
X581407Y80884D01*
X581407Y57473D01*
X577030Y53096D01*
X576977Y53022D01*
X576917Y52952D01*
X576905Y52922D01*
X576886Y52896D01*
X576859Y52809D01*
X576825Y52724D01*
X576821Y52683D01*
X576814Y52661D01*
X576815Y52629D01*
X576807Y52557D01*
X576807Y48602D01*
X573698Y45493D01*
X569743Y45493D01*
X569652Y45479D01*
X569562Y45471D01*
X569532Y45459D01*
X569500Y45454D01*
X569419Y45411D01*
X569335Y45375D01*
X569303Y45349D01*
X569282Y45338D01*
X569260Y45315D01*
X569204Y45270D01*
X559747Y35813D01*
X308933Y35813D01*
G37*
%LPD*%
G36*
X275172Y156295D02*
X275172Y156295D01*
X275224Y156297D01*
X275292Y156321D01*
X275362Y156336D01*
X275407Y156363D01*
X275455Y156381D01*
X275511Y156426D01*
X275573Y156463D01*
X275607Y156502D01*
X275647Y156535D01*
X275686Y156595D01*
X275733Y156650D01*
X275752Y156698D01*
X275780Y156742D01*
X275798Y156811D01*
X275825Y156878D01*
X275833Y156949D01*
X275841Y156980D01*
X275839Y157003D01*
X275843Y157044D01*
X275843Y165917D01*
X275829Y166007D01*
X275821Y166098D01*
X275809Y166127D01*
X275804Y166159D01*
X275761Y166240D01*
X275725Y166324D01*
X275699Y166356D01*
X275688Y166377D01*
X275665Y166399D01*
X275620Y166455D01*
X272823Y169252D01*
X272823Y173648D01*
X275932Y176757D01*
X280328Y176757D01*
X283434Y173651D01*
X283492Y173609D01*
X283544Y173560D01*
X283591Y173538D01*
X283633Y173508D01*
X283702Y173486D01*
X283767Y173456D01*
X283819Y173451D01*
X283869Y173435D01*
X283940Y173437D01*
X284011Y173429D01*
X284062Y173440D01*
X284114Y173442D01*
X284182Y173466D01*
X284252Y173481D01*
X284297Y173508D01*
X284345Y173526D01*
X284401Y173571D01*
X284463Y173608D01*
X284497Y173647D01*
X284537Y173680D01*
X284576Y173740D01*
X284623Y173795D01*
X284642Y173843D01*
X284670Y173887D01*
X284688Y173956D01*
X284715Y174023D01*
X284723Y174094D01*
X284731Y174125D01*
X284729Y174148D01*
X284733Y174189D01*
X284733Y236227D01*
X284719Y236318D01*
X284711Y236408D01*
X284699Y236438D01*
X284694Y236470D01*
X284651Y236551D01*
X284615Y236635D01*
X284589Y236667D01*
X284578Y236688D01*
X284555Y236710D01*
X284510Y236766D01*
X277113Y244163D01*
X277113Y279582D01*
X277099Y279672D01*
X277091Y279763D01*
X277079Y279792D01*
X277074Y279824D01*
X277031Y279905D01*
X276995Y279989D01*
X276969Y280021D01*
X276958Y280042D01*
X276935Y280064D01*
X276890Y280120D01*
X274093Y282917D01*
X274093Y287313D01*
X277202Y290422D01*
X281598Y290422D01*
X284395Y287625D01*
X284469Y287572D01*
X284539Y287512D01*
X284569Y287500D01*
X284595Y287481D01*
X284682Y287454D01*
X284767Y287420D01*
X284808Y287416D01*
X284830Y287409D01*
X284862Y287410D01*
X284933Y287402D01*
X308287Y287402D01*
X313779Y281910D01*
X313853Y281857D01*
X313923Y281797D01*
X313953Y281785D01*
X313979Y281766D01*
X314066Y281739D01*
X314151Y281705D01*
X314192Y281701D01*
X314214Y281694D01*
X314246Y281695D01*
X314318Y281687D01*
X362592Y281687D01*
X362683Y281701D01*
X362773Y281709D01*
X362803Y281721D01*
X362835Y281726D01*
X362916Y281769D01*
X363000Y281805D01*
X363032Y281831D01*
X363053Y281842D01*
X363075Y281865D01*
X363131Y281910D01*
X369893Y288672D01*
X450397Y288672D01*
X450487Y288686D01*
X450578Y288694D01*
X450607Y288706D01*
X450639Y288711D01*
X450720Y288754D01*
X450804Y288790D01*
X450836Y288816D01*
X450857Y288827D01*
X450879Y288850D01*
X450935Y288895D01*
X453919Y291879D01*
X453931Y291895D01*
X453947Y291908D01*
X453975Y291952D01*
X454009Y291988D01*
X454030Y292033D01*
X454063Y292079D01*
X454069Y292098D01*
X454080Y292115D01*
X454093Y292170D01*
X454112Y292211D01*
X454117Y292256D01*
X454135Y292314D01*
X454135Y292334D01*
X454140Y292353D01*
X454135Y292414D01*
X454139Y292455D01*
X454131Y292496D01*
X454129Y292560D01*
X454122Y292579D01*
X454120Y292598D01*
X454095Y292657D01*
X454087Y292695D01*
X454067Y292729D01*
X454044Y292791D01*
X454032Y292807D01*
X454024Y292825D01*
X453967Y292896D01*
X453961Y292907D01*
X453954Y292912D01*
X453919Y292956D01*
X450935Y295940D01*
X450861Y295993D01*
X450791Y296053D01*
X450761Y296065D01*
X450735Y296084D01*
X450648Y296111D01*
X450563Y296145D01*
X450522Y296149D01*
X450500Y296156D01*
X450468Y296155D01*
X450397Y296163D01*
X406088Y296163D01*
X367576Y334675D01*
X367502Y334728D01*
X367432Y334788D01*
X367402Y334800D01*
X367376Y334819D01*
X367289Y334846D01*
X367204Y334880D01*
X367163Y334884D01*
X367141Y334891D01*
X367109Y334890D01*
X367037Y334898D01*
X314953Y334898D01*
X314862Y334884D01*
X314772Y334876D01*
X314742Y334864D01*
X314710Y334859D01*
X314629Y334816D01*
X314545Y334780D01*
X314513Y334754D01*
X314492Y334743D01*
X314470Y334720D01*
X314414Y334675D01*
X302230Y322491D01*
X302177Y322417D01*
X302117Y322347D01*
X302105Y322317D01*
X302086Y322291D01*
X302059Y322204D01*
X302025Y322119D01*
X302021Y322078D01*
X302014Y322056D01*
X302015Y322024D01*
X302007Y321952D01*
X302007Y309063D01*
X302021Y308973D01*
X302029Y308882D01*
X302041Y308853D01*
X302046Y308821D01*
X302089Y308740D01*
X302125Y308656D01*
X302151Y308624D01*
X302162Y308603D01*
X302185Y308581D01*
X302230Y308525D01*
X305027Y305728D01*
X305027Y301332D01*
X301918Y298223D01*
X297522Y298223D01*
X294725Y301020D01*
X294651Y301073D01*
X294581Y301133D01*
X294551Y301145D01*
X294525Y301164D01*
X294438Y301191D01*
X294353Y301225D01*
X294312Y301229D01*
X294290Y301236D01*
X294258Y301235D01*
X294187Y301243D01*
X236848Y301243D01*
X236757Y301229D01*
X236667Y301221D01*
X236637Y301209D01*
X236605Y301204D01*
X236524Y301161D01*
X236440Y301125D01*
X236408Y301099D01*
X236387Y301088D01*
X236365Y301065D01*
X236309Y301020D01*
X231590Y296301D01*
X231537Y296227D01*
X231477Y296157D01*
X231465Y296127D01*
X231446Y296101D01*
X231419Y296014D01*
X231385Y295929D01*
X231381Y295888D01*
X231374Y295866D01*
X231375Y295834D01*
X231367Y295762D01*
X231367Y291807D01*
X228570Y289010D01*
X228517Y288936D01*
X228457Y288866D01*
X228445Y288836D01*
X228426Y288810D01*
X228399Y288723D01*
X228365Y288638D01*
X228361Y288597D01*
X228354Y288575D01*
X228355Y288543D01*
X228347Y288472D01*
X228347Y198748D01*
X228361Y198657D01*
X228369Y198567D01*
X228381Y198537D01*
X228386Y198505D01*
X228429Y198424D01*
X228465Y198340D01*
X228491Y198308D01*
X228502Y198287D01*
X228525Y198265D01*
X228570Y198209D01*
X267579Y159200D01*
X267653Y159147D01*
X267723Y159087D01*
X267753Y159075D01*
X267779Y159056D01*
X267866Y159029D01*
X267951Y158995D01*
X267992Y158991D01*
X268014Y158984D01*
X268046Y158985D01*
X268118Y158977D01*
X272073Y158977D01*
X274544Y156506D01*
X274602Y156464D01*
X274654Y156415D01*
X274701Y156393D01*
X274743Y156363D01*
X274812Y156341D01*
X274877Y156311D01*
X274929Y156306D01*
X274979Y156290D01*
X275050Y156292D01*
X275121Y156284D01*
X275172Y156295D01*
G37*
%LPC*%
G36*
X281647Y17553D02*
X281647Y17553D01*
X278538Y20662D01*
X278538Y23622D01*
X278535Y23642D01*
X278537Y23661D01*
X278515Y23763D01*
X278499Y23865D01*
X278489Y23882D01*
X278485Y23902D01*
X278432Y23991D01*
X278383Y24082D01*
X278369Y24096D01*
X278359Y24113D01*
X278280Y24180D01*
X278205Y24252D01*
X278187Y24260D01*
X278172Y24273D01*
X278076Y24312D01*
X277982Y24355D01*
X277962Y24357D01*
X277944Y24365D01*
X277777Y24383D01*
X88588Y24383D01*
X80263Y32708D01*
X80263Y37504D01*
X80252Y37575D01*
X80250Y37647D01*
X80232Y37696D01*
X80224Y37747D01*
X80190Y37810D01*
X80165Y37878D01*
X80133Y37918D01*
X80108Y37964D01*
X80056Y38014D01*
X80012Y38070D01*
X79968Y38098D01*
X79930Y38134D01*
X79865Y38164D01*
X79805Y38203D01*
X79754Y38215D01*
X79707Y38237D01*
X79636Y38245D01*
X79566Y38263D01*
X79514Y38259D01*
X79463Y38264D01*
X79392Y38249D01*
X79321Y38244D01*
X79273Y38223D01*
X79222Y38212D01*
X79161Y38175D01*
X79095Y38147D01*
X79039Y38102D01*
X79011Y38086D01*
X78996Y38068D01*
X78964Y38042D01*
X78117Y37195D01*
X62853Y37195D01*
X61960Y38088D01*
X61960Y53352D01*
X62853Y54245D01*
X78117Y54245D01*
X78964Y53398D01*
X79022Y53356D01*
X79074Y53306D01*
X79121Y53284D01*
X79163Y53254D01*
X79232Y53233D01*
X79297Y53203D01*
X79349Y53197D01*
X79399Y53182D01*
X79470Y53184D01*
X79541Y53176D01*
X79592Y53187D01*
X79644Y53188D01*
X79712Y53213D01*
X79782Y53228D01*
X79827Y53255D01*
X79875Y53272D01*
X79931Y53317D01*
X79993Y53354D01*
X80027Y53394D01*
X80067Y53426D01*
X80106Y53486D01*
X80153Y53541D01*
X80172Y53589D01*
X80200Y53633D01*
X80218Y53703D01*
X80245Y53769D01*
X80253Y53840D01*
X80261Y53872D01*
X80259Y53895D01*
X80263Y53936D01*
X80263Y57792D01*
X80249Y57883D01*
X80241Y57973D01*
X80229Y58003D01*
X80224Y58035D01*
X80181Y58116D01*
X80145Y58200D01*
X80119Y58232D01*
X80108Y58253D01*
X80085Y58275D01*
X80040Y58331D01*
X75999Y62372D01*
X75925Y62425D01*
X75855Y62485D01*
X75825Y62497D01*
X75799Y62516D01*
X75712Y62543D01*
X75627Y62577D01*
X75586Y62581D01*
X75564Y62588D01*
X75532Y62587D01*
X75460Y62595D01*
X62853Y62595D01*
X61960Y63488D01*
X61960Y78752D01*
X62853Y79645D01*
X78117Y79645D01*
X79010Y78752D01*
X79010Y66145D01*
X79024Y66054D01*
X79032Y65964D01*
X79044Y65934D01*
X79049Y65902D01*
X79092Y65821D01*
X79128Y65737D01*
X79154Y65705D01*
X79165Y65684D01*
X79188Y65662D01*
X79233Y65606D01*
X84837Y60002D01*
X84837Y34918D01*
X84851Y34827D01*
X84859Y34737D01*
X84871Y34707D01*
X84876Y34675D01*
X84919Y34594D01*
X84955Y34510D01*
X84981Y34478D01*
X84992Y34457D01*
X85015Y34435D01*
X85060Y34379D01*
X90259Y29180D01*
X90333Y29127D01*
X90403Y29067D01*
X90433Y29055D01*
X90459Y29036D01*
X90546Y29009D01*
X90631Y28975D01*
X90672Y28971D01*
X90694Y28964D01*
X90726Y28965D01*
X90798Y28957D01*
X108212Y28957D01*
X108282Y28968D01*
X108354Y28970D01*
X108403Y28988D01*
X108454Y28996D01*
X108518Y29030D01*
X108585Y29055D01*
X108626Y29087D01*
X108672Y29112D01*
X108721Y29164D01*
X108777Y29208D01*
X108805Y29252D01*
X108841Y29290D01*
X108871Y29355D01*
X108910Y29415D01*
X108923Y29466D01*
X108945Y29513D01*
X108953Y29584D01*
X108970Y29654D01*
X108966Y29706D01*
X108972Y29757D01*
X108957Y29828D01*
X108951Y29899D01*
X108931Y29947D01*
X108920Y29998D01*
X108883Y30059D01*
X108855Y30125D01*
X108810Y30181D01*
X108793Y30209D01*
X108776Y30224D01*
X108750Y30256D01*
X107861Y31145D01*
X106298Y32708D01*
X106298Y78112D01*
X106284Y78202D01*
X106276Y78293D01*
X106264Y78323D01*
X106259Y78355D01*
X106216Y78436D01*
X106180Y78520D01*
X106154Y78552D01*
X106143Y78573D01*
X106120Y78595D01*
X106075Y78651D01*
X105709Y79017D01*
X105651Y79059D01*
X105599Y79108D01*
X105552Y79130D01*
X105510Y79160D01*
X105441Y79181D01*
X105376Y79212D01*
X105324Y79217D01*
X105274Y79233D01*
X105203Y79231D01*
X105132Y79239D01*
X105081Y79228D01*
X105029Y79226D01*
X104961Y79202D01*
X104891Y79187D01*
X104846Y79160D01*
X104798Y79142D01*
X104742Y79097D01*
X104680Y79060D01*
X104646Y79021D01*
X104606Y78988D01*
X104567Y78928D01*
X104520Y78873D01*
X104501Y78825D01*
X104473Y78781D01*
X104455Y78712D01*
X104428Y78645D01*
X104420Y78574D01*
X104412Y78543D01*
X104414Y78519D01*
X104410Y78479D01*
X104410Y63488D01*
X103517Y62595D01*
X88253Y62595D01*
X87360Y63488D01*
X87360Y78752D01*
X88253Y79645D01*
X103244Y79645D01*
X103314Y79656D01*
X103386Y79658D01*
X103435Y79676D01*
X103486Y79684D01*
X103550Y79718D01*
X103617Y79743D01*
X103658Y79775D01*
X103704Y79800D01*
X103753Y79852D01*
X103809Y79896D01*
X103837Y79940D01*
X103873Y79978D01*
X103903Y80043D01*
X103942Y80103D01*
X103955Y80154D01*
X103977Y80201D01*
X103985Y80272D01*
X104002Y80342D01*
X103998Y80394D01*
X104004Y80445D01*
X103989Y80516D01*
X103983Y80587D01*
X103963Y80635D01*
X103952Y80686D01*
X103915Y80747D01*
X103887Y80813D01*
X103842Y80869D01*
X103825Y80897D01*
X103808Y80912D01*
X103782Y80944D01*
X98336Y86390D01*
X98262Y86443D01*
X98192Y86503D01*
X98162Y86515D01*
X98136Y86534D01*
X98049Y86561D01*
X97964Y86595D01*
X97923Y86599D01*
X97901Y86606D01*
X97869Y86605D01*
X97797Y86613D01*
X61588Y86613D01*
X61497Y86599D01*
X61407Y86591D01*
X61377Y86579D01*
X61345Y86574D01*
X61264Y86531D01*
X61180Y86495D01*
X61148Y86469D01*
X61127Y86458D01*
X61105Y86435D01*
X61049Y86390D01*
X53833Y79174D01*
X53780Y79100D01*
X53720Y79030D01*
X53708Y79000D01*
X53689Y78974D01*
X53662Y78887D01*
X53628Y78802D01*
X53624Y78761D01*
X53617Y78739D01*
X53618Y78707D01*
X53610Y78635D01*
X53610Y63488D01*
X52717Y62595D01*
X37453Y62595D01*
X36560Y63488D01*
X36560Y78752D01*
X37453Y79645D01*
X47520Y79645D01*
X47611Y79659D01*
X47701Y79667D01*
X47731Y79679D01*
X47763Y79684D01*
X47844Y79727D01*
X47928Y79763D01*
X47960Y79789D01*
X47981Y79800D01*
X48003Y79823D01*
X48059Y79868D01*
X59378Y91187D01*
X100007Y91187D01*
X110872Y80322D01*
X110872Y34918D01*
X110886Y34827D01*
X110894Y34737D01*
X110906Y34707D01*
X110911Y34675D01*
X110954Y34594D01*
X110990Y34510D01*
X111016Y34478D01*
X111027Y34457D01*
X111050Y34435D01*
X111095Y34379D01*
X112484Y32990D01*
X112558Y32937D01*
X112628Y32877D01*
X112658Y32865D01*
X112684Y32846D01*
X112771Y32819D01*
X112856Y32785D01*
X112897Y32781D01*
X112919Y32774D01*
X112951Y32775D01*
X113023Y32767D01*
X289742Y32767D01*
X289832Y32781D01*
X289923Y32789D01*
X289952Y32801D01*
X289984Y32806D01*
X290065Y32849D01*
X290149Y32885D01*
X290181Y32911D01*
X290202Y32922D01*
X290224Y32945D01*
X290280Y32990D01*
X293077Y35787D01*
X297473Y35787D01*
X300582Y32678D01*
X300582Y28282D01*
X297473Y25173D01*
X293077Y25173D01*
X290280Y27970D01*
X290206Y28023D01*
X290136Y28083D01*
X290106Y28095D01*
X290080Y28114D01*
X289993Y28141D01*
X289908Y28175D01*
X289867Y28179D01*
X289845Y28186D01*
X289813Y28185D01*
X289742Y28193D01*
X287854Y28193D01*
X287784Y28182D01*
X287712Y28180D01*
X287663Y28162D01*
X287612Y28154D01*
X287548Y28120D01*
X287481Y28095D01*
X287440Y28063D01*
X287394Y28038D01*
X287345Y27986D01*
X287289Y27942D01*
X287261Y27898D01*
X287225Y27860D01*
X287195Y27795D01*
X287156Y27735D01*
X287143Y27684D01*
X287121Y27637D01*
X287113Y27566D01*
X287096Y27496D01*
X287100Y27444D01*
X287094Y27393D01*
X287109Y27322D01*
X287115Y27251D01*
X287135Y27203D01*
X287146Y27152D01*
X287183Y27091D01*
X287211Y27025D01*
X287256Y26969D01*
X287273Y26941D01*
X287290Y26926D01*
X287316Y26894D01*
X289152Y25058D01*
X289152Y20662D01*
X286043Y17553D01*
X281647Y17553D01*
G37*
%LPD*%
G36*
X311656Y50558D02*
X311656Y50558D01*
X311728Y50560D01*
X311777Y50578D01*
X311828Y50586D01*
X311892Y50620D01*
X311959Y50645D01*
X312000Y50677D01*
X312046Y50702D01*
X312095Y50754D01*
X312151Y50798D01*
X312179Y50842D01*
X312215Y50880D01*
X312245Y50945D01*
X312284Y51005D01*
X312297Y51056D01*
X312319Y51103D01*
X312327Y51174D01*
X312344Y51244D01*
X312340Y51296D01*
X312346Y51347D01*
X312331Y51418D01*
X312325Y51489D01*
X312305Y51537D01*
X312294Y51588D01*
X312257Y51649D01*
X312229Y51715D01*
X312184Y51771D01*
X312167Y51799D01*
X312150Y51814D01*
X312124Y51846D01*
X309653Y54317D01*
X309653Y58713D01*
X312812Y61872D01*
X312827Y61875D01*
X312916Y61928D01*
X313007Y61977D01*
X313021Y61991D01*
X313038Y62001D01*
X313105Y62080D01*
X313177Y62155D01*
X313185Y62173D01*
X313198Y62188D01*
X313236Y62284D01*
X313280Y62378D01*
X313282Y62398D01*
X313290Y62416D01*
X313308Y62583D01*
X313308Y125737D01*
X313294Y125828D01*
X313286Y125918D01*
X313274Y125948D01*
X313269Y125980D01*
X313226Y126061D01*
X313190Y126145D01*
X313164Y126177D01*
X313153Y126198D01*
X313130Y126220D01*
X313085Y126276D01*
X292353Y147008D01*
X292353Y202747D01*
X292339Y202837D01*
X292331Y202928D01*
X292319Y202957D01*
X292314Y202989D01*
X292271Y203070D01*
X292235Y203154D01*
X292209Y203186D01*
X292198Y203207D01*
X292175Y203229D01*
X292130Y203285D01*
X290606Y204809D01*
X290548Y204851D01*
X290496Y204900D01*
X290449Y204922D01*
X290407Y204952D01*
X290338Y204974D01*
X290273Y205004D01*
X290221Y205009D01*
X290171Y205025D01*
X290100Y205023D01*
X290029Y205031D01*
X289978Y205020D01*
X289926Y205018D01*
X289858Y204994D01*
X289788Y204979D01*
X289743Y204952D01*
X289695Y204934D01*
X289639Y204889D01*
X289577Y204852D01*
X289543Y204813D01*
X289503Y204780D01*
X289464Y204720D01*
X289417Y204665D01*
X289398Y204617D01*
X289370Y204573D01*
X289352Y204504D01*
X289325Y204437D01*
X289317Y204366D01*
X289309Y204335D01*
X289311Y204312D01*
X289307Y204271D01*
X289307Y86713D01*
X289310Y86693D01*
X289308Y86674D01*
X289330Y86572D01*
X289346Y86470D01*
X289356Y86453D01*
X289360Y86433D01*
X289413Y86344D01*
X289462Y86253D01*
X289476Y86239D01*
X289486Y86222D01*
X289565Y86155D01*
X289640Y86083D01*
X289658Y86075D01*
X289673Y86062D01*
X289769Y86023D01*
X289863Y85980D01*
X289883Y85978D01*
X289901Y85970D01*
X290068Y85952D01*
X290488Y85952D01*
X293597Y82843D01*
X293597Y78447D01*
X290488Y75338D01*
X286092Y75338D01*
X282983Y78447D01*
X282983Y82843D01*
X284510Y84370D01*
X284563Y84444D01*
X284623Y84514D01*
X284635Y84544D01*
X284654Y84570D01*
X284681Y84657D01*
X284715Y84742D01*
X284719Y84783D01*
X284726Y84805D01*
X284725Y84837D01*
X284733Y84908D01*
X284733Y168711D01*
X284722Y168781D01*
X284720Y168853D01*
X284702Y168902D01*
X284694Y168953D01*
X284660Y169017D01*
X284635Y169084D01*
X284603Y169125D01*
X284578Y169171D01*
X284526Y169220D01*
X284482Y169276D01*
X284438Y169304D01*
X284400Y169340D01*
X284335Y169370D01*
X284275Y169409D01*
X284224Y169422D01*
X284177Y169444D01*
X284106Y169452D01*
X284036Y169469D01*
X283984Y169465D01*
X283933Y169471D01*
X283862Y169456D01*
X283791Y169450D01*
X283743Y169430D01*
X283692Y169419D01*
X283631Y169382D01*
X283565Y169354D01*
X283509Y169309D01*
X283481Y169292D01*
X283466Y169275D01*
X283434Y169249D01*
X280640Y166455D01*
X280587Y166381D01*
X280527Y166311D01*
X280515Y166281D01*
X280496Y166255D01*
X280469Y166168D01*
X280435Y166083D01*
X280431Y166042D01*
X280424Y166020D01*
X280425Y165988D01*
X280417Y165917D01*
X280417Y93033D01*
X260030Y72646D01*
X259988Y72588D01*
X259939Y72536D01*
X259917Y72489D01*
X259887Y72447D01*
X259866Y72378D01*
X259835Y72313D01*
X259830Y72261D01*
X259814Y72211D01*
X259816Y72140D01*
X259808Y72069D01*
X259819Y72018D01*
X259821Y71966D01*
X259845Y71898D01*
X259860Y71828D01*
X259887Y71783D01*
X259905Y71735D01*
X259950Y71679D01*
X259987Y71617D01*
X260026Y71583D01*
X260059Y71543D01*
X260119Y71504D01*
X260174Y71457D01*
X260222Y71438D01*
X260266Y71410D01*
X260335Y71392D01*
X260402Y71365D01*
X260473Y71357D01*
X260504Y71349D01*
X260528Y71351D01*
X260568Y71347D01*
X263818Y71347D01*
X266615Y68550D01*
X266689Y68497D01*
X266759Y68437D01*
X266789Y68425D01*
X266815Y68406D01*
X266902Y68379D01*
X266987Y68345D01*
X267028Y68341D01*
X267050Y68334D01*
X267082Y68335D01*
X267153Y68327D01*
X291142Y68327D01*
X308699Y50770D01*
X308773Y50717D01*
X308843Y50657D01*
X308873Y50645D01*
X308899Y50626D01*
X308986Y50599D01*
X309071Y50565D01*
X309112Y50561D01*
X309134Y50554D01*
X309166Y50555D01*
X309238Y50547D01*
X311586Y50547D01*
X311656Y50558D01*
G37*
%LPC*%
G36*
X466432Y55018D02*
X466432Y55018D01*
X463323Y58127D01*
X463323Y62082D01*
X463309Y62173D01*
X463301Y62263D01*
X463289Y62293D01*
X463284Y62325D01*
X463241Y62406D01*
X463205Y62490D01*
X463179Y62522D01*
X463168Y62543D01*
X463145Y62565D01*
X463100Y62621D01*
X410121Y115600D01*
X410047Y115653D01*
X409977Y115713D01*
X409947Y115725D01*
X409921Y115744D01*
X409834Y115771D01*
X409749Y115805D01*
X409708Y115809D01*
X409686Y115816D01*
X409654Y115815D01*
X409582Y115823D01*
X390978Y115823D01*
X390888Y115809D01*
X390797Y115801D01*
X390768Y115789D01*
X390736Y115784D01*
X390655Y115741D01*
X390571Y115705D01*
X390539Y115679D01*
X390518Y115668D01*
X390502Y115652D01*
X390501Y115651D01*
X390492Y115642D01*
X390440Y115600D01*
X387643Y112803D01*
X383247Y112803D01*
X380138Y115912D01*
X380138Y120308D01*
X383247Y123417D01*
X385401Y123417D01*
X385471Y123428D01*
X385543Y123430D01*
X385592Y123448D01*
X385643Y123456D01*
X385707Y123490D01*
X385774Y123515D01*
X385815Y123547D01*
X385861Y123572D01*
X385910Y123624D01*
X385966Y123668D01*
X385994Y123712D01*
X386030Y123750D01*
X386060Y123815D01*
X386099Y123875D01*
X386112Y123926D01*
X386134Y123973D01*
X386142Y124044D01*
X386159Y124114D01*
X386155Y124166D01*
X386161Y124217D01*
X386146Y124288D01*
X386140Y124359D01*
X386120Y124407D01*
X386109Y124458D01*
X386072Y124519D01*
X386044Y124585D01*
X385999Y124641D01*
X385982Y124669D01*
X385981Y124670D01*
X385964Y124685D01*
X385939Y124716D01*
X382678Y127977D01*
X382678Y132373D01*
X385475Y135170D01*
X385528Y135244D01*
X385588Y135314D01*
X385600Y135344D01*
X385619Y135370D01*
X385646Y135457D01*
X385680Y135542D01*
X385684Y135583D01*
X385691Y135605D01*
X385690Y135637D01*
X385698Y135708D01*
X385698Y194622D01*
X427678Y236602D01*
X552732Y236602D01*
X552752Y236605D01*
X552771Y236603D01*
X552873Y236625D01*
X552975Y236641D01*
X552992Y236651D01*
X553012Y236655D01*
X553101Y236708D01*
X553192Y236757D01*
X553206Y236771D01*
X553223Y236781D01*
X553290Y236860D01*
X553362Y236935D01*
X553370Y236953D01*
X553383Y236968D01*
X553422Y237064D01*
X553432Y237087D01*
X556602Y240257D01*
X560998Y240257D01*
X564107Y237148D01*
X564107Y232752D01*
X560998Y229643D01*
X556602Y229643D01*
X554440Y231805D01*
X554366Y231858D01*
X554296Y231918D01*
X554266Y231930D01*
X554240Y231949D01*
X554153Y231976D01*
X554068Y232010D01*
X554027Y232014D01*
X554005Y232021D01*
X553973Y232020D01*
X553902Y232028D01*
X429888Y232028D01*
X429797Y232014D01*
X429707Y232006D01*
X429677Y231994D01*
X429645Y231989D01*
X429564Y231946D01*
X429480Y231910D01*
X429448Y231884D01*
X429427Y231873D01*
X429405Y231850D01*
X429349Y231805D01*
X390495Y192951D01*
X390442Y192877D01*
X390382Y192807D01*
X390370Y192777D01*
X390351Y192751D01*
X390324Y192664D01*
X390290Y192579D01*
X390286Y192538D01*
X390279Y192516D01*
X390280Y192484D01*
X390272Y192412D01*
X390272Y135708D01*
X390286Y135618D01*
X390294Y135527D01*
X390306Y135498D01*
X390311Y135466D01*
X390354Y135385D01*
X390390Y135301D01*
X390416Y135269D01*
X390427Y135248D01*
X390450Y135226D01*
X390495Y135170D01*
X393292Y132373D01*
X393292Y127977D01*
X390183Y124868D01*
X388029Y124868D01*
X387959Y124857D01*
X387887Y124855D01*
X387838Y124837D01*
X387787Y124829D01*
X387723Y124795D01*
X387656Y124770D01*
X387615Y124738D01*
X387569Y124713D01*
X387520Y124662D01*
X387464Y124617D01*
X387436Y124573D01*
X387400Y124535D01*
X387370Y124470D01*
X387331Y124410D01*
X387318Y124359D01*
X387296Y124312D01*
X387288Y124241D01*
X387271Y124171D01*
X387275Y124119D01*
X387269Y124068D01*
X387284Y123997D01*
X387290Y123926D01*
X387310Y123878D01*
X387321Y123827D01*
X387358Y123766D01*
X387386Y123700D01*
X387431Y123644D01*
X387448Y123616D01*
X387465Y123601D01*
X387491Y123569D01*
X390440Y120620D01*
X390514Y120567D01*
X390584Y120507D01*
X390614Y120495D01*
X390640Y120476D01*
X390727Y120449D01*
X390812Y120415D01*
X390853Y120411D01*
X390875Y120404D01*
X390907Y120405D01*
X390978Y120397D01*
X411792Y120397D01*
X466334Y65855D01*
X466408Y65802D01*
X466478Y65742D01*
X466508Y65730D01*
X466534Y65711D01*
X466621Y65684D01*
X466706Y65650D01*
X466747Y65646D01*
X466769Y65639D01*
X466801Y65640D01*
X466873Y65632D01*
X470828Y65632D01*
X473937Y62523D01*
X473937Y58127D01*
X470828Y55018D01*
X466432Y55018D01*
G37*
%LPD*%
%LPC*%
G36*
X509836Y731439D02*
X509836Y731439D01*
X509189Y731612D01*
X508610Y731947D01*
X508325Y732232D01*
X508251Y732285D01*
X508181Y732345D01*
X508151Y732357D01*
X508125Y732376D01*
X508038Y732403D01*
X507953Y732437D01*
X507912Y732441D01*
X507890Y732448D01*
X507858Y732447D01*
X507786Y732455D01*
X475538Y732455D01*
X474645Y733348D01*
X474645Y750012D01*
X475538Y750905D01*
X507786Y750905D01*
X507876Y750919D01*
X507967Y750927D01*
X507997Y750939D01*
X508029Y750944D01*
X508110Y750987D01*
X508194Y751023D01*
X508226Y751049D01*
X508246Y751060D01*
X508269Y751083D01*
X508325Y751128D01*
X508610Y751413D01*
X509189Y751748D01*
X509836Y751921D01*
X516347Y751921D01*
X516347Y742442D01*
X516350Y742422D01*
X516348Y742403D01*
X516370Y742301D01*
X516387Y742199D01*
X516396Y742182D01*
X516400Y742162D01*
X516453Y742073D01*
X516502Y741982D01*
X516516Y741968D01*
X516526Y741951D01*
X516605Y741884D01*
X516680Y741813D01*
X516698Y741804D01*
X516713Y741791D01*
X516809Y741753D01*
X516903Y741709D01*
X516923Y741707D01*
X516941Y741699D01*
X517108Y741681D01*
X518632Y741681D01*
X518652Y741684D01*
X518671Y741682D01*
X518773Y741704D01*
X518875Y741721D01*
X518892Y741730D01*
X518912Y741734D01*
X519001Y741787D01*
X519092Y741836D01*
X519106Y741850D01*
X519123Y741860D01*
X519190Y741939D01*
X519261Y742014D01*
X519270Y742032D01*
X519283Y742047D01*
X519322Y742143D01*
X519365Y742237D01*
X519367Y742257D01*
X519375Y742275D01*
X519393Y742442D01*
X519393Y751921D01*
X525904Y751921D01*
X526551Y751748D01*
X527130Y751413D01*
X527415Y751128D01*
X527489Y751075D01*
X527559Y751015D01*
X527589Y751003D01*
X527615Y750984D01*
X527702Y750957D01*
X527787Y750923D01*
X527828Y750919D01*
X527850Y750912D01*
X527882Y750913D01*
X527954Y750905D01*
X541786Y750905D01*
X541876Y750919D01*
X541967Y750927D01*
X541997Y750939D01*
X542029Y750944D01*
X542110Y750987D01*
X542194Y751023D01*
X542226Y751049D01*
X542246Y751060D01*
X542269Y751083D01*
X542325Y751128D01*
X542610Y751413D01*
X543189Y751748D01*
X543836Y751921D01*
X550347Y751921D01*
X550347Y742442D01*
X550350Y742422D01*
X550348Y742403D01*
X550370Y742301D01*
X550387Y742199D01*
X550396Y742182D01*
X550400Y742162D01*
X550453Y742073D01*
X550502Y741982D01*
X550516Y741968D01*
X550526Y741951D01*
X550605Y741884D01*
X550680Y741813D01*
X550698Y741804D01*
X550713Y741791D01*
X550809Y741753D01*
X550903Y741709D01*
X550923Y741707D01*
X550941Y741699D01*
X551108Y741681D01*
X551871Y741681D01*
X551871Y741679D01*
X551108Y741679D01*
X551088Y741676D01*
X551069Y741678D01*
X550967Y741656D01*
X550865Y741639D01*
X550848Y741630D01*
X550828Y741626D01*
X550739Y741573D01*
X550648Y741524D01*
X550634Y741510D01*
X550617Y741500D01*
X550550Y741421D01*
X550479Y741346D01*
X550470Y741328D01*
X550457Y741313D01*
X550418Y741217D01*
X550375Y741123D01*
X550373Y741103D01*
X550365Y741085D01*
X550347Y740918D01*
X550347Y731439D01*
X543836Y731439D01*
X543189Y731612D01*
X542610Y731947D01*
X542325Y732232D01*
X542251Y732285D01*
X542181Y732345D01*
X542151Y732357D01*
X542125Y732376D01*
X542038Y732403D01*
X541953Y732437D01*
X541912Y732441D01*
X541890Y732448D01*
X541858Y732447D01*
X541786Y732455D01*
X527954Y732455D01*
X527864Y732441D01*
X527773Y732433D01*
X527743Y732421D01*
X527711Y732416D01*
X527630Y732373D01*
X527546Y732337D01*
X527514Y732311D01*
X527494Y732300D01*
X527471Y732277D01*
X527415Y732232D01*
X527130Y731947D01*
X526551Y731612D01*
X525904Y731439D01*
X519393Y731439D01*
X519393Y740918D01*
X519390Y740938D01*
X519392Y740957D01*
X519370Y741059D01*
X519353Y741161D01*
X519344Y741178D01*
X519340Y741198D01*
X519287Y741287D01*
X519238Y741378D01*
X519224Y741392D01*
X519214Y741409D01*
X519135Y741476D01*
X519060Y741547D01*
X519042Y741556D01*
X519027Y741569D01*
X518931Y741607D01*
X518837Y741651D01*
X518817Y741653D01*
X518799Y741661D01*
X518632Y741679D01*
X517108Y741679D01*
X517088Y741676D01*
X517069Y741678D01*
X516967Y741656D01*
X516865Y741639D01*
X516848Y741630D01*
X516828Y741626D01*
X516739Y741573D01*
X516648Y741524D01*
X516634Y741510D01*
X516617Y741500D01*
X516550Y741421D01*
X516479Y741346D01*
X516470Y741328D01*
X516457Y741313D01*
X516418Y741217D01*
X516375Y741123D01*
X516373Y741103D01*
X516365Y741085D01*
X516347Y740918D01*
X516347Y731439D01*
X509836Y731439D01*
G37*
%LPD*%
%LPC*%
G36*
X128836Y730169D02*
X128836Y730169D01*
X128189Y730342D01*
X127610Y730677D01*
X127325Y730962D01*
X127251Y731015D01*
X127181Y731075D01*
X127151Y731087D01*
X127125Y731106D01*
X127038Y731133D01*
X126953Y731167D01*
X126912Y731171D01*
X126890Y731178D01*
X126858Y731177D01*
X126786Y731185D01*
X94538Y731185D01*
X93645Y732078D01*
X93645Y748742D01*
X94538Y749635D01*
X126786Y749635D01*
X126876Y749649D01*
X126967Y749657D01*
X126997Y749669D01*
X127029Y749674D01*
X127110Y749717D01*
X127194Y749753D01*
X127226Y749779D01*
X127246Y749790D01*
X127269Y749813D01*
X127325Y749858D01*
X127610Y750143D01*
X128189Y750478D01*
X128836Y750651D01*
X135347Y750651D01*
X135347Y741172D01*
X135350Y741152D01*
X135348Y741133D01*
X135370Y741031D01*
X135387Y740929D01*
X135396Y740912D01*
X135400Y740892D01*
X135453Y740803D01*
X135502Y740712D01*
X135516Y740698D01*
X135526Y740681D01*
X135605Y740614D01*
X135680Y740543D01*
X135698Y740534D01*
X135713Y740521D01*
X135809Y740483D01*
X135903Y740439D01*
X135923Y740437D01*
X135941Y740429D01*
X136108Y740411D01*
X137632Y740411D01*
X137652Y740414D01*
X137671Y740412D01*
X137773Y740434D01*
X137875Y740451D01*
X137892Y740460D01*
X137912Y740464D01*
X138001Y740517D01*
X138092Y740566D01*
X138106Y740580D01*
X138123Y740590D01*
X138190Y740669D01*
X138261Y740744D01*
X138270Y740762D01*
X138283Y740777D01*
X138322Y740873D01*
X138365Y740967D01*
X138367Y740987D01*
X138375Y741005D01*
X138393Y741172D01*
X138393Y750651D01*
X144904Y750651D01*
X145551Y750478D01*
X146130Y750143D01*
X146415Y749858D01*
X146489Y749805D01*
X146559Y749745D01*
X146589Y749733D01*
X146615Y749714D01*
X146702Y749687D01*
X146787Y749653D01*
X146828Y749649D01*
X146850Y749642D01*
X146882Y749643D01*
X146954Y749635D01*
X160786Y749635D01*
X160876Y749649D01*
X160967Y749657D01*
X160997Y749669D01*
X161029Y749674D01*
X161110Y749717D01*
X161194Y749753D01*
X161226Y749779D01*
X161246Y749790D01*
X161269Y749813D01*
X161325Y749858D01*
X161610Y750143D01*
X162189Y750478D01*
X162836Y750651D01*
X169347Y750651D01*
X169347Y741172D01*
X169350Y741152D01*
X169348Y741133D01*
X169370Y741031D01*
X169387Y740929D01*
X169396Y740912D01*
X169400Y740892D01*
X169453Y740803D01*
X169502Y740712D01*
X169516Y740698D01*
X169526Y740681D01*
X169605Y740614D01*
X169680Y740543D01*
X169698Y740534D01*
X169713Y740521D01*
X169809Y740483D01*
X169903Y740439D01*
X169923Y740437D01*
X169941Y740429D01*
X170108Y740411D01*
X170871Y740411D01*
X170871Y740409D01*
X170108Y740409D01*
X170088Y740406D01*
X170069Y740408D01*
X169967Y740386D01*
X169865Y740369D01*
X169848Y740360D01*
X169828Y740356D01*
X169739Y740303D01*
X169648Y740254D01*
X169634Y740240D01*
X169617Y740230D01*
X169550Y740151D01*
X169479Y740076D01*
X169470Y740058D01*
X169457Y740043D01*
X169418Y739947D01*
X169375Y739853D01*
X169373Y739833D01*
X169365Y739815D01*
X169347Y739648D01*
X169347Y730169D01*
X162836Y730169D01*
X162189Y730342D01*
X161610Y730677D01*
X161325Y730962D01*
X161251Y731015D01*
X161181Y731075D01*
X161151Y731087D01*
X161125Y731106D01*
X161038Y731133D01*
X160953Y731167D01*
X160912Y731171D01*
X160890Y731178D01*
X160858Y731177D01*
X160786Y731185D01*
X146954Y731185D01*
X146864Y731171D01*
X146773Y731163D01*
X146743Y731151D01*
X146711Y731146D01*
X146630Y731103D01*
X146546Y731067D01*
X146514Y731041D01*
X146494Y731030D01*
X146471Y731007D01*
X146415Y730962D01*
X146130Y730677D01*
X145551Y730342D01*
X144904Y730169D01*
X138393Y730169D01*
X138393Y739648D01*
X138390Y739668D01*
X138392Y739687D01*
X138370Y739789D01*
X138353Y739891D01*
X138344Y739908D01*
X138340Y739928D01*
X138287Y740017D01*
X138238Y740108D01*
X138224Y740122D01*
X138214Y740139D01*
X138135Y740206D01*
X138060Y740277D01*
X138042Y740286D01*
X138027Y740299D01*
X137931Y740337D01*
X137837Y740381D01*
X137817Y740383D01*
X137799Y740391D01*
X137632Y740409D01*
X136108Y740409D01*
X136088Y740406D01*
X136069Y740408D01*
X135967Y740386D01*
X135865Y740369D01*
X135848Y740360D01*
X135828Y740356D01*
X135739Y740303D01*
X135648Y740254D01*
X135634Y740240D01*
X135617Y740230D01*
X135550Y740151D01*
X135479Y740076D01*
X135470Y740058D01*
X135457Y740043D01*
X135418Y739947D01*
X135375Y739853D01*
X135373Y739833D01*
X135365Y739815D01*
X135347Y739648D01*
X135347Y730169D01*
X128836Y730169D01*
G37*
%LPD*%
%LPC*%
G36*
X113653Y62595D02*
X113653Y62595D01*
X112760Y63488D01*
X112760Y78752D01*
X113653Y79645D01*
X126260Y79645D01*
X126351Y79659D01*
X126441Y79667D01*
X126471Y79679D01*
X126503Y79684D01*
X126584Y79727D01*
X126668Y79763D01*
X126700Y79789D01*
X126721Y79800D01*
X126743Y79823D01*
X126799Y79868D01*
X162248Y115317D01*
X212272Y115317D01*
X212362Y115331D01*
X212453Y115339D01*
X212482Y115351D01*
X212514Y115356D01*
X212595Y115399D01*
X212679Y115435D01*
X212711Y115461D01*
X212732Y115472D01*
X212754Y115495D01*
X212810Y115540D01*
X215607Y118337D01*
X220003Y118337D01*
X223112Y115228D01*
X223112Y110832D01*
X220003Y107723D01*
X215607Y107723D01*
X212810Y110520D01*
X212736Y110573D01*
X212666Y110633D01*
X212636Y110645D01*
X212610Y110664D01*
X212523Y110691D01*
X212438Y110725D01*
X212397Y110729D01*
X212375Y110736D01*
X212343Y110735D01*
X212272Y110743D01*
X164458Y110743D01*
X164367Y110729D01*
X164277Y110721D01*
X164247Y110709D01*
X164215Y110704D01*
X164134Y110661D01*
X164050Y110625D01*
X164018Y110599D01*
X163997Y110588D01*
X163975Y110565D01*
X163919Y110520D01*
X130033Y76634D01*
X129980Y76560D01*
X129920Y76490D01*
X129908Y76460D01*
X129889Y76434D01*
X129862Y76347D01*
X129828Y76262D01*
X129824Y76221D01*
X129817Y76199D01*
X129818Y76167D01*
X129810Y76095D01*
X129810Y63488D01*
X128917Y62595D01*
X113653Y62595D01*
G37*
%LPD*%
%LPC*%
G36*
X407877Y673429D02*
X407877Y673429D01*
X406983Y674323D01*
X406983Y697277D01*
X407877Y698171D01*
X430831Y698171D01*
X431725Y697277D01*
X431725Y674323D01*
X430831Y673429D01*
X407877Y673429D01*
G37*
%LPD*%
%LPC*%
G36*
X25607Y674699D02*
X25607Y674699D01*
X24713Y675593D01*
X24713Y698547D01*
X25607Y699441D01*
X48561Y699441D01*
X49455Y698547D01*
X49455Y675593D01*
X48561Y674699D01*
X25607Y674699D01*
G37*
%LPD*%
%LPC*%
G36*
X514919Y613663D02*
X514919Y613663D01*
X511278Y615171D01*
X508491Y617958D01*
X506983Y621599D01*
X506983Y625541D01*
X508491Y629182D01*
X511278Y631969D01*
X514919Y633477D01*
X518861Y633477D01*
X522502Y631969D01*
X525289Y629182D01*
X526797Y625541D01*
X526797Y621599D01*
X525289Y617958D01*
X522502Y615171D01*
X518861Y613663D01*
X514919Y613663D01*
G37*
%LPD*%
%LPC*%
G36*
X126299Y614933D02*
X126299Y614933D01*
X122658Y616441D01*
X119871Y619228D01*
X118363Y622869D01*
X118363Y626811D01*
X119871Y630452D01*
X122658Y633239D01*
X126299Y634747D01*
X130241Y634747D01*
X133882Y633239D01*
X136669Y630452D01*
X138177Y626811D01*
X138177Y622869D01*
X136669Y619228D01*
X133882Y616441D01*
X130241Y614933D01*
X126299Y614933D01*
G37*
%LPD*%
%LPC*%
G36*
X126299Y500533D02*
X126299Y500533D01*
X122658Y502041D01*
X119871Y504828D01*
X118363Y508469D01*
X118363Y512411D01*
X119871Y516052D01*
X122658Y518839D01*
X126299Y520347D01*
X130241Y520347D01*
X133882Y518839D01*
X136669Y516052D01*
X138177Y512411D01*
X138177Y508469D01*
X136669Y504828D01*
X133882Y502041D01*
X130241Y500533D01*
X126299Y500533D01*
G37*
%LPD*%
%LPC*%
G36*
X514919Y499263D02*
X514919Y499263D01*
X511278Y500771D01*
X508491Y503558D01*
X506983Y507199D01*
X506983Y511141D01*
X508491Y514782D01*
X511278Y517569D01*
X514919Y519077D01*
X518861Y519077D01*
X522502Y517569D01*
X525289Y514782D01*
X526797Y511141D01*
X526797Y507199D01*
X525289Y503558D01*
X522502Y500771D01*
X518861Y499263D01*
X514919Y499263D01*
G37*
%LPD*%
%LPC*%
G36*
X93968Y159115D02*
X93968Y159115D01*
X93075Y160008D01*
X93075Y175272D01*
X93968Y176165D01*
X109232Y176165D01*
X110125Y175272D01*
X110125Y160008D01*
X109232Y159115D01*
X93968Y159115D01*
G37*
%LPD*%
%LPC*%
G36*
X119368Y159115D02*
X119368Y159115D01*
X118475Y160008D01*
X118475Y175272D01*
X119368Y176165D01*
X134632Y176165D01*
X135525Y175272D01*
X135525Y160008D01*
X134632Y159115D01*
X119368Y159115D01*
G37*
%LPD*%
%LPC*%
G36*
X144768Y159115D02*
X144768Y159115D01*
X143875Y160008D01*
X143875Y175272D01*
X144768Y176165D01*
X160032Y176165D01*
X160925Y175272D01*
X160925Y160008D01*
X160032Y159115D01*
X144768Y159115D01*
G37*
%LPD*%
%LPC*%
G36*
X195568Y159115D02*
X195568Y159115D01*
X194675Y160008D01*
X194675Y175272D01*
X195568Y176165D01*
X210832Y176165D01*
X211725Y175272D01*
X211725Y160008D01*
X210832Y159115D01*
X195568Y159115D01*
G37*
%LPD*%
%LPC*%
G36*
X170168Y159115D02*
X170168Y159115D01*
X169275Y160008D01*
X169275Y175272D01*
X170168Y176165D01*
X185432Y176165D01*
X186325Y175272D01*
X186325Y160008D01*
X185432Y159115D01*
X170168Y159115D01*
G37*
%LPD*%
%LPC*%
G36*
X610858Y162925D02*
X610858Y162925D01*
X609965Y163818D01*
X609965Y179082D01*
X610858Y179975D01*
X626122Y179975D01*
X627015Y179082D01*
X627015Y163818D01*
X626122Y162925D01*
X610858Y162925D01*
G37*
%LPD*%
%LPC*%
G36*
X534658Y162925D02*
X534658Y162925D01*
X533765Y163818D01*
X533765Y179082D01*
X534658Y179975D01*
X549922Y179975D01*
X550815Y179082D01*
X550815Y163818D01*
X549922Y162925D01*
X534658Y162925D01*
G37*
%LPD*%
%LPC*%
G36*
X560058Y162925D02*
X560058Y162925D01*
X559165Y163818D01*
X559165Y179082D01*
X560058Y179975D01*
X575322Y179975D01*
X576215Y179082D01*
X576215Y163818D01*
X575322Y162925D01*
X560058Y162925D01*
G37*
%LPD*%
%LPC*%
G36*
X585458Y162925D02*
X585458Y162925D01*
X584565Y163818D01*
X584565Y179082D01*
X585458Y179975D01*
X600722Y179975D01*
X601615Y179082D01*
X601615Y163818D01*
X600722Y162925D01*
X585458Y162925D01*
G37*
%LPD*%
%LPC*%
G36*
X458458Y162925D02*
X458458Y162925D01*
X457565Y163818D01*
X457565Y179082D01*
X458458Y179975D01*
X473722Y179975D01*
X474615Y179082D01*
X474615Y163818D01*
X473722Y162925D01*
X458458Y162925D01*
G37*
%LPD*%
%LPC*%
G36*
X509258Y162925D02*
X509258Y162925D01*
X508365Y163818D01*
X508365Y179082D01*
X509258Y179975D01*
X524522Y179975D01*
X525415Y179082D01*
X525415Y163818D01*
X524522Y162925D01*
X509258Y162925D01*
G37*
%LPD*%
%LPC*%
G36*
X483858Y162925D02*
X483858Y162925D01*
X482965Y163818D01*
X482965Y179082D01*
X483858Y179975D01*
X499122Y179975D01*
X500015Y179082D01*
X500015Y163818D01*
X499122Y162925D01*
X483858Y162925D01*
G37*
%LPD*%
%LPC*%
G36*
X433058Y162925D02*
X433058Y162925D01*
X432165Y163818D01*
X432165Y179082D01*
X433058Y179975D01*
X448322Y179975D01*
X449215Y179082D01*
X449215Y163818D01*
X448322Y162925D01*
X433058Y162925D01*
G37*
%LPD*%
%LPC*%
G36*
X68568Y184515D02*
X68568Y184515D01*
X67675Y185408D01*
X67675Y200672D01*
X68568Y201565D01*
X83832Y201565D01*
X84725Y200672D01*
X84725Y185408D01*
X83832Y184515D01*
X68568Y184515D01*
G37*
%LPD*%
%LPC*%
G36*
X93968Y184515D02*
X93968Y184515D01*
X93075Y185408D01*
X93075Y200672D01*
X93968Y201565D01*
X109232Y201565D01*
X110125Y200672D01*
X110125Y185408D01*
X109232Y184515D01*
X93968Y184515D01*
G37*
%LPD*%
%LPC*%
G36*
X43168Y184515D02*
X43168Y184515D01*
X42275Y185408D01*
X42275Y200672D01*
X43168Y201565D01*
X58432Y201565D01*
X59325Y200672D01*
X59325Y185408D01*
X58432Y184515D01*
X43168Y184515D01*
G37*
%LPD*%
%LPC*%
G36*
X17768Y184515D02*
X17768Y184515D01*
X16875Y185408D01*
X16875Y200672D01*
X17768Y201565D01*
X33032Y201565D01*
X33925Y200672D01*
X33925Y185408D01*
X33032Y184515D01*
X17768Y184515D01*
G37*
%LPD*%
%LPC*%
G36*
X195568Y184515D02*
X195568Y184515D01*
X194675Y185408D01*
X194675Y200672D01*
X195568Y201565D01*
X210832Y201565D01*
X211725Y200672D01*
X211725Y185408D01*
X210832Y184515D01*
X195568Y184515D01*
G37*
%LPD*%
%LPC*%
G36*
X170168Y184515D02*
X170168Y184515D01*
X169275Y185408D01*
X169275Y200672D01*
X170168Y201565D01*
X185432Y201565D01*
X186325Y200672D01*
X186325Y185408D01*
X185432Y184515D01*
X170168Y184515D01*
G37*
%LPD*%
%LPC*%
G36*
X144768Y184515D02*
X144768Y184515D01*
X143875Y185408D01*
X143875Y200672D01*
X144768Y201565D01*
X160032Y201565D01*
X160925Y200672D01*
X160925Y185408D01*
X160032Y184515D01*
X144768Y184515D01*
G37*
%LPD*%
%LPC*%
G36*
X433058Y188325D02*
X433058Y188325D01*
X432165Y189218D01*
X432165Y204482D01*
X433058Y205375D01*
X448322Y205375D01*
X449215Y204482D01*
X449215Y189218D01*
X448322Y188325D01*
X433058Y188325D01*
G37*
%LPD*%
%LPC*%
G36*
X560058Y188325D02*
X560058Y188325D01*
X559165Y189218D01*
X559165Y204482D01*
X560058Y205375D01*
X575322Y205375D01*
X576215Y204482D01*
X576215Y189218D01*
X575322Y188325D01*
X560058Y188325D01*
G37*
%LPD*%
%LPC*%
G36*
X534658Y188325D02*
X534658Y188325D01*
X533765Y189218D01*
X533765Y204482D01*
X534658Y205375D01*
X549922Y205375D01*
X550815Y204482D01*
X550815Y189218D01*
X549922Y188325D01*
X534658Y188325D01*
G37*
%LPD*%
%LPC*%
G36*
X586728Y388985D02*
X586728Y388985D01*
X585835Y389878D01*
X585835Y405142D01*
X586728Y406035D01*
X601992Y406035D01*
X602885Y405142D01*
X602885Y389878D01*
X601992Y388985D01*
X586728Y388985D01*
G37*
%LPD*%
%LPC*%
G36*
X610858Y188325D02*
X610858Y188325D01*
X609965Y189218D01*
X609965Y204482D01*
X610858Y205375D01*
X626122Y205375D01*
X627015Y204482D01*
X627015Y189218D01*
X626122Y188325D01*
X610858Y188325D01*
G37*
%LPD*%
%LPC*%
G36*
X119368Y184515D02*
X119368Y184515D01*
X118475Y185408D01*
X118475Y200672D01*
X119368Y201565D01*
X134632Y201565D01*
X135525Y200672D01*
X135525Y185408D01*
X134632Y184515D01*
X119368Y184515D01*
G37*
%LPD*%
%LPC*%
G36*
X458458Y188325D02*
X458458Y188325D01*
X457565Y189218D01*
X457565Y204482D01*
X458458Y205375D01*
X473722Y205375D01*
X474615Y204482D01*
X474615Y189218D01*
X473722Y188325D01*
X458458Y188325D01*
G37*
%LPD*%
%LPC*%
G36*
X509258Y188325D02*
X509258Y188325D01*
X508365Y189218D01*
X508365Y204482D01*
X509258Y205375D01*
X524522Y205375D01*
X525415Y204482D01*
X525415Y189218D01*
X524522Y188325D01*
X509258Y188325D01*
G37*
%LPD*%
%LPC*%
G36*
X483858Y188325D02*
X483858Y188325D01*
X482965Y189218D01*
X482965Y204482D01*
X483858Y205375D01*
X499122Y205375D01*
X500015Y204482D01*
X500015Y189218D01*
X499122Y188325D01*
X483858Y188325D01*
G37*
%LPD*%
%LPC*%
G36*
X585458Y188325D02*
X585458Y188325D01*
X584565Y189218D01*
X584565Y204482D01*
X585458Y205375D01*
X600722Y205375D01*
X601615Y204482D01*
X601615Y189218D01*
X600722Y188325D01*
X585458Y188325D01*
G37*
%LPD*%
%LPC*%
G36*
X520688Y81645D02*
X520688Y81645D01*
X519795Y82538D01*
X519795Y97802D01*
X520688Y98695D01*
X535952Y98695D01*
X536845Y97802D01*
X536845Y82538D01*
X535952Y81645D01*
X520688Y81645D01*
G37*
%LPD*%
%LPC*%
G36*
X495288Y81645D02*
X495288Y81645D01*
X494395Y82538D01*
X494395Y97802D01*
X495288Y98695D01*
X510552Y98695D01*
X511445Y97802D01*
X511445Y82538D01*
X510552Y81645D01*
X495288Y81645D01*
G37*
%LPD*%
%LPC*%
G36*
X304788Y735060D02*
X304788Y735060D01*
X303895Y735953D01*
X303895Y751217D01*
X304788Y752110D01*
X320052Y752110D01*
X320945Y751217D01*
X320945Y735953D01*
X320052Y735060D01*
X304788Y735060D01*
G37*
%LPD*%
%LPC*%
G36*
X17768Y159115D02*
X17768Y159115D01*
X16875Y160008D01*
X16875Y175272D01*
X17768Y176165D01*
X33032Y176165D01*
X33925Y175272D01*
X33925Y160008D01*
X33032Y159115D01*
X17768Y159115D01*
G37*
%LPD*%
%LPC*%
G36*
X43168Y159115D02*
X43168Y159115D01*
X42275Y160008D01*
X42275Y175272D01*
X43168Y176165D01*
X58432Y176165D01*
X59325Y175272D01*
X59325Y160008D01*
X58432Y159115D01*
X43168Y159115D01*
G37*
%LPD*%
%LPC*%
G36*
X434328Y388985D02*
X434328Y388985D01*
X433435Y389878D01*
X433435Y405142D01*
X434328Y406035D01*
X449592Y406035D01*
X450485Y405142D01*
X450485Y389878D01*
X449592Y388985D01*
X434328Y388985D01*
G37*
%LPD*%
%LPC*%
G36*
X459728Y388985D02*
X459728Y388985D01*
X458835Y389878D01*
X458835Y405142D01*
X459728Y406035D01*
X474992Y406035D01*
X475885Y405142D01*
X475885Y389878D01*
X474992Y388985D01*
X459728Y388985D01*
G37*
%LPD*%
%LPC*%
G36*
X485128Y388985D02*
X485128Y388985D01*
X484235Y389878D01*
X484235Y405142D01*
X485128Y406035D01*
X500392Y406035D01*
X501285Y405142D01*
X501285Y389878D01*
X500392Y388985D01*
X485128Y388985D01*
G37*
%LPD*%
%LPC*%
G36*
X510528Y388985D02*
X510528Y388985D01*
X509635Y389878D01*
X509635Y405142D01*
X510528Y406035D01*
X525792Y406035D01*
X526685Y405142D01*
X526685Y389878D01*
X525792Y388985D01*
X510528Y388985D01*
G37*
%LPD*%
%LPC*%
G36*
X535928Y388985D02*
X535928Y388985D01*
X535035Y389878D01*
X535035Y405142D01*
X535928Y406035D01*
X551192Y406035D01*
X552085Y405142D01*
X552085Y389878D01*
X551192Y388985D01*
X535928Y388985D01*
G37*
%LPD*%
%LPC*%
G36*
X146038Y415655D02*
X146038Y415655D01*
X145145Y416548D01*
X145145Y431812D01*
X146038Y432705D01*
X161302Y432705D01*
X162195Y431812D01*
X162195Y416548D01*
X161302Y415655D01*
X146038Y415655D01*
G37*
%LPD*%
%LPC*%
G36*
X171438Y415655D02*
X171438Y415655D01*
X170545Y416548D01*
X170545Y431812D01*
X171438Y432705D01*
X186702Y432705D01*
X187595Y431812D01*
X187595Y416548D01*
X186702Y415655D01*
X171438Y415655D01*
G37*
%LPD*%
%LPC*%
G36*
X19038Y415655D02*
X19038Y415655D01*
X18145Y416548D01*
X18145Y431812D01*
X19038Y432705D01*
X34302Y432705D01*
X35195Y431812D01*
X35195Y416548D01*
X34302Y415655D01*
X19038Y415655D01*
G37*
%LPD*%
%LPC*%
G36*
X120638Y415655D02*
X120638Y415655D01*
X119745Y416548D01*
X119745Y431812D01*
X120638Y432705D01*
X135902Y432705D01*
X136795Y431812D01*
X136795Y416548D01*
X135902Y415655D01*
X120638Y415655D01*
G37*
%LPD*%
%LPC*%
G36*
X95238Y415655D02*
X95238Y415655D01*
X94345Y416548D01*
X94345Y431812D01*
X95238Y432705D01*
X110502Y432705D01*
X111395Y431812D01*
X111395Y416548D01*
X110502Y415655D01*
X95238Y415655D01*
G37*
%LPD*%
%LPC*%
G36*
X44438Y415655D02*
X44438Y415655D01*
X43545Y416548D01*
X43545Y431812D01*
X44438Y432705D01*
X59702Y432705D01*
X60595Y431812D01*
X60595Y416548D01*
X59702Y415655D01*
X44438Y415655D01*
G37*
%LPD*%
%LPC*%
G36*
X69838Y415655D02*
X69838Y415655D01*
X68945Y416548D01*
X68945Y431812D01*
X69838Y432705D01*
X85102Y432705D01*
X85995Y431812D01*
X85995Y416548D01*
X85102Y415655D01*
X69838Y415655D01*
G37*
%LPD*%
%LPC*%
G36*
X196838Y415655D02*
X196838Y415655D01*
X195945Y416548D01*
X195945Y431812D01*
X196838Y432705D01*
X212102Y432705D01*
X212995Y431812D01*
X212995Y416548D01*
X212102Y415655D01*
X196838Y415655D01*
G37*
%LPD*%
%LPC*%
G36*
X510528Y414385D02*
X510528Y414385D01*
X509635Y415278D01*
X509635Y430542D01*
X510528Y431435D01*
X525792Y431435D01*
X526685Y430542D01*
X526685Y415278D01*
X525792Y414385D01*
X510528Y414385D01*
G37*
%LPD*%
%LPC*%
G36*
X485128Y414385D02*
X485128Y414385D01*
X484235Y415278D01*
X484235Y430542D01*
X485128Y431435D01*
X500392Y431435D01*
X501285Y430542D01*
X501285Y415278D01*
X500392Y414385D01*
X485128Y414385D01*
G37*
%LPD*%
%LPC*%
G36*
X459728Y414385D02*
X459728Y414385D01*
X458835Y415278D01*
X458835Y430542D01*
X459728Y431435D01*
X474992Y431435D01*
X475885Y430542D01*
X475885Y415278D01*
X474992Y414385D01*
X459728Y414385D01*
G37*
%LPD*%
%LPC*%
G36*
X434328Y414385D02*
X434328Y414385D01*
X433435Y415278D01*
X433435Y430542D01*
X434328Y431435D01*
X449592Y431435D01*
X450485Y430542D01*
X450485Y415278D01*
X449592Y414385D01*
X434328Y414385D01*
G37*
%LPD*%
%LPC*%
G36*
X612128Y414385D02*
X612128Y414385D01*
X611235Y415278D01*
X611235Y430542D01*
X612128Y431435D01*
X627392Y431435D01*
X628285Y430542D01*
X628285Y415278D01*
X627392Y414385D01*
X612128Y414385D01*
G37*
%LPD*%
%LPC*%
G36*
X586728Y414385D02*
X586728Y414385D01*
X585835Y415278D01*
X585835Y430542D01*
X586728Y431435D01*
X601992Y431435D01*
X602885Y430542D01*
X602885Y415278D01*
X601992Y414385D01*
X586728Y414385D01*
G37*
%LPD*%
%LPC*%
G36*
X561328Y414385D02*
X561328Y414385D01*
X560435Y415278D01*
X560435Y430542D01*
X561328Y431435D01*
X576592Y431435D01*
X577485Y430542D01*
X577485Y415278D01*
X576592Y414385D01*
X561328Y414385D01*
G37*
%LPD*%
%LPC*%
G36*
X535928Y414385D02*
X535928Y414385D01*
X535035Y415278D01*
X535035Y430542D01*
X535928Y431435D01*
X551192Y431435D01*
X552085Y430542D01*
X552085Y415278D01*
X551192Y414385D01*
X535928Y414385D01*
G37*
%LPD*%
%LPC*%
G36*
X561328Y388985D02*
X561328Y388985D01*
X560435Y389878D01*
X560435Y405142D01*
X561328Y406035D01*
X576592Y406035D01*
X577485Y405142D01*
X577485Y389878D01*
X576592Y388985D01*
X561328Y388985D01*
G37*
%LPD*%
%LPC*%
G36*
X120638Y390255D02*
X120638Y390255D01*
X119745Y391148D01*
X119745Y406412D01*
X120638Y407305D01*
X135902Y407305D01*
X136795Y406412D01*
X136795Y391148D01*
X135902Y390255D01*
X120638Y390255D01*
G37*
%LPD*%
%LPC*%
G36*
X69838Y390255D02*
X69838Y390255D01*
X68945Y391148D01*
X68945Y406412D01*
X69838Y407305D01*
X85102Y407305D01*
X85995Y406412D01*
X85995Y391148D01*
X85102Y390255D01*
X69838Y390255D01*
G37*
%LPD*%
%LPC*%
G36*
X95238Y390255D02*
X95238Y390255D01*
X94345Y391148D01*
X94345Y406412D01*
X95238Y407305D01*
X110502Y407305D01*
X111395Y406412D01*
X111395Y391148D01*
X110502Y390255D01*
X95238Y390255D01*
G37*
%LPD*%
%LPC*%
G36*
X44438Y390255D02*
X44438Y390255D01*
X43545Y391148D01*
X43545Y406412D01*
X44438Y407305D01*
X59702Y407305D01*
X60595Y406412D01*
X60595Y391148D01*
X59702Y390255D01*
X44438Y390255D01*
G37*
%LPD*%
%LPC*%
G36*
X19038Y390255D02*
X19038Y390255D01*
X18145Y391148D01*
X18145Y406412D01*
X19038Y407305D01*
X34302Y407305D01*
X35195Y406412D01*
X35195Y391148D01*
X34302Y390255D01*
X19038Y390255D01*
G37*
%LPD*%
%LPC*%
G36*
X196838Y390255D02*
X196838Y390255D01*
X195945Y391148D01*
X195945Y406412D01*
X196838Y407305D01*
X212102Y407305D01*
X212995Y406412D01*
X212995Y391148D01*
X212102Y390255D01*
X196838Y390255D01*
G37*
%LPD*%
%LPC*%
G36*
X171438Y390255D02*
X171438Y390255D01*
X170545Y391148D01*
X170545Y406412D01*
X171438Y407305D01*
X186702Y407305D01*
X187595Y406412D01*
X187595Y391148D01*
X186702Y390255D01*
X171438Y390255D01*
G37*
%LPD*%
%LPC*%
G36*
X146038Y390255D02*
X146038Y390255D01*
X145145Y391148D01*
X145145Y406412D01*
X146038Y407305D01*
X161302Y407305D01*
X162195Y406412D01*
X162195Y391148D01*
X161302Y390255D01*
X146038Y390255D01*
G37*
%LPD*%
%LPC*%
G36*
X612128Y388985D02*
X612128Y388985D01*
X611235Y389878D01*
X611235Y405142D01*
X612128Y406035D01*
X627392Y406035D01*
X628285Y405142D01*
X628285Y389878D01*
X627392Y388985D01*
X612128Y388985D01*
G37*
%LPD*%
%LPC*%
G36*
X113653Y37195D02*
X113653Y37195D01*
X112760Y38088D01*
X112760Y53352D01*
X113653Y54245D01*
X128917Y54245D01*
X129810Y53352D01*
X129810Y38088D01*
X128917Y37195D01*
X113653Y37195D01*
G37*
%LPD*%
%LPC*%
G36*
X139053Y37195D02*
X139053Y37195D01*
X138160Y38088D01*
X138160Y53352D01*
X139053Y54245D01*
X154317Y54245D01*
X155210Y53352D01*
X155210Y38088D01*
X154317Y37195D01*
X139053Y37195D01*
G37*
%LPD*%
%LPC*%
G36*
X164453Y37195D02*
X164453Y37195D01*
X163560Y38088D01*
X163560Y53352D01*
X164453Y54245D01*
X179717Y54245D01*
X180610Y53352D01*
X180610Y38088D01*
X179717Y37195D01*
X164453Y37195D01*
G37*
%LPD*%
%LPC*%
G36*
X37453Y37195D02*
X37453Y37195D01*
X36560Y38088D01*
X36560Y53352D01*
X37453Y54245D01*
X52717Y54245D01*
X53610Y53352D01*
X53610Y38088D01*
X52717Y37195D01*
X37453Y37195D01*
G37*
%LPD*%
%LPC*%
G36*
X88253Y37195D02*
X88253Y37195D01*
X87360Y38088D01*
X87360Y53352D01*
X88253Y54245D01*
X103517Y54245D01*
X104410Y53352D01*
X104410Y38088D01*
X103517Y37195D01*
X88253Y37195D01*
G37*
%LPD*%
%LPC*%
G36*
X189853Y62595D02*
X189853Y62595D01*
X188960Y63488D01*
X188960Y78752D01*
X189853Y79645D01*
X205117Y79645D01*
X206010Y78752D01*
X206010Y63488D01*
X205117Y62595D01*
X189853Y62595D01*
G37*
%LPD*%
%LPC*%
G36*
X68568Y159115D02*
X68568Y159115D01*
X67675Y160008D01*
X67675Y175272D01*
X68568Y176165D01*
X83832Y176165D01*
X84725Y175272D01*
X84725Y160008D01*
X83832Y159115D01*
X68568Y159115D01*
G37*
%LPD*%
%LPC*%
G36*
X596888Y81645D02*
X596888Y81645D01*
X595995Y82538D01*
X595995Y97802D01*
X596888Y98695D01*
X612152Y98695D01*
X613045Y97802D01*
X613045Y82538D01*
X612152Y81645D01*
X596888Y81645D01*
G37*
%LPD*%
%LPC*%
G36*
X295920Y502920D02*
X295920Y502920D01*
X292420Y504370D01*
X289740Y507050D01*
X288290Y510550D01*
X288290Y514340D01*
X289740Y517840D01*
X292420Y520520D01*
X295920Y521970D01*
X299710Y521970D01*
X303210Y520520D01*
X305890Y517840D01*
X307340Y514340D01*
X307340Y510550D01*
X305890Y507050D01*
X303210Y504370D01*
X299710Y502920D01*
X295920Y502920D01*
G37*
%LPD*%
%LPC*%
G36*
X346085Y638175D02*
X346085Y638175D01*
X342585Y639625D01*
X339905Y642305D01*
X338455Y645805D01*
X338455Y649595D01*
X339905Y653095D01*
X342585Y655775D01*
X346085Y657225D01*
X349875Y657225D01*
X353375Y655775D01*
X356055Y653095D01*
X357505Y649595D01*
X357505Y645805D01*
X356055Y642305D01*
X353375Y639625D01*
X349875Y638175D01*
X346085Y638175D01*
G37*
%LPD*%
%LPC*%
G36*
X435383Y734155D02*
X435383Y734155D01*
X432618Y735301D01*
X430501Y737418D01*
X429355Y740183D01*
X429355Y743177D01*
X430501Y745942D01*
X432618Y748059D01*
X435383Y749205D01*
X438377Y749205D01*
X441142Y748059D01*
X443259Y745942D01*
X444405Y743177D01*
X444405Y740183D01*
X443259Y737418D01*
X441142Y735301D01*
X438377Y734155D01*
X435383Y734155D01*
G37*
%LPD*%
%LPC*%
G36*
X239803Y732885D02*
X239803Y732885D01*
X237038Y734031D01*
X234921Y736148D01*
X233775Y738913D01*
X233775Y741907D01*
X234921Y744672D01*
X237038Y746789D01*
X239803Y747935D01*
X242797Y747935D01*
X245562Y746789D01*
X247679Y744672D01*
X248825Y741907D01*
X248825Y738913D01*
X247679Y736148D01*
X245562Y734031D01*
X242797Y732885D01*
X239803Y732885D01*
G37*
%LPD*%
%LPC*%
G36*
X237743Y688593D02*
X237743Y688593D01*
X237743Y700382D01*
X239355Y700127D01*
X241359Y699476D01*
X243236Y698519D01*
X244941Y697281D01*
X246431Y695791D01*
X247669Y694086D01*
X248626Y692209D01*
X249277Y690205D01*
X249532Y688593D01*
X237743Y688593D01*
G37*
%LPD*%
%LPC*%
G36*
X620013Y687323D02*
X620013Y687323D01*
X620013Y699112D01*
X621625Y698857D01*
X623629Y698206D01*
X625506Y697249D01*
X627211Y696011D01*
X628701Y694521D01*
X629939Y692816D01*
X630896Y690939D01*
X631547Y688935D01*
X631802Y687323D01*
X620013Y687323D01*
G37*
%LPD*%
%LPC*%
G36*
X222908Y688593D02*
X222908Y688593D01*
X223163Y690205D01*
X223814Y692209D01*
X224771Y694086D01*
X226009Y695791D01*
X227499Y697281D01*
X229204Y698519D01*
X231081Y699476D01*
X233085Y700127D01*
X234697Y700382D01*
X234697Y688593D01*
X222908Y688593D01*
G37*
%LPD*%
%LPC*%
G36*
X605178Y687323D02*
X605178Y687323D01*
X605433Y688935D01*
X606084Y690939D01*
X607041Y692816D01*
X608279Y694521D01*
X609769Y696011D01*
X611474Y697249D01*
X613351Y698206D01*
X615355Y698857D01*
X616967Y699112D01*
X616967Y687323D01*
X605178Y687323D01*
G37*
%LPD*%
%LPC*%
G36*
X237743Y685547D02*
X237743Y685547D01*
X249532Y685547D01*
X249277Y683935D01*
X248626Y681931D01*
X247669Y680054D01*
X246431Y678349D01*
X244941Y676859D01*
X243236Y675621D01*
X241359Y674664D01*
X239355Y674013D01*
X237743Y673758D01*
X237743Y685547D01*
G37*
%LPD*%
%LPC*%
G36*
X620013Y684277D02*
X620013Y684277D01*
X631802Y684277D01*
X631547Y682665D01*
X630896Y680661D01*
X629939Y678784D01*
X628701Y677079D01*
X627211Y675589D01*
X625506Y674351D01*
X623629Y673394D01*
X621625Y672743D01*
X620013Y672488D01*
X620013Y684277D01*
G37*
%LPD*%
%LPC*%
G36*
X233085Y674013D02*
X233085Y674013D01*
X231081Y674664D01*
X229204Y675621D01*
X227499Y676859D01*
X226009Y678349D01*
X224771Y680054D01*
X223814Y681931D01*
X223163Y683935D01*
X222908Y685547D01*
X234697Y685547D01*
X234697Y673758D01*
X233085Y674013D01*
G37*
%LPD*%
%LPC*%
G36*
X615355Y672743D02*
X615355Y672743D01*
X613351Y673394D01*
X611474Y674351D01*
X609769Y675589D01*
X608279Y677079D01*
X607041Y678784D01*
X606084Y680661D01*
X605433Y682665D01*
X605178Y684277D01*
X616967Y684277D01*
X616967Y672488D01*
X615355Y672743D01*
G37*
%LPD*%
%LPC*%
G36*
X343242Y244248D02*
X343242Y244248D01*
X340133Y247357D01*
X340133Y251753D01*
X343242Y254862D01*
X347638Y254862D01*
X350747Y251753D01*
X350747Y247357D01*
X347638Y244248D01*
X343242Y244248D01*
G37*
%LPD*%
%LPC*%
G36*
X392137Y416968D02*
X392137Y416968D01*
X389028Y420077D01*
X389028Y424473D01*
X392137Y427582D01*
X396533Y427582D01*
X399642Y424473D01*
X399642Y420077D01*
X396533Y416968D01*
X392137Y416968D01*
G37*
%LPD*%
%LPC*%
G36*
X585812Y241073D02*
X585812Y241073D01*
X582703Y244182D01*
X582703Y248578D01*
X585812Y251687D01*
X590208Y251687D01*
X593317Y248578D01*
X593317Y244182D01*
X590208Y241073D01*
X585812Y241073D01*
G37*
%LPD*%
%LPC*%
G36*
X49872Y230913D02*
X49872Y230913D01*
X46763Y234022D01*
X46763Y238418D01*
X49872Y241527D01*
X54268Y241527D01*
X57377Y238418D01*
X57377Y234022D01*
X54268Y230913D01*
X49872Y230913D01*
G37*
%LPD*%
%LPC*%
G36*
X425792Y22633D02*
X425792Y22633D01*
X422683Y25742D01*
X422683Y30138D01*
X425792Y33247D01*
X430188Y33247D01*
X433297Y30138D01*
X433297Y25742D01*
X430188Y22633D01*
X425792Y22633D01*
G37*
%LPD*%
%LPC*%
G36*
X307682Y220118D02*
X307682Y220118D01*
X304573Y223227D01*
X304573Y227623D01*
X307682Y230732D01*
X312078Y230732D01*
X315187Y227623D01*
X315187Y223227D01*
X312078Y220118D01*
X307682Y220118D01*
G37*
%LPD*%
%LPC*%
G36*
X364832Y204878D02*
X364832Y204878D01*
X361723Y207987D01*
X361723Y212383D01*
X364832Y215492D01*
X369228Y215492D01*
X372337Y212383D01*
X372337Y207987D01*
X369228Y204878D01*
X364832Y204878D01*
G37*
%LPD*%
%LPC*%
G36*
X229577Y382678D02*
X229577Y382678D01*
X226468Y385787D01*
X226468Y390183D01*
X229577Y393292D01*
X233973Y393292D01*
X237082Y390183D01*
X237082Y385787D01*
X233973Y382678D01*
X229577Y382678D01*
G37*
%LPD*%
%LPC*%
G36*
X272757Y364898D02*
X272757Y364898D01*
X269648Y368007D01*
X269648Y372403D01*
X272757Y375512D01*
X277153Y375512D01*
X280262Y372403D01*
X280262Y368007D01*
X277153Y364898D01*
X272757Y364898D01*
G37*
%LPD*%
%LPC*%
G36*
X594702Y350293D02*
X594702Y350293D01*
X591593Y353402D01*
X591593Y357798D01*
X594702Y360907D01*
X599098Y360907D01*
X602207Y357798D01*
X602207Y353402D01*
X599098Y350293D01*
X594702Y350293D01*
G37*
%LPD*%
%LPC*%
G36*
X58762Y335053D02*
X58762Y335053D01*
X55653Y338162D01*
X55653Y342558D01*
X58762Y345667D01*
X63158Y345667D01*
X66267Y342558D01*
X66267Y338162D01*
X63158Y335053D01*
X58762Y335053D01*
G37*
%LPD*%
%LPC*%
G36*
X408012Y197258D02*
X408012Y197258D01*
X404903Y200367D01*
X404903Y204763D01*
X408012Y207872D01*
X412408Y207872D01*
X415517Y204763D01*
X415517Y200367D01*
X412408Y197258D01*
X408012Y197258D01*
G37*
%LPD*%
%LPC*%
G36*
X332447Y159158D02*
X332447Y159158D01*
X329338Y162267D01*
X329338Y166663D01*
X332447Y169772D01*
X336843Y169772D01*
X339952Y166663D01*
X339952Y162267D01*
X336843Y159158D01*
X332447Y159158D01*
G37*
%LPD*%
%LPC*%
G36*
X103847Y304573D02*
X103847Y304573D01*
X100738Y307682D01*
X100738Y312078D01*
X103847Y315187D01*
X108243Y315187D01*
X111352Y312078D01*
X111352Y307682D01*
X108243Y304573D01*
X103847Y304573D01*
G37*
%LPD*%
%LPC*%
G36*
X338162Y301398D02*
X338162Y301398D01*
X335053Y304507D01*
X335053Y308903D01*
X338162Y312012D01*
X342558Y312012D01*
X345667Y308903D01*
X345667Y304507D01*
X342558Y301398D01*
X338162Y301398D01*
G37*
%LPD*%
%LPC*%
G36*
X238467Y279173D02*
X238467Y279173D01*
X235358Y282282D01*
X235358Y286678D01*
X238467Y289787D01*
X242863Y289787D01*
X245972Y286678D01*
X245972Y282282D01*
X242863Y279173D01*
X238467Y279173D01*
G37*
%LPD*%
%LPC*%
G36*
X190207Y278538D02*
X190207Y278538D01*
X187098Y281647D01*
X187098Y286043D01*
X190207Y289152D01*
X194603Y289152D01*
X197712Y286043D01*
X197712Y281647D01*
X194603Y278538D01*
X190207Y278538D01*
G37*
%LPD*%
%LPC*%
G36*
X378802Y268378D02*
X378802Y268378D01*
X375693Y271487D01*
X375693Y275883D01*
X378802Y278992D01*
X383198Y278992D01*
X386307Y275883D01*
X386307Y271487D01*
X383198Y268378D01*
X378802Y268378D01*
G37*
%LPD*%
%LPC*%
G36*
X553393Y743203D02*
X553393Y743203D01*
X553393Y751921D01*
X559904Y751921D01*
X560551Y751748D01*
X561130Y751413D01*
X561603Y750940D01*
X561938Y750361D01*
X562111Y749714D01*
X562111Y743203D01*
X553393Y743203D01*
G37*
%LPD*%
%LPC*%
G36*
X172393Y741933D02*
X172393Y741933D01*
X172393Y750651D01*
X178904Y750651D01*
X179551Y750478D01*
X180130Y750143D01*
X180603Y749670D01*
X180938Y749091D01*
X181111Y748444D01*
X181111Y741933D01*
X172393Y741933D01*
G37*
%LPD*%
%LPC*%
G36*
X553393Y731439D02*
X553393Y731439D01*
X553393Y740157D01*
X562111Y740157D01*
X562111Y733646D01*
X561938Y732999D01*
X561603Y732420D01*
X561130Y731947D01*
X560551Y731612D01*
X559904Y731439D01*
X553393Y731439D01*
G37*
%LPD*%
%LPC*%
G36*
X172393Y730169D02*
X172393Y730169D01*
X172393Y738887D01*
X181111Y738887D01*
X181111Y732376D01*
X180938Y731729D01*
X180603Y731150D01*
X180130Y730677D01*
X179551Y730342D01*
X178904Y730169D01*
X172393Y730169D01*
G37*
%LPD*%
%LPC*%
G36*
X620013Y147573D02*
X620013Y147573D01*
X620013Y155591D01*
X625824Y155591D01*
X626471Y155418D01*
X627050Y155083D01*
X627523Y154610D01*
X627858Y154031D01*
X628031Y153384D01*
X628031Y147573D01*
X620013Y147573D01*
G37*
%LPD*%
%LPC*%
G36*
X543813Y147573D02*
X543813Y147573D01*
X543813Y155591D01*
X549624Y155591D01*
X550271Y155418D01*
X550850Y155083D01*
X551323Y154610D01*
X551658Y154031D01*
X551831Y153384D01*
X551831Y147573D01*
X543813Y147573D01*
G37*
%LPD*%
%LPC*%
G36*
X569213Y147573D02*
X569213Y147573D01*
X569213Y155591D01*
X575024Y155591D01*
X575671Y155418D01*
X576250Y155083D01*
X576723Y154610D01*
X577058Y154031D01*
X577231Y153384D01*
X577231Y147573D01*
X569213Y147573D01*
G37*
%LPD*%
%LPC*%
G36*
X28193Y451103D02*
X28193Y451103D01*
X28193Y459121D01*
X34004Y459121D01*
X34651Y458948D01*
X35230Y458613D01*
X35703Y458140D01*
X36038Y457561D01*
X36211Y456914D01*
X36211Y451103D01*
X28193Y451103D01*
G37*
%LPD*%
%LPC*%
G36*
X53593Y451103D02*
X53593Y451103D01*
X53593Y459121D01*
X59404Y459121D01*
X60051Y458948D01*
X60630Y458613D01*
X61103Y458140D01*
X61438Y457561D01*
X61611Y456914D01*
X61611Y451103D01*
X53593Y451103D01*
G37*
%LPD*%
%LPC*%
G36*
X518413Y147573D02*
X518413Y147573D01*
X518413Y155591D01*
X524224Y155591D01*
X524871Y155418D01*
X525450Y155083D01*
X525923Y154610D01*
X526258Y154031D01*
X526431Y153384D01*
X526431Y147573D01*
X518413Y147573D01*
G37*
%LPD*%
%LPC*%
G36*
X78993Y451103D02*
X78993Y451103D01*
X78993Y459121D01*
X84804Y459121D01*
X85451Y458948D01*
X86030Y458613D01*
X86503Y458140D01*
X86838Y457561D01*
X87011Y456914D01*
X87011Y451103D01*
X78993Y451103D01*
G37*
%LPD*%
%LPC*%
G36*
X493013Y147573D02*
X493013Y147573D01*
X493013Y155591D01*
X498824Y155591D01*
X499471Y155418D01*
X500050Y155083D01*
X500523Y154610D01*
X500858Y154031D01*
X501031Y153384D01*
X501031Y147573D01*
X493013Y147573D01*
G37*
%LPD*%
%LPC*%
G36*
X104393Y451103D02*
X104393Y451103D01*
X104393Y459121D01*
X110204Y459121D01*
X110851Y458948D01*
X111430Y458613D01*
X111903Y458140D01*
X112238Y457561D01*
X112411Y456914D01*
X112411Y451103D01*
X104393Y451103D01*
G37*
%LPD*%
%LPC*%
G36*
X468883Y449833D02*
X468883Y449833D01*
X468883Y457851D01*
X474694Y457851D01*
X475341Y457678D01*
X475920Y457343D01*
X476393Y456870D01*
X476728Y456291D01*
X476901Y455644D01*
X476901Y449833D01*
X468883Y449833D01*
G37*
%LPD*%
%LPC*%
G36*
X467613Y147573D02*
X467613Y147573D01*
X467613Y155591D01*
X473424Y155591D01*
X474071Y155418D01*
X474650Y155083D01*
X475123Y154610D01*
X475458Y154031D01*
X475631Y153384D01*
X475631Y147573D01*
X467613Y147573D01*
G37*
%LPD*%
%LPC*%
G36*
X443483Y449833D02*
X443483Y449833D01*
X443483Y457851D01*
X449294Y457851D01*
X449941Y457678D01*
X450520Y457343D01*
X450993Y456870D01*
X451328Y456291D01*
X451501Y455644D01*
X451501Y449833D01*
X443483Y449833D01*
G37*
%LPD*%
%LPC*%
G36*
X594613Y147573D02*
X594613Y147573D01*
X594613Y155591D01*
X600424Y155591D01*
X601071Y155418D01*
X601650Y155083D01*
X602123Y154610D01*
X602458Y154031D01*
X602631Y153384D01*
X602631Y147573D01*
X594613Y147573D01*
G37*
%LPD*%
%LPC*%
G36*
X621283Y449833D02*
X621283Y449833D01*
X621283Y457851D01*
X627094Y457851D01*
X627741Y457678D01*
X628320Y457343D01*
X628793Y456870D01*
X629128Y456291D01*
X629301Y455644D01*
X629301Y449833D01*
X621283Y449833D01*
G37*
%LPD*%
%LPC*%
G36*
X442213Y147573D02*
X442213Y147573D01*
X442213Y155591D01*
X448024Y155591D01*
X448671Y155418D01*
X449250Y155083D01*
X449723Y154610D01*
X450058Y154031D01*
X450231Y153384D01*
X450231Y147573D01*
X442213Y147573D01*
G37*
%LPD*%
%LPC*%
G36*
X595883Y449833D02*
X595883Y449833D01*
X595883Y457851D01*
X601694Y457851D01*
X602341Y457678D01*
X602920Y457343D01*
X603393Y456870D01*
X603728Y456291D01*
X603901Y455644D01*
X603901Y449833D01*
X595883Y449833D01*
G37*
%LPD*%
%LPC*%
G36*
X339343Y745108D02*
X339343Y745108D01*
X339343Y753126D01*
X345154Y753126D01*
X345801Y752953D01*
X346380Y752618D01*
X346853Y752145D01*
X347188Y751566D01*
X347361Y750919D01*
X347361Y745108D01*
X339343Y745108D01*
G37*
%LPD*%
%LPC*%
G36*
X179323Y143763D02*
X179323Y143763D01*
X179323Y151781D01*
X185134Y151781D01*
X185781Y151608D01*
X186360Y151273D01*
X186833Y150800D01*
X187168Y150221D01*
X187341Y149574D01*
X187341Y143763D01*
X179323Y143763D01*
G37*
%LPD*%
%LPC*%
G36*
X570483Y449833D02*
X570483Y449833D01*
X570483Y457851D01*
X576294Y457851D01*
X576941Y457678D01*
X577520Y457343D01*
X577993Y456870D01*
X578328Y456291D01*
X578501Y455644D01*
X578501Y449833D01*
X570483Y449833D01*
G37*
%LPD*%
%LPC*%
G36*
X26923Y143763D02*
X26923Y143763D01*
X26923Y151781D01*
X32734Y151781D01*
X33381Y151608D01*
X33960Y151273D01*
X34433Y150800D01*
X34768Y150221D01*
X34941Y149574D01*
X34941Y143763D01*
X26923Y143763D01*
G37*
%LPD*%
%LPC*%
G36*
X545083Y449833D02*
X545083Y449833D01*
X545083Y457851D01*
X550894Y457851D01*
X551541Y457678D01*
X552120Y457343D01*
X552593Y456870D01*
X552928Y456291D01*
X553101Y455644D01*
X553101Y449833D01*
X545083Y449833D01*
G37*
%LPD*%
%LPC*%
G36*
X52323Y143763D02*
X52323Y143763D01*
X52323Y151781D01*
X58134Y151781D01*
X58781Y151608D01*
X59360Y151273D01*
X59833Y150800D01*
X60168Y150221D01*
X60341Y149574D01*
X60341Y143763D01*
X52323Y143763D01*
G37*
%LPD*%
%LPC*%
G36*
X77723Y143763D02*
X77723Y143763D01*
X77723Y151781D01*
X83534Y151781D01*
X84181Y151608D01*
X84760Y151273D01*
X85233Y150800D01*
X85568Y150221D01*
X85741Y149574D01*
X85741Y143763D01*
X77723Y143763D01*
G37*
%LPD*%
%LPC*%
G36*
X128523Y143763D02*
X128523Y143763D01*
X128523Y151781D01*
X134334Y151781D01*
X134981Y151608D01*
X135560Y151273D01*
X136033Y150800D01*
X136368Y150221D01*
X136541Y149574D01*
X136541Y143763D01*
X128523Y143763D01*
G37*
%LPD*%
%LPC*%
G36*
X153923Y143763D02*
X153923Y143763D01*
X153923Y151781D01*
X159734Y151781D01*
X160381Y151608D01*
X160960Y151273D01*
X161433Y150800D01*
X161768Y150221D01*
X161941Y149574D01*
X161941Y143763D01*
X153923Y143763D01*
G37*
%LPD*%
%LPC*%
G36*
X204723Y143763D02*
X204723Y143763D01*
X204723Y151781D01*
X210534Y151781D01*
X211181Y151608D01*
X211760Y151273D01*
X212233Y150800D01*
X212568Y150221D01*
X212741Y149574D01*
X212741Y143763D01*
X204723Y143763D01*
G37*
%LPD*%
%LPC*%
G36*
X103123Y143763D02*
X103123Y143763D01*
X103123Y151781D01*
X108934Y151781D01*
X109581Y151608D01*
X110160Y151273D01*
X110633Y150800D01*
X110968Y150221D01*
X111141Y149574D01*
X111141Y143763D01*
X103123Y143763D01*
G37*
%LPD*%
%LPC*%
G36*
X180593Y451103D02*
X180593Y451103D01*
X180593Y459121D01*
X186404Y459121D01*
X187051Y458948D01*
X187630Y458613D01*
X188103Y458140D01*
X188438Y457561D01*
X188611Y456914D01*
X188611Y451103D01*
X180593Y451103D01*
G37*
%LPD*%
%LPC*%
G36*
X479043Y91693D02*
X479043Y91693D01*
X479043Y99711D01*
X484854Y99711D01*
X485501Y99538D01*
X486080Y99203D01*
X486553Y98730D01*
X486888Y98151D01*
X487061Y97504D01*
X487061Y91693D01*
X479043Y91693D01*
G37*
%LPD*%
%LPC*%
G36*
X205993Y451103D02*
X205993Y451103D01*
X205993Y459121D01*
X211804Y459121D01*
X212451Y458948D01*
X213030Y458613D01*
X213503Y458140D01*
X213838Y457561D01*
X214011Y456914D01*
X214011Y451103D01*
X205993Y451103D01*
G37*
%LPD*%
%LPC*%
G36*
X129793Y451103D02*
X129793Y451103D01*
X129793Y459121D01*
X135604Y459121D01*
X136251Y458948D01*
X136830Y458613D01*
X137303Y458140D01*
X137638Y457561D01*
X137811Y456914D01*
X137811Y451103D01*
X129793Y451103D01*
G37*
%LPD*%
%LPC*%
G36*
X494283Y449833D02*
X494283Y449833D01*
X494283Y457851D01*
X500094Y457851D01*
X500741Y457678D01*
X501320Y457343D01*
X501793Y456870D01*
X502128Y456291D01*
X502301Y455644D01*
X502301Y449833D01*
X494283Y449833D01*
G37*
%LPD*%
%LPC*%
G36*
X519683Y449833D02*
X519683Y449833D01*
X519683Y457851D01*
X525494Y457851D01*
X526141Y457678D01*
X526720Y457343D01*
X527193Y456870D01*
X527528Y456291D01*
X527701Y455644D01*
X527701Y449833D01*
X519683Y449833D01*
G37*
%LPD*%
%LPC*%
G36*
X155193Y451103D02*
X155193Y451103D01*
X155193Y459121D01*
X161004Y459121D01*
X161651Y458948D01*
X162230Y458613D01*
X162703Y458140D01*
X163038Y457561D01*
X163211Y456914D01*
X163211Y451103D01*
X155193Y451103D01*
G37*
%LPD*%
%LPC*%
G36*
X328279Y745108D02*
X328279Y745108D01*
X328279Y750919D01*
X328452Y751566D01*
X328787Y752145D01*
X329260Y752618D01*
X329839Y752953D01*
X330486Y753126D01*
X336297Y753126D01*
X336297Y745108D01*
X328279Y745108D01*
G37*
%LPD*%
%LPC*%
G36*
X187944Y47243D02*
X187944Y47243D01*
X187944Y53054D01*
X188117Y53701D01*
X188452Y54280D01*
X188925Y54753D01*
X189504Y55088D01*
X190151Y55261D01*
X195962Y55261D01*
X195962Y47243D01*
X187944Y47243D01*
G37*
%LPD*%
%LPC*%
G36*
X479043Y80629D02*
X479043Y80629D01*
X479043Y88647D01*
X487061Y88647D01*
X487061Y82836D01*
X486888Y82189D01*
X486553Y81610D01*
X486080Y81137D01*
X485501Y80802D01*
X484854Y80629D01*
X479043Y80629D01*
G37*
%LPD*%
%LPC*%
G36*
X583549Y147573D02*
X583549Y147573D01*
X583549Y153384D01*
X583722Y154031D01*
X584057Y154610D01*
X584530Y155083D01*
X585109Y155418D01*
X585756Y155591D01*
X591567Y155591D01*
X591567Y147573D01*
X583549Y147573D01*
G37*
%LPD*%
%LPC*%
G36*
X467979Y91693D02*
X467979Y91693D01*
X467979Y97504D01*
X468152Y98151D01*
X468487Y98730D01*
X468960Y99203D01*
X469539Y99538D01*
X470186Y99711D01*
X475997Y99711D01*
X475997Y91693D01*
X467979Y91693D01*
G37*
%LPD*%
%LPC*%
G36*
X26923Y132699D02*
X26923Y132699D01*
X26923Y140717D01*
X34941Y140717D01*
X34941Y134906D01*
X34768Y134259D01*
X34433Y133680D01*
X33960Y133207D01*
X33381Y132872D01*
X32734Y132699D01*
X26923Y132699D01*
G37*
%LPD*%
%LPC*%
G36*
X339343Y734044D02*
X339343Y734044D01*
X339343Y742062D01*
X347361Y742062D01*
X347361Y736251D01*
X347188Y735604D01*
X346853Y735025D01*
X346380Y734552D01*
X345801Y734217D01*
X345154Y734044D01*
X339343Y734044D01*
G37*
%LPD*%
%LPC*%
G36*
X205993Y440039D02*
X205993Y440039D01*
X205993Y448057D01*
X214011Y448057D01*
X214011Y442246D01*
X213838Y441599D01*
X213503Y441020D01*
X213030Y440547D01*
X212451Y440212D01*
X211804Y440039D01*
X205993Y440039D01*
G37*
%LPD*%
%LPC*%
G36*
X52323Y132699D02*
X52323Y132699D01*
X52323Y140717D01*
X60341Y140717D01*
X60341Y134906D01*
X60168Y134259D01*
X59833Y133680D01*
X59360Y133207D01*
X58781Y132872D01*
X58134Y132699D01*
X52323Y132699D01*
G37*
%LPD*%
%LPC*%
G36*
X77723Y132699D02*
X77723Y132699D01*
X77723Y140717D01*
X85741Y140717D01*
X85741Y134906D01*
X85568Y134259D01*
X85233Y133680D01*
X84760Y133207D01*
X84181Y132872D01*
X83534Y132699D01*
X77723Y132699D01*
G37*
%LPD*%
%LPC*%
G36*
X128523Y132699D02*
X128523Y132699D01*
X128523Y140717D01*
X136541Y140717D01*
X136541Y134906D01*
X136368Y134259D01*
X136033Y133680D01*
X135560Y133207D01*
X134981Y132872D01*
X134334Y132699D01*
X128523Y132699D01*
G37*
%LPD*%
%LPC*%
G36*
X153923Y132699D02*
X153923Y132699D01*
X153923Y140717D01*
X161941Y140717D01*
X161941Y134906D01*
X161768Y134259D01*
X161433Y133680D01*
X160960Y133207D01*
X160381Y132872D01*
X159734Y132699D01*
X153923Y132699D01*
G37*
%LPD*%
%LPC*%
G36*
X179323Y132699D02*
X179323Y132699D01*
X179323Y140717D01*
X187341Y140717D01*
X187341Y134906D01*
X187168Y134259D01*
X186833Y133680D01*
X186360Y133207D01*
X185781Y132872D01*
X185134Y132699D01*
X179323Y132699D01*
G37*
%LPD*%
%LPC*%
G36*
X204723Y132699D02*
X204723Y132699D01*
X204723Y140717D01*
X212741Y140717D01*
X212741Y134906D01*
X212568Y134259D01*
X212233Y133680D01*
X211760Y133207D01*
X211181Y132872D01*
X210534Y132699D01*
X204723Y132699D01*
G37*
%LPD*%
%LPC*%
G36*
X507349Y147573D02*
X507349Y147573D01*
X507349Y153384D01*
X507522Y154031D01*
X507857Y154610D01*
X508330Y155083D01*
X508909Y155418D01*
X509556Y155591D01*
X515367Y155591D01*
X515367Y147573D01*
X507349Y147573D01*
G37*
%LPD*%
%LPC*%
G36*
X442213Y136509D02*
X442213Y136509D01*
X442213Y144527D01*
X450231Y144527D01*
X450231Y138716D01*
X450058Y138069D01*
X449723Y137490D01*
X449250Y137017D01*
X448671Y136682D01*
X448024Y136509D01*
X442213Y136509D01*
G37*
%LPD*%
%LPC*%
G36*
X467613Y136509D02*
X467613Y136509D01*
X467613Y144527D01*
X475631Y144527D01*
X475631Y138716D01*
X475458Y138069D01*
X475123Y137490D01*
X474650Y137017D01*
X474071Y136682D01*
X473424Y136509D01*
X467613Y136509D01*
G37*
%LPD*%
%LPC*%
G36*
X493013Y136509D02*
X493013Y136509D01*
X493013Y144527D01*
X501031Y144527D01*
X501031Y138716D01*
X500858Y138069D01*
X500523Y137490D01*
X500050Y137017D01*
X499471Y136682D01*
X498824Y136509D01*
X493013Y136509D01*
G37*
%LPD*%
%LPC*%
G36*
X543813Y136509D02*
X543813Y136509D01*
X543813Y144527D01*
X551831Y144527D01*
X551831Y138716D01*
X551658Y138069D01*
X551323Y137490D01*
X550850Y137017D01*
X550271Y136682D01*
X549624Y136509D01*
X543813Y136509D01*
G37*
%LPD*%
%LPC*%
G36*
X518413Y136509D02*
X518413Y136509D01*
X518413Y144527D01*
X526431Y144527D01*
X526431Y138716D01*
X526258Y138069D01*
X525923Y137490D01*
X525450Y137017D01*
X524871Y136682D01*
X524224Y136509D01*
X518413Y136509D01*
G37*
%LPD*%
%LPC*%
G36*
X66659Y143763D02*
X66659Y143763D01*
X66659Y149574D01*
X66832Y150221D01*
X67167Y150800D01*
X67640Y151273D01*
X68219Y151608D01*
X68866Y151781D01*
X74677Y151781D01*
X74677Y143763D01*
X66659Y143763D01*
G37*
%LPD*%
%LPC*%
G36*
X620013Y136509D02*
X620013Y136509D01*
X620013Y144527D01*
X628031Y144527D01*
X628031Y138716D01*
X627858Y138069D01*
X627523Y137490D01*
X627050Y137017D01*
X626471Y136682D01*
X625824Y136509D01*
X620013Y136509D01*
G37*
%LPD*%
%LPC*%
G36*
X103123Y132699D02*
X103123Y132699D01*
X103123Y140717D01*
X111141Y140717D01*
X111141Y134906D01*
X110968Y134259D01*
X110633Y133680D01*
X110160Y133207D01*
X109581Y132872D01*
X108934Y132699D01*
X103123Y132699D01*
G37*
%LPD*%
%LPC*%
G36*
X569213Y136509D02*
X569213Y136509D01*
X569213Y144527D01*
X577231Y144527D01*
X577231Y138716D01*
X577058Y138069D01*
X576723Y137490D01*
X576250Y137017D01*
X575671Y136682D01*
X575024Y136509D01*
X569213Y136509D01*
G37*
%LPD*%
%LPC*%
G36*
X594613Y136509D02*
X594613Y136509D01*
X594613Y144527D01*
X602631Y144527D01*
X602631Y138716D01*
X602458Y138069D01*
X602123Y137490D01*
X601650Y137017D01*
X601071Y136682D01*
X600424Y136509D01*
X594613Y136509D01*
G37*
%LPD*%
%LPC*%
G36*
X92059Y143763D02*
X92059Y143763D01*
X92059Y149574D01*
X92232Y150221D01*
X92567Y150800D01*
X93040Y151273D01*
X93619Y151608D01*
X94266Y151781D01*
X100077Y151781D01*
X100077Y143763D01*
X92059Y143763D01*
G37*
%LPD*%
%LPC*%
G36*
X194929Y451103D02*
X194929Y451103D01*
X194929Y456914D01*
X195102Y457561D01*
X195437Y458140D01*
X195910Y458613D01*
X196489Y458948D01*
X197136Y459121D01*
X202947Y459121D01*
X202947Y451103D01*
X194929Y451103D01*
G37*
%LPD*%
%LPC*%
G36*
X17129Y451103D02*
X17129Y451103D01*
X17129Y456914D01*
X17302Y457561D01*
X17637Y458140D01*
X18110Y458613D01*
X18689Y458948D01*
X19336Y459121D01*
X25147Y459121D01*
X25147Y451103D01*
X17129Y451103D01*
G37*
%LPD*%
%LPC*%
G36*
X144129Y451103D02*
X144129Y451103D01*
X144129Y456914D01*
X144302Y457561D01*
X144637Y458140D01*
X145110Y458613D01*
X145689Y458948D01*
X146336Y459121D01*
X152147Y459121D01*
X152147Y451103D01*
X144129Y451103D01*
G37*
%LPD*%
%LPC*%
G36*
X42529Y451103D02*
X42529Y451103D01*
X42529Y456914D01*
X42702Y457561D01*
X43037Y458140D01*
X43510Y458613D01*
X44089Y458948D01*
X44736Y459121D01*
X50547Y459121D01*
X50547Y451103D01*
X42529Y451103D01*
G37*
%LPD*%
%LPC*%
G36*
X118729Y451103D02*
X118729Y451103D01*
X118729Y456914D01*
X118902Y457561D01*
X119237Y458140D01*
X119710Y458613D01*
X120289Y458948D01*
X120936Y459121D01*
X126747Y459121D01*
X126747Y451103D01*
X118729Y451103D01*
G37*
%LPD*%
%LPC*%
G36*
X169529Y451103D02*
X169529Y451103D01*
X169529Y456914D01*
X169702Y457561D01*
X170037Y458140D01*
X170510Y458613D01*
X171089Y458948D01*
X171736Y459121D01*
X177547Y459121D01*
X177547Y451103D01*
X169529Y451103D01*
G37*
%LPD*%
%LPC*%
G36*
X67929Y451103D02*
X67929Y451103D01*
X67929Y456914D01*
X68102Y457561D01*
X68437Y458140D01*
X68910Y458613D01*
X69489Y458948D01*
X70136Y459121D01*
X75947Y459121D01*
X75947Y451103D01*
X67929Y451103D01*
G37*
%LPD*%
%LPC*%
G36*
X93329Y451103D02*
X93329Y451103D01*
X93329Y456914D01*
X93502Y457561D01*
X93837Y458140D01*
X94310Y458613D01*
X94889Y458948D01*
X95536Y459121D01*
X101347Y459121D01*
X101347Y451103D01*
X93329Y451103D01*
G37*
%LPD*%
%LPC*%
G36*
X457819Y449833D02*
X457819Y449833D01*
X457819Y455644D01*
X457992Y456291D01*
X458327Y456870D01*
X458800Y457343D01*
X459379Y457678D01*
X460026Y457851D01*
X465837Y457851D01*
X465837Y449833D01*
X457819Y449833D01*
G37*
%LPD*%
%LPC*%
G36*
X559419Y449833D02*
X559419Y449833D01*
X559419Y455644D01*
X559592Y456291D01*
X559927Y456870D01*
X560400Y457343D01*
X560979Y457678D01*
X561626Y457851D01*
X567437Y457851D01*
X567437Y449833D01*
X559419Y449833D01*
G37*
%LPD*%
%LPC*%
G36*
X610219Y449833D02*
X610219Y449833D01*
X610219Y455644D01*
X610392Y456291D01*
X610727Y456870D01*
X611200Y457343D01*
X611779Y457678D01*
X612426Y457851D01*
X618237Y457851D01*
X618237Y449833D01*
X610219Y449833D01*
G37*
%LPD*%
%LPC*%
G36*
X584819Y449833D02*
X584819Y449833D01*
X584819Y455644D01*
X584992Y456291D01*
X585327Y456870D01*
X585800Y457343D01*
X586379Y457678D01*
X587026Y457851D01*
X592837Y457851D01*
X592837Y449833D01*
X584819Y449833D01*
G37*
%LPD*%
%LPC*%
G36*
X483219Y449833D02*
X483219Y449833D01*
X483219Y455644D01*
X483392Y456291D01*
X483727Y456870D01*
X484200Y457343D01*
X484779Y457678D01*
X485426Y457851D01*
X491237Y457851D01*
X491237Y449833D01*
X483219Y449833D01*
G37*
%LPD*%
%LPC*%
G36*
X534019Y449833D02*
X534019Y449833D01*
X534019Y455644D01*
X534192Y456291D01*
X534527Y456870D01*
X535000Y457343D01*
X535579Y457678D01*
X536226Y457851D01*
X542037Y457851D01*
X542037Y449833D01*
X534019Y449833D01*
G37*
%LPD*%
%LPC*%
G36*
X15859Y143763D02*
X15859Y143763D01*
X15859Y149574D01*
X16032Y150221D01*
X16367Y150800D01*
X16840Y151273D01*
X17419Y151608D01*
X18066Y151781D01*
X23877Y151781D01*
X23877Y143763D01*
X15859Y143763D01*
G37*
%LPD*%
%LPC*%
G36*
X494283Y438769D02*
X494283Y438769D01*
X494283Y446787D01*
X502301Y446787D01*
X502301Y440976D01*
X502128Y440329D01*
X501793Y439750D01*
X501320Y439277D01*
X500741Y438942D01*
X500094Y438769D01*
X494283Y438769D01*
G37*
%LPD*%
%LPC*%
G36*
X558149Y147573D02*
X558149Y147573D01*
X558149Y153384D01*
X558322Y154031D01*
X558657Y154610D01*
X559130Y155083D01*
X559709Y155418D01*
X560356Y155591D01*
X566167Y155591D01*
X566167Y147573D01*
X558149Y147573D01*
G37*
%LPD*%
%LPC*%
G36*
X519683Y438769D02*
X519683Y438769D01*
X519683Y446787D01*
X527701Y446787D01*
X527701Y440976D01*
X527528Y440329D01*
X527193Y439750D01*
X526720Y439277D01*
X526141Y438942D01*
X525494Y438769D01*
X519683Y438769D01*
G37*
%LPD*%
%LPC*%
G36*
X532749Y147573D02*
X532749Y147573D01*
X532749Y153384D01*
X532922Y154031D01*
X533257Y154610D01*
X533730Y155083D01*
X534309Y155418D01*
X534956Y155591D01*
X540767Y155591D01*
X540767Y147573D01*
X532749Y147573D01*
G37*
%LPD*%
%LPC*%
G36*
X545083Y438769D02*
X545083Y438769D01*
X545083Y446787D01*
X553101Y446787D01*
X553101Y440976D01*
X552928Y440329D01*
X552593Y439750D01*
X552120Y439277D01*
X551541Y438942D01*
X550894Y438769D01*
X545083Y438769D01*
G37*
%LPD*%
%LPC*%
G36*
X168259Y143763D02*
X168259Y143763D01*
X168259Y149574D01*
X168432Y150221D01*
X168767Y150800D01*
X169240Y151273D01*
X169819Y151608D01*
X170466Y151781D01*
X176277Y151781D01*
X176277Y143763D01*
X168259Y143763D01*
G37*
%LPD*%
%LPC*%
G36*
X570483Y438769D02*
X570483Y438769D01*
X570483Y446787D01*
X578501Y446787D01*
X578501Y440976D01*
X578328Y440329D01*
X577993Y439750D01*
X577520Y439277D01*
X576941Y438942D01*
X576294Y438769D01*
X570483Y438769D01*
G37*
%LPD*%
%LPC*%
G36*
X142859Y143763D02*
X142859Y143763D01*
X142859Y149574D01*
X143032Y150221D01*
X143367Y150800D01*
X143840Y151273D01*
X144419Y151608D01*
X145066Y151781D01*
X150877Y151781D01*
X150877Y143763D01*
X142859Y143763D01*
G37*
%LPD*%
%LPC*%
G36*
X595883Y438769D02*
X595883Y438769D01*
X595883Y446787D01*
X603901Y446787D01*
X603901Y440976D01*
X603728Y440329D01*
X603393Y439750D01*
X602920Y439277D01*
X602341Y438942D01*
X601694Y438769D01*
X595883Y438769D01*
G37*
%LPD*%
%LPC*%
G36*
X431149Y147573D02*
X431149Y147573D01*
X431149Y153384D01*
X431322Y154031D01*
X431657Y154610D01*
X432130Y155083D01*
X432709Y155418D01*
X433356Y155591D01*
X439167Y155591D01*
X439167Y147573D01*
X431149Y147573D01*
G37*
%LPD*%
%LPC*%
G36*
X621283Y438769D02*
X621283Y438769D01*
X621283Y446787D01*
X629301Y446787D01*
X629301Y440976D01*
X629128Y440329D01*
X628793Y439750D01*
X628320Y439277D01*
X627741Y438942D01*
X627094Y438769D01*
X621283Y438769D01*
G37*
%LPD*%
%LPC*%
G36*
X443483Y438769D02*
X443483Y438769D01*
X443483Y446787D01*
X451501Y446787D01*
X451501Y440976D01*
X451328Y440329D01*
X450993Y439750D01*
X450520Y439277D01*
X449941Y438942D01*
X449294Y438769D01*
X443483Y438769D01*
G37*
%LPD*%
%LPC*%
G36*
X456549Y147573D02*
X456549Y147573D01*
X456549Y153384D01*
X456722Y154031D01*
X457057Y154610D01*
X457530Y155083D01*
X458109Y155418D01*
X458756Y155591D01*
X464567Y155591D01*
X464567Y147573D01*
X456549Y147573D01*
G37*
%LPD*%
%LPC*%
G36*
X468883Y438769D02*
X468883Y438769D01*
X468883Y446787D01*
X476901Y446787D01*
X476901Y440976D01*
X476728Y440329D01*
X476393Y439750D01*
X475920Y439277D01*
X475341Y438942D01*
X474694Y438769D01*
X468883Y438769D01*
G37*
%LPD*%
%LPC*%
G36*
X180593Y440039D02*
X180593Y440039D01*
X180593Y448057D01*
X188611Y448057D01*
X188611Y442246D01*
X188438Y441599D01*
X188103Y441020D01*
X187630Y440547D01*
X187051Y440212D01*
X186404Y440039D01*
X180593Y440039D01*
G37*
%LPD*%
%LPC*%
G36*
X78993Y440039D02*
X78993Y440039D01*
X78993Y448057D01*
X87011Y448057D01*
X87011Y442246D01*
X86838Y441599D01*
X86503Y441020D01*
X86030Y440547D01*
X85451Y440212D01*
X84804Y440039D01*
X78993Y440039D01*
G37*
%LPD*%
%LPC*%
G36*
X481949Y147573D02*
X481949Y147573D01*
X481949Y153384D01*
X482122Y154031D01*
X482457Y154610D01*
X482930Y155083D01*
X483509Y155418D01*
X484156Y155591D01*
X489967Y155591D01*
X489967Y147573D01*
X481949Y147573D01*
G37*
%LPD*%
%LPC*%
G36*
X608949Y147573D02*
X608949Y147573D01*
X608949Y153384D01*
X609122Y154031D01*
X609457Y154610D01*
X609930Y155083D01*
X610509Y155418D01*
X611156Y155591D01*
X616967Y155591D01*
X616967Y147573D01*
X608949Y147573D01*
G37*
%LPD*%
%LPC*%
G36*
X28193Y440039D02*
X28193Y440039D01*
X28193Y448057D01*
X36211Y448057D01*
X36211Y442246D01*
X36038Y441599D01*
X35703Y441020D01*
X35230Y440547D01*
X34651Y440212D01*
X34004Y440039D01*
X28193Y440039D01*
G37*
%LPD*%
%LPC*%
G36*
X129793Y440039D02*
X129793Y440039D01*
X129793Y448057D01*
X137811Y448057D01*
X137811Y442246D01*
X137638Y441599D01*
X137303Y441020D01*
X136830Y440547D01*
X136251Y440212D01*
X135604Y440039D01*
X129793Y440039D01*
G37*
%LPD*%
%LPC*%
G36*
X104393Y440039D02*
X104393Y440039D01*
X104393Y448057D01*
X112411Y448057D01*
X112411Y442246D01*
X112238Y441599D01*
X111903Y441020D01*
X111430Y440547D01*
X110851Y440212D01*
X110204Y440039D01*
X104393Y440039D01*
G37*
%LPD*%
%LPC*%
G36*
X117459Y143763D02*
X117459Y143763D01*
X117459Y149574D01*
X117632Y150221D01*
X117967Y150800D01*
X118440Y151273D01*
X119019Y151608D01*
X119666Y151781D01*
X125477Y151781D01*
X125477Y143763D01*
X117459Y143763D01*
G37*
%LPD*%
%LPC*%
G36*
X155193Y440039D02*
X155193Y440039D01*
X155193Y448057D01*
X163211Y448057D01*
X163211Y442246D01*
X163038Y441599D01*
X162703Y441020D01*
X162230Y440547D01*
X161651Y440212D01*
X161004Y440039D01*
X155193Y440039D01*
G37*
%LPD*%
%LPC*%
G36*
X193659Y143763D02*
X193659Y143763D01*
X193659Y149574D01*
X193832Y150221D01*
X194167Y150800D01*
X194640Y151273D01*
X195219Y151608D01*
X195866Y151781D01*
X201677Y151781D01*
X201677Y143763D01*
X193659Y143763D01*
G37*
%LPD*%
%LPC*%
G36*
X41259Y143763D02*
X41259Y143763D01*
X41259Y149574D01*
X41432Y150221D01*
X41767Y150800D01*
X42240Y151273D01*
X42819Y151608D01*
X43466Y151781D01*
X49277Y151781D01*
X49277Y143763D01*
X41259Y143763D01*
G37*
%LPD*%
%LPC*%
G36*
X432419Y449833D02*
X432419Y449833D01*
X432419Y455644D01*
X432592Y456291D01*
X432927Y456870D01*
X433400Y457343D01*
X433979Y457678D01*
X434626Y457851D01*
X440437Y457851D01*
X440437Y449833D01*
X432419Y449833D01*
G37*
%LPD*%
%LPC*%
G36*
X53593Y440039D02*
X53593Y440039D01*
X53593Y448057D01*
X61611Y448057D01*
X61611Y442246D01*
X61438Y441599D01*
X61103Y441020D01*
X60630Y440547D01*
X60051Y440212D01*
X59404Y440039D01*
X53593Y440039D01*
G37*
%LPD*%
%LPC*%
G36*
X508619Y449833D02*
X508619Y449833D01*
X508619Y455644D01*
X508792Y456291D01*
X509127Y456870D01*
X509600Y457343D01*
X510179Y457678D01*
X510826Y457851D01*
X516637Y457851D01*
X516637Y449833D01*
X508619Y449833D01*
G37*
%LPD*%
%LPC*%
G36*
X199008Y36179D02*
X199008Y36179D01*
X199008Y44197D01*
X207026Y44197D01*
X207026Y38386D01*
X206853Y37739D01*
X206518Y37160D01*
X206045Y36687D01*
X205466Y36352D01*
X204819Y36179D01*
X199008Y36179D01*
G37*
%LPD*%
%LPC*%
G36*
X587026Y438769D02*
X587026Y438769D01*
X586379Y438942D01*
X585800Y439277D01*
X585327Y439750D01*
X584992Y440329D01*
X584819Y440976D01*
X584819Y446787D01*
X592837Y446787D01*
X592837Y438769D01*
X587026Y438769D01*
G37*
%LPD*%
%LPC*%
G36*
X612426Y438769D02*
X612426Y438769D01*
X611779Y438942D01*
X611200Y439277D01*
X610727Y439750D01*
X610392Y440329D01*
X610219Y440976D01*
X610219Y446787D01*
X618237Y446787D01*
X618237Y438769D01*
X612426Y438769D01*
G37*
%LPD*%
%LPC*%
G36*
X460026Y438769D02*
X460026Y438769D01*
X459379Y438942D01*
X458800Y439277D01*
X458327Y439750D01*
X457992Y440329D01*
X457819Y440976D01*
X457819Y446787D01*
X465837Y446787D01*
X465837Y438769D01*
X460026Y438769D01*
G37*
%LPD*%
%LPC*%
G36*
X70136Y440039D02*
X70136Y440039D01*
X69489Y440212D01*
X68910Y440547D01*
X68437Y441020D01*
X68102Y441599D01*
X67929Y442246D01*
X67929Y448057D01*
X75947Y448057D01*
X75947Y440039D01*
X70136Y440039D01*
G37*
%LPD*%
%LPC*%
G36*
X95536Y440039D02*
X95536Y440039D01*
X94889Y440212D01*
X94310Y440547D01*
X93837Y441020D01*
X93502Y441599D01*
X93329Y442246D01*
X93329Y448057D01*
X101347Y448057D01*
X101347Y440039D01*
X95536Y440039D01*
G37*
%LPD*%
%LPC*%
G36*
X146336Y440039D02*
X146336Y440039D01*
X145689Y440212D01*
X145110Y440547D01*
X144637Y441020D01*
X144302Y441599D01*
X144129Y442246D01*
X144129Y448057D01*
X152147Y448057D01*
X152147Y440039D01*
X146336Y440039D01*
G37*
%LPD*%
%LPC*%
G36*
X120936Y440039D02*
X120936Y440039D01*
X120289Y440212D01*
X119710Y440547D01*
X119237Y441020D01*
X118902Y441599D01*
X118729Y442246D01*
X118729Y448057D01*
X126747Y448057D01*
X126747Y440039D01*
X120936Y440039D01*
G37*
%LPD*%
%LPC*%
G36*
X434626Y438769D02*
X434626Y438769D01*
X433979Y438942D01*
X433400Y439277D01*
X432927Y439750D01*
X432592Y440329D01*
X432419Y440976D01*
X432419Y446787D01*
X440437Y446787D01*
X440437Y438769D01*
X434626Y438769D01*
G37*
%LPD*%
%LPC*%
G36*
X171736Y440039D02*
X171736Y440039D01*
X171089Y440212D01*
X170510Y440547D01*
X170037Y441020D01*
X169702Y441599D01*
X169529Y442246D01*
X169529Y448057D01*
X177547Y448057D01*
X177547Y440039D01*
X171736Y440039D01*
G37*
%LPD*%
%LPC*%
G36*
X19336Y440039D02*
X19336Y440039D01*
X18689Y440212D01*
X18110Y440547D01*
X17637Y441020D01*
X17302Y441599D01*
X17129Y442246D01*
X17129Y448057D01*
X25147Y448057D01*
X25147Y440039D01*
X19336Y440039D01*
G37*
%LPD*%
%LPC*%
G36*
X197136Y440039D02*
X197136Y440039D01*
X196489Y440212D01*
X195910Y440547D01*
X195437Y441020D01*
X195102Y441599D01*
X194929Y442246D01*
X194929Y448057D01*
X202947Y448057D01*
X202947Y440039D01*
X197136Y440039D01*
G37*
%LPD*%
%LPC*%
G36*
X485426Y438769D02*
X485426Y438769D01*
X484779Y438942D01*
X484200Y439277D01*
X483727Y439750D01*
X483392Y440329D01*
X483219Y440976D01*
X483219Y446787D01*
X491237Y446787D01*
X491237Y438769D01*
X485426Y438769D01*
G37*
%LPD*%
%LPC*%
G36*
X44736Y440039D02*
X44736Y440039D01*
X44089Y440212D01*
X43510Y440547D01*
X43037Y441020D01*
X42702Y441599D01*
X42529Y442246D01*
X42529Y448057D01*
X50547Y448057D01*
X50547Y440039D01*
X44736Y440039D01*
G37*
%LPD*%
%LPC*%
G36*
X611156Y136509D02*
X611156Y136509D01*
X610509Y136682D01*
X609930Y137017D01*
X609457Y137490D01*
X609122Y138069D01*
X608949Y138716D01*
X608949Y144527D01*
X616967Y144527D01*
X616967Y136509D01*
X611156Y136509D01*
G37*
%LPD*%
%LPC*%
G36*
X585756Y136509D02*
X585756Y136509D01*
X585109Y136682D01*
X584530Y137017D01*
X584057Y137490D01*
X583722Y138069D01*
X583549Y138716D01*
X583549Y144527D01*
X591567Y144527D01*
X591567Y136509D01*
X585756Y136509D01*
G37*
%LPD*%
%LPC*%
G36*
X509556Y136509D02*
X509556Y136509D01*
X508909Y136682D01*
X508330Y137017D01*
X507857Y137490D01*
X507522Y138069D01*
X507349Y138716D01*
X507349Y144527D01*
X515367Y144527D01*
X515367Y136509D01*
X509556Y136509D01*
G37*
%LPD*%
%LPC*%
G36*
X433356Y136509D02*
X433356Y136509D01*
X432709Y136682D01*
X432130Y137017D01*
X431657Y137490D01*
X431322Y138069D01*
X431149Y138716D01*
X431149Y144527D01*
X439167Y144527D01*
X439167Y136509D01*
X433356Y136509D01*
G37*
%LPD*%
%LPC*%
G36*
X534956Y136509D02*
X534956Y136509D01*
X534309Y136682D01*
X533730Y137017D01*
X533257Y137490D01*
X532922Y138069D01*
X532749Y138716D01*
X532749Y144527D01*
X540767Y144527D01*
X540767Y136509D01*
X534956Y136509D01*
G37*
%LPD*%
%LPC*%
G36*
X484156Y136509D02*
X484156Y136509D01*
X483509Y136682D01*
X482930Y137017D01*
X482457Y137490D01*
X482122Y138069D01*
X481949Y138716D01*
X481949Y144527D01*
X489967Y144527D01*
X489967Y136509D01*
X484156Y136509D01*
G37*
%LPD*%
%LPC*%
G36*
X458756Y136509D02*
X458756Y136509D01*
X458109Y136682D01*
X457530Y137017D01*
X457057Y137490D01*
X456722Y138069D01*
X456549Y138716D01*
X456549Y144527D01*
X464567Y144527D01*
X464567Y136509D01*
X458756Y136509D01*
G37*
%LPD*%
%LPC*%
G36*
X195866Y132699D02*
X195866Y132699D01*
X195219Y132872D01*
X194640Y133207D01*
X194167Y133680D01*
X193832Y134259D01*
X193659Y134906D01*
X193659Y140717D01*
X201677Y140717D01*
X201677Y132699D01*
X195866Y132699D01*
G37*
%LPD*%
%LPC*%
G36*
X170466Y132699D02*
X170466Y132699D01*
X169819Y132872D01*
X169240Y133207D01*
X168767Y133680D01*
X168432Y134259D01*
X168259Y134906D01*
X168259Y140717D01*
X176277Y140717D01*
X176277Y132699D01*
X170466Y132699D01*
G37*
%LPD*%
%LPC*%
G36*
X145066Y132699D02*
X145066Y132699D01*
X144419Y132872D01*
X143840Y133207D01*
X143367Y133680D01*
X143032Y134259D01*
X142859Y134906D01*
X142859Y140717D01*
X150877Y140717D01*
X150877Y132699D01*
X145066Y132699D01*
G37*
%LPD*%
%LPC*%
G36*
X119666Y132699D02*
X119666Y132699D01*
X119019Y132872D01*
X118440Y133207D01*
X117967Y133680D01*
X117632Y134259D01*
X117459Y134906D01*
X117459Y140717D01*
X125477Y140717D01*
X125477Y132699D01*
X119666Y132699D01*
G37*
%LPD*%
%LPC*%
G36*
X560356Y136509D02*
X560356Y136509D01*
X559709Y136682D01*
X559130Y137017D01*
X558657Y137490D01*
X558322Y138069D01*
X558149Y138716D01*
X558149Y144527D01*
X566167Y144527D01*
X566167Y136509D01*
X560356Y136509D01*
G37*
%LPD*%
%LPC*%
G36*
X94266Y132699D02*
X94266Y132699D01*
X93619Y132872D01*
X93040Y133207D01*
X92567Y133680D01*
X92232Y134259D01*
X92059Y134906D01*
X92059Y140717D01*
X100077Y140717D01*
X100077Y132699D01*
X94266Y132699D01*
G37*
%LPD*%
%LPC*%
G36*
X68866Y132699D02*
X68866Y132699D01*
X68219Y132872D01*
X67640Y133207D01*
X67167Y133680D01*
X66832Y134259D01*
X66659Y134906D01*
X66659Y140717D01*
X74677Y140717D01*
X74677Y132699D01*
X68866Y132699D01*
G37*
%LPD*%
%LPC*%
G36*
X43466Y132699D02*
X43466Y132699D01*
X42819Y132872D01*
X42240Y133207D01*
X41767Y133680D01*
X41432Y134259D01*
X41259Y134906D01*
X41259Y140717D01*
X49277Y140717D01*
X49277Y132699D01*
X43466Y132699D01*
G37*
%LPD*%
%LPC*%
G36*
X18066Y132699D02*
X18066Y132699D01*
X17419Y132872D01*
X16840Y133207D01*
X16367Y133680D01*
X16032Y134259D01*
X15859Y134906D01*
X15859Y140717D01*
X23877Y140717D01*
X23877Y132699D01*
X18066Y132699D01*
G37*
%LPD*%
%LPC*%
G36*
X470186Y80629D02*
X470186Y80629D01*
X469539Y80802D01*
X468960Y81137D01*
X468487Y81610D01*
X468152Y82189D01*
X467979Y82836D01*
X467979Y88647D01*
X475997Y88647D01*
X475997Y80629D01*
X470186Y80629D01*
G37*
%LPD*%
%LPC*%
G36*
X330486Y734044D02*
X330486Y734044D01*
X329839Y734217D01*
X329260Y734552D01*
X328787Y735025D01*
X328452Y735604D01*
X328279Y736251D01*
X328279Y742062D01*
X336297Y742062D01*
X336297Y734044D01*
X330486Y734044D01*
G37*
%LPD*%
%LPC*%
G36*
X510826Y438769D02*
X510826Y438769D01*
X510179Y438942D01*
X509600Y439277D01*
X509127Y439750D01*
X508792Y440329D01*
X508619Y440976D01*
X508619Y446787D01*
X516637Y446787D01*
X516637Y438769D01*
X510826Y438769D01*
G37*
%LPD*%
%LPC*%
G36*
X536226Y438769D02*
X536226Y438769D01*
X535579Y438942D01*
X535000Y439277D01*
X534527Y439750D01*
X534192Y440329D01*
X534019Y440976D01*
X534019Y446787D01*
X542037Y446787D01*
X542037Y438769D01*
X536226Y438769D01*
G37*
%LPD*%
%LPC*%
G36*
X561626Y438769D02*
X561626Y438769D01*
X560979Y438942D01*
X560400Y439277D01*
X559927Y439750D01*
X559592Y440329D01*
X559419Y440976D01*
X559419Y446787D01*
X567437Y446787D01*
X567437Y438769D01*
X561626Y438769D01*
G37*
%LPD*%
%LPC*%
G36*
X190151Y36179D02*
X190151Y36179D01*
X189504Y36352D01*
X188925Y36687D01*
X188452Y37160D01*
X188117Y37739D01*
X187944Y38386D01*
X187944Y44197D01*
X195962Y44197D01*
X195962Y36179D01*
X190151Y36179D01*
G37*
%LPD*%
%LPC*%
G36*
X299503Y649223D02*
X299503Y649223D01*
X299503Y658131D01*
X300448Y657981D01*
X302026Y657468D01*
X303505Y656715D01*
X304847Y655740D01*
X306020Y654567D01*
X306995Y653225D01*
X307748Y651746D01*
X308261Y650168D01*
X308411Y649223D01*
X299503Y649223D01*
G37*
%LPD*%
%LPC*%
G36*
X349338Y513968D02*
X349338Y513968D01*
X349338Y522876D01*
X350283Y522726D01*
X351861Y522213D01*
X353340Y521460D01*
X354682Y520485D01*
X355855Y519312D01*
X356830Y517970D01*
X357583Y516491D01*
X358096Y514913D01*
X358246Y513968D01*
X349338Y513968D01*
G37*
%LPD*%
%LPC*%
G36*
X299503Y646177D02*
X299503Y646177D01*
X308411Y646177D01*
X308261Y645232D01*
X307748Y643654D01*
X306995Y642175D01*
X306020Y640833D01*
X304847Y639660D01*
X303505Y638685D01*
X302026Y637932D01*
X300448Y637419D01*
X299503Y637269D01*
X299503Y646177D01*
G37*
%LPD*%
%LPC*%
G36*
X337384Y513968D02*
X337384Y513968D01*
X337534Y514913D01*
X338047Y516491D01*
X338800Y517970D01*
X339775Y519312D01*
X340948Y520485D01*
X342290Y521460D01*
X343769Y522213D01*
X345347Y522726D01*
X346292Y522876D01*
X346292Y513968D01*
X337384Y513968D01*
G37*
%LPD*%
%LPC*%
G36*
X287549Y649223D02*
X287549Y649223D01*
X287699Y650168D01*
X288212Y651746D01*
X288965Y653225D01*
X289940Y654567D01*
X291113Y655740D01*
X292455Y656715D01*
X293934Y657468D01*
X295512Y657981D01*
X296457Y658131D01*
X296457Y649223D01*
X287549Y649223D01*
G37*
%LPD*%
%LPC*%
G36*
X349338Y510922D02*
X349338Y510922D01*
X358246Y510922D01*
X358096Y509977D01*
X357583Y508399D01*
X356830Y506920D01*
X355855Y505578D01*
X354682Y504405D01*
X353340Y503430D01*
X351861Y502677D01*
X350283Y502164D01*
X349338Y502014D01*
X349338Y510922D01*
G37*
%LPD*%
%LPC*%
G36*
X295512Y637419D02*
X295512Y637419D01*
X293934Y637932D01*
X292455Y638685D01*
X291113Y639660D01*
X289940Y640833D01*
X288965Y642175D01*
X288212Y643654D01*
X287699Y645232D01*
X287549Y646177D01*
X296457Y646177D01*
X296457Y637269D01*
X295512Y637419D01*
G37*
%LPD*%
%LPC*%
G36*
X345347Y502164D02*
X345347Y502164D01*
X343769Y502677D01*
X342290Y503430D01*
X340948Y504405D01*
X339775Y505578D01*
X338800Y506920D01*
X338047Y508399D01*
X337534Y509977D01*
X337384Y510922D01*
X346292Y510922D01*
X346292Y502014D01*
X345347Y502164D01*
G37*
%LPD*%
%LPC*%
G36*
X222823Y741933D02*
X222823Y741933D01*
X222823Y748815D01*
X223791Y748623D01*
X225346Y747979D01*
X226744Y747044D01*
X227934Y745854D01*
X228869Y744456D01*
X229513Y742901D01*
X229705Y741933D01*
X222823Y741933D01*
G37*
%LPD*%
%LPC*%
G36*
X418403Y743203D02*
X418403Y743203D01*
X418403Y750085D01*
X419371Y749893D01*
X420926Y749249D01*
X422324Y748314D01*
X423514Y747124D01*
X424449Y745726D01*
X425093Y744171D01*
X425285Y743203D01*
X418403Y743203D01*
G37*
%LPD*%
%LPC*%
G36*
X222823Y738887D02*
X222823Y738887D01*
X229705Y738887D01*
X229513Y737919D01*
X228869Y736364D01*
X227934Y734966D01*
X226744Y733776D01*
X225346Y732841D01*
X223791Y732197D01*
X222823Y732005D01*
X222823Y738887D01*
G37*
%LPD*%
%LPC*%
G36*
X418403Y740157D02*
X418403Y740157D01*
X425285Y740157D01*
X425093Y739189D01*
X424449Y737634D01*
X423514Y736236D01*
X422324Y735046D01*
X420926Y734111D01*
X419371Y733467D01*
X418403Y733275D01*
X418403Y740157D01*
G37*
%LPD*%
%LPC*%
G36*
X212895Y741933D02*
X212895Y741933D01*
X213087Y742901D01*
X213731Y744456D01*
X214666Y745854D01*
X215856Y747044D01*
X217254Y747979D01*
X218809Y748623D01*
X219777Y748815D01*
X219777Y741933D01*
X212895Y741933D01*
G37*
%LPD*%
%LPC*%
G36*
X408475Y743203D02*
X408475Y743203D01*
X408667Y744171D01*
X409311Y745726D01*
X410246Y747124D01*
X411436Y748314D01*
X412834Y749249D01*
X414389Y749893D01*
X415357Y750085D01*
X415357Y743203D01*
X408475Y743203D01*
G37*
%LPD*%
%LPC*%
G36*
X414389Y733467D02*
X414389Y733467D01*
X412834Y734111D01*
X411436Y735046D01*
X410246Y736236D01*
X409311Y737634D01*
X408667Y739189D01*
X408475Y740157D01*
X415357Y740157D01*
X415357Y733275D01*
X414389Y733467D01*
G37*
%LPD*%
%LPC*%
G36*
X218809Y732197D02*
X218809Y732197D01*
X217254Y732841D01*
X215856Y733776D01*
X214666Y734966D01*
X213731Y736364D01*
X213087Y737919D01*
X212895Y738887D01*
X219777Y738887D01*
X219777Y732005D01*
X218809Y732197D01*
G37*
%LPD*%
%LPC*%
G36*
X492759Y448309D02*
X492759Y448309D01*
X492759Y448311D01*
X492761Y448311D01*
X492761Y448309D01*
X492759Y448309D01*
G37*
%LPD*%
%LPC*%
G36*
X618489Y685799D02*
X618489Y685799D01*
X618489Y685801D01*
X618491Y685801D01*
X618491Y685799D01*
X618489Y685799D01*
G37*
%LPD*%
%LPC*%
G36*
X25399Y142239D02*
X25399Y142239D01*
X25399Y142241D01*
X25401Y142241D01*
X25401Y142239D01*
X25399Y142239D01*
G37*
%LPD*%
%LPC*%
G36*
X203199Y142239D02*
X203199Y142239D01*
X203199Y142241D01*
X203201Y142241D01*
X203201Y142239D01*
X203199Y142239D01*
G37*
%LPD*%
%LPC*%
G36*
X177799Y142239D02*
X177799Y142239D01*
X177799Y142241D01*
X177801Y142241D01*
X177801Y142239D01*
X177799Y142239D01*
G37*
%LPD*%
%LPC*%
G36*
X152399Y142239D02*
X152399Y142239D01*
X152399Y142241D01*
X152401Y142241D01*
X152401Y142239D01*
X152399Y142239D01*
G37*
%LPD*%
%LPC*%
G36*
X126999Y142239D02*
X126999Y142239D01*
X126999Y142241D01*
X127001Y142241D01*
X127001Y142239D01*
X126999Y142239D01*
G37*
%LPD*%
%LPC*%
G36*
X236219Y687069D02*
X236219Y687069D01*
X236219Y687071D01*
X236221Y687071D01*
X236221Y687069D01*
X236219Y687069D01*
G37*
%LPD*%
%LPC*%
G36*
X76199Y142239D02*
X76199Y142239D01*
X76199Y142241D01*
X76201Y142241D01*
X76201Y142239D01*
X76199Y142239D01*
G37*
%LPD*%
%LPC*%
G36*
X50799Y142239D02*
X50799Y142239D01*
X50799Y142241D01*
X50801Y142241D01*
X50801Y142239D01*
X50799Y142239D01*
G37*
%LPD*%
%LPC*%
G36*
X467359Y448309D02*
X467359Y448309D01*
X467359Y448311D01*
X467361Y448311D01*
X467361Y448309D01*
X467359Y448309D01*
G37*
%LPD*%
%LPC*%
G36*
X491489Y146049D02*
X491489Y146049D01*
X491489Y146051D01*
X491491Y146051D01*
X491491Y146049D01*
X491489Y146049D01*
G37*
%LPD*%
%LPC*%
G36*
X516889Y146049D02*
X516889Y146049D01*
X516889Y146051D01*
X516891Y146051D01*
X516891Y146049D01*
X516889Y146049D01*
G37*
%LPD*%
%LPC*%
G36*
X542289Y146049D02*
X542289Y146049D01*
X542289Y146051D01*
X542291Y146051D01*
X542291Y146049D01*
X542289Y146049D01*
G37*
%LPD*%
%LPC*%
G36*
X221299Y740409D02*
X221299Y740409D01*
X221299Y740411D01*
X221301Y740411D01*
X221301Y740409D01*
X221299Y740409D01*
G37*
%LPD*%
%LPC*%
G36*
X567689Y146049D02*
X567689Y146049D01*
X567689Y146051D01*
X567691Y146051D01*
X567691Y146049D01*
X567689Y146049D01*
G37*
%LPD*%
%LPC*%
G36*
X416879Y741679D02*
X416879Y741679D01*
X416879Y741681D01*
X416881Y741681D01*
X416881Y741679D01*
X416879Y741679D01*
G37*
%LPD*%
%LPC*%
G36*
X618489Y146049D02*
X618489Y146049D01*
X618489Y146051D01*
X618491Y146051D01*
X618491Y146049D01*
X618489Y146049D01*
G37*
%LPD*%
%LPC*%
G36*
X337819Y743584D02*
X337819Y743584D01*
X337819Y743586D01*
X337821Y743586D01*
X337821Y743584D01*
X337819Y743584D01*
G37*
%LPD*%
%LPC*%
G36*
X466089Y146049D02*
X466089Y146049D01*
X466089Y146051D01*
X466091Y146051D01*
X466091Y146049D01*
X466089Y146049D01*
G37*
%LPD*%
%LPC*%
G36*
X52069Y449579D02*
X52069Y449579D01*
X52069Y449581D01*
X52071Y449581D01*
X52071Y449579D01*
X52069Y449579D01*
G37*
%LPD*%
%LPC*%
G36*
X568959Y448309D02*
X568959Y448309D01*
X568959Y448311D01*
X568961Y448311D01*
X568961Y448309D01*
X568959Y448309D01*
G37*
%LPD*%
%LPC*%
G36*
X543559Y448309D02*
X543559Y448309D01*
X543559Y448311D01*
X543561Y448311D01*
X543561Y448309D01*
X543559Y448309D01*
G37*
%LPD*%
%LPC*%
G36*
X77469Y449579D02*
X77469Y449579D01*
X77469Y449581D01*
X77471Y449581D01*
X77471Y449579D01*
X77469Y449579D01*
G37*
%LPD*%
%LPC*%
G36*
X153669Y449579D02*
X153669Y449579D01*
X153669Y449581D01*
X153671Y449581D01*
X153671Y449579D01*
X153669Y449579D01*
G37*
%LPD*%
%LPC*%
G36*
X179069Y449579D02*
X179069Y449579D01*
X179069Y449581D01*
X179071Y449581D01*
X179071Y449579D01*
X179069Y449579D01*
G37*
%LPD*%
%LPC*%
G36*
X204469Y449579D02*
X204469Y449579D01*
X204469Y449581D01*
X204471Y449581D01*
X204471Y449579D01*
X204469Y449579D01*
G37*
%LPD*%
%LPC*%
G36*
X477519Y90169D02*
X477519Y90169D01*
X477519Y90171D01*
X477521Y90171D01*
X477521Y90169D01*
X477519Y90169D01*
G37*
%LPD*%
%LPC*%
G36*
X297979Y647699D02*
X297979Y647699D01*
X297979Y647701D01*
X297981Y647701D01*
X297981Y647699D01*
X297979Y647699D01*
G37*
%LPD*%
%LPC*%
G36*
X440689Y146049D02*
X440689Y146049D01*
X440689Y146051D01*
X440691Y146051D01*
X440691Y146049D01*
X440689Y146049D01*
G37*
%LPD*%
%LPC*%
G36*
X102869Y449579D02*
X102869Y449579D01*
X102869Y449581D01*
X102871Y449581D01*
X102871Y449579D01*
X102869Y449579D01*
G37*
%LPD*%
%LPC*%
G36*
X518159Y448309D02*
X518159Y448309D01*
X518159Y448311D01*
X518161Y448311D01*
X518161Y448309D01*
X518159Y448309D01*
G37*
%LPD*%
%LPC*%
G36*
X128269Y449579D02*
X128269Y449579D01*
X128269Y449581D01*
X128271Y449581D01*
X128271Y449579D01*
X128269Y449579D01*
G37*
%LPD*%
%LPC*%
G36*
X593089Y146049D02*
X593089Y146049D01*
X593089Y146051D01*
X593091Y146051D01*
X593091Y146049D01*
X593089Y146049D01*
G37*
%LPD*%
%LPC*%
G36*
X619759Y448309D02*
X619759Y448309D01*
X619759Y448311D01*
X619761Y448311D01*
X619761Y448309D01*
X619759Y448309D01*
G37*
%LPD*%
%LPC*%
G36*
X26669Y449579D02*
X26669Y449579D01*
X26669Y449581D01*
X26671Y449581D01*
X26671Y449579D01*
X26669Y449579D01*
G37*
%LPD*%
%LPC*%
G36*
X441959Y448309D02*
X441959Y448309D01*
X441959Y448311D01*
X441961Y448311D01*
X441961Y448309D01*
X441959Y448309D01*
G37*
%LPD*%
%LPC*%
G36*
X197484Y45719D02*
X197484Y45719D01*
X197484Y45721D01*
X197486Y45721D01*
X197486Y45719D01*
X197484Y45719D01*
G37*
%LPD*%
%LPC*%
G36*
X594359Y448309D02*
X594359Y448309D01*
X594359Y448311D01*
X594361Y448311D01*
X594361Y448309D01*
X594359Y448309D01*
G37*
%LPD*%
%LPC*%
G36*
X347814Y512444D02*
X347814Y512444D01*
X347814Y512446D01*
X347816Y512446D01*
X347816Y512444D01*
X347814Y512444D01*
G37*
%LPD*%
%LPC*%
G36*
X101599Y142239D02*
X101599Y142239D01*
X101599Y142241D01*
X101601Y142241D01*
X101601Y142239D01*
X101599Y142239D01*
G37*
%LPD*%
D10*
X241300Y740410D03*
X221300Y740410D03*
X436880Y741680D03*
X416880Y741680D03*
D11*
X297815Y512445D03*
X347815Y512445D03*
X347980Y647700D03*
X297980Y647700D03*
D12*
X37084Y687070D03*
D13*
X236220Y687070D03*
D12*
X419354Y685800D03*
D13*
X618490Y685800D03*
D14*
X477520Y90170D03*
X502920Y90170D03*
X528320Y90170D03*
X553720Y90170D03*
X579120Y90170D03*
X604520Y90170D03*
X312420Y743585D03*
X337820Y743585D03*
D15*
X128270Y624840D03*
X128270Y510440D03*
X516890Y623570D03*
X516890Y509170D03*
D14*
X203200Y193040D03*
X203200Y167640D03*
X203200Y142240D03*
X177800Y193040D03*
X152400Y193040D03*
X127000Y193040D03*
X101600Y193040D03*
X76200Y193040D03*
X50800Y193040D03*
X25400Y193040D03*
X177800Y167640D03*
X152400Y167640D03*
X127000Y167640D03*
X101600Y167640D03*
X76200Y167640D03*
X50800Y167640D03*
X25400Y167640D03*
X177800Y142240D03*
X152400Y142240D03*
X127000Y142240D03*
X101600Y142240D03*
X76200Y142240D03*
X50800Y142240D03*
X25400Y142240D03*
X26670Y398780D03*
X26670Y424180D03*
X26670Y449580D03*
X52070Y398780D03*
X77470Y398780D03*
X102870Y398780D03*
X128270Y398780D03*
X153670Y398780D03*
X179070Y398780D03*
X204470Y398780D03*
X52070Y424180D03*
X77470Y424180D03*
X102870Y424180D03*
X128270Y424180D03*
X153670Y424180D03*
X179070Y424180D03*
X204470Y424180D03*
X52070Y449580D03*
X77470Y449580D03*
X102870Y449580D03*
X128270Y449580D03*
X153670Y449580D03*
X179070Y449580D03*
X204470Y449580D03*
X441960Y397510D03*
X441960Y422910D03*
X441960Y448310D03*
X467360Y397510D03*
X492760Y397510D03*
X518160Y397510D03*
X543560Y397510D03*
X568960Y397510D03*
X594360Y397510D03*
X619760Y397510D03*
X467360Y422910D03*
X492760Y422910D03*
X518160Y422910D03*
X543560Y422910D03*
X568960Y422910D03*
X594360Y422910D03*
X619760Y422910D03*
X467360Y448310D03*
X492760Y448310D03*
X518160Y448310D03*
X543560Y448310D03*
X568960Y448310D03*
X594360Y448310D03*
X619760Y448310D03*
X618490Y196850D03*
X618490Y171450D03*
X618490Y146050D03*
X593090Y196850D03*
X567690Y196850D03*
X542290Y196850D03*
X516890Y196850D03*
X491490Y196850D03*
X466090Y196850D03*
X440690Y196850D03*
X593090Y171450D03*
X567690Y171450D03*
X542290Y171450D03*
X516890Y171450D03*
X491490Y171450D03*
X466090Y171450D03*
X440690Y171450D03*
X593090Y146050D03*
X567690Y146050D03*
X542290Y146050D03*
X516890Y146050D03*
X491490Y146050D03*
X466090Y146050D03*
X440690Y146050D03*
D16*
X102870Y740410D03*
X119870Y740410D03*
X136870Y740410D03*
X153870Y740410D03*
X170870Y740410D03*
X483870Y741680D03*
X500870Y741680D03*
X517870Y741680D03*
X534870Y741680D03*
X551870Y741680D03*
D14*
X19685Y45720D03*
X45085Y45720D03*
X70485Y45720D03*
X95885Y45720D03*
X121285Y45720D03*
X146685Y45720D03*
X172085Y45720D03*
X197485Y45720D03*
X197485Y71120D03*
X172085Y71120D03*
X146685Y71120D03*
X121285Y71120D03*
X95885Y71120D03*
X70485Y71120D03*
X45085Y71120D03*
X19685Y71120D03*
D17*
X394335Y422275D03*
X231775Y387985D03*
X274955Y370205D03*
X588010Y246380D03*
X596900Y355600D03*
X60960Y340360D03*
X52070Y236220D03*
X381000Y273685D03*
X345440Y249555D03*
X309880Y225425D03*
X340360Y306705D03*
X427990Y27940D03*
X240665Y284480D03*
X192405Y283845D03*
X266065Y19685D03*
X298450Y72390D03*
X298450Y90170D03*
X298450Y107950D03*
X332740Y57150D03*
X331470Y124460D03*
X365760Y109220D03*
X367030Y90170D03*
X367030Y71120D03*
X386080Y15240D03*
X333375Y422275D03*
X302895Y382905D03*
X297815Y352425D03*
X78740Y283210D03*
X149860Y250190D03*
X495300Y340360D03*
X358140Y288925D03*
X358140Y262255D03*
X340360Y323215D03*
X288290Y273685D03*
X318770Y304165D03*
X464820Y21590D03*
X441960Y71120D03*
X92710Y309880D03*
X561975Y283845D03*
X380365Y210820D03*
X568960Y309880D03*
X261620Y66040D03*
X546100Y50800D03*
D18*
X553720Y58420D02*
X553720Y90170D01*
X553720Y58420D02*
X546100Y50800D01*
X543560Y48260D01*
X307975Y48260D01*
X290195Y66040D02*
X261620Y66040D01*
X290195Y66040D02*
X307975Y48260D01*
D17*
X261620Y52070D03*
D18*
X295910Y52070D01*
D17*
X571500Y50800D03*
D18*
X579120Y58420D02*
X579120Y90170D01*
X579120Y58420D02*
X571500Y50800D01*
X558800Y38100D01*
X309880Y38100D02*
X295910Y52070D01*
X309880Y38100D02*
X558800Y38100D01*
D17*
X385445Y118110D03*
X468630Y60325D03*
D18*
X410845Y118110D01*
X385445Y118110D01*
D17*
X279400Y285115D03*
X455930Y286385D03*
D18*
X370840Y286385D01*
X363855Y279400D01*
X313055Y279400D01*
X307340Y285115D01*
X279400Y285115D01*
D17*
X288290Y80645D03*
D18*
X287020Y237490D02*
X279400Y245110D01*
X279400Y285115D01*
X287020Y237490D02*
X287020Y81915D01*
X288290Y80645D01*
D17*
X299720Y303530D03*
X455930Y298450D03*
D18*
X407035Y298450D01*
X368300Y337185D02*
X313690Y337185D01*
X299720Y323215D01*
X299720Y303530D01*
X368300Y337185D02*
X407035Y298450D01*
D17*
X226060Y294005D03*
D18*
X235585Y303530D01*
X299720Y303530D01*
D17*
X269875Y153670D03*
D18*
X226060Y197485D01*
X226060Y294005D01*
D17*
X314960Y56515D03*
X294640Y208280D03*
D18*
X294640Y147955D01*
X315595Y127000D01*
X315595Y57150D01*
X314960Y56515D01*
D17*
X106045Y309880D03*
X387985Y130175D03*
X558800Y234950D03*
D18*
X558165Y234315D01*
X428625Y234315D01*
X387985Y193675D01*
X387985Y130175D01*
D17*
X309245Y238125D03*
X372110Y144780D03*
D18*
X372110Y176530D01*
X310515Y238125D01*
X309245Y238125D01*
D17*
X305435Y249555D03*
X355600Y156845D03*
D18*
X299720Y212725D01*
X299720Y243840D01*
X305435Y249555D01*
D17*
X410210Y202565D03*
X367030Y210185D03*
X334645Y164465D03*
X211455Y58420D03*
X278130Y171450D03*
D18*
X278130Y93980D01*
X242570Y58420D01*
X211455Y58420D01*
D17*
X255905Y154940D03*
D18*
X266700Y144145D01*
X189865Y88900D02*
X172085Y71120D01*
X266700Y114300D02*
X266700Y144145D01*
X266700Y114300D02*
X241300Y88900D01*
X189865Y88900D01*
D17*
X255905Y142240D03*
D18*
X255905Y128905D01*
X177165Y101600D02*
X146685Y71120D01*
X228600Y101600D02*
X255905Y128905D01*
X228600Y101600D02*
X177165Y101600D01*
D17*
X217805Y113030D03*
D18*
X163195Y113030D01*
X121285Y71120D01*
D17*
X283845Y22860D03*
D18*
X280035Y26670D01*
X89535Y26670D01*
X82550Y59055D02*
X70485Y71120D01*
X82550Y33655D02*
X89535Y26670D01*
X82550Y33655D02*
X82550Y59055D01*
D17*
X295275Y30480D03*
D18*
X111760Y30480D01*
X108585Y33655D01*
X108585Y79375D01*
X99060Y88900D02*
X60325Y88900D01*
X45085Y73660D01*
X45085Y71120D01*
X99060Y88900D02*
X108585Y79375D01*
D17*
X295910Y14605D03*
D18*
X293437Y12132D01*
X274315Y12095D01*
X56485Y12095D01*
X31750Y59055D02*
X19685Y71120D01*
X31750Y36830D02*
X56485Y12095D01*
X31750Y36830D02*
X31750Y59055D01*
M02*
