G04 EAGLE Gerber RS-274X export*
G75*
%MOMM*%
%FSLAX34Y34*%
%LPD*%
%INEAGLE Copper Layer 2*%
%IPPOS*%
%AMOC8*
5,1,8,0,0,1.08239X$1,22.5*%
G01*
%ADD10C,0.980000*%
%ADD11C,1.400000*%
%ADD12C,2.169163*%
%ADD13C,1.540000*%
%ADD14C,0.756400*%
%ADD15C,0.152400*%

G36*
X290442Y10732D02*
X290442Y10732D01*
X290512Y10743D01*
X290583Y10745D01*
X290633Y10763D01*
X290685Y10772D01*
X290748Y10805D01*
X290814Y10829D01*
X290856Y10863D01*
X290902Y10887D01*
X290951Y10939D01*
X291006Y10983D01*
X291035Y11028D01*
X291071Y11066D01*
X291101Y11130D01*
X291139Y11190D01*
X291152Y11241D01*
X291174Y11289D01*
X291182Y11360D01*
X291199Y11429D01*
X291195Y11481D01*
X291201Y11534D01*
X291186Y11603D01*
X291180Y11674D01*
X291160Y11722D01*
X291148Y11774D01*
X291112Y11835D01*
X291084Y11900D01*
X291038Y11957D01*
X291022Y11985D01*
X291004Y12000D01*
X290979Y12031D01*
X290603Y12407D01*
X290603Y16803D01*
X293712Y19912D01*
X298108Y19912D01*
X301217Y16803D01*
X301217Y12407D01*
X300862Y12053D01*
X300820Y11994D01*
X300770Y11941D01*
X300749Y11895D01*
X300719Y11853D01*
X300698Y11784D01*
X300667Y11718D01*
X300662Y11667D01*
X300647Y11618D01*
X300648Y11545D01*
X300641Y11473D01*
X300652Y11423D01*
X300653Y11372D01*
X300678Y11304D01*
X300693Y11233D01*
X300720Y11189D01*
X300737Y11141D01*
X300783Y11084D01*
X300820Y11022D01*
X300859Y10989D01*
X300891Y10949D01*
X300952Y10910D01*
X301007Y10863D01*
X301055Y10844D01*
X301098Y10816D01*
X301168Y10798D01*
X301235Y10771D01*
X301305Y10764D01*
X301336Y10756D01*
X301360Y10758D01*
X301402Y10753D01*
X597796Y11336D01*
X597843Y11343D01*
X597890Y11342D01*
X597964Y11363D01*
X598039Y11376D01*
X598081Y11398D01*
X598126Y11411D01*
X598189Y11455D01*
X598256Y11491D01*
X598289Y11526D01*
X598327Y11553D01*
X598373Y11614D01*
X598425Y11670D01*
X598445Y11713D01*
X598473Y11751D01*
X598496Y11824D01*
X598528Y11893D01*
X598534Y11940D01*
X598548Y11985D01*
X598547Y12062D01*
X598555Y12138D01*
X598545Y12184D01*
X598544Y12231D01*
X598519Y12303D01*
X598502Y12378D01*
X598478Y12419D01*
X598462Y12463D01*
X598415Y12523D01*
X598376Y12589D01*
X598340Y12619D01*
X598311Y12657D01*
X598205Y12735D01*
X598189Y12748D01*
X598183Y12751D01*
X598176Y12756D01*
X592616Y15966D01*
X587466Y21116D01*
X583824Y27423D01*
X581939Y34458D01*
X581939Y41742D01*
X583824Y48777D01*
X587466Y55084D01*
X592616Y60234D01*
X598923Y63876D01*
X605958Y65761D01*
X613242Y65761D01*
X620277Y63876D01*
X626584Y60234D01*
X631734Y55084D01*
X634649Y50036D01*
X634679Y49999D01*
X634702Y49956D01*
X634756Y49904D01*
X634805Y49845D01*
X634845Y49820D01*
X634880Y49787D01*
X634949Y49755D01*
X635013Y49715D01*
X635060Y49703D01*
X635103Y49683D01*
X635178Y49675D01*
X635252Y49657D01*
X635300Y49661D01*
X635347Y49656D01*
X635422Y49672D01*
X635497Y49679D01*
X635541Y49698D01*
X635588Y49708D01*
X635653Y49747D01*
X635722Y49778D01*
X635758Y49810D01*
X635799Y49835D01*
X635848Y49892D01*
X635904Y49943D01*
X635928Y49985D01*
X635959Y50021D01*
X635987Y50092D01*
X636024Y50158D01*
X636033Y50205D01*
X636051Y50250D01*
X636065Y50378D01*
X636069Y50400D01*
X636068Y50406D01*
X636069Y50416D01*
X636069Y749684D01*
X636062Y749731D01*
X636063Y749779D01*
X636042Y749852D01*
X636030Y749926D01*
X636007Y749969D01*
X635993Y750015D01*
X635950Y750077D01*
X635914Y750144D01*
X635880Y750177D01*
X635852Y750216D01*
X635791Y750261D01*
X635736Y750313D01*
X635693Y750333D01*
X635654Y750362D01*
X635582Y750385D01*
X635513Y750417D01*
X635465Y750422D01*
X635420Y750437D01*
X635344Y750436D01*
X635269Y750444D01*
X635222Y750434D01*
X635174Y750433D01*
X635102Y750408D01*
X635028Y750392D01*
X634987Y750367D01*
X634942Y750351D01*
X634882Y750304D01*
X634817Y750265D01*
X634786Y750229D01*
X634748Y750199D01*
X634672Y750096D01*
X634657Y750079D01*
X634655Y750072D01*
X634649Y750064D01*
X631734Y745016D01*
X626584Y739866D01*
X620277Y736224D01*
X613242Y734339D01*
X605958Y734339D01*
X598923Y736224D01*
X592616Y739866D01*
X587466Y745016D01*
X583824Y751323D01*
X581939Y758358D01*
X581939Y765642D01*
X583824Y772677D01*
X587466Y778984D01*
X592616Y784134D01*
X596524Y786390D01*
X596561Y786421D01*
X596604Y786444D01*
X596656Y786499D01*
X596714Y786546D01*
X596740Y786587D01*
X596773Y786623D01*
X596805Y786691D01*
X596845Y786754D01*
X596856Y786802D01*
X596877Y786846D01*
X596885Y786921D01*
X596902Y786994D01*
X596898Y787042D01*
X596903Y787091D01*
X596887Y787164D01*
X596881Y787239D01*
X596861Y787283D01*
X596851Y787331D01*
X596812Y787395D01*
X596782Y787464D01*
X596749Y787500D01*
X596724Y787542D01*
X596667Y787590D01*
X596616Y787646D01*
X596574Y787670D01*
X596537Y787701D01*
X596467Y787729D01*
X596402Y787766D01*
X596354Y787775D01*
X596308Y787793D01*
X596183Y787806D01*
X596160Y787811D01*
X596153Y787810D01*
X596142Y787811D01*
X53403Y786744D01*
X53356Y786736D01*
X53309Y786738D01*
X53236Y786717D01*
X53160Y786704D01*
X53118Y786682D01*
X53073Y786668D01*
X53010Y786624D01*
X52943Y786588D01*
X52911Y786554D01*
X52872Y786527D01*
X52826Y786465D01*
X52774Y786410D01*
X52754Y786367D01*
X52726Y786329D01*
X52703Y786256D01*
X52671Y786187D01*
X52666Y786140D01*
X52651Y786095D01*
X52652Y786018D01*
X52644Y785942D01*
X52654Y785896D01*
X52655Y785849D01*
X52680Y785777D01*
X52697Y785702D01*
X52721Y785661D01*
X52737Y785617D01*
X52784Y785556D01*
X52823Y785491D01*
X52859Y785460D01*
X52889Y785423D01*
X52995Y785345D01*
X53011Y785331D01*
X53016Y785329D01*
X53024Y785324D01*
X55084Y784134D01*
X60234Y778984D01*
X63876Y772677D01*
X65761Y765642D01*
X65761Y758358D01*
X63876Y751323D01*
X60234Y745016D01*
X55084Y739866D01*
X48777Y736224D01*
X41742Y734339D01*
X34458Y734339D01*
X27423Y736224D01*
X21116Y739866D01*
X15966Y745016D01*
X12324Y751323D01*
X11657Y753813D01*
X11647Y753835D01*
X11643Y753858D01*
X11597Y753946D01*
X11556Y754037D01*
X11540Y754055D01*
X11528Y754076D01*
X11456Y754144D01*
X11389Y754217D01*
X11368Y754229D01*
X11350Y754245D01*
X11260Y754287D01*
X11173Y754335D01*
X11149Y754339D01*
X11127Y754349D01*
X11028Y754360D01*
X10930Y754377D01*
X10906Y754373D01*
X10883Y754376D01*
X10786Y754355D01*
X10687Y754340D01*
X10666Y754329D01*
X10642Y754324D01*
X10557Y754273D01*
X10468Y754227D01*
X10452Y754210D01*
X10431Y754198D01*
X10366Y754122D01*
X10297Y754051D01*
X10287Y754029D01*
X10271Y754011D01*
X10234Y753918D01*
X10191Y753829D01*
X10188Y753805D01*
X10179Y753782D01*
X10161Y753616D01*
X10161Y74230D01*
X10176Y74134D01*
X10186Y74037D01*
X10196Y74013D01*
X10200Y73987D01*
X10246Y73901D01*
X10286Y73812D01*
X10303Y73793D01*
X10316Y73769D01*
X10386Y73702D01*
X10452Y73631D01*
X10475Y73618D01*
X10494Y73600D01*
X10582Y73559D01*
X10668Y73512D01*
X10693Y73507D01*
X10717Y73496D01*
X10814Y73486D01*
X10910Y73468D01*
X10936Y73472D01*
X10961Y73469D01*
X11057Y73490D01*
X11153Y73504D01*
X11176Y73516D01*
X11202Y73522D01*
X11285Y73572D01*
X11372Y73616D01*
X11391Y73634D01*
X11413Y73648D01*
X11476Y73722D01*
X11544Y73791D01*
X11560Y73820D01*
X11573Y73835D01*
X11585Y73865D01*
X11625Y73938D01*
X12458Y75949D01*
X14856Y78347D01*
X17989Y79645D01*
X21381Y79645D01*
X24514Y78347D01*
X26912Y75949D01*
X28210Y72816D01*
X28210Y69424D01*
X26912Y66291D01*
X24514Y63893D01*
X21381Y62595D01*
X17989Y62595D01*
X14856Y63893D01*
X12458Y66291D01*
X11625Y68302D01*
X11574Y68385D01*
X11528Y68471D01*
X11510Y68488D01*
X11496Y68511D01*
X11420Y68573D01*
X11350Y68640D01*
X11326Y68651D01*
X11306Y68668D01*
X11215Y68703D01*
X11127Y68744D01*
X11101Y68746D01*
X11077Y68756D01*
X10979Y68760D01*
X10883Y68771D01*
X10857Y68765D01*
X10831Y68766D01*
X10737Y68739D01*
X10642Y68718D01*
X10620Y68705D01*
X10595Y68698D01*
X10515Y68642D01*
X10431Y68592D01*
X10414Y68572D01*
X10393Y68557D01*
X10334Y68479D01*
X10271Y68405D01*
X10261Y68381D01*
X10246Y68360D01*
X10216Y68268D01*
X10179Y68177D01*
X10176Y68145D01*
X10170Y68126D01*
X10170Y68093D01*
X10161Y68010D01*
X10161Y48830D01*
X10176Y48734D01*
X10186Y48637D01*
X10196Y48613D01*
X10200Y48587D01*
X10246Y48501D01*
X10286Y48412D01*
X10303Y48393D01*
X10316Y48369D01*
X10386Y48302D01*
X10452Y48231D01*
X10475Y48218D01*
X10494Y48200D01*
X10582Y48159D01*
X10668Y48112D01*
X10693Y48107D01*
X10717Y48096D01*
X10814Y48086D01*
X10910Y48068D01*
X10936Y48072D01*
X10961Y48069D01*
X11057Y48090D01*
X11153Y48104D01*
X11176Y48116D01*
X11202Y48122D01*
X11285Y48172D01*
X11372Y48216D01*
X11391Y48234D01*
X11413Y48248D01*
X11476Y48322D01*
X11544Y48391D01*
X11560Y48420D01*
X11573Y48435D01*
X11585Y48465D01*
X11625Y48538D01*
X12458Y50549D01*
X14856Y52947D01*
X17989Y54245D01*
X21381Y54245D01*
X24514Y52947D01*
X26912Y50549D01*
X28210Y47416D01*
X28210Y44024D01*
X26912Y40891D01*
X24514Y38493D01*
X21381Y37195D01*
X17989Y37195D01*
X14856Y38493D01*
X12458Y40891D01*
X11625Y42902D01*
X11574Y42985D01*
X11528Y43071D01*
X11509Y43089D01*
X11496Y43111D01*
X11421Y43173D01*
X11350Y43240D01*
X11326Y43251D01*
X11306Y43268D01*
X11215Y43302D01*
X11127Y43344D01*
X11101Y43346D01*
X11077Y43356D01*
X10979Y43360D01*
X10883Y43371D01*
X10857Y43365D01*
X10831Y43366D01*
X10737Y43339D01*
X10642Y43318D01*
X10620Y43305D01*
X10595Y43298D01*
X10515Y43242D01*
X10431Y43192D01*
X10414Y43172D01*
X10393Y43157D01*
X10334Y43079D01*
X10271Y43005D01*
X10261Y42981D01*
X10246Y42960D01*
X10216Y42868D01*
X10179Y42777D01*
X10176Y42745D01*
X10170Y42726D01*
X10170Y42693D01*
X10161Y42610D01*
X10161Y10943D01*
X10164Y10923D01*
X10162Y10902D01*
X10184Y10802D01*
X10200Y10701D01*
X10210Y10682D01*
X10215Y10662D01*
X10268Y10574D01*
X10316Y10483D01*
X10331Y10469D01*
X10341Y10451D01*
X10419Y10385D01*
X10494Y10314D01*
X10513Y10305D01*
X10528Y10292D01*
X10624Y10254D01*
X10717Y10210D01*
X10738Y10208D01*
X10757Y10200D01*
X10923Y10182D01*
X290442Y10732D01*
G37*
%LPC*%
G36*
X141928Y21843D02*
X141928Y21843D01*
X140365Y23406D01*
X125882Y37889D01*
X125788Y37957D01*
X125694Y38027D01*
X125688Y38029D01*
X125683Y38032D01*
X125571Y38066D01*
X125460Y38103D01*
X125454Y38103D01*
X125448Y38105D01*
X125331Y38101D01*
X125214Y38100D01*
X125207Y38098D01*
X125202Y38098D01*
X125184Y38092D01*
X125053Y38054D01*
X122981Y37195D01*
X119589Y37195D01*
X116456Y38493D01*
X114058Y40891D01*
X112760Y44024D01*
X112760Y47416D01*
X114058Y50549D01*
X116456Y52947D01*
X119589Y54245D01*
X122981Y54245D01*
X126114Y52947D01*
X128512Y50549D01*
X129810Y47416D01*
X129810Y44024D01*
X128951Y41952D01*
X128925Y41838D01*
X128896Y41725D01*
X128897Y41719D01*
X128895Y41713D01*
X128906Y41596D01*
X128915Y41480D01*
X128918Y41474D01*
X128918Y41468D01*
X128966Y41360D01*
X129012Y41253D01*
X129016Y41248D01*
X129018Y41243D01*
X129031Y41229D01*
X129116Y41123D01*
X143599Y26640D01*
X143673Y26587D01*
X143743Y26527D01*
X143773Y26515D01*
X143799Y26496D01*
X143886Y26469D01*
X143971Y26435D01*
X144012Y26431D01*
X144034Y26424D01*
X144066Y26425D01*
X144138Y26417D01*
X202572Y26417D01*
X202663Y26431D01*
X202753Y26439D01*
X202783Y26451D01*
X202815Y26456D01*
X202896Y26499D01*
X202980Y26535D01*
X203012Y26561D01*
X203033Y26572D01*
X203055Y26595D01*
X203111Y26640D01*
X232440Y55969D01*
X232493Y56043D01*
X232553Y56113D01*
X232565Y56143D01*
X232584Y56169D01*
X232611Y56256D01*
X232645Y56341D01*
X232649Y56382D01*
X232656Y56404D01*
X232655Y56436D01*
X232663Y56508D01*
X232663Y79052D01*
X287685Y134074D01*
X288455Y134844D01*
X288497Y134902D01*
X288546Y134954D01*
X288568Y135001D01*
X288598Y135043D01*
X288619Y135112D01*
X288650Y135177D01*
X288655Y135229D01*
X288671Y135279D01*
X288669Y135350D01*
X288677Y135421D01*
X288666Y135472D01*
X288664Y135524D01*
X288640Y135592D01*
X288625Y135662D01*
X288598Y135707D01*
X288580Y135755D01*
X288535Y135811D01*
X288498Y135873D01*
X288459Y135907D01*
X288426Y135947D01*
X288366Y135986D01*
X288311Y136033D01*
X288263Y136052D01*
X288219Y136080D01*
X288150Y136098D01*
X288083Y136125D01*
X288012Y136133D01*
X287981Y136141D01*
X287957Y136139D01*
X287917Y136143D01*
X285742Y136143D01*
X285652Y136129D01*
X285561Y136121D01*
X285532Y136109D01*
X285500Y136104D01*
X285419Y136061D01*
X285335Y136025D01*
X285303Y135999D01*
X285282Y135988D01*
X285260Y135965D01*
X285204Y135920D01*
X233015Y83731D01*
X231452Y82168D01*
X167633Y82168D01*
X167542Y82154D01*
X167452Y82146D01*
X167422Y82134D01*
X167390Y82129D01*
X167309Y82086D01*
X167225Y82050D01*
X167193Y82024D01*
X167172Y82013D01*
X167150Y81990D01*
X167094Y81945D01*
X163800Y78651D01*
X163747Y78577D01*
X163687Y78507D01*
X163675Y78477D01*
X163656Y78451D01*
X163629Y78364D01*
X163595Y78279D01*
X163591Y78238D01*
X163584Y78216D01*
X163585Y78184D01*
X163577Y78112D01*
X163577Y76505D01*
X163588Y76435D01*
X163590Y76363D01*
X163608Y76314D01*
X163616Y76263D01*
X163650Y76199D01*
X163675Y76132D01*
X163707Y76091D01*
X163732Y76045D01*
X163784Y75996D01*
X163828Y75940D01*
X163872Y75912D01*
X163910Y75876D01*
X163975Y75846D01*
X164035Y75807D01*
X164086Y75794D01*
X164133Y75772D01*
X164204Y75764D01*
X164274Y75747D01*
X164326Y75751D01*
X164377Y75745D01*
X164448Y75760D01*
X164519Y75766D01*
X164567Y75786D01*
X164618Y75797D01*
X164679Y75834D01*
X164745Y75862D01*
X164801Y75907D01*
X164829Y75924D01*
X164844Y75941D01*
X164876Y75967D01*
X167256Y78347D01*
X170389Y79645D01*
X173781Y79645D01*
X176914Y78347D01*
X179312Y75949D01*
X180610Y72816D01*
X180610Y69424D01*
X179312Y66291D01*
X176914Y63893D01*
X173781Y62595D01*
X170389Y62595D01*
X167256Y63893D01*
X164876Y66273D01*
X164818Y66315D01*
X164766Y66364D01*
X164719Y66386D01*
X164677Y66416D01*
X164608Y66438D01*
X164543Y66468D01*
X164491Y66474D01*
X164441Y66489D01*
X164370Y66487D01*
X164299Y66495D01*
X164248Y66484D01*
X164196Y66482D01*
X164128Y66458D01*
X164058Y66443D01*
X164013Y66416D01*
X163965Y66398D01*
X163909Y66353D01*
X163847Y66316D01*
X163813Y66277D01*
X163773Y66244D01*
X163734Y66184D01*
X163687Y66130D01*
X163668Y66081D01*
X163640Y66037D01*
X163622Y65968D01*
X163595Y65901D01*
X163587Y65830D01*
X163579Y65799D01*
X163581Y65776D01*
X163577Y65735D01*
X163577Y59378D01*
X154516Y50317D01*
X154449Y50224D01*
X154378Y50129D01*
X154377Y50123D01*
X154373Y50118D01*
X154339Y50007D01*
X154330Y49979D01*
X154327Y49972D01*
X154326Y49968D01*
X154302Y49895D01*
X154302Y49889D01*
X154301Y49883D01*
X154304Y49765D01*
X154304Y49764D01*
X154299Y49728D01*
X154304Y49706D01*
X154305Y49649D01*
X154307Y49642D01*
X154307Y49637D01*
X154313Y49619D01*
X154351Y49488D01*
X155210Y47416D01*
X155210Y44024D01*
X153912Y40891D01*
X151514Y38493D01*
X148381Y37195D01*
X144989Y37195D01*
X141856Y38493D01*
X139458Y40891D01*
X138160Y44024D01*
X138160Y47416D01*
X139458Y50549D01*
X141856Y52947D01*
X144989Y54245D01*
X148381Y54245D01*
X150453Y53386D01*
X150566Y53360D01*
X150680Y53331D01*
X150686Y53332D01*
X150692Y53330D01*
X150809Y53341D01*
X150925Y53350D01*
X150931Y53353D01*
X150937Y53353D01*
X151045Y53401D01*
X151152Y53447D01*
X151157Y53451D01*
X151162Y53453D01*
X151176Y53466D01*
X151282Y53551D01*
X158780Y61049D01*
X158833Y61123D01*
X158893Y61193D01*
X158905Y61223D01*
X158924Y61249D01*
X158951Y61336D01*
X158985Y61421D01*
X158989Y61462D01*
X158996Y61484D01*
X158995Y61516D01*
X159003Y61588D01*
X159003Y80322D01*
X165265Y86584D01*
X165307Y86642D01*
X165356Y86694D01*
X165378Y86741D01*
X165408Y86783D01*
X165429Y86852D01*
X165460Y86917D01*
X165465Y86969D01*
X165481Y87019D01*
X165479Y87090D01*
X165487Y87161D01*
X165476Y87212D01*
X165474Y87264D01*
X165450Y87332D01*
X165435Y87402D01*
X165408Y87447D01*
X165390Y87495D01*
X165345Y87551D01*
X165308Y87613D01*
X165269Y87647D01*
X165236Y87687D01*
X165176Y87726D01*
X165121Y87773D01*
X165073Y87792D01*
X165029Y87820D01*
X164960Y87838D01*
X164893Y87865D01*
X164822Y87873D01*
X164791Y87881D01*
X164767Y87879D01*
X164727Y87883D01*
X118103Y87883D01*
X118012Y87869D01*
X117922Y87861D01*
X117892Y87849D01*
X117860Y87844D01*
X117779Y87801D01*
X117695Y87765D01*
X117663Y87739D01*
X117642Y87728D01*
X117620Y87705D01*
X117564Y87660D01*
X110460Y80556D01*
X110407Y80482D01*
X110347Y80412D01*
X110335Y80382D01*
X110316Y80356D01*
X110289Y80269D01*
X110255Y80184D01*
X110251Y80143D01*
X110244Y80121D01*
X110245Y80089D01*
X110237Y80017D01*
X110237Y52393D01*
X104633Y46789D01*
X104580Y46715D01*
X104520Y46645D01*
X104508Y46615D01*
X104489Y46589D01*
X104462Y46502D01*
X104428Y46417D01*
X104424Y46376D01*
X104417Y46354D01*
X104418Y46322D01*
X104410Y46251D01*
X104410Y44024D01*
X103112Y40891D01*
X100714Y38493D01*
X97581Y37195D01*
X94189Y37195D01*
X91056Y38493D01*
X88658Y40891D01*
X87360Y44024D01*
X87360Y47416D01*
X88658Y50549D01*
X91056Y52947D01*
X94189Y54245D01*
X97581Y54245D01*
X100714Y52947D01*
X101980Y51681D01*
X101996Y51669D01*
X102009Y51653D01*
X102096Y51597D01*
X102180Y51537D01*
X102199Y51531D01*
X102216Y51520D01*
X102316Y51495D01*
X102415Y51465D01*
X102435Y51465D01*
X102454Y51460D01*
X102557Y51468D01*
X102661Y51471D01*
X102680Y51478D01*
X102699Y51480D01*
X102794Y51520D01*
X102892Y51556D01*
X102908Y51568D01*
X102926Y51576D01*
X103057Y51681D01*
X105440Y54064D01*
X105493Y54138D01*
X105553Y54208D01*
X105565Y54238D01*
X105584Y54264D01*
X105611Y54351D01*
X105645Y54436D01*
X105649Y54477D01*
X105656Y54499D01*
X105655Y54531D01*
X105663Y54603D01*
X105663Y68624D01*
X105648Y68720D01*
X105638Y68817D01*
X105628Y68841D01*
X105624Y68866D01*
X105578Y68952D01*
X105538Y69041D01*
X105521Y69061D01*
X105508Y69084D01*
X105438Y69151D01*
X105372Y69222D01*
X105349Y69235D01*
X105330Y69253D01*
X105242Y69294D01*
X105156Y69341D01*
X105131Y69346D01*
X105107Y69357D01*
X105010Y69367D01*
X104914Y69385D01*
X104888Y69381D01*
X104863Y69384D01*
X104767Y69363D01*
X104671Y69349D01*
X104648Y69337D01*
X104622Y69332D01*
X104539Y69282D01*
X104452Y69237D01*
X104433Y69219D01*
X104411Y69205D01*
X104348Y69131D01*
X104280Y69062D01*
X104264Y69033D01*
X104251Y69018D01*
X104239Y68988D01*
X104199Y68915D01*
X103112Y66291D01*
X100714Y63893D01*
X97581Y62595D01*
X94189Y62595D01*
X91056Y63893D01*
X88658Y66291D01*
X87360Y69424D01*
X87360Y72816D01*
X88658Y75949D01*
X91056Y78347D01*
X94189Y79645D01*
X97581Y79645D01*
X100714Y78347D01*
X103112Y75949D01*
X104199Y73325D01*
X104250Y73242D01*
X104296Y73156D01*
X104315Y73138D01*
X104328Y73116D01*
X104403Y73054D01*
X104474Y72987D01*
X104498Y72976D01*
X104518Y72959D01*
X104609Y72924D01*
X104697Y72883D01*
X104723Y72880D01*
X104747Y72871D01*
X104845Y72867D01*
X104941Y72856D01*
X104967Y72862D01*
X104993Y72861D01*
X105087Y72888D01*
X105182Y72908D01*
X105204Y72922D01*
X105229Y72929D01*
X105309Y72985D01*
X105393Y73035D01*
X105410Y73054D01*
X105431Y73069D01*
X105490Y73148D01*
X105553Y73222D01*
X105563Y73246D01*
X105578Y73267D01*
X105608Y73359D01*
X105645Y73450D01*
X105648Y73482D01*
X105654Y73501D01*
X105654Y73534D01*
X105663Y73616D01*
X105663Y82227D01*
X115893Y92457D01*
X226067Y92457D01*
X226158Y92471D01*
X226248Y92479D01*
X226278Y92491D01*
X226310Y92496D01*
X226391Y92539D01*
X226475Y92575D01*
X226507Y92601D01*
X226528Y92612D01*
X226550Y92635D01*
X226606Y92680D01*
X361003Y227077D01*
X387027Y227077D01*
X406584Y207520D01*
X406600Y207509D01*
X406612Y207493D01*
X406700Y207437D01*
X406784Y207377D01*
X406803Y207371D01*
X406819Y207360D01*
X406920Y207335D01*
X407019Y207304D01*
X407039Y207305D01*
X407058Y207300D01*
X407161Y207308D01*
X407264Y207311D01*
X407283Y207318D01*
X407303Y207319D01*
X407398Y207359D01*
X407495Y207395D01*
X407511Y207408D01*
X407529Y207415D01*
X407660Y207520D01*
X408012Y207872D01*
X412408Y207872D01*
X415517Y204763D01*
X415517Y200367D01*
X412408Y197258D01*
X408012Y197258D01*
X404903Y200367D01*
X404903Y202417D01*
X404889Y202508D01*
X404881Y202598D01*
X404869Y202628D01*
X404864Y202660D01*
X404821Y202741D01*
X404785Y202825D01*
X404759Y202857D01*
X404748Y202878D01*
X404725Y202900D01*
X404680Y202956D01*
X385356Y222280D01*
X385282Y222333D01*
X385212Y222393D01*
X385182Y222405D01*
X385156Y222424D01*
X385069Y222451D01*
X384984Y222485D01*
X384943Y222489D01*
X384921Y222496D01*
X384889Y222495D01*
X384817Y222503D01*
X363213Y222503D01*
X363122Y222489D01*
X363032Y222481D01*
X363002Y222469D01*
X362970Y222464D01*
X362889Y222421D01*
X362805Y222385D01*
X362773Y222359D01*
X362752Y222348D01*
X362730Y222325D01*
X362674Y222280D01*
X229840Y89446D01*
X228435Y88041D01*
X228393Y87983D01*
X228344Y87931D01*
X228322Y87884D01*
X228292Y87842D01*
X228271Y87773D01*
X228240Y87708D01*
X228235Y87656D01*
X228219Y87606D01*
X228221Y87535D01*
X228213Y87464D01*
X228224Y87413D01*
X228226Y87361D01*
X228250Y87293D01*
X228265Y87223D01*
X228292Y87178D01*
X228310Y87130D01*
X228355Y87074D01*
X228392Y87012D01*
X228431Y86978D01*
X228464Y86938D01*
X228524Y86899D01*
X228579Y86852D01*
X228627Y86833D01*
X228671Y86805D01*
X228740Y86787D01*
X228807Y86760D01*
X228878Y86752D01*
X228909Y86744D01*
X228933Y86746D01*
X228973Y86742D01*
X229243Y86742D01*
X229333Y86756D01*
X229424Y86764D01*
X229453Y86776D01*
X229485Y86781D01*
X229566Y86824D01*
X229650Y86860D01*
X229682Y86886D01*
X229703Y86897D01*
X229725Y86920D01*
X229781Y86965D01*
X281970Y139154D01*
X283533Y140717D01*
X307347Y140717D01*
X307438Y140731D01*
X307528Y140739D01*
X307558Y140751D01*
X307590Y140756D01*
X307671Y140799D01*
X307755Y140835D01*
X307787Y140861D01*
X307808Y140872D01*
X307830Y140895D01*
X307886Y140940D01*
X329115Y162169D01*
X329168Y162243D01*
X329228Y162313D01*
X329240Y162343D01*
X329259Y162369D01*
X329286Y162456D01*
X329320Y162541D01*
X329324Y162582D01*
X329331Y162604D01*
X329330Y162636D01*
X329338Y162708D01*
X329338Y166663D01*
X332447Y169772D01*
X336843Y169772D01*
X339952Y166663D01*
X339952Y162267D01*
X336843Y159158D01*
X332888Y159158D01*
X332797Y159144D01*
X332707Y159136D01*
X332677Y159124D01*
X332645Y159119D01*
X332564Y159076D01*
X332480Y159040D01*
X332448Y159014D01*
X332427Y159003D01*
X332405Y158980D01*
X332349Y158935D01*
X311120Y137706D01*
X310350Y136936D01*
X310308Y136878D01*
X310259Y136826D01*
X310237Y136779D01*
X310207Y136737D01*
X310186Y136668D01*
X310155Y136603D01*
X310150Y136551D01*
X310134Y136501D01*
X310136Y136430D01*
X310128Y136359D01*
X310139Y136308D01*
X310141Y136256D01*
X310165Y136188D01*
X310180Y136118D01*
X310207Y136073D01*
X310225Y136025D01*
X310270Y135969D01*
X310307Y135907D01*
X310346Y135873D01*
X310379Y135833D01*
X310439Y135794D01*
X310494Y135747D01*
X310542Y135728D01*
X310586Y135700D01*
X310655Y135682D01*
X310722Y135655D01*
X310793Y135647D01*
X310824Y135639D01*
X310848Y135641D01*
X310888Y135637D01*
X342907Y135637D01*
X342998Y135651D01*
X343088Y135659D01*
X343118Y135671D01*
X343150Y135676D01*
X343231Y135719D01*
X343315Y135755D01*
X343347Y135781D01*
X343368Y135792D01*
X343390Y135815D01*
X343446Y135860D01*
X357825Y150239D01*
X357867Y150297D01*
X357916Y150349D01*
X357938Y150396D01*
X357968Y150438D01*
X357989Y150507D01*
X358020Y150572D01*
X358025Y150624D01*
X358041Y150674D01*
X358039Y150745D01*
X358047Y150816D01*
X358036Y150867D01*
X358034Y150919D01*
X358010Y150987D01*
X357995Y151057D01*
X357968Y151102D01*
X357950Y151150D01*
X357905Y151206D01*
X357868Y151268D01*
X357829Y151302D01*
X357796Y151342D01*
X357736Y151381D01*
X357681Y151428D01*
X357633Y151447D01*
X357589Y151475D01*
X357520Y151493D01*
X357453Y151520D01*
X357382Y151528D01*
X357351Y151536D01*
X357327Y151534D01*
X357287Y151538D01*
X353402Y151538D01*
X350293Y154647D01*
X350293Y159043D01*
X353402Y162152D01*
X357798Y162152D01*
X360907Y159043D01*
X360907Y155158D01*
X360918Y155088D01*
X360920Y155016D01*
X360938Y154967D01*
X360946Y154916D01*
X360980Y154852D01*
X361005Y154785D01*
X361037Y154744D01*
X361062Y154698D01*
X361114Y154649D01*
X361158Y154593D01*
X361202Y154565D01*
X361240Y154529D01*
X361305Y154499D01*
X361365Y154460D01*
X361416Y154447D01*
X361463Y154425D01*
X361534Y154417D01*
X361604Y154400D01*
X361656Y154404D01*
X361707Y154398D01*
X361778Y154413D01*
X361849Y154419D01*
X361897Y154439D01*
X361948Y154450D01*
X362009Y154487D01*
X362075Y154515D01*
X362131Y154560D01*
X362159Y154577D01*
X362174Y154594D01*
X362206Y154620D01*
X364520Y156934D01*
X364573Y157008D01*
X364633Y157078D01*
X364645Y157108D01*
X364664Y157134D01*
X364691Y157221D01*
X364725Y157306D01*
X364729Y157347D01*
X364736Y157369D01*
X364735Y157401D01*
X364743Y157473D01*
X364743Y204652D01*
X364729Y204742D01*
X364721Y204833D01*
X364709Y204862D01*
X364704Y204894D01*
X364661Y204975D01*
X364625Y205059D01*
X364599Y205091D01*
X364588Y205112D01*
X364565Y205134D01*
X364520Y205190D01*
X361723Y207987D01*
X361723Y212383D01*
X364832Y215492D01*
X369228Y215492D01*
X372337Y212383D01*
X372337Y207987D01*
X369540Y205190D01*
X369487Y205116D01*
X369427Y205046D01*
X369415Y205016D01*
X369396Y204990D01*
X369369Y204903D01*
X369335Y204818D01*
X369331Y204777D01*
X369324Y204755D01*
X369325Y204723D01*
X369317Y204652D01*
X369317Y155263D01*
X345117Y131063D01*
X291458Y131063D01*
X291367Y131049D01*
X291277Y131041D01*
X291247Y131029D01*
X291215Y131024D01*
X291134Y130981D01*
X291050Y130945D01*
X291018Y130919D01*
X290997Y130908D01*
X290975Y130885D01*
X290919Y130840D01*
X237460Y77381D01*
X237407Y77307D01*
X237347Y77237D01*
X237335Y77207D01*
X237316Y77181D01*
X237289Y77094D01*
X237255Y77009D01*
X237251Y76968D01*
X237244Y76946D01*
X237245Y76914D01*
X237237Y76842D01*
X237237Y54298D01*
X204782Y21843D01*
X141928Y21843D01*
G37*
%LPD*%
%LPC*%
G36*
X292442Y202973D02*
X292442Y202973D01*
X289645Y205770D01*
X289571Y205823D01*
X289501Y205883D01*
X289471Y205895D01*
X289445Y205914D01*
X289358Y205941D01*
X289273Y205975D01*
X289232Y205979D01*
X289210Y205986D01*
X289178Y205985D01*
X289107Y205993D01*
X242893Y205993D01*
X141516Y307370D01*
X141442Y307423D01*
X141372Y307483D01*
X141342Y307495D01*
X141316Y307514D01*
X141229Y307541D01*
X141144Y307575D01*
X141103Y307579D01*
X141081Y307586D01*
X141049Y307585D01*
X140977Y307593D01*
X111578Y307593D01*
X111488Y307579D01*
X111397Y307571D01*
X111368Y307559D01*
X111336Y307554D01*
X111255Y307511D01*
X111171Y307475D01*
X111139Y307449D01*
X111118Y307438D01*
X111096Y307415D01*
X111040Y307370D01*
X108243Y304573D01*
X103847Y304573D01*
X100738Y307682D01*
X100738Y312078D01*
X103847Y315187D01*
X108243Y315187D01*
X111040Y312390D01*
X111114Y312337D01*
X111184Y312277D01*
X111214Y312265D01*
X111240Y312246D01*
X111327Y312219D01*
X111412Y312185D01*
X111453Y312181D01*
X111475Y312174D01*
X111507Y312175D01*
X111578Y312167D01*
X143187Y312167D01*
X244564Y210790D01*
X244638Y210737D01*
X244708Y210677D01*
X244738Y210665D01*
X244764Y210646D01*
X244851Y210619D01*
X244936Y210585D01*
X244977Y210581D01*
X244999Y210574D01*
X245031Y210575D01*
X245103Y210567D01*
X289107Y210567D01*
X289197Y210581D01*
X289288Y210589D01*
X289317Y210601D01*
X289349Y210606D01*
X289430Y210649D01*
X289514Y210685D01*
X289546Y210711D01*
X289567Y210722D01*
X289589Y210745D01*
X289645Y210790D01*
X292442Y213587D01*
X296838Y213587D01*
X299947Y210478D01*
X299947Y206082D01*
X296838Y202973D01*
X292442Y202973D01*
G37*
%LPD*%
%LPC*%
G36*
X168472Y730421D02*
X168472Y730421D01*
X166939Y730920D01*
X165503Y731651D01*
X164199Y732599D01*
X163059Y733739D01*
X162398Y734648D01*
X162342Y734704D01*
X162292Y734766D01*
X162255Y734790D01*
X162224Y734821D01*
X162152Y734856D01*
X162085Y734899D01*
X162042Y734909D01*
X162003Y734929D01*
X161924Y734939D01*
X161847Y734959D01*
X161803Y734955D01*
X161759Y734961D01*
X161681Y734946D01*
X161601Y734940D01*
X161561Y734922D01*
X161517Y734914D01*
X161448Y734874D01*
X161375Y734843D01*
X161329Y734807D01*
X161304Y734792D01*
X161285Y734771D01*
X161244Y734738D01*
X159095Y732590D01*
X155705Y731185D01*
X152035Y731185D01*
X148645Y732590D01*
X146496Y734738D01*
X146431Y734785D01*
X146372Y734838D01*
X146332Y734856D01*
X146296Y734882D01*
X146220Y734905D01*
X146147Y734937D01*
X146103Y734941D01*
X146061Y734954D01*
X145981Y734952D01*
X145902Y734959D01*
X145859Y734949D01*
X145815Y734948D01*
X145740Y734921D01*
X145663Y734902D01*
X145626Y734879D01*
X145584Y734864D01*
X145522Y734814D01*
X145455Y734772D01*
X145415Y734728D01*
X145392Y734710D01*
X145377Y734687D01*
X145342Y734648D01*
X144681Y733739D01*
X143541Y732599D01*
X142237Y731651D01*
X140801Y730920D01*
X139268Y730421D01*
X138393Y730283D01*
X138393Y739648D01*
X138390Y739668D01*
X138392Y739687D01*
X138370Y739789D01*
X138353Y739891D01*
X138344Y739908D01*
X138340Y739928D01*
X138287Y740017D01*
X138238Y740108D01*
X138224Y740122D01*
X138214Y740139D01*
X138135Y740206D01*
X138060Y740277D01*
X138042Y740286D01*
X138027Y740299D01*
X137931Y740337D01*
X137837Y740381D01*
X137817Y740383D01*
X137799Y740391D01*
X137632Y740409D01*
X136108Y740409D01*
X136088Y740406D01*
X136069Y740408D01*
X135967Y740386D01*
X135865Y740369D01*
X135848Y740360D01*
X135828Y740356D01*
X135739Y740303D01*
X135648Y740254D01*
X135634Y740240D01*
X135617Y740230D01*
X135550Y740151D01*
X135479Y740076D01*
X135470Y740058D01*
X135457Y740043D01*
X135418Y739947D01*
X135375Y739853D01*
X135373Y739833D01*
X135365Y739815D01*
X135347Y739648D01*
X135347Y730283D01*
X134472Y730421D01*
X132939Y730920D01*
X131503Y731651D01*
X130199Y732599D01*
X129059Y733739D01*
X128398Y734648D01*
X128342Y734704D01*
X128292Y734766D01*
X128255Y734790D01*
X128224Y734821D01*
X128152Y734856D01*
X128085Y734899D01*
X128042Y734909D01*
X128003Y734929D01*
X127924Y734939D01*
X127847Y734959D01*
X127803Y734955D01*
X127759Y734961D01*
X127681Y734946D01*
X127602Y734940D01*
X127561Y734922D01*
X127517Y734914D01*
X127448Y734874D01*
X127375Y734843D01*
X127330Y734807D01*
X127304Y734792D01*
X127285Y734771D01*
X127244Y734738D01*
X125095Y732590D01*
X121705Y731185D01*
X118035Y731185D01*
X114645Y732590D01*
X112027Y735207D01*
X112006Y735254D01*
X111971Y735292D01*
X111944Y735337D01*
X111888Y735382D01*
X111840Y735435D01*
X111794Y735460D01*
X111754Y735493D01*
X111687Y735519D01*
X111624Y735554D01*
X111573Y735563D01*
X111524Y735582D01*
X111453Y735585D01*
X111382Y735597D01*
X111331Y735590D01*
X111279Y735592D01*
X111210Y735572D01*
X111139Y735562D01*
X111093Y735538D01*
X111043Y735523D01*
X110984Y735482D01*
X110920Y735450D01*
X110883Y735413D01*
X110840Y735383D01*
X110798Y735326D01*
X110747Y735274D01*
X110713Y735211D01*
X110700Y735194D01*
X108095Y732590D01*
X104705Y731185D01*
X101035Y731185D01*
X97645Y732590D01*
X95050Y735185D01*
X93645Y738575D01*
X93645Y742245D01*
X95050Y745635D01*
X97645Y748230D01*
X101035Y749635D01*
X104705Y749635D01*
X108095Y748230D01*
X110713Y745613D01*
X110734Y745566D01*
X110769Y745528D01*
X110796Y745484D01*
X110851Y745438D01*
X110900Y745385D01*
X110946Y745360D01*
X110986Y745327D01*
X111053Y745301D01*
X111115Y745266D01*
X111167Y745257D01*
X111215Y745238D01*
X111287Y745235D01*
X111357Y745223D01*
X111409Y745230D01*
X111461Y745228D01*
X111530Y745248D01*
X111601Y745258D01*
X111647Y745282D01*
X111697Y745296D01*
X111756Y745337D01*
X111820Y745370D01*
X111857Y745407D01*
X111899Y745437D01*
X111942Y745494D01*
X111992Y745545D01*
X112027Y745608D01*
X112040Y745626D01*
X114645Y748230D01*
X118035Y749635D01*
X121705Y749635D01*
X125095Y748230D01*
X127244Y746082D01*
X127309Y746035D01*
X127368Y745982D01*
X127408Y745964D01*
X127444Y745938D01*
X127520Y745915D01*
X127593Y745883D01*
X127637Y745879D01*
X127679Y745866D01*
X127759Y745868D01*
X127838Y745861D01*
X127881Y745871D01*
X127925Y745872D01*
X128000Y745899D01*
X128077Y745918D01*
X128114Y745941D01*
X128156Y745956D01*
X128218Y746006D01*
X128285Y746048D01*
X128325Y746092D01*
X128348Y746110D01*
X128363Y746134D01*
X128398Y746172D01*
X129059Y747081D01*
X130199Y748221D01*
X131503Y749169D01*
X132939Y749900D01*
X134472Y750399D01*
X135347Y750537D01*
X135347Y741172D01*
X135350Y741152D01*
X135348Y741133D01*
X135370Y741031D01*
X135387Y740929D01*
X135396Y740912D01*
X135400Y740892D01*
X135453Y740803D01*
X135502Y740712D01*
X135516Y740698D01*
X135526Y740681D01*
X135605Y740614D01*
X135680Y740543D01*
X135698Y740534D01*
X135713Y740521D01*
X135809Y740483D01*
X135903Y740439D01*
X135923Y740437D01*
X135941Y740429D01*
X136108Y740411D01*
X137632Y740411D01*
X137652Y740414D01*
X137671Y740412D01*
X137773Y740434D01*
X137875Y740451D01*
X137892Y740460D01*
X137912Y740464D01*
X138001Y740517D01*
X138092Y740566D01*
X138106Y740580D01*
X138123Y740590D01*
X138190Y740669D01*
X138261Y740744D01*
X138270Y740762D01*
X138283Y740777D01*
X138322Y740873D01*
X138365Y740967D01*
X138367Y740987D01*
X138375Y741005D01*
X138393Y741172D01*
X138393Y750537D01*
X139268Y750399D01*
X140801Y749900D01*
X142237Y749169D01*
X143541Y748221D01*
X144681Y747081D01*
X145342Y746172D01*
X145398Y746116D01*
X145448Y746054D01*
X145485Y746030D01*
X145516Y745999D01*
X145588Y745964D01*
X145655Y745921D01*
X145698Y745911D01*
X145737Y745891D01*
X145816Y745881D01*
X145893Y745861D01*
X145937Y745865D01*
X145981Y745859D01*
X146059Y745874D01*
X146139Y745880D01*
X146179Y745898D01*
X146223Y745906D01*
X146292Y745946D01*
X146365Y745977D01*
X146411Y746013D01*
X146436Y746028D01*
X146455Y746049D01*
X146496Y746082D01*
X148645Y748230D01*
X152035Y749635D01*
X155705Y749635D01*
X159095Y748230D01*
X161244Y746082D01*
X161309Y746035D01*
X161368Y745982D01*
X161408Y745964D01*
X161444Y745938D01*
X161520Y745915D01*
X161593Y745883D01*
X161637Y745879D01*
X161679Y745866D01*
X161759Y745868D01*
X161838Y745861D01*
X161881Y745871D01*
X161925Y745872D01*
X162000Y745899D01*
X162077Y745918D01*
X162114Y745941D01*
X162156Y745956D01*
X162218Y746006D01*
X162285Y746048D01*
X162325Y746092D01*
X162348Y746110D01*
X162363Y746133D01*
X162398Y746172D01*
X163059Y747081D01*
X164199Y748221D01*
X165503Y749169D01*
X166939Y749900D01*
X168472Y750399D01*
X169347Y750537D01*
X169347Y741172D01*
X169350Y741152D01*
X169348Y741133D01*
X169370Y741031D01*
X169387Y740929D01*
X169396Y740912D01*
X169400Y740892D01*
X169453Y740803D01*
X169502Y740712D01*
X169516Y740698D01*
X169526Y740681D01*
X169605Y740614D01*
X169680Y740543D01*
X169698Y740534D01*
X169713Y740521D01*
X169809Y740483D01*
X169903Y740439D01*
X169923Y740437D01*
X169941Y740429D01*
X170108Y740411D01*
X170871Y740411D01*
X170871Y740409D01*
X170108Y740409D01*
X170088Y740406D01*
X170069Y740408D01*
X169967Y740386D01*
X169865Y740369D01*
X169848Y740360D01*
X169828Y740356D01*
X169739Y740303D01*
X169648Y740254D01*
X169634Y740240D01*
X169617Y740230D01*
X169550Y740151D01*
X169479Y740076D01*
X169470Y740058D01*
X169457Y740043D01*
X169418Y739947D01*
X169375Y739853D01*
X169373Y739833D01*
X169365Y739815D01*
X169347Y739648D01*
X169347Y730283D01*
X168472Y730421D01*
G37*
%LPD*%
%LPC*%
G36*
X549472Y731691D02*
X549472Y731691D01*
X547939Y732190D01*
X546503Y732921D01*
X545199Y733869D01*
X544059Y735009D01*
X543398Y735918D01*
X543342Y735974D01*
X543292Y736036D01*
X543255Y736060D01*
X543224Y736091D01*
X543152Y736126D01*
X543085Y736169D01*
X543042Y736179D01*
X543003Y736199D01*
X542924Y736209D01*
X542847Y736229D01*
X542803Y736225D01*
X542759Y736231D01*
X542681Y736216D01*
X542601Y736210D01*
X542561Y736192D01*
X542517Y736184D01*
X542448Y736144D01*
X542375Y736113D01*
X542329Y736077D01*
X542304Y736062D01*
X542285Y736041D01*
X542244Y736008D01*
X540095Y733860D01*
X536705Y732455D01*
X533035Y732455D01*
X529645Y733860D01*
X527496Y736008D01*
X527431Y736055D01*
X527372Y736108D01*
X527332Y736126D01*
X527296Y736152D01*
X527220Y736175D01*
X527147Y736207D01*
X527103Y736211D01*
X527061Y736224D01*
X526981Y736222D01*
X526902Y736229D01*
X526859Y736219D01*
X526815Y736218D01*
X526740Y736191D01*
X526663Y736172D01*
X526626Y736149D01*
X526584Y736134D01*
X526522Y736084D01*
X526455Y736042D01*
X526415Y735998D01*
X526392Y735980D01*
X526377Y735957D01*
X526342Y735918D01*
X525681Y735009D01*
X524541Y733869D01*
X523237Y732921D01*
X521801Y732190D01*
X520268Y731691D01*
X519393Y731553D01*
X519393Y740918D01*
X519390Y740938D01*
X519392Y740957D01*
X519370Y741059D01*
X519353Y741161D01*
X519344Y741178D01*
X519340Y741198D01*
X519287Y741287D01*
X519238Y741378D01*
X519224Y741392D01*
X519214Y741409D01*
X519135Y741476D01*
X519060Y741547D01*
X519042Y741556D01*
X519027Y741569D01*
X518931Y741607D01*
X518837Y741651D01*
X518817Y741653D01*
X518799Y741661D01*
X518632Y741679D01*
X517108Y741679D01*
X517088Y741676D01*
X517069Y741678D01*
X516967Y741656D01*
X516865Y741639D01*
X516848Y741630D01*
X516828Y741626D01*
X516739Y741573D01*
X516648Y741524D01*
X516634Y741510D01*
X516617Y741500D01*
X516550Y741421D01*
X516479Y741346D01*
X516470Y741328D01*
X516457Y741313D01*
X516418Y741217D01*
X516375Y741123D01*
X516373Y741103D01*
X516365Y741085D01*
X516347Y740918D01*
X516347Y731553D01*
X515472Y731691D01*
X513939Y732190D01*
X512503Y732921D01*
X511199Y733869D01*
X510059Y735009D01*
X509398Y735918D01*
X509342Y735974D01*
X509292Y736036D01*
X509255Y736060D01*
X509224Y736091D01*
X509152Y736126D01*
X509085Y736169D01*
X509042Y736179D01*
X509003Y736199D01*
X508924Y736209D01*
X508847Y736229D01*
X508803Y736225D01*
X508759Y736231D01*
X508681Y736216D01*
X508601Y736210D01*
X508561Y736192D01*
X508517Y736184D01*
X508448Y736144D01*
X508375Y736113D01*
X508329Y736077D01*
X508304Y736062D01*
X508285Y736041D01*
X508244Y736008D01*
X506095Y733860D01*
X502705Y732455D01*
X499035Y732455D01*
X495645Y733860D01*
X493027Y736477D01*
X493006Y736524D01*
X492971Y736562D01*
X492944Y736607D01*
X492888Y736652D01*
X492840Y736705D01*
X492794Y736730D01*
X492754Y736763D01*
X492687Y736789D01*
X492624Y736824D01*
X492573Y736833D01*
X492525Y736852D01*
X492453Y736855D01*
X492382Y736867D01*
X492331Y736860D01*
X492279Y736862D01*
X492210Y736842D01*
X492139Y736832D01*
X492093Y736808D01*
X492043Y736793D01*
X491984Y736753D01*
X491920Y736720D01*
X491883Y736683D01*
X491841Y736653D01*
X491798Y736596D01*
X491747Y736544D01*
X491713Y736482D01*
X491700Y736464D01*
X489095Y733860D01*
X485705Y732455D01*
X482035Y732455D01*
X478645Y733860D01*
X476050Y736455D01*
X474645Y739845D01*
X474645Y743515D01*
X476050Y746905D01*
X478645Y749500D01*
X482035Y750905D01*
X485705Y750905D01*
X489095Y749500D01*
X491713Y746883D01*
X491734Y746836D01*
X491769Y746798D01*
X491796Y746754D01*
X491851Y746708D01*
X491900Y746655D01*
X491945Y746630D01*
X491986Y746597D01*
X492053Y746571D01*
X492116Y746536D01*
X492167Y746527D01*
X492215Y746508D01*
X492287Y746505D01*
X492358Y746493D01*
X492409Y746500D01*
X492461Y746498D01*
X492530Y746518D01*
X492601Y746528D01*
X492647Y746552D01*
X492697Y746566D01*
X492756Y746607D01*
X492820Y746640D01*
X492856Y746677D01*
X492899Y746707D01*
X492942Y746764D01*
X492992Y746816D01*
X493027Y746878D01*
X493040Y746896D01*
X495645Y749500D01*
X499035Y750905D01*
X502705Y750905D01*
X506095Y749500D01*
X508244Y747352D01*
X508309Y747305D01*
X508368Y747252D01*
X508408Y747234D01*
X508444Y747208D01*
X508520Y747185D01*
X508593Y747153D01*
X508637Y747149D01*
X508679Y747136D01*
X508759Y747138D01*
X508838Y747131D01*
X508881Y747141D01*
X508925Y747142D01*
X509000Y747169D01*
X509077Y747188D01*
X509114Y747211D01*
X509156Y747226D01*
X509218Y747276D01*
X509285Y747318D01*
X509325Y747362D01*
X509348Y747380D01*
X509363Y747403D01*
X509398Y747442D01*
X510059Y748351D01*
X511199Y749491D01*
X512503Y750439D01*
X513939Y751170D01*
X515472Y751669D01*
X516347Y751807D01*
X516347Y742442D01*
X516350Y742422D01*
X516348Y742403D01*
X516370Y742301D01*
X516387Y742199D01*
X516396Y742182D01*
X516400Y742162D01*
X516453Y742073D01*
X516502Y741982D01*
X516516Y741968D01*
X516526Y741951D01*
X516605Y741884D01*
X516680Y741813D01*
X516698Y741804D01*
X516713Y741791D01*
X516809Y741753D01*
X516903Y741709D01*
X516923Y741707D01*
X516941Y741699D01*
X517108Y741681D01*
X518632Y741681D01*
X518652Y741684D01*
X518671Y741682D01*
X518773Y741704D01*
X518875Y741721D01*
X518892Y741730D01*
X518912Y741734D01*
X519001Y741787D01*
X519092Y741836D01*
X519106Y741850D01*
X519123Y741860D01*
X519190Y741939D01*
X519261Y742014D01*
X519270Y742032D01*
X519283Y742047D01*
X519322Y742143D01*
X519365Y742237D01*
X519367Y742257D01*
X519375Y742275D01*
X519393Y742442D01*
X519393Y751807D01*
X520268Y751669D01*
X521801Y751170D01*
X523237Y750439D01*
X524541Y749491D01*
X525681Y748351D01*
X526342Y747442D01*
X526398Y747386D01*
X526448Y747324D01*
X526485Y747300D01*
X526516Y747269D01*
X526588Y747234D01*
X526655Y747191D01*
X526698Y747181D01*
X526737Y747161D01*
X526816Y747151D01*
X526893Y747131D01*
X526937Y747135D01*
X526981Y747129D01*
X527059Y747144D01*
X527139Y747150D01*
X527179Y747168D01*
X527223Y747176D01*
X527292Y747216D01*
X527365Y747247D01*
X527411Y747283D01*
X527436Y747298D01*
X527455Y747319D01*
X527496Y747352D01*
X529645Y749500D01*
X533035Y750905D01*
X536705Y750905D01*
X540095Y749500D01*
X542244Y747352D01*
X542309Y747305D01*
X542368Y747252D01*
X542408Y747234D01*
X542444Y747208D01*
X542520Y747185D01*
X542593Y747153D01*
X542637Y747149D01*
X542679Y747136D01*
X542759Y747138D01*
X542838Y747131D01*
X542881Y747141D01*
X542925Y747142D01*
X543000Y747169D01*
X543077Y747188D01*
X543114Y747211D01*
X543156Y747226D01*
X543218Y747276D01*
X543285Y747318D01*
X543325Y747362D01*
X543348Y747380D01*
X543363Y747403D01*
X543398Y747442D01*
X544059Y748351D01*
X545199Y749491D01*
X546503Y750439D01*
X547939Y751170D01*
X549472Y751669D01*
X550347Y751807D01*
X550347Y742442D01*
X550350Y742422D01*
X550348Y742403D01*
X550370Y742301D01*
X550387Y742199D01*
X550396Y742182D01*
X550400Y742162D01*
X550453Y742073D01*
X550502Y741982D01*
X550516Y741968D01*
X550526Y741951D01*
X550605Y741884D01*
X550680Y741813D01*
X550698Y741804D01*
X550713Y741791D01*
X550809Y741753D01*
X550903Y741709D01*
X550923Y741707D01*
X550941Y741699D01*
X551108Y741681D01*
X551871Y741681D01*
X551871Y741679D01*
X551108Y741679D01*
X551088Y741676D01*
X551069Y741678D01*
X550967Y741656D01*
X550865Y741639D01*
X550848Y741630D01*
X550828Y741626D01*
X550739Y741573D01*
X550648Y741524D01*
X550634Y741510D01*
X550617Y741500D01*
X550550Y741421D01*
X550479Y741346D01*
X550470Y741328D01*
X550457Y741313D01*
X550418Y741217D01*
X550375Y741123D01*
X550373Y741103D01*
X550365Y741085D01*
X550347Y740918D01*
X550347Y731553D01*
X549472Y731691D01*
G37*
%LPD*%
%LPC*%
G36*
X34623Y674699D02*
X34623Y674699D01*
X30077Y676583D01*
X26597Y680063D01*
X24713Y684609D01*
X24713Y689531D01*
X26597Y694077D01*
X30077Y697557D01*
X34623Y699441D01*
X39545Y699441D01*
X44091Y697557D01*
X47571Y694077D01*
X49455Y689531D01*
X49455Y684609D01*
X47571Y680063D01*
X44091Y676583D01*
X39545Y674699D01*
X34623Y674699D01*
G37*
%LPD*%
%LPC*%
G36*
X416893Y673429D02*
X416893Y673429D01*
X412347Y675313D01*
X408867Y678793D01*
X406983Y683339D01*
X406983Y688261D01*
X408867Y692807D01*
X412347Y696287D01*
X416893Y698171D01*
X421815Y698171D01*
X426361Y696287D01*
X429841Y692807D01*
X431725Y688261D01*
X431725Y683339D01*
X429841Y678793D01*
X426361Y675313D01*
X421815Y673429D01*
X416893Y673429D01*
G37*
%LPD*%
%LPC*%
G36*
X515194Y162925D02*
X515194Y162925D01*
X512061Y164223D01*
X509663Y166621D01*
X508365Y169754D01*
X508365Y173146D01*
X509663Y176279D01*
X512061Y178677D01*
X515194Y179975D01*
X518586Y179975D01*
X521719Y178677D01*
X524117Y176279D01*
X525415Y173146D01*
X525415Y169754D01*
X524117Y166621D01*
X521719Y164223D01*
X518586Y162925D01*
X515194Y162925D01*
G37*
%LPD*%
%LPC*%
G36*
X489794Y162925D02*
X489794Y162925D01*
X486661Y164223D01*
X484263Y166621D01*
X482965Y169754D01*
X482965Y173146D01*
X484263Y176279D01*
X486661Y178677D01*
X489794Y179975D01*
X493186Y179975D01*
X496319Y178677D01*
X498717Y176279D01*
X500015Y173146D01*
X500015Y169754D01*
X498717Y166621D01*
X496319Y164223D01*
X493186Y162925D01*
X489794Y162925D01*
G37*
%LPD*%
%LPC*%
G36*
X310724Y735060D02*
X310724Y735060D01*
X307591Y736358D01*
X305193Y738756D01*
X303895Y741889D01*
X303895Y745281D01*
X305193Y748414D01*
X307591Y750812D01*
X310724Y752110D01*
X314116Y752110D01*
X317249Y750812D01*
X319647Y748414D01*
X320945Y745281D01*
X320945Y741889D01*
X319647Y738756D01*
X317249Y736358D01*
X314116Y735060D01*
X310724Y735060D01*
G37*
%LPD*%
%LPC*%
G36*
X464394Y162925D02*
X464394Y162925D01*
X461261Y164223D01*
X458863Y166621D01*
X457565Y169754D01*
X457565Y173146D01*
X458863Y176279D01*
X461261Y178677D01*
X464394Y179975D01*
X467786Y179975D01*
X470919Y178677D01*
X473317Y176279D01*
X474615Y173146D01*
X474615Y169754D01*
X473317Y166621D01*
X470919Y164223D01*
X467786Y162925D01*
X464394Y162925D01*
G37*
%LPD*%
%LPC*%
G36*
X438994Y162925D02*
X438994Y162925D01*
X435861Y164223D01*
X433463Y166621D01*
X432165Y169754D01*
X432165Y173146D01*
X433463Y176279D01*
X435861Y178677D01*
X438994Y179975D01*
X442386Y179975D01*
X445519Y178677D01*
X447917Y176279D01*
X449215Y173146D01*
X449215Y169754D01*
X447917Y166621D01*
X445519Y164223D01*
X442386Y162925D01*
X438994Y162925D01*
G37*
%LPD*%
%LPC*%
G36*
X565994Y162925D02*
X565994Y162925D01*
X562861Y164223D01*
X560463Y166621D01*
X559165Y169754D01*
X559165Y173146D01*
X560463Y176279D01*
X562861Y178677D01*
X565994Y179975D01*
X569386Y179975D01*
X572519Y178677D01*
X574917Y176279D01*
X576215Y173146D01*
X576215Y169754D01*
X574917Y166621D01*
X572519Y164223D01*
X569386Y162925D01*
X565994Y162925D01*
G37*
%LPD*%
%LPC*%
G36*
X540594Y162925D02*
X540594Y162925D01*
X537461Y164223D01*
X535063Y166621D01*
X533765Y169754D01*
X533765Y173146D01*
X535063Y176279D01*
X537461Y178677D01*
X540594Y179975D01*
X543986Y179975D01*
X547119Y178677D01*
X549517Y176279D01*
X550815Y173146D01*
X550815Y169754D01*
X549517Y166621D01*
X547119Y164223D01*
X543986Y162925D01*
X540594Y162925D01*
G37*
%LPD*%
%LPC*%
G36*
X552024Y81645D02*
X552024Y81645D01*
X548891Y82943D01*
X546493Y85341D01*
X545195Y88474D01*
X545195Y91866D01*
X546493Y94999D01*
X548891Y97397D01*
X552024Y98695D01*
X555416Y98695D01*
X558549Y97397D01*
X560947Y94999D01*
X562245Y91866D01*
X562245Y88474D01*
X560947Y85341D01*
X558549Y82943D01*
X555416Y81645D01*
X552024Y81645D01*
G37*
%LPD*%
%LPC*%
G36*
X616794Y162925D02*
X616794Y162925D01*
X613661Y164223D01*
X611263Y166621D01*
X609965Y169754D01*
X609965Y173146D01*
X611263Y176279D01*
X613661Y178677D01*
X616794Y179975D01*
X620186Y179975D01*
X623319Y178677D01*
X625717Y176279D01*
X627015Y173146D01*
X627015Y169754D01*
X625717Y166621D01*
X623319Y164223D01*
X620186Y162925D01*
X616794Y162925D01*
G37*
%LPD*%
%LPC*%
G36*
X591394Y162925D02*
X591394Y162925D01*
X588261Y164223D01*
X585863Y166621D01*
X584565Y169754D01*
X584565Y173146D01*
X585863Y176279D01*
X588261Y178677D01*
X591394Y179975D01*
X594786Y179975D01*
X597919Y178677D01*
X600317Y176279D01*
X601615Y173146D01*
X601615Y169754D01*
X600317Y166621D01*
X597919Y164223D01*
X594786Y162925D01*
X591394Y162925D01*
G37*
%LPD*%
%LPC*%
G36*
X126574Y415655D02*
X126574Y415655D01*
X123441Y416953D01*
X121043Y419351D01*
X119745Y422484D01*
X119745Y425876D01*
X121043Y429009D01*
X123441Y431407D01*
X126574Y432705D01*
X129966Y432705D01*
X133099Y431407D01*
X135497Y429009D01*
X136795Y425876D01*
X136795Y422484D01*
X135497Y419351D01*
X133099Y416953D01*
X129966Y415655D01*
X126574Y415655D01*
G37*
%LPD*%
%LPC*%
G36*
X125304Y184515D02*
X125304Y184515D01*
X122171Y185813D01*
X119773Y188211D01*
X118475Y191344D01*
X118475Y194736D01*
X119773Y197869D01*
X122171Y200267D01*
X125304Y201565D01*
X128696Y201565D01*
X131829Y200267D01*
X134227Y197869D01*
X135525Y194736D01*
X135525Y191344D01*
X134227Y188211D01*
X131829Y185813D01*
X128696Y184515D01*
X125304Y184515D01*
G37*
%LPD*%
%LPC*%
G36*
X201504Y184515D02*
X201504Y184515D01*
X198371Y185813D01*
X195973Y188211D01*
X194675Y191344D01*
X194675Y194736D01*
X195973Y197869D01*
X198371Y200267D01*
X201504Y201565D01*
X204896Y201565D01*
X208029Y200267D01*
X210427Y197869D01*
X211725Y194736D01*
X211725Y191344D01*
X210427Y188211D01*
X208029Y185813D01*
X204896Y184515D01*
X201504Y184515D01*
G37*
%LPD*%
%LPC*%
G36*
X150704Y184515D02*
X150704Y184515D01*
X147571Y185813D01*
X145173Y188211D01*
X143875Y191344D01*
X143875Y194736D01*
X145173Y197869D01*
X147571Y200267D01*
X150704Y201565D01*
X154096Y201565D01*
X157229Y200267D01*
X159627Y197869D01*
X160925Y194736D01*
X160925Y191344D01*
X159627Y188211D01*
X157229Y185813D01*
X154096Y184515D01*
X150704Y184515D01*
G37*
%LPD*%
%LPC*%
G36*
X176104Y184515D02*
X176104Y184515D01*
X172971Y185813D01*
X170573Y188211D01*
X169275Y191344D01*
X169275Y194736D01*
X170573Y197869D01*
X172971Y200267D01*
X176104Y201565D01*
X179496Y201565D01*
X182629Y200267D01*
X185027Y197869D01*
X186325Y194736D01*
X186325Y191344D01*
X185027Y188211D01*
X182629Y185813D01*
X179496Y184515D01*
X176104Y184515D01*
G37*
%LPD*%
%LPC*%
G36*
X49104Y184515D02*
X49104Y184515D01*
X45971Y185813D01*
X43573Y188211D01*
X42275Y191344D01*
X42275Y194736D01*
X43573Y197869D01*
X45971Y200267D01*
X49104Y201565D01*
X52496Y201565D01*
X55629Y200267D01*
X58027Y197869D01*
X59325Y194736D01*
X59325Y191344D01*
X58027Y188211D01*
X55629Y185813D01*
X52496Y184515D01*
X49104Y184515D01*
G37*
%LPD*%
%LPC*%
G36*
X99904Y184515D02*
X99904Y184515D01*
X96771Y185813D01*
X94373Y188211D01*
X93075Y191344D01*
X93075Y194736D01*
X94373Y197869D01*
X96771Y200267D01*
X99904Y201565D01*
X103296Y201565D01*
X106429Y200267D01*
X108827Y197869D01*
X110125Y194736D01*
X110125Y191344D01*
X108827Y188211D01*
X106429Y185813D01*
X103296Y184515D01*
X99904Y184515D01*
G37*
%LPD*%
%LPC*%
G36*
X74504Y184515D02*
X74504Y184515D01*
X71371Y185813D01*
X68973Y188211D01*
X67675Y191344D01*
X67675Y194736D01*
X68973Y197869D01*
X71371Y200267D01*
X74504Y201565D01*
X77896Y201565D01*
X81029Y200267D01*
X83427Y197869D01*
X84725Y194736D01*
X84725Y191344D01*
X83427Y188211D01*
X81029Y185813D01*
X77896Y184515D01*
X74504Y184515D01*
G37*
%LPD*%
%LPC*%
G36*
X23704Y184515D02*
X23704Y184515D01*
X20571Y185813D01*
X18173Y188211D01*
X16875Y191344D01*
X16875Y194736D01*
X18173Y197869D01*
X20571Y200267D01*
X23704Y201565D01*
X27096Y201565D01*
X30229Y200267D01*
X32627Y197869D01*
X33925Y194736D01*
X33925Y191344D01*
X32627Y188211D01*
X30229Y185813D01*
X27096Y184515D01*
X23704Y184515D01*
G37*
%LPD*%
%LPC*%
G36*
X565994Y188325D02*
X565994Y188325D01*
X562861Y189623D01*
X560463Y192021D01*
X559165Y195154D01*
X559165Y198546D01*
X560463Y201679D01*
X562861Y204077D01*
X565994Y205375D01*
X569386Y205375D01*
X572519Y204077D01*
X574917Y201679D01*
X576215Y198546D01*
X576215Y195154D01*
X574917Y192021D01*
X572519Y189623D01*
X569386Y188325D01*
X565994Y188325D01*
G37*
%LPD*%
%LPC*%
G36*
X591394Y188325D02*
X591394Y188325D01*
X588261Y189623D01*
X585863Y192021D01*
X584565Y195154D01*
X584565Y198546D01*
X585863Y201679D01*
X588261Y204077D01*
X591394Y205375D01*
X594786Y205375D01*
X597919Y204077D01*
X600317Y201679D01*
X601615Y198546D01*
X601615Y195154D01*
X600317Y192021D01*
X597919Y189623D01*
X594786Y188325D01*
X591394Y188325D01*
G37*
%LPD*%
%LPC*%
G36*
X464394Y188325D02*
X464394Y188325D01*
X461261Y189623D01*
X458863Y192021D01*
X457565Y195154D01*
X457565Y198546D01*
X458863Y201679D01*
X461261Y204077D01*
X464394Y205375D01*
X467786Y205375D01*
X470919Y204077D01*
X473317Y201679D01*
X474615Y198546D01*
X474615Y195154D01*
X473317Y192021D01*
X470919Y189623D01*
X467786Y188325D01*
X464394Y188325D01*
G37*
%LPD*%
%LPC*%
G36*
X526624Y81645D02*
X526624Y81645D01*
X523491Y82943D01*
X521093Y85341D01*
X519795Y88474D01*
X519795Y91866D01*
X521093Y94999D01*
X523491Y97397D01*
X526624Y98695D01*
X530016Y98695D01*
X533149Y97397D01*
X535547Y94999D01*
X536845Y91866D01*
X536845Y88474D01*
X535547Y85341D01*
X533149Y82943D01*
X530016Y81645D01*
X526624Y81645D01*
G37*
%LPD*%
%LPC*%
G36*
X501224Y81645D02*
X501224Y81645D01*
X498091Y82943D01*
X495693Y85341D01*
X494395Y88474D01*
X494395Y91866D01*
X495693Y94999D01*
X498091Y97397D01*
X501224Y98695D01*
X504616Y98695D01*
X507749Y97397D01*
X510147Y94999D01*
X511445Y91866D01*
X511445Y88474D01*
X510147Y85341D01*
X507749Y82943D01*
X504616Y81645D01*
X501224Y81645D01*
G37*
%LPD*%
%LPC*%
G36*
X577424Y81645D02*
X577424Y81645D01*
X574291Y82943D01*
X571893Y85341D01*
X570595Y88474D01*
X570595Y91866D01*
X571893Y94999D01*
X574291Y97397D01*
X577424Y98695D01*
X580816Y98695D01*
X583949Y97397D01*
X586347Y94999D01*
X587645Y91866D01*
X587645Y88474D01*
X586347Y85341D01*
X583949Y82943D01*
X580816Y81645D01*
X577424Y81645D01*
G37*
%LPD*%
%LPC*%
G36*
X23704Y159115D02*
X23704Y159115D01*
X20571Y160413D01*
X18173Y162811D01*
X16875Y165944D01*
X16875Y169336D01*
X18173Y172469D01*
X20571Y174867D01*
X23704Y176165D01*
X27096Y176165D01*
X30229Y174867D01*
X32627Y172469D01*
X33925Y169336D01*
X33925Y165944D01*
X32627Y162811D01*
X30229Y160413D01*
X27096Y159115D01*
X23704Y159115D01*
G37*
%LPD*%
%LPC*%
G36*
X616794Y188325D02*
X616794Y188325D01*
X613661Y189623D01*
X611263Y192021D01*
X609965Y195154D01*
X609965Y198546D01*
X611263Y201679D01*
X613661Y204077D01*
X616794Y205375D01*
X620186Y205375D01*
X623319Y204077D01*
X625717Y201679D01*
X627015Y198546D01*
X627015Y195154D01*
X625717Y192021D01*
X623319Y189623D01*
X620186Y188325D01*
X616794Y188325D01*
G37*
%LPD*%
%LPC*%
G36*
X438994Y188325D02*
X438994Y188325D01*
X435861Y189623D01*
X433463Y192021D01*
X432165Y195154D01*
X432165Y198546D01*
X433463Y201679D01*
X435861Y204077D01*
X438994Y205375D01*
X442386Y205375D01*
X445519Y204077D01*
X447917Y201679D01*
X449215Y198546D01*
X449215Y195154D01*
X447917Y192021D01*
X445519Y189623D01*
X442386Y188325D01*
X438994Y188325D01*
G37*
%LPD*%
%LPC*%
G36*
X99904Y159115D02*
X99904Y159115D01*
X96771Y160413D01*
X94373Y162811D01*
X93075Y165944D01*
X93075Y169336D01*
X94373Y172469D01*
X96771Y174867D01*
X99904Y176165D01*
X103296Y176165D01*
X106429Y174867D01*
X108827Y172469D01*
X110125Y169336D01*
X110125Y165944D01*
X108827Y162811D01*
X106429Y160413D01*
X103296Y159115D01*
X99904Y159115D01*
G37*
%LPD*%
%LPC*%
G36*
X125304Y159115D02*
X125304Y159115D01*
X122171Y160413D01*
X119773Y162811D01*
X118475Y165944D01*
X118475Y169336D01*
X119773Y172469D01*
X122171Y174867D01*
X125304Y176165D01*
X128696Y176165D01*
X131829Y174867D01*
X134227Y172469D01*
X135525Y169336D01*
X135525Y165944D01*
X134227Y162811D01*
X131829Y160413D01*
X128696Y159115D01*
X125304Y159115D01*
G37*
%LPD*%
%LPC*%
G36*
X201504Y159115D02*
X201504Y159115D01*
X198371Y160413D01*
X195973Y162811D01*
X194675Y165944D01*
X194675Y169336D01*
X195973Y172469D01*
X198371Y174867D01*
X201504Y176165D01*
X204896Y176165D01*
X208029Y174867D01*
X210427Y172469D01*
X211725Y169336D01*
X211725Y165944D01*
X210427Y162811D01*
X208029Y160413D01*
X204896Y159115D01*
X201504Y159115D01*
G37*
%LPD*%
%LPC*%
G36*
X150704Y159115D02*
X150704Y159115D01*
X147571Y160413D01*
X145173Y162811D01*
X143875Y165944D01*
X143875Y169336D01*
X145173Y172469D01*
X147571Y174867D01*
X150704Y176165D01*
X154096Y176165D01*
X157229Y174867D01*
X159627Y172469D01*
X160925Y169336D01*
X160925Y165944D01*
X159627Y162811D01*
X157229Y160413D01*
X154096Y159115D01*
X150704Y159115D01*
G37*
%LPD*%
%LPC*%
G36*
X489794Y188325D02*
X489794Y188325D01*
X486661Y189623D01*
X484263Y192021D01*
X482965Y195154D01*
X482965Y198546D01*
X484263Y201679D01*
X486661Y204077D01*
X489794Y205375D01*
X493186Y205375D01*
X496319Y204077D01*
X498717Y201679D01*
X500015Y198546D01*
X500015Y195154D01*
X498717Y192021D01*
X496319Y189623D01*
X493186Y188325D01*
X489794Y188325D01*
G37*
%LPD*%
%LPC*%
G36*
X515194Y188325D02*
X515194Y188325D01*
X512061Y189623D01*
X509663Y192021D01*
X508365Y195154D01*
X508365Y198546D01*
X509663Y201679D01*
X512061Y204077D01*
X515194Y205375D01*
X518586Y205375D01*
X521719Y204077D01*
X524117Y201679D01*
X525415Y198546D01*
X525415Y195154D01*
X524117Y192021D01*
X521719Y189623D01*
X518586Y188325D01*
X515194Y188325D01*
G37*
%LPD*%
%LPC*%
G36*
X346284Y639175D02*
X346284Y639175D01*
X343151Y640473D01*
X340753Y642871D01*
X339455Y646004D01*
X339455Y649396D01*
X340753Y652529D01*
X343151Y654927D01*
X346284Y656225D01*
X349676Y656225D01*
X352809Y654927D01*
X355207Y652529D01*
X356505Y649396D01*
X356505Y646004D01*
X355207Y642871D01*
X352809Y640473D01*
X349676Y639175D01*
X346284Y639175D01*
G37*
%LPD*%
%LPC*%
G36*
X74504Y159115D02*
X74504Y159115D01*
X71371Y160413D01*
X68973Y162811D01*
X67675Y165944D01*
X67675Y169336D01*
X68973Y172469D01*
X71371Y174867D01*
X74504Y176165D01*
X77896Y176165D01*
X81029Y174867D01*
X83427Y172469D01*
X84725Y169336D01*
X84725Y165944D01*
X83427Y162811D01*
X81029Y160413D01*
X77896Y159115D01*
X74504Y159115D01*
G37*
%LPD*%
%LPC*%
G36*
X540594Y188325D02*
X540594Y188325D01*
X537461Y189623D01*
X535063Y192021D01*
X533765Y195154D01*
X533765Y198546D01*
X535063Y201679D01*
X537461Y204077D01*
X540594Y205375D01*
X543986Y205375D01*
X547119Y204077D01*
X549517Y201679D01*
X550815Y198546D01*
X550815Y195154D01*
X549517Y192021D01*
X547119Y189623D01*
X543986Y188325D01*
X540594Y188325D01*
G37*
%LPD*%
%LPC*%
G36*
X126574Y616315D02*
X126574Y616315D01*
X123441Y617613D01*
X121043Y620011D01*
X119745Y623144D01*
X119745Y626536D01*
X121043Y629669D01*
X123441Y632067D01*
X126574Y633365D01*
X129966Y633365D01*
X133099Y632067D01*
X135497Y629669D01*
X136795Y626536D01*
X136795Y623144D01*
X135497Y620011D01*
X133099Y617613D01*
X129966Y616315D01*
X126574Y616315D01*
G37*
%LPD*%
%LPC*%
G36*
X515194Y615045D02*
X515194Y615045D01*
X512061Y616343D01*
X509663Y618741D01*
X508365Y621874D01*
X508365Y625266D01*
X509663Y628399D01*
X512061Y630797D01*
X515194Y632095D01*
X518586Y632095D01*
X521719Y630797D01*
X524117Y628399D01*
X525415Y625266D01*
X525415Y621874D01*
X524117Y618741D01*
X521719Y616343D01*
X518586Y615045D01*
X515194Y615045D01*
G37*
%LPD*%
%LPC*%
G36*
X176104Y159115D02*
X176104Y159115D01*
X172971Y160413D01*
X170573Y162811D01*
X169275Y165944D01*
X169275Y169336D01*
X170573Y172469D01*
X172971Y174867D01*
X176104Y176165D01*
X179496Y176165D01*
X182629Y174867D01*
X185027Y172469D01*
X186325Y169336D01*
X186325Y165944D01*
X185027Y162811D01*
X182629Y160413D01*
X179496Y159115D01*
X176104Y159115D01*
G37*
%LPD*%
%LPC*%
G36*
X49104Y159115D02*
X49104Y159115D01*
X45971Y160413D01*
X43573Y162811D01*
X42275Y165944D01*
X42275Y169336D01*
X43573Y172469D01*
X45971Y174867D01*
X49104Y176165D01*
X52496Y176165D01*
X55629Y174867D01*
X58027Y172469D01*
X59325Y169336D01*
X59325Y165944D01*
X58027Y162811D01*
X55629Y160413D01*
X52496Y159115D01*
X49104Y159115D01*
G37*
%LPD*%
%LPC*%
G36*
X296119Y503920D02*
X296119Y503920D01*
X292986Y505218D01*
X290588Y507616D01*
X289290Y510749D01*
X289290Y514141D01*
X290588Y517274D01*
X292986Y519672D01*
X296119Y520970D01*
X299511Y520970D01*
X302644Y519672D01*
X305042Y517274D01*
X306340Y514141D01*
X306340Y510749D01*
X305042Y507616D01*
X302644Y505218D01*
X299511Y503920D01*
X296119Y503920D01*
G37*
%LPD*%
%LPC*%
G36*
X126574Y501915D02*
X126574Y501915D01*
X123441Y503213D01*
X121043Y505611D01*
X119745Y508744D01*
X119745Y512136D01*
X121043Y515269D01*
X123441Y517667D01*
X126574Y518965D01*
X129966Y518965D01*
X133099Y517667D01*
X135497Y515269D01*
X136795Y512136D01*
X136795Y508744D01*
X135497Y505611D01*
X133099Y503213D01*
X129966Y501915D01*
X126574Y501915D01*
G37*
%LPD*%
%LPC*%
G36*
X515194Y500645D02*
X515194Y500645D01*
X512061Y501943D01*
X509663Y504341D01*
X508365Y507474D01*
X508365Y510866D01*
X509663Y513999D01*
X512061Y516397D01*
X515194Y517695D01*
X518586Y517695D01*
X521719Y516397D01*
X524117Y513999D01*
X525415Y510866D01*
X525415Y507474D01*
X524117Y504341D01*
X521719Y501943D01*
X518586Y500645D01*
X515194Y500645D01*
G37*
%LPD*%
%LPC*%
G36*
X151974Y415655D02*
X151974Y415655D01*
X148841Y416953D01*
X146443Y419351D01*
X145145Y422484D01*
X145145Y425876D01*
X146443Y429009D01*
X148841Y431407D01*
X151974Y432705D01*
X155366Y432705D01*
X158499Y431407D01*
X160897Y429009D01*
X162195Y425876D01*
X162195Y422484D01*
X160897Y419351D01*
X158499Y416953D01*
X155366Y415655D01*
X151974Y415655D01*
G37*
%LPD*%
%LPC*%
G36*
X195789Y62595D02*
X195789Y62595D01*
X192656Y63893D01*
X190258Y66291D01*
X188960Y69424D01*
X188960Y72816D01*
X190258Y75949D01*
X192656Y78347D01*
X195789Y79645D01*
X199181Y79645D01*
X202314Y78347D01*
X204712Y75949D01*
X206010Y72816D01*
X206010Y69424D01*
X204712Y66291D01*
X202314Y63893D01*
X199181Y62595D01*
X195789Y62595D01*
G37*
%LPD*%
%LPC*%
G36*
X202774Y415655D02*
X202774Y415655D01*
X199641Y416953D01*
X197243Y419351D01*
X195945Y422484D01*
X195945Y425876D01*
X197243Y429009D01*
X199641Y431407D01*
X202774Y432705D01*
X206166Y432705D01*
X209299Y431407D01*
X211697Y429009D01*
X212995Y425876D01*
X212995Y422484D01*
X211697Y419351D01*
X209299Y416953D01*
X206166Y415655D01*
X202774Y415655D01*
G37*
%LPD*%
%LPC*%
G36*
X177374Y415655D02*
X177374Y415655D01*
X174241Y416953D01*
X171843Y419351D01*
X170545Y422484D01*
X170545Y425876D01*
X171843Y429009D01*
X174241Y431407D01*
X177374Y432705D01*
X180766Y432705D01*
X183899Y431407D01*
X186297Y429009D01*
X187595Y425876D01*
X187595Y422484D01*
X186297Y419351D01*
X183899Y416953D01*
X180766Y415655D01*
X177374Y415655D01*
G37*
%LPD*%
%LPC*%
G36*
X101174Y415655D02*
X101174Y415655D01*
X98041Y416953D01*
X95643Y419351D01*
X94345Y422484D01*
X94345Y425876D01*
X95643Y429009D01*
X98041Y431407D01*
X101174Y432705D01*
X104566Y432705D01*
X107699Y431407D01*
X110097Y429009D01*
X111395Y425876D01*
X111395Y422484D01*
X110097Y419351D01*
X107699Y416953D01*
X104566Y415655D01*
X101174Y415655D01*
G37*
%LPD*%
%LPC*%
G36*
X75774Y415655D02*
X75774Y415655D01*
X72641Y416953D01*
X70243Y419351D01*
X68945Y422484D01*
X68945Y425876D01*
X70243Y429009D01*
X72641Y431407D01*
X75774Y432705D01*
X79166Y432705D01*
X82299Y431407D01*
X84697Y429009D01*
X85995Y425876D01*
X85995Y422484D01*
X84697Y419351D01*
X82299Y416953D01*
X79166Y415655D01*
X75774Y415655D01*
G37*
%LPD*%
%LPC*%
G36*
X50374Y415655D02*
X50374Y415655D01*
X47241Y416953D01*
X44843Y419351D01*
X43545Y422484D01*
X43545Y425876D01*
X44843Y429009D01*
X47241Y431407D01*
X50374Y432705D01*
X53766Y432705D01*
X56899Y431407D01*
X59297Y429009D01*
X60595Y425876D01*
X60595Y422484D01*
X59297Y419351D01*
X56899Y416953D01*
X53766Y415655D01*
X50374Y415655D01*
G37*
%LPD*%
%LPC*%
G36*
X24974Y415655D02*
X24974Y415655D01*
X21841Y416953D01*
X19443Y419351D01*
X18145Y422484D01*
X18145Y425876D01*
X19443Y429009D01*
X21841Y431407D01*
X24974Y432705D01*
X28366Y432705D01*
X31499Y431407D01*
X33897Y429009D01*
X35195Y425876D01*
X35195Y422484D01*
X33897Y419351D01*
X31499Y416953D01*
X28366Y415655D01*
X24974Y415655D01*
G37*
%LPD*%
%LPC*%
G36*
X541864Y414385D02*
X541864Y414385D01*
X538731Y415683D01*
X536333Y418081D01*
X535035Y421214D01*
X535035Y424606D01*
X536333Y427739D01*
X538731Y430137D01*
X541864Y431435D01*
X545256Y431435D01*
X548389Y430137D01*
X550787Y427739D01*
X552085Y424606D01*
X552085Y421214D01*
X550787Y418081D01*
X548389Y415683D01*
X545256Y414385D01*
X541864Y414385D01*
G37*
%LPD*%
%LPC*%
G36*
X592664Y414385D02*
X592664Y414385D01*
X589531Y415683D01*
X587133Y418081D01*
X585835Y421214D01*
X585835Y424606D01*
X587133Y427739D01*
X589531Y430137D01*
X592664Y431435D01*
X596056Y431435D01*
X599189Y430137D01*
X601587Y427739D01*
X602885Y424606D01*
X602885Y421214D01*
X601587Y418081D01*
X599189Y415683D01*
X596056Y414385D01*
X592664Y414385D01*
G37*
%LPD*%
%LPC*%
G36*
X567264Y414385D02*
X567264Y414385D01*
X564131Y415683D01*
X561733Y418081D01*
X560435Y421214D01*
X560435Y424606D01*
X561733Y427739D01*
X564131Y430137D01*
X567264Y431435D01*
X570656Y431435D01*
X573789Y430137D01*
X576187Y427739D01*
X577485Y424606D01*
X577485Y421214D01*
X576187Y418081D01*
X573789Y415683D01*
X570656Y414385D01*
X567264Y414385D01*
G37*
%LPD*%
%LPC*%
G36*
X618064Y414385D02*
X618064Y414385D01*
X614931Y415683D01*
X612533Y418081D01*
X611235Y421214D01*
X611235Y424606D01*
X612533Y427739D01*
X614931Y430137D01*
X618064Y431435D01*
X621456Y431435D01*
X624589Y430137D01*
X626987Y427739D01*
X628285Y424606D01*
X628285Y421214D01*
X626987Y418081D01*
X624589Y415683D01*
X621456Y414385D01*
X618064Y414385D01*
G37*
%LPD*%
%LPC*%
G36*
X440264Y414385D02*
X440264Y414385D01*
X437131Y415683D01*
X434733Y418081D01*
X433435Y421214D01*
X433435Y424606D01*
X434733Y427739D01*
X437131Y430137D01*
X440264Y431435D01*
X443656Y431435D01*
X446789Y430137D01*
X449187Y427739D01*
X450485Y424606D01*
X450485Y421214D01*
X449187Y418081D01*
X446789Y415683D01*
X443656Y414385D01*
X440264Y414385D01*
G37*
%LPD*%
%LPC*%
G36*
X491064Y414385D02*
X491064Y414385D01*
X487931Y415683D01*
X485533Y418081D01*
X484235Y421214D01*
X484235Y424606D01*
X485533Y427739D01*
X487931Y430137D01*
X491064Y431435D01*
X494456Y431435D01*
X497589Y430137D01*
X499987Y427739D01*
X501285Y424606D01*
X501285Y421214D01*
X499987Y418081D01*
X497589Y415683D01*
X494456Y414385D01*
X491064Y414385D01*
G37*
%LPD*%
%LPC*%
G36*
X465664Y414385D02*
X465664Y414385D01*
X462531Y415683D01*
X460133Y418081D01*
X458835Y421214D01*
X458835Y424606D01*
X460133Y427739D01*
X462531Y430137D01*
X465664Y431435D01*
X469056Y431435D01*
X472189Y430137D01*
X474587Y427739D01*
X475885Y424606D01*
X475885Y421214D01*
X474587Y418081D01*
X472189Y415683D01*
X469056Y414385D01*
X465664Y414385D01*
G37*
%LPD*%
%LPC*%
G36*
X516464Y414385D02*
X516464Y414385D01*
X513331Y415683D01*
X510933Y418081D01*
X509635Y421214D01*
X509635Y424606D01*
X510933Y427739D01*
X513331Y430137D01*
X516464Y431435D01*
X519856Y431435D01*
X522989Y430137D01*
X525387Y427739D01*
X526685Y424606D01*
X526685Y421214D01*
X525387Y418081D01*
X522989Y415683D01*
X519856Y414385D01*
X516464Y414385D01*
G37*
%LPD*%
%LPC*%
G36*
X491064Y388985D02*
X491064Y388985D01*
X487931Y390283D01*
X485533Y392681D01*
X484235Y395814D01*
X484235Y399206D01*
X485533Y402339D01*
X487931Y404737D01*
X491064Y406035D01*
X494456Y406035D01*
X497589Y404737D01*
X499987Y402339D01*
X501285Y399206D01*
X501285Y395814D01*
X499987Y392681D01*
X497589Y390283D01*
X494456Y388985D01*
X491064Y388985D01*
G37*
%LPD*%
%LPC*%
G36*
X101174Y390255D02*
X101174Y390255D01*
X98041Y391553D01*
X95643Y393951D01*
X94345Y397084D01*
X94345Y400476D01*
X95643Y403609D01*
X98041Y406007D01*
X101174Y407305D01*
X104566Y407305D01*
X107699Y406007D01*
X110097Y403609D01*
X111395Y400476D01*
X111395Y397084D01*
X110097Y393951D01*
X107699Y391553D01*
X104566Y390255D01*
X101174Y390255D01*
G37*
%LPD*%
%LPC*%
G36*
X202774Y390255D02*
X202774Y390255D01*
X199641Y391553D01*
X197243Y393951D01*
X195945Y397084D01*
X195945Y400476D01*
X197243Y403609D01*
X199641Y406007D01*
X202774Y407305D01*
X206166Y407305D01*
X209299Y406007D01*
X211697Y403609D01*
X212995Y400476D01*
X212995Y397084D01*
X211697Y393951D01*
X209299Y391553D01*
X206166Y390255D01*
X202774Y390255D01*
G37*
%LPD*%
%LPC*%
G36*
X151974Y390255D02*
X151974Y390255D01*
X148841Y391553D01*
X146443Y393951D01*
X145145Y397084D01*
X145145Y400476D01*
X146443Y403609D01*
X148841Y406007D01*
X151974Y407305D01*
X155366Y407305D01*
X158499Y406007D01*
X160897Y403609D01*
X162195Y400476D01*
X162195Y397084D01*
X160897Y393951D01*
X158499Y391553D01*
X155366Y390255D01*
X151974Y390255D01*
G37*
%LPD*%
%LPC*%
G36*
X126574Y390255D02*
X126574Y390255D01*
X123441Y391553D01*
X121043Y393951D01*
X119745Y397084D01*
X119745Y400476D01*
X121043Y403609D01*
X123441Y406007D01*
X126574Y407305D01*
X129966Y407305D01*
X133099Y406007D01*
X135497Y403609D01*
X136795Y400476D01*
X136795Y397084D01*
X135497Y393951D01*
X133099Y391553D01*
X129966Y390255D01*
X126574Y390255D01*
G37*
%LPD*%
%LPC*%
G36*
X75774Y390255D02*
X75774Y390255D01*
X72641Y391553D01*
X70243Y393951D01*
X68945Y397084D01*
X68945Y400476D01*
X70243Y403609D01*
X72641Y406007D01*
X75774Y407305D01*
X79166Y407305D01*
X82299Y406007D01*
X84697Y403609D01*
X85995Y400476D01*
X85995Y397084D01*
X84697Y393951D01*
X82299Y391553D01*
X79166Y390255D01*
X75774Y390255D01*
G37*
%LPD*%
%LPC*%
G36*
X50374Y390255D02*
X50374Y390255D01*
X47241Y391553D01*
X44843Y393951D01*
X43545Y397084D01*
X43545Y400476D01*
X44843Y403609D01*
X47241Y406007D01*
X50374Y407305D01*
X53766Y407305D01*
X56899Y406007D01*
X59297Y403609D01*
X60595Y400476D01*
X60595Y397084D01*
X59297Y393951D01*
X56899Y391553D01*
X53766Y390255D01*
X50374Y390255D01*
G37*
%LPD*%
%LPC*%
G36*
X177374Y390255D02*
X177374Y390255D01*
X174241Y391553D01*
X171843Y393951D01*
X170545Y397084D01*
X170545Y400476D01*
X171843Y403609D01*
X174241Y406007D01*
X177374Y407305D01*
X180766Y407305D01*
X183899Y406007D01*
X186297Y403609D01*
X187595Y400476D01*
X187595Y397084D01*
X186297Y393951D01*
X183899Y391553D01*
X180766Y390255D01*
X177374Y390255D01*
G37*
%LPD*%
%LPC*%
G36*
X24974Y390255D02*
X24974Y390255D01*
X21841Y391553D01*
X19443Y393951D01*
X18145Y397084D01*
X18145Y400476D01*
X19443Y403609D01*
X21841Y406007D01*
X24974Y407305D01*
X28366Y407305D01*
X31499Y406007D01*
X33897Y403609D01*
X35195Y400476D01*
X35195Y397084D01*
X33897Y393951D01*
X31499Y391553D01*
X28366Y390255D01*
X24974Y390255D01*
G37*
%LPD*%
%LPC*%
G36*
X465664Y388985D02*
X465664Y388985D01*
X462531Y390283D01*
X460133Y392681D01*
X458835Y395814D01*
X458835Y399206D01*
X460133Y402339D01*
X462531Y404737D01*
X465664Y406035D01*
X469056Y406035D01*
X472189Y404737D01*
X474587Y402339D01*
X475885Y399206D01*
X475885Y395814D01*
X474587Y392681D01*
X472189Y390283D01*
X469056Y388985D01*
X465664Y388985D01*
G37*
%LPD*%
%LPC*%
G36*
X440264Y388985D02*
X440264Y388985D01*
X437131Y390283D01*
X434733Y392681D01*
X433435Y395814D01*
X433435Y399206D01*
X434733Y402339D01*
X437131Y404737D01*
X440264Y406035D01*
X443656Y406035D01*
X446789Y404737D01*
X449187Y402339D01*
X450485Y399206D01*
X450485Y395814D01*
X449187Y392681D01*
X446789Y390283D01*
X443656Y388985D01*
X440264Y388985D01*
G37*
%LPD*%
%LPC*%
G36*
X618064Y388985D02*
X618064Y388985D01*
X614931Y390283D01*
X612533Y392681D01*
X611235Y395814D01*
X611235Y399206D01*
X612533Y402339D01*
X614931Y404737D01*
X618064Y406035D01*
X621456Y406035D01*
X624589Y404737D01*
X626987Y402339D01*
X628285Y399206D01*
X628285Y395814D01*
X626987Y392681D01*
X624589Y390283D01*
X621456Y388985D01*
X618064Y388985D01*
G37*
%LPD*%
%LPC*%
G36*
X592664Y388985D02*
X592664Y388985D01*
X589531Y390283D01*
X587133Y392681D01*
X585835Y395814D01*
X585835Y399206D01*
X587133Y402339D01*
X589531Y404737D01*
X592664Y406035D01*
X596056Y406035D01*
X599189Y404737D01*
X601587Y402339D01*
X602885Y399206D01*
X602885Y395814D01*
X601587Y392681D01*
X599189Y390283D01*
X596056Y388985D01*
X592664Y388985D01*
G37*
%LPD*%
%LPC*%
G36*
X567264Y388985D02*
X567264Y388985D01*
X564131Y390283D01*
X561733Y392681D01*
X560435Y395814D01*
X560435Y399206D01*
X561733Y402339D01*
X564131Y404737D01*
X567264Y406035D01*
X570656Y406035D01*
X573789Y404737D01*
X576187Y402339D01*
X577485Y399206D01*
X577485Y395814D01*
X576187Y392681D01*
X573789Y390283D01*
X570656Y388985D01*
X567264Y388985D01*
G37*
%LPD*%
%LPC*%
G36*
X541864Y388985D02*
X541864Y388985D01*
X538731Y390283D01*
X536333Y392681D01*
X535035Y395814D01*
X535035Y399206D01*
X536333Y402339D01*
X538731Y404737D01*
X541864Y406035D01*
X545256Y406035D01*
X548389Y404737D01*
X550787Y402339D01*
X552085Y399206D01*
X552085Y395814D01*
X550787Y392681D01*
X548389Y390283D01*
X545256Y388985D01*
X541864Y388985D01*
G37*
%LPD*%
%LPC*%
G36*
X516464Y388985D02*
X516464Y388985D01*
X513331Y390283D01*
X510933Y392681D01*
X509635Y395814D01*
X509635Y399206D01*
X510933Y402339D01*
X513331Y404737D01*
X516464Y406035D01*
X519856Y406035D01*
X522989Y404737D01*
X525387Y402339D01*
X526685Y399206D01*
X526685Y395814D01*
X525387Y392681D01*
X522989Y390283D01*
X519856Y388985D01*
X516464Y388985D01*
G37*
%LPD*%
%LPC*%
G36*
X43389Y37195D02*
X43389Y37195D01*
X40256Y38493D01*
X37858Y40891D01*
X36560Y44024D01*
X36560Y47416D01*
X37858Y50549D01*
X40256Y52947D01*
X43389Y54245D01*
X46781Y54245D01*
X49914Y52947D01*
X52312Y50549D01*
X53610Y47416D01*
X53610Y44024D01*
X52312Y40891D01*
X49914Y38493D01*
X46781Y37195D01*
X43389Y37195D01*
G37*
%LPD*%
%LPC*%
G36*
X68789Y37195D02*
X68789Y37195D01*
X65656Y38493D01*
X63258Y40891D01*
X61960Y44024D01*
X61960Y47416D01*
X63258Y50549D01*
X65656Y52947D01*
X68789Y54245D01*
X72181Y54245D01*
X75314Y52947D01*
X77712Y50549D01*
X79010Y47416D01*
X79010Y44024D01*
X77712Y40891D01*
X75314Y38493D01*
X72181Y37195D01*
X68789Y37195D01*
G37*
%LPD*%
%LPC*%
G36*
X170389Y37195D02*
X170389Y37195D01*
X167256Y38493D01*
X164858Y40891D01*
X163560Y44024D01*
X163560Y47416D01*
X164858Y50549D01*
X167256Y52947D01*
X170389Y54245D01*
X173781Y54245D01*
X176914Y52947D01*
X179312Y50549D01*
X180610Y47416D01*
X180610Y44024D01*
X179312Y40891D01*
X176914Y38493D01*
X173781Y37195D01*
X170389Y37195D01*
G37*
%LPD*%
%LPC*%
G36*
X68789Y62595D02*
X68789Y62595D01*
X65656Y63893D01*
X63258Y66291D01*
X61960Y69424D01*
X61960Y72816D01*
X63258Y75949D01*
X65656Y78347D01*
X68789Y79645D01*
X72181Y79645D01*
X75314Y78347D01*
X77712Y75949D01*
X79010Y72816D01*
X79010Y69424D01*
X77712Y66291D01*
X75314Y63893D01*
X72181Y62595D01*
X68789Y62595D01*
G37*
%LPD*%
%LPC*%
G36*
X119589Y62595D02*
X119589Y62595D01*
X116456Y63893D01*
X114058Y66291D01*
X112760Y69424D01*
X112760Y72816D01*
X114058Y75949D01*
X116456Y78347D01*
X119589Y79645D01*
X122981Y79645D01*
X126114Y78347D01*
X128512Y75949D01*
X129810Y72816D01*
X129810Y69424D01*
X128512Y66291D01*
X126114Y63893D01*
X122981Y62595D01*
X119589Y62595D01*
G37*
%LPD*%
%LPC*%
G36*
X144989Y62595D02*
X144989Y62595D01*
X141856Y63893D01*
X139458Y66291D01*
X138160Y69424D01*
X138160Y72816D01*
X139458Y75949D01*
X141856Y78347D01*
X144989Y79645D01*
X148381Y79645D01*
X151514Y78347D01*
X153912Y75949D01*
X155210Y72816D01*
X155210Y69424D01*
X153912Y66291D01*
X151514Y63893D01*
X148381Y62595D01*
X144989Y62595D01*
G37*
%LPD*%
%LPC*%
G36*
X43389Y62595D02*
X43389Y62595D01*
X40256Y63893D01*
X37858Y66291D01*
X36560Y69424D01*
X36560Y72816D01*
X37858Y75949D01*
X40256Y78347D01*
X43389Y79645D01*
X46781Y79645D01*
X49914Y78347D01*
X52312Y75949D01*
X53610Y72816D01*
X53610Y69424D01*
X52312Y66291D01*
X49914Y63893D01*
X46781Y62595D01*
X43389Y62595D01*
G37*
%LPD*%
%LPC*%
G36*
X602824Y81645D02*
X602824Y81645D01*
X599691Y82943D01*
X597293Y85341D01*
X595995Y88474D01*
X595995Y91866D01*
X597293Y94999D01*
X599691Y97397D01*
X602824Y98695D01*
X606216Y98695D01*
X609349Y97397D01*
X611747Y94999D01*
X613045Y91866D01*
X613045Y88474D01*
X611747Y85341D01*
X609349Y82943D01*
X606216Y81645D01*
X602824Y81645D01*
G37*
%LPD*%
%LPC*%
G36*
X453732Y281078D02*
X453732Y281078D01*
X450623Y284187D01*
X450623Y288583D01*
X453919Y291879D01*
X453931Y291895D01*
X453947Y291908D01*
X454003Y291995D01*
X454063Y292079D01*
X454069Y292098D01*
X454080Y292115D01*
X454105Y292215D01*
X454135Y292314D01*
X454135Y292334D01*
X454140Y292353D01*
X454132Y292456D01*
X454129Y292560D01*
X454122Y292579D01*
X454120Y292598D01*
X454080Y292693D01*
X454044Y292791D01*
X454032Y292807D01*
X454024Y292825D01*
X453919Y292956D01*
X450623Y296252D01*
X450623Y300648D01*
X453732Y303757D01*
X458128Y303757D01*
X461237Y300648D01*
X461237Y296252D01*
X457941Y292956D01*
X457929Y292940D01*
X457913Y292927D01*
X457857Y292840D01*
X457797Y292756D01*
X457791Y292737D01*
X457780Y292720D01*
X457755Y292620D01*
X457725Y292521D01*
X457725Y292501D01*
X457720Y292482D01*
X457728Y292379D01*
X457731Y292275D01*
X457738Y292256D01*
X457740Y292236D01*
X457780Y292142D01*
X457816Y292044D01*
X457828Y292028D01*
X457836Y292010D01*
X457941Y291879D01*
X461237Y288583D01*
X461237Y284187D01*
X458128Y281078D01*
X453732Y281078D01*
G37*
%LPD*%
%LPC*%
G36*
X383247Y112803D02*
X383247Y112803D01*
X380138Y115912D01*
X380138Y120308D01*
X383247Y123417D01*
X385401Y123417D01*
X385471Y123428D01*
X385543Y123430D01*
X385592Y123448D01*
X385643Y123456D01*
X385707Y123490D01*
X385774Y123515D01*
X385815Y123547D01*
X385861Y123572D01*
X385910Y123624D01*
X385966Y123668D01*
X385994Y123712D01*
X386030Y123750D01*
X386060Y123815D01*
X386099Y123875D01*
X386112Y123926D01*
X386134Y123973D01*
X386142Y124044D01*
X386159Y124114D01*
X386155Y124166D01*
X386161Y124217D01*
X386146Y124288D01*
X386140Y124359D01*
X386120Y124407D01*
X386109Y124458D01*
X386072Y124519D01*
X386044Y124585D01*
X385999Y124641D01*
X385982Y124669D01*
X385965Y124684D01*
X385939Y124716D01*
X382678Y127977D01*
X382678Y132373D01*
X385787Y135482D01*
X390183Y135482D01*
X393292Y132373D01*
X393292Y127977D01*
X390183Y124868D01*
X388029Y124868D01*
X387959Y124857D01*
X387887Y124855D01*
X387838Y124837D01*
X387787Y124829D01*
X387723Y124795D01*
X387656Y124770D01*
X387615Y124738D01*
X387569Y124713D01*
X387520Y124661D01*
X387464Y124617D01*
X387436Y124573D01*
X387400Y124535D01*
X387370Y124470D01*
X387331Y124410D01*
X387318Y124359D01*
X387296Y124312D01*
X387288Y124241D01*
X387271Y124171D01*
X387275Y124119D01*
X387269Y124068D01*
X387284Y123997D01*
X387290Y123926D01*
X387310Y123878D01*
X387321Y123827D01*
X387358Y123766D01*
X387386Y123700D01*
X387431Y123644D01*
X387448Y123616D01*
X387465Y123601D01*
X387491Y123569D01*
X390752Y120308D01*
X390752Y115912D01*
X387643Y112803D01*
X383247Y112803D01*
G37*
%LPD*%
%LPC*%
G36*
X307047Y232818D02*
X307047Y232818D01*
X303938Y235927D01*
X303938Y240323D01*
X306564Y242949D01*
X306606Y243007D01*
X306655Y243059D01*
X306677Y243106D01*
X306707Y243148D01*
X306729Y243217D01*
X306759Y243282D01*
X306764Y243334D01*
X306780Y243384D01*
X306778Y243455D01*
X306786Y243526D01*
X306775Y243577D01*
X306773Y243629D01*
X306749Y243697D01*
X306734Y243767D01*
X306707Y243812D01*
X306689Y243860D01*
X306644Y243916D01*
X306607Y243978D01*
X306568Y244012D01*
X306535Y244052D01*
X306475Y244091D01*
X306420Y244138D01*
X306372Y244157D01*
X306328Y244185D01*
X306259Y244203D01*
X306192Y244230D01*
X306121Y244238D01*
X306090Y244246D01*
X306067Y244244D01*
X306026Y244248D01*
X303237Y244248D01*
X300128Y247357D01*
X300128Y251753D01*
X303237Y254862D01*
X307633Y254862D01*
X310742Y251753D01*
X310742Y247357D01*
X308116Y244731D01*
X308074Y244673D01*
X308025Y244621D01*
X308003Y244574D01*
X307973Y244532D01*
X307951Y244463D01*
X307921Y244398D01*
X307916Y244346D01*
X307900Y244296D01*
X307902Y244225D01*
X307894Y244154D01*
X307905Y244103D01*
X307907Y244051D01*
X307931Y243983D01*
X307946Y243913D01*
X307973Y243868D01*
X307991Y243820D01*
X308036Y243764D01*
X308073Y243702D01*
X308112Y243668D01*
X308145Y243628D01*
X308205Y243589D01*
X308260Y243542D01*
X308308Y243523D01*
X308352Y243495D01*
X308421Y243477D01*
X308488Y243450D01*
X308559Y243442D01*
X308590Y243434D01*
X308613Y243436D01*
X308654Y243432D01*
X311443Y243432D01*
X314552Y240323D01*
X314552Y235927D01*
X311443Y232818D01*
X307047Y232818D01*
G37*
%LPD*%
%LPC*%
G36*
X435602Y735255D02*
X435602Y735255D01*
X433241Y736233D01*
X431433Y738041D01*
X430455Y740402D01*
X430455Y742958D01*
X431433Y745319D01*
X433241Y747127D01*
X435602Y748105D01*
X438158Y748105D01*
X440519Y747127D01*
X442327Y745319D01*
X443305Y742958D01*
X443305Y740402D01*
X442327Y738041D01*
X440519Y736233D01*
X438158Y735255D01*
X435602Y735255D01*
G37*
%LPD*%
%LPC*%
G36*
X240022Y733985D02*
X240022Y733985D01*
X237661Y734963D01*
X235853Y736771D01*
X234875Y739132D01*
X234875Y741688D01*
X235853Y744049D01*
X237661Y745857D01*
X240022Y746835D01*
X242578Y746835D01*
X244939Y745857D01*
X246747Y744049D01*
X247725Y741688D01*
X247725Y739132D01*
X246747Y736771D01*
X244939Y734963D01*
X242578Y733985D01*
X240022Y733985D01*
G37*
%LPD*%
%LPC*%
G36*
X237743Y688593D02*
X237743Y688593D01*
X237743Y700382D01*
X239355Y700127D01*
X241359Y699476D01*
X243236Y698519D01*
X244941Y697281D01*
X246431Y695791D01*
X247669Y694086D01*
X248626Y692209D01*
X249277Y690205D01*
X249532Y688593D01*
X237743Y688593D01*
G37*
%LPD*%
%LPC*%
G36*
X620013Y687323D02*
X620013Y687323D01*
X620013Y699112D01*
X621625Y698857D01*
X623629Y698206D01*
X625506Y697249D01*
X627211Y696011D01*
X628701Y694521D01*
X629939Y692816D01*
X630896Y690939D01*
X631547Y688935D01*
X631802Y687323D01*
X620013Y687323D01*
G37*
%LPD*%
%LPC*%
G36*
X222908Y688593D02*
X222908Y688593D01*
X223163Y690205D01*
X223814Y692209D01*
X224771Y694086D01*
X226009Y695791D01*
X227499Y697281D01*
X229204Y698519D01*
X231081Y699476D01*
X233085Y700127D01*
X234697Y700382D01*
X234697Y688593D01*
X222908Y688593D01*
G37*
%LPD*%
%LPC*%
G36*
X605178Y687323D02*
X605178Y687323D01*
X605433Y688935D01*
X606084Y690939D01*
X607041Y692816D01*
X608279Y694521D01*
X609769Y696011D01*
X611474Y697249D01*
X613351Y698206D01*
X615355Y698857D01*
X616967Y699112D01*
X616967Y687323D01*
X605178Y687323D01*
G37*
%LPD*%
%LPC*%
G36*
X237743Y685547D02*
X237743Y685547D01*
X249532Y685547D01*
X249277Y683935D01*
X248626Y681931D01*
X247669Y680054D01*
X246431Y678349D01*
X244941Y676859D01*
X243236Y675621D01*
X241359Y674664D01*
X239355Y674013D01*
X237743Y673758D01*
X237743Y685547D01*
G37*
%LPD*%
%LPC*%
G36*
X620013Y684277D02*
X620013Y684277D01*
X631802Y684277D01*
X631547Y682665D01*
X630896Y680661D01*
X629939Y678784D01*
X628701Y677079D01*
X627211Y675589D01*
X625506Y674351D01*
X623629Y673394D01*
X621625Y672743D01*
X620013Y672488D01*
X620013Y684277D01*
G37*
%LPD*%
%LPC*%
G36*
X233085Y674013D02*
X233085Y674013D01*
X231081Y674664D01*
X229204Y675621D01*
X227499Y676859D01*
X226009Y678349D01*
X224771Y680054D01*
X223814Y681931D01*
X223163Y683935D01*
X222908Y685547D01*
X234697Y685547D01*
X234697Y673758D01*
X233085Y674013D01*
G37*
%LPD*%
%LPC*%
G36*
X615355Y672743D02*
X615355Y672743D01*
X613351Y673394D01*
X611474Y674351D01*
X609769Y675589D01*
X608279Y677079D01*
X607041Y678784D01*
X606084Y680661D01*
X605433Y682665D01*
X605178Y684277D01*
X616967Y684277D01*
X616967Y672488D01*
X615355Y672743D01*
G37*
%LPD*%
%LPC*%
G36*
X297522Y298223D02*
X297522Y298223D01*
X294413Y301332D01*
X294413Y305728D01*
X297522Y308837D01*
X301918Y308837D01*
X305027Y305728D01*
X305027Y301332D01*
X301918Y298223D01*
X297522Y298223D01*
G37*
%LPD*%
%LPC*%
G36*
X223862Y288698D02*
X223862Y288698D01*
X220753Y291807D01*
X220753Y296203D01*
X223862Y299312D01*
X228258Y299312D01*
X231367Y296203D01*
X231367Y291807D01*
X228258Y288698D01*
X223862Y288698D01*
G37*
%LPD*%
%LPC*%
G36*
X277202Y279808D02*
X277202Y279808D01*
X274093Y282917D01*
X274093Y287313D01*
X277202Y290422D01*
X281598Y290422D01*
X284707Y287313D01*
X284707Y282917D01*
X281598Y279808D01*
X277202Y279808D01*
G37*
%LPD*%
%LPC*%
G36*
X238467Y279173D02*
X238467Y279173D01*
X235358Y282282D01*
X235358Y286678D01*
X238467Y289787D01*
X242863Y289787D01*
X245972Y286678D01*
X245972Y282282D01*
X242863Y279173D01*
X238467Y279173D01*
G37*
%LPD*%
%LPC*%
G36*
X190207Y278538D02*
X190207Y278538D01*
X187098Y281647D01*
X187098Y286043D01*
X190207Y289152D01*
X194603Y289152D01*
X197712Y286043D01*
X197712Y281647D01*
X194603Y278538D01*
X190207Y278538D01*
G37*
%LPD*%
%LPC*%
G36*
X378802Y268378D02*
X378802Y268378D01*
X375693Y271487D01*
X375693Y275883D01*
X378802Y278992D01*
X383198Y278992D01*
X386307Y275883D01*
X386307Y271487D01*
X383198Y268378D01*
X378802Y268378D01*
G37*
%LPD*%
%LPC*%
G36*
X343242Y244248D02*
X343242Y244248D01*
X340133Y247357D01*
X340133Y251753D01*
X343242Y254862D01*
X347638Y254862D01*
X350747Y251753D01*
X350747Y247357D01*
X347638Y244248D01*
X343242Y244248D01*
G37*
%LPD*%
%LPC*%
G36*
X585812Y241073D02*
X585812Y241073D01*
X582703Y244182D01*
X582703Y248578D01*
X585812Y251687D01*
X590208Y251687D01*
X593317Y248578D01*
X593317Y244182D01*
X590208Y241073D01*
X585812Y241073D01*
G37*
%LPD*%
%LPC*%
G36*
X49872Y230913D02*
X49872Y230913D01*
X46763Y234022D01*
X46763Y238418D01*
X49872Y241527D01*
X54268Y241527D01*
X57377Y238418D01*
X57377Y234022D01*
X54268Y230913D01*
X49872Y230913D01*
G37*
%LPD*%
%LPC*%
G36*
X556602Y229643D02*
X556602Y229643D01*
X553493Y232752D01*
X553493Y237148D01*
X556602Y240257D01*
X560998Y240257D01*
X564107Y237148D01*
X564107Y232752D01*
X560998Y229643D01*
X556602Y229643D01*
G37*
%LPD*%
%LPC*%
G36*
X307682Y220118D02*
X307682Y220118D01*
X304573Y223227D01*
X304573Y227623D01*
X307682Y230732D01*
X312078Y230732D01*
X315187Y227623D01*
X315187Y223227D01*
X312078Y220118D01*
X307682Y220118D01*
G37*
%LPD*%
%LPC*%
G36*
X275932Y166143D02*
X275932Y166143D01*
X272823Y169252D01*
X272823Y173648D01*
X275932Y176757D01*
X280328Y176757D01*
X283437Y173648D01*
X283437Y169252D01*
X280328Y166143D01*
X275932Y166143D01*
G37*
%LPD*%
%LPC*%
G36*
X253707Y149633D02*
X253707Y149633D01*
X250598Y152742D01*
X250598Y157138D01*
X253707Y160247D01*
X258103Y160247D01*
X261212Y157138D01*
X261212Y152742D01*
X258103Y149633D01*
X253707Y149633D01*
G37*
%LPD*%
%LPC*%
G36*
X267677Y148363D02*
X267677Y148363D01*
X264568Y151472D01*
X264568Y155868D01*
X267677Y158977D01*
X272073Y158977D01*
X275182Y155868D01*
X275182Y151472D01*
X272073Y148363D01*
X267677Y148363D01*
G37*
%LPD*%
%LPC*%
G36*
X369912Y139473D02*
X369912Y139473D01*
X366803Y142582D01*
X366803Y146978D01*
X369912Y150087D01*
X374308Y150087D01*
X377417Y146978D01*
X377417Y142582D01*
X374308Y139473D01*
X369912Y139473D01*
G37*
%LPD*%
%LPC*%
G36*
X253707Y136933D02*
X253707Y136933D01*
X250598Y140042D01*
X250598Y144438D01*
X253707Y147547D01*
X258103Y147547D01*
X261212Y144438D01*
X261212Y140042D01*
X258103Y136933D01*
X253707Y136933D01*
G37*
%LPD*%
%LPC*%
G36*
X215607Y107723D02*
X215607Y107723D01*
X212498Y110832D01*
X212498Y115228D01*
X215607Y118337D01*
X220003Y118337D01*
X223112Y115228D01*
X223112Y110832D01*
X220003Y107723D01*
X215607Y107723D01*
G37*
%LPD*%
%LPC*%
G36*
X286092Y75338D02*
X286092Y75338D01*
X282983Y78447D01*
X282983Y82843D01*
X286092Y85952D01*
X290488Y85952D01*
X293597Y82843D01*
X293597Y78447D01*
X290488Y75338D01*
X286092Y75338D01*
G37*
%LPD*%
%LPC*%
G36*
X259422Y60733D02*
X259422Y60733D01*
X256313Y63842D01*
X256313Y68238D01*
X259422Y71347D01*
X263818Y71347D01*
X266927Y68238D01*
X266927Y63842D01*
X263818Y60733D01*
X259422Y60733D01*
G37*
%LPD*%
%LPC*%
G36*
X466432Y55018D02*
X466432Y55018D01*
X463323Y58127D01*
X463323Y62523D01*
X466432Y65632D01*
X470828Y65632D01*
X473937Y62523D01*
X473937Y58127D01*
X470828Y55018D01*
X466432Y55018D01*
G37*
%LPD*%
%LPC*%
G36*
X209257Y53113D02*
X209257Y53113D01*
X206148Y56222D01*
X206148Y60618D01*
X209257Y63727D01*
X213653Y63727D01*
X216762Y60618D01*
X216762Y56222D01*
X213653Y53113D01*
X209257Y53113D01*
G37*
%LPD*%
%LPC*%
G36*
X312762Y51208D02*
X312762Y51208D01*
X309653Y54317D01*
X309653Y58713D01*
X312762Y61822D01*
X317158Y61822D01*
X320267Y58713D01*
X320267Y54317D01*
X317158Y51208D01*
X312762Y51208D01*
G37*
%LPD*%
%LPC*%
G36*
X259422Y46763D02*
X259422Y46763D01*
X256313Y49872D01*
X256313Y54268D01*
X259422Y57377D01*
X263818Y57377D01*
X266927Y54268D01*
X266927Y49872D01*
X263818Y46763D01*
X259422Y46763D01*
G37*
%LPD*%
%LPC*%
G36*
X569302Y45493D02*
X569302Y45493D01*
X566193Y48602D01*
X566193Y52998D01*
X569302Y56107D01*
X573698Y56107D01*
X576807Y52998D01*
X576807Y48602D01*
X573698Y45493D01*
X569302Y45493D01*
G37*
%LPD*%
%LPC*%
G36*
X543902Y45493D02*
X543902Y45493D01*
X540793Y48602D01*
X540793Y52998D01*
X543902Y56107D01*
X548298Y56107D01*
X551407Y52998D01*
X551407Y48602D01*
X548298Y45493D01*
X543902Y45493D01*
G37*
%LPD*%
%LPC*%
G36*
X58762Y335053D02*
X58762Y335053D01*
X55653Y338162D01*
X55653Y342558D01*
X58762Y345667D01*
X63158Y345667D01*
X66267Y342558D01*
X66267Y338162D01*
X63158Y335053D01*
X58762Y335053D01*
G37*
%LPD*%
%LPC*%
G36*
X293077Y25173D02*
X293077Y25173D01*
X289968Y28282D01*
X289968Y32678D01*
X293077Y35787D01*
X297473Y35787D01*
X300582Y32678D01*
X300582Y28282D01*
X297473Y25173D01*
X293077Y25173D01*
G37*
%LPD*%
%LPC*%
G36*
X425792Y22633D02*
X425792Y22633D01*
X422683Y25742D01*
X422683Y30138D01*
X425792Y33247D01*
X430188Y33247D01*
X433297Y30138D01*
X433297Y25742D01*
X430188Y22633D01*
X425792Y22633D01*
G37*
%LPD*%
%LPC*%
G36*
X392137Y416968D02*
X392137Y416968D01*
X389028Y420077D01*
X389028Y424473D01*
X392137Y427582D01*
X396533Y427582D01*
X399642Y424473D01*
X399642Y420077D01*
X396533Y416968D01*
X392137Y416968D01*
G37*
%LPD*%
%LPC*%
G36*
X229577Y382678D02*
X229577Y382678D01*
X226468Y385787D01*
X226468Y390183D01*
X229577Y393292D01*
X233973Y393292D01*
X237082Y390183D01*
X237082Y385787D01*
X233973Y382678D01*
X229577Y382678D01*
G37*
%LPD*%
%LPC*%
G36*
X272757Y364898D02*
X272757Y364898D01*
X269648Y368007D01*
X269648Y372403D01*
X272757Y375512D01*
X277153Y375512D01*
X280262Y372403D01*
X280262Y368007D01*
X277153Y364898D01*
X272757Y364898D01*
G37*
%LPD*%
%LPC*%
G36*
X594702Y350293D02*
X594702Y350293D01*
X591593Y353402D01*
X591593Y357798D01*
X594702Y360907D01*
X599098Y360907D01*
X602207Y357798D01*
X602207Y353402D01*
X599098Y350293D01*
X594702Y350293D01*
G37*
%LPD*%
%LPC*%
G36*
X281647Y17553D02*
X281647Y17553D01*
X278538Y20662D01*
X278538Y25058D01*
X281647Y28167D01*
X286043Y28167D01*
X289152Y25058D01*
X289152Y20662D01*
X286043Y17553D01*
X281647Y17553D01*
G37*
%LPD*%
%LPC*%
G36*
X338162Y301398D02*
X338162Y301398D01*
X335053Y304507D01*
X335053Y308903D01*
X338162Y312012D01*
X342558Y312012D01*
X345667Y308903D01*
X345667Y304507D01*
X342558Y301398D01*
X338162Y301398D01*
G37*
%LPD*%
%LPC*%
G36*
X553393Y743203D02*
X553393Y743203D01*
X553393Y751807D01*
X554268Y751669D01*
X555801Y751170D01*
X557237Y750439D01*
X558541Y749491D01*
X559681Y748351D01*
X560629Y747047D01*
X561360Y745611D01*
X561859Y744078D01*
X561997Y743203D01*
X553393Y743203D01*
G37*
%LPD*%
%LPC*%
G36*
X172393Y741933D02*
X172393Y741933D01*
X172393Y750537D01*
X173268Y750399D01*
X174801Y749900D01*
X176237Y749169D01*
X177541Y748221D01*
X178681Y747081D01*
X179629Y745777D01*
X180360Y744341D01*
X180859Y742808D01*
X180997Y741933D01*
X172393Y741933D01*
G37*
%LPD*%
%LPC*%
G36*
X172393Y738887D02*
X172393Y738887D01*
X180997Y738887D01*
X180859Y738012D01*
X180360Y736479D01*
X179629Y735043D01*
X178681Y733739D01*
X177541Y732599D01*
X176237Y731651D01*
X174801Y730920D01*
X173268Y730421D01*
X172393Y730283D01*
X172393Y738887D01*
G37*
%LPD*%
%LPC*%
G36*
X553393Y740157D02*
X553393Y740157D01*
X561997Y740157D01*
X561859Y739282D01*
X561360Y737749D01*
X560629Y736313D01*
X559681Y735009D01*
X558541Y733869D01*
X557237Y732921D01*
X555801Y732190D01*
X554268Y731691D01*
X553393Y731553D01*
X553393Y740157D01*
G37*
%LPD*%
%LPC*%
G36*
X349338Y513968D02*
X349338Y513968D01*
X349338Y521870D01*
X350598Y521619D01*
X352334Y520900D01*
X353897Y519856D01*
X355226Y518527D01*
X356270Y516964D01*
X356989Y515228D01*
X357240Y513968D01*
X349338Y513968D01*
G37*
%LPD*%
%LPC*%
G36*
X339343Y745108D02*
X339343Y745108D01*
X339343Y753010D01*
X340603Y752759D01*
X342339Y752040D01*
X343902Y750996D01*
X345231Y749667D01*
X346275Y748104D01*
X346994Y746368D01*
X347245Y745108D01*
X339343Y745108D01*
G37*
%LPD*%
%LPC*%
G36*
X28193Y451103D02*
X28193Y451103D01*
X28193Y459005D01*
X29453Y458754D01*
X31189Y458035D01*
X32752Y456991D01*
X34081Y455662D01*
X35125Y454099D01*
X35844Y452363D01*
X36095Y451103D01*
X28193Y451103D01*
G37*
%LPD*%
%LPC*%
G36*
X199008Y47243D02*
X199008Y47243D01*
X199008Y55145D01*
X200268Y54894D01*
X202004Y54175D01*
X203567Y53131D01*
X204896Y51802D01*
X205940Y50239D01*
X206659Y48503D01*
X206910Y47243D01*
X199008Y47243D01*
G37*
%LPD*%
%LPC*%
G36*
X479043Y91693D02*
X479043Y91693D01*
X479043Y99595D01*
X480303Y99344D01*
X482039Y98625D01*
X483602Y97581D01*
X484931Y96252D01*
X485975Y94689D01*
X486694Y92953D01*
X486945Y91693D01*
X479043Y91693D01*
G37*
%LPD*%
%LPC*%
G36*
X104393Y451103D02*
X104393Y451103D01*
X104393Y459005D01*
X105653Y458754D01*
X107389Y458035D01*
X108952Y456991D01*
X110281Y455662D01*
X111325Y454099D01*
X112044Y452363D01*
X112295Y451103D01*
X104393Y451103D01*
G37*
%LPD*%
%LPC*%
G36*
X493013Y147573D02*
X493013Y147573D01*
X493013Y155475D01*
X494273Y155224D01*
X496009Y154505D01*
X497572Y153461D01*
X498901Y152132D01*
X499945Y150569D01*
X500664Y148833D01*
X500915Y147573D01*
X493013Y147573D01*
G37*
%LPD*%
%LPC*%
G36*
X570483Y449833D02*
X570483Y449833D01*
X570483Y457735D01*
X571743Y457484D01*
X573479Y456765D01*
X575042Y455721D01*
X576371Y454392D01*
X577415Y452829D01*
X578134Y451093D01*
X578385Y449833D01*
X570483Y449833D01*
G37*
%LPD*%
%LPC*%
G36*
X595883Y449833D02*
X595883Y449833D01*
X595883Y457735D01*
X597143Y457484D01*
X598879Y456765D01*
X600442Y455721D01*
X601771Y454392D01*
X602815Y452829D01*
X603534Y451093D01*
X603785Y449833D01*
X595883Y449833D01*
G37*
%LPD*%
%LPC*%
G36*
X543813Y147573D02*
X543813Y147573D01*
X543813Y155475D01*
X545073Y155224D01*
X546809Y154505D01*
X548372Y153461D01*
X549701Y152132D01*
X550745Y150569D01*
X551464Y148833D01*
X551715Y147573D01*
X543813Y147573D01*
G37*
%LPD*%
%LPC*%
G36*
X52323Y143763D02*
X52323Y143763D01*
X52323Y151665D01*
X53583Y151414D01*
X55319Y150695D01*
X56882Y149651D01*
X58211Y148322D01*
X59255Y146759D01*
X59974Y145023D01*
X60225Y143763D01*
X52323Y143763D01*
G37*
%LPD*%
%LPC*%
G36*
X77723Y143763D02*
X77723Y143763D01*
X77723Y151665D01*
X78983Y151414D01*
X80719Y150695D01*
X82282Y149651D01*
X83611Y148322D01*
X84655Y146759D01*
X85374Y145023D01*
X85625Y143763D01*
X77723Y143763D01*
G37*
%LPD*%
%LPC*%
G36*
X594613Y147573D02*
X594613Y147573D01*
X594613Y155475D01*
X595873Y155224D01*
X597609Y154505D01*
X599172Y153461D01*
X600501Y152132D01*
X601545Y150569D01*
X602264Y148833D01*
X602515Y147573D01*
X594613Y147573D01*
G37*
%LPD*%
%LPC*%
G36*
X621283Y449833D02*
X621283Y449833D01*
X621283Y457735D01*
X622543Y457484D01*
X624279Y456765D01*
X625842Y455721D01*
X627171Y454392D01*
X628215Y452829D01*
X628934Y451093D01*
X629185Y449833D01*
X621283Y449833D01*
G37*
%LPD*%
%LPC*%
G36*
X204723Y143763D02*
X204723Y143763D01*
X204723Y151665D01*
X205983Y151414D01*
X207719Y150695D01*
X209282Y149651D01*
X210611Y148322D01*
X211655Y146759D01*
X212374Y145023D01*
X212625Y143763D01*
X204723Y143763D01*
G37*
%LPD*%
%LPC*%
G36*
X179323Y143763D02*
X179323Y143763D01*
X179323Y151665D01*
X180583Y151414D01*
X182319Y150695D01*
X183882Y149651D01*
X185211Y148322D01*
X186255Y146759D01*
X186974Y145023D01*
X187225Y143763D01*
X179323Y143763D01*
G37*
%LPD*%
%LPC*%
G36*
X545083Y449833D02*
X545083Y449833D01*
X545083Y457735D01*
X546343Y457484D01*
X548079Y456765D01*
X549642Y455721D01*
X550971Y454392D01*
X552015Y452829D01*
X552734Y451093D01*
X552985Y449833D01*
X545083Y449833D01*
G37*
%LPD*%
%LPC*%
G36*
X299503Y649223D02*
X299503Y649223D01*
X299503Y657125D01*
X300763Y656874D01*
X302499Y656155D01*
X304062Y655111D01*
X305391Y653782D01*
X306435Y652219D01*
X307154Y650483D01*
X307405Y649223D01*
X299503Y649223D01*
G37*
%LPD*%
%LPC*%
G36*
X153923Y143763D02*
X153923Y143763D01*
X153923Y151665D01*
X155183Y151414D01*
X156919Y150695D01*
X158482Y149651D01*
X159811Y148322D01*
X160855Y146759D01*
X161574Y145023D01*
X161825Y143763D01*
X153923Y143763D01*
G37*
%LPD*%
%LPC*%
G36*
X494283Y449833D02*
X494283Y449833D01*
X494283Y457735D01*
X495543Y457484D01*
X497279Y456765D01*
X498842Y455721D01*
X500171Y454392D01*
X501215Y452829D01*
X501934Y451093D01*
X502185Y449833D01*
X494283Y449833D01*
G37*
%LPD*%
%LPC*%
G36*
X519683Y449833D02*
X519683Y449833D01*
X519683Y457735D01*
X520943Y457484D01*
X522679Y456765D01*
X524242Y455721D01*
X525571Y454392D01*
X526615Y452829D01*
X527334Y451093D01*
X527585Y449833D01*
X519683Y449833D01*
G37*
%LPD*%
%LPC*%
G36*
X468883Y449833D02*
X468883Y449833D01*
X468883Y457735D01*
X470143Y457484D01*
X471879Y456765D01*
X473442Y455721D01*
X474771Y454392D01*
X475815Y452829D01*
X476534Y451093D01*
X476785Y449833D01*
X468883Y449833D01*
G37*
%LPD*%
%LPC*%
G36*
X128523Y143763D02*
X128523Y143763D01*
X128523Y151665D01*
X129783Y151414D01*
X131519Y150695D01*
X133082Y149651D01*
X134411Y148322D01*
X135455Y146759D01*
X136174Y145023D01*
X136425Y143763D01*
X128523Y143763D01*
G37*
%LPD*%
%LPC*%
G36*
X518413Y147573D02*
X518413Y147573D01*
X518413Y155475D01*
X519673Y155224D01*
X521409Y154505D01*
X522972Y153461D01*
X524301Y152132D01*
X525345Y150569D01*
X526064Y148833D01*
X526315Y147573D01*
X518413Y147573D01*
G37*
%LPD*%
%LPC*%
G36*
X26923Y143763D02*
X26923Y143763D01*
X26923Y151665D01*
X28183Y151414D01*
X29919Y150695D01*
X31482Y149651D01*
X32811Y148322D01*
X33855Y146759D01*
X34574Y145023D01*
X34825Y143763D01*
X26923Y143763D01*
G37*
%LPD*%
%LPC*%
G36*
X442213Y147573D02*
X442213Y147573D01*
X442213Y155475D01*
X443473Y155224D01*
X445209Y154505D01*
X446772Y153461D01*
X448101Y152132D01*
X449145Y150569D01*
X449864Y148833D01*
X450115Y147573D01*
X442213Y147573D01*
G37*
%LPD*%
%LPC*%
G36*
X129793Y451103D02*
X129793Y451103D01*
X129793Y459005D01*
X131053Y458754D01*
X132789Y458035D01*
X134352Y456991D01*
X135681Y455662D01*
X136725Y454099D01*
X137444Y452363D01*
X137695Y451103D01*
X129793Y451103D01*
G37*
%LPD*%
%LPC*%
G36*
X155193Y451103D02*
X155193Y451103D01*
X155193Y459005D01*
X156453Y458754D01*
X158189Y458035D01*
X159752Y456991D01*
X161081Y455662D01*
X162125Y454099D01*
X162844Y452363D01*
X163095Y451103D01*
X155193Y451103D01*
G37*
%LPD*%
%LPC*%
G36*
X467613Y147573D02*
X467613Y147573D01*
X467613Y155475D01*
X468873Y155224D01*
X470609Y154505D01*
X472172Y153461D01*
X473501Y152132D01*
X474545Y150569D01*
X475264Y148833D01*
X475515Y147573D01*
X467613Y147573D01*
G37*
%LPD*%
%LPC*%
G36*
X103123Y143763D02*
X103123Y143763D01*
X103123Y151665D01*
X104383Y151414D01*
X106119Y150695D01*
X107682Y149651D01*
X109011Y148322D01*
X110055Y146759D01*
X110774Y145023D01*
X111025Y143763D01*
X103123Y143763D01*
G37*
%LPD*%
%LPC*%
G36*
X205993Y451103D02*
X205993Y451103D01*
X205993Y459005D01*
X207253Y458754D01*
X208989Y458035D01*
X210552Y456991D01*
X211881Y455662D01*
X212925Y454099D01*
X213644Y452363D01*
X213895Y451103D01*
X205993Y451103D01*
G37*
%LPD*%
%LPC*%
G36*
X78993Y451103D02*
X78993Y451103D01*
X78993Y459005D01*
X80253Y458754D01*
X81989Y458035D01*
X83552Y456991D01*
X84881Y455662D01*
X85925Y454099D01*
X86644Y452363D01*
X86895Y451103D01*
X78993Y451103D01*
G37*
%LPD*%
%LPC*%
G36*
X180593Y451103D02*
X180593Y451103D01*
X180593Y459005D01*
X181853Y458754D01*
X183589Y458035D01*
X185152Y456991D01*
X186481Y455662D01*
X187525Y454099D01*
X188244Y452363D01*
X188495Y451103D01*
X180593Y451103D01*
G37*
%LPD*%
%LPC*%
G36*
X620013Y147573D02*
X620013Y147573D01*
X620013Y155475D01*
X621273Y155224D01*
X623009Y154505D01*
X624572Y153461D01*
X625901Y152132D01*
X626945Y150569D01*
X627664Y148833D01*
X627915Y147573D01*
X620013Y147573D01*
G37*
%LPD*%
%LPC*%
G36*
X569213Y147573D02*
X569213Y147573D01*
X569213Y155475D01*
X570473Y155224D01*
X572209Y154505D01*
X573772Y153461D01*
X575101Y152132D01*
X576145Y150569D01*
X576864Y148833D01*
X577115Y147573D01*
X569213Y147573D01*
G37*
%LPD*%
%LPC*%
G36*
X53593Y451103D02*
X53593Y451103D01*
X53593Y459005D01*
X54853Y458754D01*
X56589Y458035D01*
X58152Y456991D01*
X59481Y455662D01*
X60525Y454099D01*
X61244Y452363D01*
X61495Y451103D01*
X53593Y451103D01*
G37*
%LPD*%
%LPC*%
G36*
X443483Y449833D02*
X443483Y449833D01*
X443483Y457735D01*
X444743Y457484D01*
X446479Y456765D01*
X448042Y455721D01*
X449371Y454392D01*
X450415Y452829D01*
X451134Y451093D01*
X451385Y449833D01*
X443483Y449833D01*
G37*
%LPD*%
%LPC*%
G36*
X543813Y144527D02*
X543813Y144527D01*
X551715Y144527D01*
X551464Y143267D01*
X550745Y141531D01*
X549701Y139968D01*
X548372Y138639D01*
X546809Y137595D01*
X545073Y136876D01*
X543813Y136625D01*
X543813Y144527D01*
G37*
%LPD*%
%LPC*%
G36*
X518413Y144527D02*
X518413Y144527D01*
X526315Y144527D01*
X526064Y143267D01*
X525345Y141531D01*
X524301Y139968D01*
X522972Y138639D01*
X521409Y137595D01*
X519673Y136876D01*
X518413Y136625D01*
X518413Y144527D01*
G37*
%LPD*%
%LPC*%
G36*
X493013Y144527D02*
X493013Y144527D01*
X500915Y144527D01*
X500664Y143267D01*
X499945Y141531D01*
X498901Y139968D01*
X497572Y138639D01*
X496009Y137595D01*
X494273Y136876D01*
X493013Y136625D01*
X493013Y144527D01*
G37*
%LPD*%
%LPC*%
G36*
X204723Y140717D02*
X204723Y140717D01*
X212625Y140717D01*
X212374Y139457D01*
X211655Y137721D01*
X210611Y136158D01*
X209282Y134829D01*
X207719Y133785D01*
X205983Y133066D01*
X204723Y132815D01*
X204723Y140717D01*
G37*
%LPD*%
%LPC*%
G36*
X179323Y140717D02*
X179323Y140717D01*
X187225Y140717D01*
X186974Y139457D01*
X186255Y137721D01*
X185211Y136158D01*
X183882Y134829D01*
X182319Y133785D01*
X180583Y133066D01*
X179323Y132815D01*
X179323Y140717D01*
G37*
%LPD*%
%LPC*%
G36*
X339343Y742062D02*
X339343Y742062D01*
X347245Y742062D01*
X346994Y740802D01*
X346275Y739066D01*
X345231Y737503D01*
X343902Y736174D01*
X342339Y735130D01*
X340603Y734411D01*
X339343Y734160D01*
X339343Y742062D01*
G37*
%LPD*%
%LPC*%
G36*
X153923Y140717D02*
X153923Y140717D01*
X161825Y140717D01*
X161574Y139457D01*
X160855Y137721D01*
X159811Y136158D01*
X158482Y134829D01*
X156919Y133785D01*
X155183Y133066D01*
X153923Y132815D01*
X153923Y140717D01*
G37*
%LPD*%
%LPC*%
G36*
X128523Y140717D02*
X128523Y140717D01*
X136425Y140717D01*
X136174Y139457D01*
X135455Y137721D01*
X134411Y136158D01*
X133082Y134829D01*
X131519Y133785D01*
X129783Y133066D01*
X128523Y132815D01*
X128523Y140717D01*
G37*
%LPD*%
%LPC*%
G36*
X103123Y140717D02*
X103123Y140717D01*
X111025Y140717D01*
X110774Y139457D01*
X110055Y137721D01*
X109011Y136158D01*
X107682Y134829D01*
X106119Y133785D01*
X104383Y133066D01*
X103123Y132815D01*
X103123Y140717D01*
G37*
%LPD*%
%LPC*%
G36*
X77723Y140717D02*
X77723Y140717D01*
X85625Y140717D01*
X85374Y139457D01*
X84655Y137721D01*
X83611Y136158D01*
X82282Y134829D01*
X80719Y133785D01*
X78983Y133066D01*
X77723Y132815D01*
X77723Y140717D01*
G37*
%LPD*%
%LPC*%
G36*
X52323Y140717D02*
X52323Y140717D01*
X60225Y140717D01*
X59974Y139457D01*
X59255Y137721D01*
X58211Y136158D01*
X56882Y134829D01*
X55319Y133785D01*
X53583Y133066D01*
X52323Y132815D01*
X52323Y140717D01*
G37*
%LPD*%
%LPC*%
G36*
X26923Y140717D02*
X26923Y140717D01*
X34825Y140717D01*
X34574Y139457D01*
X33855Y137721D01*
X32811Y136158D01*
X31482Y134829D01*
X29919Y133785D01*
X28183Y133066D01*
X26923Y132815D01*
X26923Y140717D01*
G37*
%LPD*%
%LPC*%
G36*
X468095Y91693D02*
X468095Y91693D01*
X468346Y92953D01*
X469065Y94689D01*
X470109Y96252D01*
X471438Y97581D01*
X473001Y98625D01*
X474737Y99344D01*
X475997Y99595D01*
X475997Y91693D01*
X468095Y91693D01*
G37*
%LPD*%
%LPC*%
G36*
X479043Y88647D02*
X479043Y88647D01*
X486945Y88647D01*
X486694Y87387D01*
X485975Y85651D01*
X484931Y84088D01*
X483602Y82759D01*
X482039Y81715D01*
X480303Y80996D01*
X479043Y80745D01*
X479043Y88647D01*
G37*
%LPD*%
%LPC*%
G36*
X519683Y446787D02*
X519683Y446787D01*
X527585Y446787D01*
X527334Y445527D01*
X526615Y443791D01*
X525571Y442228D01*
X524242Y440899D01*
X522679Y439855D01*
X520943Y439136D01*
X519683Y438885D01*
X519683Y446787D01*
G37*
%LPD*%
%LPC*%
G36*
X288555Y649223D02*
X288555Y649223D01*
X288806Y650483D01*
X289525Y652219D01*
X290569Y653782D01*
X291898Y655111D01*
X293461Y656155D01*
X295197Y656874D01*
X296457Y657125D01*
X296457Y649223D01*
X288555Y649223D01*
G37*
%LPD*%
%LPC*%
G36*
X545083Y446787D02*
X545083Y446787D01*
X552985Y446787D01*
X552734Y445527D01*
X552015Y443791D01*
X550971Y442228D01*
X549642Y440899D01*
X548079Y439855D01*
X546343Y439136D01*
X545083Y438885D01*
X545083Y446787D01*
G37*
%LPD*%
%LPC*%
G36*
X299503Y646177D02*
X299503Y646177D01*
X307405Y646177D01*
X307154Y644917D01*
X306435Y643181D01*
X305391Y641618D01*
X304062Y640289D01*
X302499Y639245D01*
X300763Y638526D01*
X299503Y638275D01*
X299503Y646177D01*
G37*
%LPD*%
%LPC*%
G36*
X328395Y745108D02*
X328395Y745108D01*
X328646Y746368D01*
X329365Y748104D01*
X330409Y749667D01*
X331738Y750996D01*
X333301Y752040D01*
X335037Y752759D01*
X336297Y753010D01*
X336297Y745108D01*
X328395Y745108D01*
G37*
%LPD*%
%LPC*%
G36*
X338390Y513968D02*
X338390Y513968D01*
X338641Y515228D01*
X339360Y516964D01*
X340404Y518527D01*
X341733Y519856D01*
X343296Y520900D01*
X345032Y521619D01*
X346292Y521870D01*
X346292Y513968D01*
X338390Y513968D01*
G37*
%LPD*%
%LPC*%
G36*
X570483Y446787D02*
X570483Y446787D01*
X578385Y446787D01*
X578134Y445527D01*
X577415Y443791D01*
X576371Y442228D01*
X575042Y440899D01*
X573479Y439855D01*
X571743Y439136D01*
X570483Y438885D01*
X570483Y446787D01*
G37*
%LPD*%
%LPC*%
G36*
X349338Y510922D02*
X349338Y510922D01*
X357240Y510922D01*
X356989Y509662D01*
X356270Y507926D01*
X355226Y506363D01*
X353897Y505034D01*
X352334Y503990D01*
X350598Y503271D01*
X349338Y503020D01*
X349338Y510922D01*
G37*
%LPD*%
%LPC*%
G36*
X595883Y446787D02*
X595883Y446787D01*
X603785Y446787D01*
X603534Y445527D01*
X602815Y443791D01*
X601771Y442228D01*
X600442Y440899D01*
X598879Y439855D01*
X597143Y439136D01*
X595883Y438885D01*
X595883Y446787D01*
G37*
%LPD*%
%LPC*%
G36*
X169645Y451103D02*
X169645Y451103D01*
X169896Y452363D01*
X170615Y454099D01*
X171659Y455662D01*
X172988Y456991D01*
X174551Y458035D01*
X176287Y458754D01*
X177547Y459005D01*
X177547Y451103D01*
X169645Y451103D01*
G37*
%LPD*%
%LPC*%
G36*
X195045Y451103D02*
X195045Y451103D01*
X195296Y452363D01*
X196015Y454099D01*
X197059Y455662D01*
X198388Y456991D01*
X199951Y458035D01*
X201687Y458754D01*
X202947Y459005D01*
X202947Y451103D01*
X195045Y451103D01*
G37*
%LPD*%
%LPC*%
G36*
X17245Y451103D02*
X17245Y451103D01*
X17496Y452363D01*
X18215Y454099D01*
X19259Y455662D01*
X20588Y456991D01*
X22151Y458035D01*
X23887Y458754D01*
X25147Y459005D01*
X25147Y451103D01*
X17245Y451103D01*
G37*
%LPD*%
%LPC*%
G36*
X42645Y451103D02*
X42645Y451103D01*
X42896Y452363D01*
X43615Y454099D01*
X44659Y455662D01*
X45988Y456991D01*
X47551Y458035D01*
X49287Y458754D01*
X50547Y459005D01*
X50547Y451103D01*
X42645Y451103D01*
G37*
%LPD*%
%LPC*%
G36*
X144245Y451103D02*
X144245Y451103D01*
X144496Y452363D01*
X145215Y454099D01*
X146259Y455662D01*
X147588Y456991D01*
X149151Y458035D01*
X150887Y458754D01*
X152147Y459005D01*
X152147Y451103D01*
X144245Y451103D01*
G37*
%LPD*%
%LPC*%
G36*
X68045Y451103D02*
X68045Y451103D01*
X68296Y452363D01*
X69015Y454099D01*
X70059Y455662D01*
X71388Y456991D01*
X72951Y458035D01*
X74687Y458754D01*
X75947Y459005D01*
X75947Y451103D01*
X68045Y451103D01*
G37*
%LPD*%
%LPC*%
G36*
X93445Y451103D02*
X93445Y451103D01*
X93696Y452363D01*
X94415Y454099D01*
X95459Y455662D01*
X96788Y456991D01*
X98351Y458035D01*
X100087Y458754D01*
X101347Y459005D01*
X101347Y451103D01*
X93445Y451103D01*
G37*
%LPD*%
%LPC*%
G36*
X118845Y451103D02*
X118845Y451103D01*
X119096Y452363D01*
X119815Y454099D01*
X120859Y455662D01*
X122188Y456991D01*
X123751Y458035D01*
X125487Y458754D01*
X126747Y459005D01*
X126747Y451103D01*
X118845Y451103D01*
G37*
%LPD*%
%LPC*%
G36*
X432535Y449833D02*
X432535Y449833D01*
X432786Y451093D01*
X433505Y452829D01*
X434549Y454392D01*
X435878Y455721D01*
X437441Y456765D01*
X439177Y457484D01*
X440437Y457735D01*
X440437Y449833D01*
X432535Y449833D01*
G37*
%LPD*%
%LPC*%
G36*
X457935Y449833D02*
X457935Y449833D01*
X458186Y451093D01*
X458905Y452829D01*
X459949Y454392D01*
X461278Y455721D01*
X462841Y456765D01*
X464577Y457484D01*
X465837Y457735D01*
X465837Y449833D01*
X457935Y449833D01*
G37*
%LPD*%
%LPC*%
G36*
X483335Y449833D02*
X483335Y449833D01*
X483586Y451093D01*
X484305Y452829D01*
X485349Y454392D01*
X486678Y455721D01*
X488241Y456765D01*
X489977Y457484D01*
X491237Y457735D01*
X491237Y449833D01*
X483335Y449833D01*
G37*
%LPD*%
%LPC*%
G36*
X534135Y449833D02*
X534135Y449833D01*
X534386Y451093D01*
X535105Y452829D01*
X536149Y454392D01*
X537478Y455721D01*
X539041Y456765D01*
X540777Y457484D01*
X542037Y457735D01*
X542037Y449833D01*
X534135Y449833D01*
G37*
%LPD*%
%LPC*%
G36*
X559535Y449833D02*
X559535Y449833D01*
X559786Y451093D01*
X560505Y452829D01*
X561549Y454392D01*
X562878Y455721D01*
X564441Y456765D01*
X566177Y457484D01*
X567437Y457735D01*
X567437Y449833D01*
X559535Y449833D01*
G37*
%LPD*%
%LPC*%
G36*
X610335Y449833D02*
X610335Y449833D01*
X610586Y451093D01*
X611305Y452829D01*
X612349Y454392D01*
X613678Y455721D01*
X615241Y456765D01*
X616977Y457484D01*
X618237Y457735D01*
X618237Y449833D01*
X610335Y449833D01*
G37*
%LPD*%
%LPC*%
G36*
X584935Y449833D02*
X584935Y449833D01*
X585186Y451093D01*
X585905Y452829D01*
X586949Y454392D01*
X588278Y455721D01*
X589841Y456765D01*
X591577Y457484D01*
X592837Y457735D01*
X592837Y449833D01*
X584935Y449833D01*
G37*
%LPD*%
%LPC*%
G36*
X508735Y449833D02*
X508735Y449833D01*
X508986Y451093D01*
X509705Y452829D01*
X510749Y454392D01*
X512078Y455721D01*
X513641Y456765D01*
X515377Y457484D01*
X516637Y457735D01*
X516637Y449833D01*
X508735Y449833D01*
G37*
%LPD*%
%LPC*%
G36*
X155193Y448057D02*
X155193Y448057D01*
X163095Y448057D01*
X162844Y446797D01*
X162125Y445061D01*
X161081Y443498D01*
X159752Y442169D01*
X158189Y441125D01*
X156453Y440406D01*
X155193Y440155D01*
X155193Y448057D01*
G37*
%LPD*%
%LPC*%
G36*
X188060Y47243D02*
X188060Y47243D01*
X188311Y48503D01*
X189030Y50239D01*
X190074Y51802D01*
X191403Y53131D01*
X192966Y54175D01*
X194702Y54894D01*
X195962Y55145D01*
X195962Y47243D01*
X188060Y47243D01*
G37*
%LPD*%
%LPC*%
G36*
X180593Y448057D02*
X180593Y448057D01*
X188495Y448057D01*
X188244Y446797D01*
X187525Y445061D01*
X186481Y443498D01*
X185152Y442169D01*
X183589Y441125D01*
X181853Y440406D01*
X180593Y440155D01*
X180593Y448057D01*
G37*
%LPD*%
%LPC*%
G36*
X199008Y44197D02*
X199008Y44197D01*
X206910Y44197D01*
X206659Y42937D01*
X205940Y41201D01*
X204896Y39638D01*
X203567Y38309D01*
X202004Y37265D01*
X200268Y36546D01*
X199008Y36295D01*
X199008Y44197D01*
G37*
%LPD*%
%LPC*%
G36*
X205993Y448057D02*
X205993Y448057D01*
X213895Y448057D01*
X213644Y446797D01*
X212925Y445061D01*
X211881Y443498D01*
X210552Y442169D01*
X208989Y441125D01*
X207253Y440406D01*
X205993Y440155D01*
X205993Y448057D01*
G37*
%LPD*%
%LPC*%
G36*
X53593Y448057D02*
X53593Y448057D01*
X61495Y448057D01*
X61244Y446797D01*
X60525Y445061D01*
X59481Y443498D01*
X58152Y442169D01*
X56589Y441125D01*
X54853Y440406D01*
X53593Y440155D01*
X53593Y448057D01*
G37*
%LPD*%
%LPC*%
G36*
X621283Y446787D02*
X621283Y446787D01*
X629185Y446787D01*
X628934Y445527D01*
X628215Y443791D01*
X627171Y442228D01*
X625842Y440899D01*
X624279Y439855D01*
X622543Y439136D01*
X621283Y438885D01*
X621283Y446787D01*
G37*
%LPD*%
%LPC*%
G36*
X28193Y448057D02*
X28193Y448057D01*
X36095Y448057D01*
X35844Y446797D01*
X35125Y445061D01*
X34081Y443498D01*
X32752Y442169D01*
X31189Y441125D01*
X29453Y440406D01*
X28193Y440155D01*
X28193Y448057D01*
G37*
%LPD*%
%LPC*%
G36*
X104393Y448057D02*
X104393Y448057D01*
X112295Y448057D01*
X112044Y446797D01*
X111325Y445061D01*
X110281Y443498D01*
X108952Y442169D01*
X107389Y441125D01*
X105653Y440406D01*
X104393Y440155D01*
X104393Y448057D01*
G37*
%LPD*%
%LPC*%
G36*
X494283Y446787D02*
X494283Y446787D01*
X502185Y446787D01*
X501934Y445527D01*
X501215Y443791D01*
X500171Y442228D01*
X498842Y440899D01*
X497279Y439855D01*
X495543Y439136D01*
X494283Y438885D01*
X494283Y446787D01*
G37*
%LPD*%
%LPC*%
G36*
X129793Y448057D02*
X129793Y448057D01*
X137695Y448057D01*
X137444Y446797D01*
X136725Y445061D01*
X135681Y443498D01*
X134352Y442169D01*
X132789Y441125D01*
X131053Y440406D01*
X129793Y440155D01*
X129793Y448057D01*
G37*
%LPD*%
%LPC*%
G36*
X443483Y446787D02*
X443483Y446787D01*
X451385Y446787D01*
X451134Y445527D01*
X450415Y443791D01*
X449371Y442228D01*
X448042Y440899D01*
X446479Y439855D01*
X444743Y439136D01*
X443483Y438885D01*
X443483Y446787D01*
G37*
%LPD*%
%LPC*%
G36*
X482065Y147573D02*
X482065Y147573D01*
X482316Y148833D01*
X483035Y150569D01*
X484079Y152132D01*
X485408Y153461D01*
X486971Y154505D01*
X488707Y155224D01*
X489967Y155475D01*
X489967Y147573D01*
X482065Y147573D01*
G37*
%LPD*%
%LPC*%
G36*
X583665Y147573D02*
X583665Y147573D01*
X583916Y148833D01*
X584635Y150569D01*
X585679Y152132D01*
X587008Y153461D01*
X588571Y154505D01*
X590307Y155224D01*
X591567Y155475D01*
X591567Y147573D01*
X583665Y147573D01*
G37*
%LPD*%
%LPC*%
G36*
X558265Y147573D02*
X558265Y147573D01*
X558516Y148833D01*
X559235Y150569D01*
X560279Y152132D01*
X561608Y153461D01*
X563171Y154505D01*
X564907Y155224D01*
X566167Y155475D01*
X566167Y147573D01*
X558265Y147573D01*
G37*
%LPD*%
%LPC*%
G36*
X532865Y147573D02*
X532865Y147573D01*
X533116Y148833D01*
X533835Y150569D01*
X534879Y152132D01*
X536208Y153461D01*
X537771Y154505D01*
X539507Y155224D01*
X540767Y155475D01*
X540767Y147573D01*
X532865Y147573D01*
G37*
%LPD*%
%LPC*%
G36*
X507465Y147573D02*
X507465Y147573D01*
X507716Y148833D01*
X508435Y150569D01*
X509479Y152132D01*
X510808Y153461D01*
X512371Y154505D01*
X514107Y155224D01*
X515367Y155475D01*
X515367Y147573D01*
X507465Y147573D01*
G37*
%LPD*%
%LPC*%
G36*
X609065Y147573D02*
X609065Y147573D01*
X609316Y148833D01*
X610035Y150569D01*
X611079Y152132D01*
X612408Y153461D01*
X613971Y154505D01*
X615707Y155224D01*
X616967Y155475D01*
X616967Y147573D01*
X609065Y147573D01*
G37*
%LPD*%
%LPC*%
G36*
X456665Y147573D02*
X456665Y147573D01*
X456916Y148833D01*
X457635Y150569D01*
X458679Y152132D01*
X460008Y153461D01*
X461571Y154505D01*
X463307Y155224D01*
X464567Y155475D01*
X464567Y147573D01*
X456665Y147573D01*
G37*
%LPD*%
%LPC*%
G36*
X431265Y147573D02*
X431265Y147573D01*
X431516Y148833D01*
X432235Y150569D01*
X433279Y152132D01*
X434608Y153461D01*
X436171Y154505D01*
X437907Y155224D01*
X439167Y155475D01*
X439167Y147573D01*
X431265Y147573D01*
G37*
%LPD*%
%LPC*%
G36*
X78993Y448057D02*
X78993Y448057D01*
X86895Y448057D01*
X86644Y446797D01*
X85925Y445061D01*
X84881Y443498D01*
X83552Y442169D01*
X81989Y441125D01*
X80253Y440406D01*
X78993Y440155D01*
X78993Y448057D01*
G37*
%LPD*%
%LPC*%
G36*
X168375Y143763D02*
X168375Y143763D01*
X168626Y145023D01*
X169345Y146759D01*
X170389Y148322D01*
X171718Y149651D01*
X173281Y150695D01*
X175017Y151414D01*
X176277Y151665D01*
X176277Y143763D01*
X168375Y143763D01*
G37*
%LPD*%
%LPC*%
G36*
X66775Y143763D02*
X66775Y143763D01*
X67026Y145023D01*
X67745Y146759D01*
X68789Y148322D01*
X70118Y149651D01*
X71681Y150695D01*
X73417Y151414D01*
X74677Y151665D01*
X74677Y143763D01*
X66775Y143763D01*
G37*
%LPD*%
%LPC*%
G36*
X41375Y143763D02*
X41375Y143763D01*
X41626Y145023D01*
X42345Y146759D01*
X43389Y148322D01*
X44718Y149651D01*
X46281Y150695D01*
X48017Y151414D01*
X49277Y151665D01*
X49277Y143763D01*
X41375Y143763D01*
G37*
%LPD*%
%LPC*%
G36*
X15975Y143763D02*
X15975Y143763D01*
X16226Y145023D01*
X16945Y146759D01*
X17989Y148322D01*
X19318Y149651D01*
X20881Y150695D01*
X22617Y151414D01*
X23877Y151665D01*
X23877Y143763D01*
X15975Y143763D01*
G37*
%LPD*%
%LPC*%
G36*
X117575Y143763D02*
X117575Y143763D01*
X117826Y145023D01*
X118545Y146759D01*
X119589Y148322D01*
X120918Y149651D01*
X122481Y150695D01*
X124217Y151414D01*
X125477Y151665D01*
X125477Y143763D01*
X117575Y143763D01*
G37*
%LPD*%
%LPC*%
G36*
X142975Y143763D02*
X142975Y143763D01*
X143226Y145023D01*
X143945Y146759D01*
X144989Y148322D01*
X146318Y149651D01*
X147881Y150695D01*
X149617Y151414D01*
X150877Y151665D01*
X150877Y143763D01*
X142975Y143763D01*
G37*
%LPD*%
%LPC*%
G36*
X193775Y143763D02*
X193775Y143763D01*
X194026Y145023D01*
X194745Y146759D01*
X195789Y148322D01*
X197118Y149651D01*
X198681Y150695D01*
X200417Y151414D01*
X201677Y151665D01*
X201677Y143763D01*
X193775Y143763D01*
G37*
%LPD*%
%LPC*%
G36*
X92175Y143763D02*
X92175Y143763D01*
X92426Y145023D01*
X93145Y146759D01*
X94189Y148322D01*
X95518Y149651D01*
X97081Y150695D01*
X98817Y151414D01*
X100077Y151665D01*
X100077Y143763D01*
X92175Y143763D01*
G37*
%LPD*%
%LPC*%
G36*
X468883Y446787D02*
X468883Y446787D01*
X476785Y446787D01*
X476534Y445527D01*
X475815Y443791D01*
X474771Y442228D01*
X473442Y440899D01*
X471879Y439855D01*
X470143Y439136D01*
X468883Y438885D01*
X468883Y446787D01*
G37*
%LPD*%
%LPC*%
G36*
X467613Y144527D02*
X467613Y144527D01*
X475515Y144527D01*
X475264Y143267D01*
X474545Y141531D01*
X473501Y139968D01*
X472172Y138639D01*
X470609Y137595D01*
X468873Y136876D01*
X467613Y136625D01*
X467613Y144527D01*
G37*
%LPD*%
%LPC*%
G36*
X442213Y144527D02*
X442213Y144527D01*
X450115Y144527D01*
X449864Y143267D01*
X449145Y141531D01*
X448101Y139968D01*
X446772Y138639D01*
X445209Y137595D01*
X443473Y136876D01*
X442213Y136625D01*
X442213Y144527D01*
G37*
%LPD*%
%LPC*%
G36*
X620013Y144527D02*
X620013Y144527D01*
X627915Y144527D01*
X627664Y143267D01*
X626945Y141531D01*
X625901Y139968D01*
X624572Y138639D01*
X623009Y137595D01*
X621273Y136876D01*
X620013Y136625D01*
X620013Y144527D01*
G37*
%LPD*%
%LPC*%
G36*
X594613Y144527D02*
X594613Y144527D01*
X602515Y144527D01*
X602264Y143267D01*
X601545Y141531D01*
X600501Y139968D01*
X599172Y138639D01*
X597609Y137595D01*
X595873Y136876D01*
X594613Y136625D01*
X594613Y144527D01*
G37*
%LPD*%
%LPC*%
G36*
X569213Y144527D02*
X569213Y144527D01*
X577115Y144527D01*
X576864Y143267D01*
X576145Y141531D01*
X575101Y139968D01*
X573772Y138639D01*
X572209Y137595D01*
X570473Y136876D01*
X569213Y136625D01*
X569213Y144527D01*
G37*
%LPD*%
%LPC*%
G36*
X175017Y133066D02*
X175017Y133066D01*
X173281Y133785D01*
X171718Y134829D01*
X170389Y136158D01*
X169345Y137721D01*
X168626Y139457D01*
X168375Y140717D01*
X176277Y140717D01*
X176277Y132815D01*
X175017Y133066D01*
G37*
%LPD*%
%LPC*%
G36*
X194702Y36546D02*
X194702Y36546D01*
X192966Y37265D01*
X191403Y38309D01*
X190074Y39638D01*
X189030Y41201D01*
X188311Y42937D01*
X188060Y44197D01*
X195962Y44197D01*
X195962Y36295D01*
X194702Y36546D01*
G37*
%LPD*%
%LPC*%
G36*
X149617Y133066D02*
X149617Y133066D01*
X147881Y133785D01*
X146318Y134829D01*
X144989Y136158D01*
X143945Y137721D01*
X143226Y139457D01*
X142975Y140717D01*
X150877Y140717D01*
X150877Y132815D01*
X149617Y133066D01*
G37*
%LPD*%
%LPC*%
G36*
X564907Y136876D02*
X564907Y136876D01*
X563171Y137595D01*
X561608Y138639D01*
X560279Y139968D01*
X559235Y141531D01*
X558516Y143267D01*
X558265Y144527D01*
X566167Y144527D01*
X566167Y136625D01*
X564907Y136876D01*
G37*
%LPD*%
%LPC*%
G36*
X124217Y133066D02*
X124217Y133066D01*
X122481Y133785D01*
X120918Y134829D01*
X119589Y136158D01*
X118545Y137721D01*
X117826Y139457D01*
X117575Y140717D01*
X125477Y140717D01*
X125477Y132815D01*
X124217Y133066D01*
G37*
%LPD*%
%LPC*%
G36*
X335037Y734411D02*
X335037Y734411D01*
X333301Y735130D01*
X331738Y736174D01*
X330409Y737503D01*
X329365Y739066D01*
X328646Y740802D01*
X328395Y742062D01*
X336297Y742062D01*
X336297Y734160D01*
X335037Y734411D01*
G37*
%LPD*%
%LPC*%
G36*
X150887Y440406D02*
X150887Y440406D01*
X149151Y441125D01*
X147588Y442169D01*
X146259Y443498D01*
X145215Y445061D01*
X144496Y446797D01*
X144245Y448057D01*
X152147Y448057D01*
X152147Y440155D01*
X150887Y440406D01*
G37*
%LPD*%
%LPC*%
G36*
X98817Y133066D02*
X98817Y133066D01*
X97081Y133785D01*
X95518Y134829D01*
X94189Y136158D01*
X93145Y137721D01*
X92426Y139457D01*
X92175Y140717D01*
X100077Y140717D01*
X100077Y132815D01*
X98817Y133066D01*
G37*
%LPD*%
%LPC*%
G36*
X73417Y133066D02*
X73417Y133066D01*
X71681Y133785D01*
X70118Y134829D01*
X68789Y136158D01*
X67745Y137721D01*
X67026Y139457D01*
X66775Y140717D01*
X74677Y140717D01*
X74677Y132815D01*
X73417Y133066D01*
G37*
%LPD*%
%LPC*%
G36*
X48017Y133066D02*
X48017Y133066D01*
X46281Y133785D01*
X44718Y134829D01*
X43389Y136158D01*
X42345Y137721D01*
X41626Y139457D01*
X41375Y140717D01*
X49277Y140717D01*
X49277Y132815D01*
X48017Y133066D01*
G37*
%LPD*%
%LPC*%
G36*
X463307Y136876D02*
X463307Y136876D01*
X461571Y137595D01*
X460008Y138639D01*
X458679Y139968D01*
X457635Y141531D01*
X456916Y143267D01*
X456665Y144527D01*
X464567Y144527D01*
X464567Y136625D01*
X463307Y136876D01*
G37*
%LPD*%
%LPC*%
G36*
X22617Y133066D02*
X22617Y133066D01*
X20881Y133785D01*
X19318Y134829D01*
X17989Y136158D01*
X16945Y137721D01*
X16226Y139457D01*
X15975Y140717D01*
X23877Y140717D01*
X23877Y132815D01*
X22617Y133066D01*
G37*
%LPD*%
%LPC*%
G36*
X515377Y439136D02*
X515377Y439136D01*
X513641Y439855D01*
X512078Y440899D01*
X510749Y442228D01*
X509705Y443791D01*
X508986Y445527D01*
X508735Y446787D01*
X516637Y446787D01*
X516637Y438885D01*
X515377Y439136D01*
G37*
%LPD*%
%LPC*%
G36*
X125487Y440406D02*
X125487Y440406D01*
X123751Y441125D01*
X122188Y442169D01*
X120859Y443498D01*
X119815Y445061D01*
X119096Y446797D01*
X118845Y448057D01*
X126747Y448057D01*
X126747Y440155D01*
X125487Y440406D01*
G37*
%LPD*%
%LPC*%
G36*
X474737Y80996D02*
X474737Y80996D01*
X473001Y81715D01*
X471438Y82759D01*
X470109Y84088D01*
X469065Y85651D01*
X468346Y87387D01*
X468095Y88647D01*
X475997Y88647D01*
X475997Y80745D01*
X474737Y80996D01*
G37*
%LPD*%
%LPC*%
G36*
X437907Y136876D02*
X437907Y136876D01*
X436171Y137595D01*
X434608Y138639D01*
X433279Y139968D01*
X432235Y141531D01*
X431516Y143267D01*
X431265Y144527D01*
X439167Y144527D01*
X439167Y136625D01*
X437907Y136876D01*
G37*
%LPD*%
%LPC*%
G36*
X345032Y503271D02*
X345032Y503271D01*
X343296Y503990D01*
X341733Y505034D01*
X340404Y506363D01*
X339360Y507926D01*
X338641Y509662D01*
X338390Y510922D01*
X346292Y510922D01*
X346292Y503020D01*
X345032Y503271D01*
G37*
%LPD*%
%LPC*%
G36*
X176287Y440406D02*
X176287Y440406D01*
X174551Y441125D01*
X172988Y442169D01*
X171659Y443498D01*
X170615Y445061D01*
X169896Y446797D01*
X169645Y448057D01*
X177547Y448057D01*
X177547Y440155D01*
X176287Y440406D01*
G37*
%LPD*%
%LPC*%
G36*
X201687Y440406D02*
X201687Y440406D01*
X199951Y441125D01*
X198388Y442169D01*
X197059Y443498D01*
X196015Y445061D01*
X195296Y446797D01*
X195045Y448057D01*
X202947Y448057D01*
X202947Y440155D01*
X201687Y440406D01*
G37*
%LPD*%
%LPC*%
G36*
X49287Y440406D02*
X49287Y440406D01*
X47551Y441125D01*
X45988Y442169D01*
X44659Y443498D01*
X43615Y445061D01*
X42896Y446797D01*
X42645Y448057D01*
X50547Y448057D01*
X50547Y440155D01*
X49287Y440406D01*
G37*
%LPD*%
%LPC*%
G36*
X590307Y136876D02*
X590307Y136876D01*
X588571Y137595D01*
X587008Y138639D01*
X585679Y139968D01*
X584635Y141531D01*
X583916Y143267D01*
X583665Y144527D01*
X591567Y144527D01*
X591567Y136625D01*
X590307Y136876D01*
G37*
%LPD*%
%LPC*%
G36*
X539507Y136876D02*
X539507Y136876D01*
X537771Y137595D01*
X536208Y138639D01*
X534879Y139968D01*
X533835Y141531D01*
X533116Y143267D01*
X532865Y144527D01*
X540767Y144527D01*
X540767Y136625D01*
X539507Y136876D01*
G37*
%LPD*%
%LPC*%
G36*
X489977Y439136D02*
X489977Y439136D01*
X488241Y439855D01*
X486678Y440899D01*
X485349Y442228D01*
X484305Y443791D01*
X483586Y445527D01*
X483335Y446787D01*
X491237Y446787D01*
X491237Y438885D01*
X489977Y439136D01*
G37*
%LPD*%
%LPC*%
G36*
X514107Y136876D02*
X514107Y136876D01*
X512371Y137595D01*
X510808Y138639D01*
X509479Y139968D01*
X508435Y141531D01*
X507716Y143267D01*
X507465Y144527D01*
X515367Y144527D01*
X515367Y136625D01*
X514107Y136876D01*
G37*
%LPD*%
%LPC*%
G36*
X540777Y439136D02*
X540777Y439136D01*
X539041Y439855D01*
X537478Y440899D01*
X536149Y442228D01*
X535105Y443791D01*
X534386Y445527D01*
X534135Y446787D01*
X542037Y446787D01*
X542037Y438885D01*
X540777Y439136D01*
G37*
%LPD*%
%LPC*%
G36*
X488707Y136876D02*
X488707Y136876D01*
X486971Y137595D01*
X485408Y138639D01*
X484079Y139968D01*
X483035Y141531D01*
X482316Y143267D01*
X482065Y144527D01*
X489967Y144527D01*
X489967Y136625D01*
X488707Y136876D01*
G37*
%LPD*%
%LPC*%
G36*
X566177Y439136D02*
X566177Y439136D01*
X564441Y439855D01*
X562878Y440899D01*
X561549Y442228D01*
X560505Y443791D01*
X559786Y445527D01*
X559535Y446787D01*
X567437Y446787D01*
X567437Y438885D01*
X566177Y439136D01*
G37*
%LPD*%
%LPC*%
G36*
X615707Y136876D02*
X615707Y136876D01*
X613971Y137595D01*
X612408Y138639D01*
X611079Y139968D01*
X610035Y141531D01*
X609316Y143267D01*
X609065Y144527D01*
X616967Y144527D01*
X616967Y136625D01*
X615707Y136876D01*
G37*
%LPD*%
%LPC*%
G36*
X591577Y439136D02*
X591577Y439136D01*
X589841Y439855D01*
X588278Y440899D01*
X586949Y442228D01*
X585905Y443791D01*
X585186Y445527D01*
X584935Y446787D01*
X592837Y446787D01*
X592837Y438885D01*
X591577Y439136D01*
G37*
%LPD*%
%LPC*%
G36*
X439177Y439136D02*
X439177Y439136D01*
X437441Y439855D01*
X435878Y440899D01*
X434549Y442228D01*
X433505Y443791D01*
X432786Y445527D01*
X432535Y446787D01*
X440437Y446787D01*
X440437Y438885D01*
X439177Y439136D01*
G37*
%LPD*%
%LPC*%
G36*
X616977Y439136D02*
X616977Y439136D01*
X615241Y439855D01*
X613678Y440899D01*
X612349Y442228D01*
X611305Y443791D01*
X610586Y445527D01*
X610335Y446787D01*
X618237Y446787D01*
X618237Y438885D01*
X616977Y439136D01*
G37*
%LPD*%
%LPC*%
G36*
X74687Y440406D02*
X74687Y440406D01*
X72951Y441125D01*
X71388Y442169D01*
X70059Y443498D01*
X69015Y445061D01*
X68296Y446797D01*
X68045Y448057D01*
X75947Y448057D01*
X75947Y440155D01*
X74687Y440406D01*
G37*
%LPD*%
%LPC*%
G36*
X295197Y638526D02*
X295197Y638526D01*
X293461Y639245D01*
X291898Y640289D01*
X290569Y641618D01*
X289525Y643181D01*
X288806Y644917D01*
X288555Y646177D01*
X296457Y646177D01*
X296457Y638275D01*
X295197Y638526D01*
G37*
%LPD*%
%LPC*%
G36*
X464577Y439136D02*
X464577Y439136D01*
X462841Y439855D01*
X461278Y440899D01*
X459949Y442228D01*
X458905Y443791D01*
X458186Y445527D01*
X457935Y446787D01*
X465837Y446787D01*
X465837Y438885D01*
X464577Y439136D01*
G37*
%LPD*%
%LPC*%
G36*
X23887Y440406D02*
X23887Y440406D01*
X22151Y441125D01*
X20588Y442169D01*
X19259Y443498D01*
X18215Y445061D01*
X17496Y446797D01*
X17245Y448057D01*
X25147Y448057D01*
X25147Y440155D01*
X23887Y440406D01*
G37*
%LPD*%
%LPC*%
G36*
X200417Y133066D02*
X200417Y133066D01*
X198681Y133785D01*
X197118Y134829D01*
X195789Y136158D01*
X194745Y137721D01*
X194026Y139457D01*
X193775Y140717D01*
X201677Y140717D01*
X201677Y132815D01*
X200417Y133066D01*
G37*
%LPD*%
%LPC*%
G36*
X100087Y440406D02*
X100087Y440406D01*
X98351Y441125D01*
X96788Y442169D01*
X95459Y443498D01*
X94415Y445061D01*
X93696Y446797D01*
X93445Y448057D01*
X101347Y448057D01*
X101347Y440155D01*
X100087Y440406D01*
G37*
%LPD*%
%LPC*%
G36*
X418403Y743203D02*
X418403Y743203D01*
X418403Y748964D01*
X419050Y748835D01*
X420405Y748274D01*
X421623Y747460D01*
X422660Y746423D01*
X423474Y745205D01*
X424035Y743850D01*
X424164Y743203D01*
X418403Y743203D01*
G37*
%LPD*%
%LPC*%
G36*
X222823Y741933D02*
X222823Y741933D01*
X222823Y747694D01*
X223470Y747565D01*
X224825Y747004D01*
X226043Y746190D01*
X227080Y745153D01*
X227894Y743935D01*
X228455Y742580D01*
X228584Y741933D01*
X222823Y741933D01*
G37*
%LPD*%
%LPC*%
G36*
X222823Y738887D02*
X222823Y738887D01*
X228584Y738887D01*
X228455Y738240D01*
X227894Y736885D01*
X227865Y736843D01*
X227080Y735667D01*
X226043Y734630D01*
X224825Y733816D01*
X223470Y733255D01*
X222823Y733126D01*
X222823Y738887D01*
G37*
%LPD*%
%LPC*%
G36*
X409596Y743203D02*
X409596Y743203D01*
X409725Y743850D01*
X410286Y745205D01*
X411100Y746423D01*
X412137Y747460D01*
X413355Y748274D01*
X414710Y748835D01*
X415357Y748964D01*
X415357Y743203D01*
X409596Y743203D01*
G37*
%LPD*%
%LPC*%
G36*
X214016Y741933D02*
X214016Y741933D01*
X214145Y742580D01*
X214706Y743935D01*
X215520Y745153D01*
X216557Y746190D01*
X217775Y747004D01*
X219130Y747565D01*
X219777Y747694D01*
X219777Y741933D01*
X214016Y741933D01*
G37*
%LPD*%
%LPC*%
G36*
X418403Y740157D02*
X418403Y740157D01*
X424164Y740157D01*
X424035Y739510D01*
X423474Y738155D01*
X422660Y736937D01*
X421623Y735900D01*
X420405Y735086D01*
X419050Y734525D01*
X418403Y734396D01*
X418403Y740157D01*
G37*
%LPD*%
%LPC*%
G36*
X414710Y734525D02*
X414710Y734525D01*
X413355Y735086D01*
X412137Y735900D01*
X411100Y736937D01*
X410286Y738155D01*
X409725Y739510D01*
X409596Y740157D01*
X415357Y740157D01*
X415357Y734396D01*
X414710Y734525D01*
G37*
%LPD*%
%LPC*%
G36*
X219130Y733255D02*
X219130Y733255D01*
X217775Y733816D01*
X216557Y734630D01*
X215520Y735667D01*
X214706Y736885D01*
X214145Y738240D01*
X214016Y738887D01*
X219777Y738887D01*
X219777Y733126D01*
X219130Y733255D01*
G37*
%LPD*%
%LPC*%
G36*
X416879Y741679D02*
X416879Y741679D01*
X416879Y741681D01*
X416881Y741681D01*
X416881Y741679D01*
X416879Y741679D01*
G37*
%LPD*%
%LPC*%
G36*
X221299Y740409D02*
X221299Y740409D01*
X221299Y740411D01*
X221301Y740411D01*
X221301Y740409D01*
X221299Y740409D01*
G37*
%LPD*%
%LPC*%
G36*
X236219Y687069D02*
X236219Y687069D01*
X236219Y687071D01*
X236221Y687071D01*
X236221Y687069D01*
X236219Y687069D01*
G37*
%LPD*%
%LPC*%
G36*
X618489Y685799D02*
X618489Y685799D01*
X618489Y685801D01*
X618491Y685801D01*
X618491Y685799D01*
X618489Y685799D01*
G37*
%LPD*%
%LPC*%
G36*
X297979Y647699D02*
X297979Y647699D01*
X297979Y647701D01*
X297981Y647701D01*
X297981Y647699D01*
X297979Y647699D01*
G37*
%LPD*%
%LPC*%
G36*
X347814Y512444D02*
X347814Y512444D01*
X347814Y512446D01*
X347816Y512446D01*
X347816Y512444D01*
X347814Y512444D01*
G37*
%LPD*%
%LPC*%
G36*
X619759Y448309D02*
X619759Y448309D01*
X619759Y448311D01*
X619761Y448311D01*
X619761Y448309D01*
X619759Y448309D01*
G37*
%LPD*%
%LPC*%
G36*
X593089Y146049D02*
X593089Y146049D01*
X593089Y146051D01*
X593091Y146051D01*
X593091Y146049D01*
X593089Y146049D01*
G37*
%LPD*%
%LPC*%
G36*
X203199Y142239D02*
X203199Y142239D01*
X203199Y142241D01*
X203201Y142241D01*
X203201Y142239D01*
X203199Y142239D01*
G37*
%LPD*%
%LPC*%
G36*
X177799Y142239D02*
X177799Y142239D01*
X177799Y142241D01*
X177801Y142241D01*
X177801Y142239D01*
X177799Y142239D01*
G37*
%LPD*%
%LPC*%
G36*
X152399Y142239D02*
X152399Y142239D01*
X152399Y142241D01*
X152401Y142241D01*
X152401Y142239D01*
X152399Y142239D01*
G37*
%LPD*%
%LPC*%
G36*
X126999Y142239D02*
X126999Y142239D01*
X126999Y142241D01*
X127001Y142241D01*
X127001Y142239D01*
X126999Y142239D01*
G37*
%LPD*%
%LPC*%
G36*
X101599Y142239D02*
X101599Y142239D01*
X101599Y142241D01*
X101601Y142241D01*
X101601Y142239D01*
X101599Y142239D01*
G37*
%LPD*%
%LPC*%
G36*
X76199Y142239D02*
X76199Y142239D01*
X76199Y142241D01*
X76201Y142241D01*
X76201Y142239D01*
X76199Y142239D01*
G37*
%LPD*%
%LPC*%
G36*
X50799Y142239D02*
X50799Y142239D01*
X50799Y142241D01*
X50801Y142241D01*
X50801Y142239D01*
X50799Y142239D01*
G37*
%LPD*%
%LPC*%
G36*
X567689Y146049D02*
X567689Y146049D01*
X567689Y146051D01*
X567691Y146051D01*
X567691Y146049D01*
X567689Y146049D01*
G37*
%LPD*%
%LPC*%
G36*
X542289Y146049D02*
X542289Y146049D01*
X542289Y146051D01*
X542291Y146051D01*
X542291Y146049D01*
X542289Y146049D01*
G37*
%LPD*%
%LPC*%
G36*
X618489Y146049D02*
X618489Y146049D01*
X618489Y146051D01*
X618491Y146051D01*
X618491Y146049D01*
X618489Y146049D01*
G37*
%LPD*%
%LPC*%
G36*
X491489Y146049D02*
X491489Y146049D01*
X491489Y146051D01*
X491491Y146051D01*
X491491Y146049D01*
X491489Y146049D01*
G37*
%LPD*%
%LPC*%
G36*
X466089Y146049D02*
X466089Y146049D01*
X466089Y146051D01*
X466091Y146051D01*
X466091Y146049D01*
X466089Y146049D01*
G37*
%LPD*%
%LPC*%
G36*
X440689Y146049D02*
X440689Y146049D01*
X440689Y146051D01*
X440691Y146051D01*
X440691Y146049D01*
X440689Y146049D01*
G37*
%LPD*%
%LPC*%
G36*
X204469Y449579D02*
X204469Y449579D01*
X204469Y449581D01*
X204471Y449581D01*
X204471Y449579D01*
X204469Y449579D01*
G37*
%LPD*%
%LPC*%
G36*
X26669Y449579D02*
X26669Y449579D01*
X26669Y449581D01*
X26671Y449581D01*
X26671Y449579D01*
X26669Y449579D01*
G37*
%LPD*%
%LPC*%
G36*
X543559Y448309D02*
X543559Y448309D01*
X543559Y448311D01*
X543561Y448311D01*
X543561Y448309D01*
X543559Y448309D01*
G37*
%LPD*%
%LPC*%
G36*
X568959Y448309D02*
X568959Y448309D01*
X568959Y448311D01*
X568961Y448311D01*
X568961Y448309D01*
X568959Y448309D01*
G37*
%LPD*%
%LPC*%
G36*
X25399Y142239D02*
X25399Y142239D01*
X25399Y142241D01*
X25401Y142241D01*
X25401Y142239D01*
X25399Y142239D01*
G37*
%LPD*%
%LPC*%
G36*
X594359Y448309D02*
X594359Y448309D01*
X594359Y448311D01*
X594361Y448311D01*
X594361Y448309D01*
X594359Y448309D01*
G37*
%LPD*%
%LPC*%
G36*
X441959Y448309D02*
X441959Y448309D01*
X441959Y448311D01*
X441961Y448311D01*
X441961Y448309D01*
X441959Y448309D01*
G37*
%LPD*%
%LPC*%
G36*
X518159Y448309D02*
X518159Y448309D01*
X518159Y448311D01*
X518161Y448311D01*
X518161Y448309D01*
X518159Y448309D01*
G37*
%LPD*%
%LPC*%
G36*
X77469Y449579D02*
X77469Y449579D01*
X77469Y449581D01*
X77471Y449581D01*
X77471Y449579D01*
X77469Y449579D01*
G37*
%LPD*%
%LPC*%
G36*
X337819Y743584D02*
X337819Y743584D01*
X337819Y743586D01*
X337821Y743586D01*
X337821Y743584D01*
X337819Y743584D01*
G37*
%LPD*%
%LPC*%
G36*
X102869Y449579D02*
X102869Y449579D01*
X102869Y449581D01*
X102871Y449581D01*
X102871Y449579D01*
X102869Y449579D01*
G37*
%LPD*%
%LPC*%
G36*
X52069Y449579D02*
X52069Y449579D01*
X52069Y449581D01*
X52071Y449581D01*
X52071Y449579D01*
X52069Y449579D01*
G37*
%LPD*%
%LPC*%
G36*
X477519Y90169D02*
X477519Y90169D01*
X477519Y90171D01*
X477521Y90171D01*
X477521Y90169D01*
X477519Y90169D01*
G37*
%LPD*%
%LPC*%
G36*
X516889Y146049D02*
X516889Y146049D01*
X516889Y146051D01*
X516891Y146051D01*
X516891Y146049D01*
X516889Y146049D01*
G37*
%LPD*%
%LPC*%
G36*
X197484Y45719D02*
X197484Y45719D01*
X197484Y45721D01*
X197486Y45721D01*
X197486Y45719D01*
X197484Y45719D01*
G37*
%LPD*%
%LPC*%
G36*
X492759Y448309D02*
X492759Y448309D01*
X492759Y448311D01*
X492761Y448311D01*
X492761Y448309D01*
X492759Y448309D01*
G37*
%LPD*%
%LPC*%
G36*
X467359Y448309D02*
X467359Y448309D01*
X467359Y448311D01*
X467361Y448311D01*
X467361Y448309D01*
X467359Y448309D01*
G37*
%LPD*%
%LPC*%
G36*
X128269Y449579D02*
X128269Y449579D01*
X128269Y449581D01*
X128271Y449581D01*
X128271Y449579D01*
X128269Y449579D01*
G37*
%LPD*%
%LPC*%
G36*
X153669Y449579D02*
X153669Y449579D01*
X153669Y449581D01*
X153671Y449581D01*
X153671Y449579D01*
X153669Y449579D01*
G37*
%LPD*%
%LPC*%
G36*
X179069Y449579D02*
X179069Y449579D01*
X179069Y449581D01*
X179071Y449581D01*
X179071Y449579D01*
X179069Y449579D01*
G37*
%LPD*%
D10*
X241300Y740410D03*
X221300Y740410D03*
X436880Y741680D03*
X416880Y741680D03*
D11*
X297815Y512445D03*
X347815Y512445D03*
X347980Y647700D03*
X297980Y647700D03*
D12*
X37084Y687070D03*
X236220Y687070D03*
X419354Y685800D03*
X618490Y685800D03*
D11*
X477520Y90170D03*
X502920Y90170D03*
X528320Y90170D03*
X553720Y90170D03*
X579120Y90170D03*
X604520Y90170D03*
X312420Y743585D03*
X337820Y743585D03*
X128270Y624840D03*
X128270Y510440D03*
X516890Y623570D03*
X516890Y509170D03*
X203200Y193040D03*
X203200Y167640D03*
X203200Y142240D03*
X177800Y193040D03*
X152400Y193040D03*
X127000Y193040D03*
X101600Y193040D03*
X76200Y193040D03*
X50800Y193040D03*
X25400Y193040D03*
X177800Y167640D03*
X152400Y167640D03*
X127000Y167640D03*
X101600Y167640D03*
X76200Y167640D03*
X50800Y167640D03*
X25400Y167640D03*
X177800Y142240D03*
X152400Y142240D03*
X127000Y142240D03*
X101600Y142240D03*
X76200Y142240D03*
X50800Y142240D03*
X25400Y142240D03*
X26670Y398780D03*
X26670Y424180D03*
X26670Y449580D03*
X52070Y398780D03*
X77470Y398780D03*
X102870Y398780D03*
X128270Y398780D03*
X153670Y398780D03*
X179070Y398780D03*
X204470Y398780D03*
X52070Y424180D03*
X77470Y424180D03*
X102870Y424180D03*
X128270Y424180D03*
X153670Y424180D03*
X179070Y424180D03*
X204470Y424180D03*
X52070Y449580D03*
X77470Y449580D03*
X102870Y449580D03*
X128270Y449580D03*
X153670Y449580D03*
X179070Y449580D03*
X204470Y449580D03*
X441960Y397510D03*
X441960Y422910D03*
X441960Y448310D03*
X467360Y397510D03*
X492760Y397510D03*
X518160Y397510D03*
X543560Y397510D03*
X568960Y397510D03*
X594360Y397510D03*
X619760Y397510D03*
X467360Y422910D03*
X492760Y422910D03*
X518160Y422910D03*
X543560Y422910D03*
X568960Y422910D03*
X594360Y422910D03*
X619760Y422910D03*
X467360Y448310D03*
X492760Y448310D03*
X518160Y448310D03*
X543560Y448310D03*
X568960Y448310D03*
X594360Y448310D03*
X619760Y448310D03*
X618490Y196850D03*
X618490Y171450D03*
X618490Y146050D03*
X593090Y196850D03*
X567690Y196850D03*
X542290Y196850D03*
X516890Y196850D03*
X491490Y196850D03*
X466090Y196850D03*
X440690Y196850D03*
X593090Y171450D03*
X567690Y171450D03*
X542290Y171450D03*
X516890Y171450D03*
X491490Y171450D03*
X466090Y171450D03*
X440690Y171450D03*
X593090Y146050D03*
X567690Y146050D03*
X542290Y146050D03*
X516890Y146050D03*
X491490Y146050D03*
X466090Y146050D03*
X440690Y146050D03*
D13*
X102870Y740410D03*
X119870Y740410D03*
X136870Y740410D03*
X153870Y740410D03*
X170870Y740410D03*
X483870Y741680D03*
X500870Y741680D03*
X517870Y741680D03*
X534870Y741680D03*
X551870Y741680D03*
D11*
X19685Y45720D03*
X45085Y45720D03*
X70485Y45720D03*
X95885Y45720D03*
X121285Y45720D03*
X146685Y45720D03*
X172085Y45720D03*
X197485Y45720D03*
X197485Y71120D03*
X172085Y71120D03*
X146685Y71120D03*
X121285Y71120D03*
X95885Y71120D03*
X70485Y71120D03*
X45085Y71120D03*
X19685Y71120D03*
D14*
X394335Y422275D03*
X231775Y387985D03*
X274955Y370205D03*
X588010Y246380D03*
X596900Y355600D03*
X60960Y340360D03*
X52070Y236220D03*
X381000Y273685D03*
X345440Y249555D03*
X309880Y225425D03*
X340360Y306705D03*
X427990Y27940D03*
X240665Y284480D03*
X192405Y283845D03*
X266065Y19685D03*
X298450Y72390D03*
X298450Y90170D03*
X298450Y107950D03*
X332740Y57150D03*
X331470Y124460D03*
X365760Y109220D03*
X367030Y90170D03*
X367030Y71120D03*
X386080Y15240D03*
X333375Y422275D03*
X302895Y382905D03*
X297815Y352425D03*
X78740Y283210D03*
X149860Y250190D03*
X495300Y340360D03*
X358140Y288925D03*
X358140Y262255D03*
X340360Y323215D03*
X288290Y273685D03*
X318770Y304165D03*
X464820Y21590D03*
X441960Y71120D03*
X92710Y309880D03*
X561975Y283845D03*
X380365Y210820D03*
X568960Y309880D03*
X261620Y66040D03*
X546100Y50800D03*
X261620Y52070D03*
X571500Y50800D03*
X385445Y118110D03*
X468630Y60325D03*
X279400Y285115D03*
X455930Y286385D03*
X288290Y80645D03*
X299720Y303530D03*
X455930Y298450D03*
X226060Y294005D03*
X269875Y153670D03*
X314960Y56515D03*
X294640Y208280D03*
X106045Y309880D03*
D15*
X142240Y309880D01*
X243840Y208280D02*
X294640Y208280D01*
X243840Y208280D02*
X142240Y309880D01*
D14*
X387985Y130175D03*
X558800Y234950D03*
X309245Y238125D03*
X372110Y144780D03*
X305435Y249555D03*
X355600Y156845D03*
X410210Y202565D03*
D15*
X408305Y202565D01*
X386080Y224790D01*
X361950Y224790D01*
X116840Y90170D02*
X107950Y81280D01*
X107950Y53340D01*
X100330Y45720D01*
X95885Y45720D01*
X227330Y90170D02*
X361950Y224790D01*
X227330Y90170D02*
X116840Y90170D01*
D14*
X367030Y210185D03*
D15*
X234950Y78105D02*
X234950Y55245D01*
X203835Y24130D01*
X142875Y24130D02*
X121285Y45720D01*
X142875Y24130D02*
X203835Y24130D01*
X367030Y156210D02*
X367030Y210185D01*
X290195Y133350D02*
X234950Y78105D01*
X344170Y133350D02*
X367030Y156210D01*
X344170Y133350D02*
X290195Y133350D01*
D14*
X334645Y164465D03*
D15*
X308610Y138430D01*
X284480Y138430D01*
X230505Y84455D02*
X166370Y84455D01*
X161290Y79375D01*
X161290Y60325D02*
X146685Y45720D01*
X230505Y84455D02*
X284480Y138430D01*
X161290Y79375D02*
X161290Y60325D01*
D14*
X211455Y58420D03*
X278130Y171450D03*
X255905Y154940D03*
X255905Y142240D03*
X217805Y113030D03*
X283845Y22860D03*
X295275Y30480D03*
X295910Y14605D03*
M02*
