G04 EAGLE Gerber RS-274X export*
G75*
%MOMM*%
%FSLAX34Y34*%
%LPD*%
%IN*%
%IPPOS*%
%AMOC8*
5,1,8,0,0,1.08239X$1,22.5*%
G01*
%ADD10C,0.254000*%


D10*
X0Y0D02*
X646230Y1270D01*
X646230Y798070D01*
X0Y796800D01*
X0Y0D01*
X627100Y37527D02*
X627025Y36384D01*
X626876Y35248D01*
X626652Y34124D01*
X626355Y33017D01*
X625987Y31932D01*
X625549Y30874D01*
X625042Y29846D01*
X624469Y28854D01*
X623832Y27901D01*
X623135Y26992D01*
X622379Y26131D01*
X621569Y25321D01*
X620708Y24565D01*
X619799Y23868D01*
X618846Y23231D01*
X617854Y22658D01*
X616826Y22151D01*
X615768Y21713D01*
X614683Y21345D01*
X613576Y21048D01*
X612452Y20825D01*
X611316Y20675D01*
X610173Y20600D01*
X609027Y20600D01*
X607884Y20675D01*
X606748Y20825D01*
X605624Y21048D01*
X604517Y21345D01*
X603432Y21713D01*
X602374Y22151D01*
X601346Y22658D01*
X600354Y23231D01*
X599401Y23868D01*
X598492Y24565D01*
X597631Y25321D01*
X596821Y26131D01*
X596065Y26992D01*
X595368Y27901D01*
X594731Y28854D01*
X594158Y29846D01*
X593651Y30874D01*
X593213Y31932D01*
X592845Y33017D01*
X592548Y34124D01*
X592325Y35248D01*
X592175Y36384D01*
X592100Y37527D01*
X592100Y38673D01*
X592175Y39816D01*
X592325Y40952D01*
X592548Y42076D01*
X592845Y43183D01*
X593213Y44268D01*
X593651Y45326D01*
X594158Y46354D01*
X594731Y47346D01*
X595368Y48299D01*
X596065Y49208D01*
X596821Y50069D01*
X597631Y50879D01*
X598492Y51635D01*
X599401Y52332D01*
X600354Y52969D01*
X601346Y53542D01*
X602374Y54049D01*
X603432Y54487D01*
X604517Y54855D01*
X605624Y55152D01*
X606748Y55376D01*
X607884Y55525D01*
X609027Y55600D01*
X610173Y55600D01*
X611316Y55525D01*
X612452Y55376D01*
X613576Y55152D01*
X614683Y54855D01*
X615768Y54487D01*
X616826Y54049D01*
X617854Y53542D01*
X618846Y52969D01*
X619799Y52332D01*
X620708Y51635D01*
X621569Y50879D01*
X622379Y50069D01*
X623135Y49208D01*
X623832Y48299D01*
X624469Y47346D01*
X625042Y46354D01*
X625549Y45326D01*
X625987Y44268D01*
X626355Y43183D01*
X626652Y42076D01*
X626876Y40952D01*
X627025Y39816D01*
X627100Y38673D01*
X627100Y37527D01*
X627100Y761427D02*
X627025Y760284D01*
X626876Y759148D01*
X626652Y758024D01*
X626355Y756917D01*
X625987Y755832D01*
X625549Y754774D01*
X625042Y753746D01*
X624469Y752754D01*
X623832Y751801D01*
X623135Y750892D01*
X622379Y750031D01*
X621569Y749221D01*
X620708Y748465D01*
X619799Y747768D01*
X618846Y747131D01*
X617854Y746558D01*
X616826Y746051D01*
X615768Y745613D01*
X614683Y745245D01*
X613576Y744948D01*
X612452Y744725D01*
X611316Y744575D01*
X610173Y744500D01*
X609027Y744500D01*
X607884Y744575D01*
X606748Y744725D01*
X605624Y744948D01*
X604517Y745245D01*
X603432Y745613D01*
X602374Y746051D01*
X601346Y746558D01*
X600354Y747131D01*
X599401Y747768D01*
X598492Y748465D01*
X597631Y749221D01*
X596821Y750031D01*
X596065Y750892D01*
X595368Y751801D01*
X594731Y752754D01*
X594158Y753746D01*
X593651Y754774D01*
X593213Y755832D01*
X592845Y756917D01*
X592548Y758024D01*
X592325Y759148D01*
X592175Y760284D01*
X592100Y761427D01*
X592100Y762573D01*
X592175Y763716D01*
X592325Y764852D01*
X592548Y765976D01*
X592845Y767083D01*
X593213Y768168D01*
X593651Y769226D01*
X594158Y770254D01*
X594731Y771246D01*
X595368Y772199D01*
X596065Y773108D01*
X596821Y773969D01*
X597631Y774779D01*
X598492Y775535D01*
X599401Y776232D01*
X600354Y776869D01*
X601346Y777442D01*
X602374Y777949D01*
X603432Y778387D01*
X604517Y778755D01*
X605624Y779052D01*
X606748Y779276D01*
X607884Y779425D01*
X609027Y779500D01*
X610173Y779500D01*
X611316Y779425D01*
X612452Y779276D01*
X613576Y779052D01*
X614683Y778755D01*
X615768Y778387D01*
X616826Y777949D01*
X617854Y777442D01*
X618846Y776869D01*
X619799Y776232D01*
X620708Y775535D01*
X621569Y774779D01*
X622379Y773969D01*
X623135Y773108D01*
X623832Y772199D01*
X624469Y771246D01*
X625042Y770254D01*
X625549Y769226D01*
X625987Y768168D01*
X626355Y767083D01*
X626652Y765976D01*
X626876Y764852D01*
X627025Y763716D01*
X627100Y762573D01*
X627100Y761427D01*
X55600Y761427D02*
X55525Y760284D01*
X55376Y759148D01*
X55152Y758024D01*
X54855Y756917D01*
X54487Y755832D01*
X54049Y754774D01*
X53542Y753746D01*
X52969Y752754D01*
X52332Y751801D01*
X51635Y750892D01*
X50879Y750031D01*
X50069Y749221D01*
X49208Y748465D01*
X48299Y747768D01*
X47346Y747131D01*
X46354Y746558D01*
X45326Y746051D01*
X44268Y745613D01*
X43183Y745245D01*
X42076Y744948D01*
X40952Y744725D01*
X39816Y744575D01*
X38673Y744500D01*
X37527Y744500D01*
X36384Y744575D01*
X35248Y744725D01*
X34124Y744948D01*
X33017Y745245D01*
X31932Y745613D01*
X30874Y746051D01*
X29846Y746558D01*
X28854Y747131D01*
X27901Y747768D01*
X26992Y748465D01*
X26131Y749221D01*
X25321Y750031D01*
X24565Y750892D01*
X23868Y751801D01*
X23231Y752754D01*
X22658Y753746D01*
X22151Y754774D01*
X21713Y755832D01*
X21345Y756917D01*
X21048Y758024D01*
X20825Y759148D01*
X20675Y760284D01*
X20600Y761427D01*
X20600Y762573D01*
X20675Y763716D01*
X20825Y764852D01*
X21048Y765976D01*
X21345Y767083D01*
X21713Y768168D01*
X22151Y769226D01*
X22658Y770254D01*
X23231Y771246D01*
X23868Y772199D01*
X24565Y773108D01*
X25321Y773969D01*
X26131Y774779D01*
X26992Y775535D01*
X27901Y776232D01*
X28854Y776869D01*
X29846Y777442D01*
X30874Y777949D01*
X31932Y778387D01*
X33017Y778755D01*
X34124Y779052D01*
X35248Y779276D01*
X36384Y779425D01*
X37527Y779500D01*
X38673Y779500D01*
X39816Y779425D01*
X40952Y779276D01*
X42076Y779052D01*
X43183Y778755D01*
X44268Y778387D01*
X45326Y777949D01*
X46354Y777442D01*
X47346Y776869D01*
X48299Y776232D01*
X49208Y775535D01*
X50069Y774779D01*
X50879Y773969D01*
X51635Y773108D01*
X52332Y772199D01*
X52969Y771246D01*
X53542Y770254D01*
X54049Y769226D01*
X54487Y768168D01*
X54855Y767083D01*
X55152Y765976D01*
X55376Y764852D01*
X55525Y763716D01*
X55600Y762573D01*
X55600Y761427D01*
M02*
